%TF.GenerationSoftware,KiCad,Pcbnew,8.0.1*%
%TF.CreationDate,2025-03-10T11:27:29+01:00*%
%TF.ProjectId,main_board,6d61696e-5f62-46f6-9172-642e6b696361,rev?*%
%TF.SameCoordinates,Original*%
%TF.FileFunction,Legend,Bot*%
%TF.FilePolarity,Positive*%
%FSLAX46Y46*%
G04 Gerber Fmt 4.6, Leading zero omitted, Abs format (unit mm)*
G04 Created by KiCad (PCBNEW 8.0.1) date 2025-03-10 11:27:29*
%MOMM*%
%LPD*%
G01*
G04 APERTURE LIST*
%ADD10C,0.300000*%
%ADD11C,0.100000*%
%ADD12C,0.150000*%
%ADD13C,0.000000*%
%ADD14C,0.120000*%
%ADD15C,0.010000*%
G04 APERTURE END LIST*
D10*
X157821429Y-71355324D02*
X157321429Y-71355324D01*
X157107143Y-72141038D02*
X157821429Y-72141038D01*
X157821429Y-72141038D02*
X157821429Y-70641038D01*
X157821429Y-70641038D02*
X157107143Y-70641038D01*
X156607143Y-70641038D02*
X155607143Y-72141038D01*
X155607143Y-70641038D02*
X156607143Y-72141038D01*
X155392858Y-72283895D02*
X154250000Y-72283895D01*
X153607143Y-70641038D02*
X153321429Y-70641038D01*
X153321429Y-70641038D02*
X153178572Y-70712467D01*
X153178572Y-70712467D02*
X153035715Y-70855324D01*
X153035715Y-70855324D02*
X152964286Y-71141038D01*
X152964286Y-71141038D02*
X152964286Y-71641038D01*
X152964286Y-71641038D02*
X153035715Y-71926752D01*
X153035715Y-71926752D02*
X153178572Y-72069610D01*
X153178572Y-72069610D02*
X153321429Y-72141038D01*
X153321429Y-72141038D02*
X153607143Y-72141038D01*
X153607143Y-72141038D02*
X153750001Y-72069610D01*
X153750001Y-72069610D02*
X153892858Y-71926752D01*
X153892858Y-71926752D02*
X153964286Y-71641038D01*
X153964286Y-71641038D02*
X153964286Y-71141038D01*
X153964286Y-71141038D02*
X153892858Y-70855324D01*
X153892858Y-70855324D02*
X153750001Y-70712467D01*
X153750001Y-70712467D02*
X153607143Y-70641038D01*
X152321429Y-72141038D02*
X152321429Y-70641038D01*
X152321429Y-70641038D02*
X151464286Y-72141038D01*
X151464286Y-72141038D02*
X151464286Y-70641038D01*
X150750000Y-71355324D02*
X150250000Y-71355324D01*
X150035714Y-72141038D02*
X150750000Y-72141038D01*
X150750000Y-72141038D02*
X150750000Y-70641038D01*
X150750000Y-70641038D02*
X150035714Y-70641038D01*
X149750000Y-72283895D02*
X148607142Y-72283895D01*
X148250000Y-72141038D02*
X148250000Y-70641038D01*
X148250000Y-70641038D02*
X147750000Y-71712467D01*
X147750000Y-71712467D02*
X147250000Y-70641038D01*
X147250000Y-70641038D02*
X147250000Y-72141038D01*
X146607142Y-71712467D02*
X145892857Y-71712467D01*
X146749999Y-72141038D02*
X146249999Y-70641038D01*
X146249999Y-70641038D02*
X145749999Y-72141038D01*
X145250000Y-72141038D02*
X145250000Y-70641038D01*
X144535714Y-72141038D02*
X144535714Y-70641038D01*
X144535714Y-70641038D02*
X143678571Y-72141038D01*
X143678571Y-72141038D02*
X143678571Y-70641038D01*
X143321428Y-72283895D02*
X142178570Y-72283895D01*
X141321428Y-71355324D02*
X141107142Y-71426752D01*
X141107142Y-71426752D02*
X141035713Y-71498181D01*
X141035713Y-71498181D02*
X140964285Y-71641038D01*
X140964285Y-71641038D02*
X140964285Y-71855324D01*
X140964285Y-71855324D02*
X141035713Y-71998181D01*
X141035713Y-71998181D02*
X141107142Y-72069610D01*
X141107142Y-72069610D02*
X141249999Y-72141038D01*
X141249999Y-72141038D02*
X141821428Y-72141038D01*
X141821428Y-72141038D02*
X141821428Y-70641038D01*
X141821428Y-70641038D02*
X141321428Y-70641038D01*
X141321428Y-70641038D02*
X141178571Y-70712467D01*
X141178571Y-70712467D02*
X141107142Y-70783895D01*
X141107142Y-70783895D02*
X141035713Y-70926752D01*
X141035713Y-70926752D02*
X141035713Y-71069610D01*
X141035713Y-71069610D02*
X141107142Y-71212467D01*
X141107142Y-71212467D02*
X141178571Y-71283895D01*
X141178571Y-71283895D02*
X141321428Y-71355324D01*
X141321428Y-71355324D02*
X141821428Y-71355324D01*
X140035713Y-70641038D02*
X139749999Y-70641038D01*
X139749999Y-70641038D02*
X139607142Y-70712467D01*
X139607142Y-70712467D02*
X139464285Y-70855324D01*
X139464285Y-70855324D02*
X139392856Y-71141038D01*
X139392856Y-71141038D02*
X139392856Y-71641038D01*
X139392856Y-71641038D02*
X139464285Y-71926752D01*
X139464285Y-71926752D02*
X139607142Y-72069610D01*
X139607142Y-72069610D02*
X139749999Y-72141038D01*
X139749999Y-72141038D02*
X140035713Y-72141038D01*
X140035713Y-72141038D02*
X140178571Y-72069610D01*
X140178571Y-72069610D02*
X140321428Y-71926752D01*
X140321428Y-71926752D02*
X140392856Y-71641038D01*
X140392856Y-71641038D02*
X140392856Y-71141038D01*
X140392856Y-71141038D02*
X140321428Y-70855324D01*
X140321428Y-70855324D02*
X140178571Y-70712467D01*
X140178571Y-70712467D02*
X140035713Y-70641038D01*
X138821427Y-71712467D02*
X138107142Y-71712467D01*
X138964284Y-72141038D02*
X138464284Y-70641038D01*
X138464284Y-70641038D02*
X137964284Y-72141038D01*
X136607142Y-72141038D02*
X137107142Y-71426752D01*
X137464285Y-72141038D02*
X137464285Y-70641038D01*
X137464285Y-70641038D02*
X136892856Y-70641038D01*
X136892856Y-70641038D02*
X136749999Y-70712467D01*
X136749999Y-70712467D02*
X136678570Y-70783895D01*
X136678570Y-70783895D02*
X136607142Y-70926752D01*
X136607142Y-70926752D02*
X136607142Y-71141038D01*
X136607142Y-71141038D02*
X136678570Y-71283895D01*
X136678570Y-71283895D02*
X136749999Y-71355324D01*
X136749999Y-71355324D02*
X136892856Y-71426752D01*
X136892856Y-71426752D02*
X137464285Y-71426752D01*
X135964285Y-72141038D02*
X135964285Y-70641038D01*
X135964285Y-70641038D02*
X135607142Y-70641038D01*
X135607142Y-70641038D02*
X135392856Y-70712467D01*
X135392856Y-70712467D02*
X135249999Y-70855324D01*
X135249999Y-70855324D02*
X135178570Y-70998181D01*
X135178570Y-70998181D02*
X135107142Y-71283895D01*
X135107142Y-71283895D02*
X135107142Y-71498181D01*
X135107142Y-71498181D02*
X135178570Y-71783895D01*
X135178570Y-71783895D02*
X135249999Y-71926752D01*
X135249999Y-71926752D02*
X135392856Y-72069610D01*
X135392856Y-72069610D02*
X135607142Y-72141038D01*
X135607142Y-72141038D02*
X135964285Y-72141038D01*
X149285713Y-74555954D02*
X149785713Y-73841668D01*
X150142856Y-74555954D02*
X150142856Y-73055954D01*
X150142856Y-73055954D02*
X149571427Y-73055954D01*
X149571427Y-73055954D02*
X149428570Y-73127383D01*
X149428570Y-73127383D02*
X149357141Y-73198811D01*
X149357141Y-73198811D02*
X149285713Y-73341668D01*
X149285713Y-73341668D02*
X149285713Y-73555954D01*
X149285713Y-73555954D02*
X149357141Y-73698811D01*
X149357141Y-73698811D02*
X149428570Y-73770240D01*
X149428570Y-73770240D02*
X149571427Y-73841668D01*
X149571427Y-73841668D02*
X150142856Y-73841668D01*
X148642856Y-73770240D02*
X148142856Y-73770240D01*
X147928570Y-74555954D02*
X148642856Y-74555954D01*
X148642856Y-74555954D02*
X148642856Y-73055954D01*
X148642856Y-73055954D02*
X147928570Y-73055954D01*
X147499998Y-73055954D02*
X146999998Y-74555954D01*
X146999998Y-74555954D02*
X146499998Y-73055954D01*
X146357142Y-74698811D02*
X145214284Y-74698811D01*
X145071427Y-73055954D02*
X144571427Y-74555954D01*
X144571427Y-74555954D02*
X144071427Y-73055954D01*
X142785713Y-74555954D02*
X143642856Y-74555954D01*
X143214285Y-74555954D02*
X143214285Y-73055954D01*
X143214285Y-73055954D02*
X143357142Y-73270240D01*
X143357142Y-73270240D02*
X143499999Y-73413097D01*
X143499999Y-73413097D02*
X143642856Y-73484526D01*
X155500001Y-79385786D02*
X155500001Y-77885786D01*
X154642858Y-79385786D02*
X155285715Y-78528643D01*
X154642858Y-77885786D02*
X155500001Y-78742929D01*
X154071429Y-78957215D02*
X153357144Y-78957215D01*
X154214286Y-79385786D02*
X153714286Y-77885786D01*
X153714286Y-77885786D02*
X153214286Y-79385786D01*
X152714287Y-79385786D02*
X152714287Y-77885786D01*
X152714287Y-77885786D02*
X152214287Y-78957215D01*
X152214287Y-78957215D02*
X151714287Y-77885786D01*
X151714287Y-77885786D02*
X151714287Y-79385786D01*
X151000001Y-79385786D02*
X151000001Y-77885786D01*
X149571429Y-79385786D02*
X150285715Y-79385786D01*
X150285715Y-79385786D02*
X150285715Y-77885786D01*
X148071429Y-77885786D02*
X147714286Y-79385786D01*
X147714286Y-79385786D02*
X147428572Y-78314358D01*
X147428572Y-78314358D02*
X147142857Y-79385786D01*
X147142857Y-79385786D02*
X146785715Y-77885786D01*
X146214286Y-79385786D02*
X146214286Y-77885786D01*
X145500000Y-79385786D02*
X145500000Y-77885786D01*
X145500000Y-77885786D02*
X144642857Y-79385786D01*
X144642857Y-79385786D02*
X144642857Y-77885786D01*
X143928571Y-79385786D02*
X143928571Y-77885786D01*
X143928571Y-77885786D02*
X143071428Y-79385786D01*
X143071428Y-79385786D02*
X143071428Y-77885786D01*
X142357142Y-79385786D02*
X142357142Y-77885786D01*
X140785713Y-79242929D02*
X140857141Y-79314358D01*
X140857141Y-79314358D02*
X141071427Y-79385786D01*
X141071427Y-79385786D02*
X141214284Y-79385786D01*
X141214284Y-79385786D02*
X141428570Y-79314358D01*
X141428570Y-79314358D02*
X141571427Y-79171500D01*
X141571427Y-79171500D02*
X141642856Y-79028643D01*
X141642856Y-79028643D02*
X141714284Y-78742929D01*
X141714284Y-78742929D02*
X141714284Y-78528643D01*
X141714284Y-78528643D02*
X141642856Y-78242929D01*
X141642856Y-78242929D02*
X141571427Y-78100072D01*
X141571427Y-78100072D02*
X141428570Y-77957215D01*
X141428570Y-77957215D02*
X141214284Y-77885786D01*
X141214284Y-77885786D02*
X141071427Y-77885786D01*
X141071427Y-77885786D02*
X140857141Y-77957215D01*
X140857141Y-77957215D02*
X140785713Y-78028643D01*
X140142856Y-79385786D02*
X140142856Y-77885786D01*
X139285713Y-79385786D02*
X139928570Y-78528643D01*
X139285713Y-77885786D02*
X140142856Y-78742929D01*
X138642856Y-79385786D02*
X138642856Y-77885786D01*
X152714286Y-81800702D02*
X152714286Y-80300702D01*
X151857143Y-81800702D02*
X152500000Y-80943559D01*
X151857143Y-80300702D02*
X152714286Y-81157845D01*
X151214286Y-81800702D02*
X151214286Y-80300702D01*
X151214286Y-80300702D02*
X150357143Y-81800702D01*
X150357143Y-81800702D02*
X150357143Y-80300702D01*
X148785714Y-81800702D02*
X149285714Y-81086416D01*
X149642857Y-81800702D02*
X149642857Y-80300702D01*
X149642857Y-80300702D02*
X149071428Y-80300702D01*
X149071428Y-80300702D02*
X148928571Y-80372131D01*
X148928571Y-80372131D02*
X148857142Y-80443559D01*
X148857142Y-80443559D02*
X148785714Y-80586416D01*
X148785714Y-80586416D02*
X148785714Y-80800702D01*
X148785714Y-80800702D02*
X148857142Y-80943559D01*
X148857142Y-80943559D02*
X148928571Y-81014988D01*
X148928571Y-81014988D02*
X149071428Y-81086416D01*
X149071428Y-81086416D02*
X149642857Y-81086416D01*
X147000000Y-81800702D02*
X147000000Y-80300702D01*
X146142857Y-81800702D02*
X146785714Y-80943559D01*
X146142857Y-80300702D02*
X147000000Y-81157845D01*
X145214285Y-80300702D02*
X144928571Y-80300702D01*
X144928571Y-80300702D02*
X144785714Y-80372131D01*
X144785714Y-80372131D02*
X144642857Y-80514988D01*
X144642857Y-80514988D02*
X144571428Y-80800702D01*
X144571428Y-80800702D02*
X144571428Y-81300702D01*
X144571428Y-81300702D02*
X144642857Y-81586416D01*
X144642857Y-81586416D02*
X144785714Y-81729274D01*
X144785714Y-81729274D02*
X144928571Y-81800702D01*
X144928571Y-81800702D02*
X145214285Y-81800702D01*
X145214285Y-81800702D02*
X145357143Y-81729274D01*
X145357143Y-81729274D02*
X145500000Y-81586416D01*
X145500000Y-81586416D02*
X145571428Y-81300702D01*
X145571428Y-81300702D02*
X145571428Y-80800702D01*
X145571428Y-80800702D02*
X145500000Y-80514988D01*
X145500000Y-80514988D02*
X145357143Y-80372131D01*
X145357143Y-80372131D02*
X145214285Y-80300702D01*
X143928571Y-81800702D02*
X143928571Y-80300702D01*
X143928571Y-80300702D02*
X143071428Y-81800702D01*
X143071428Y-81800702D02*
X143071428Y-80300702D01*
X142428570Y-81372131D02*
X141714285Y-81372131D01*
X142571427Y-81800702D02*
X142071427Y-80300702D01*
X142071427Y-80300702D02*
X141571427Y-81800702D01*
X140214285Y-81800702D02*
X140714285Y-81086416D01*
X141071428Y-81800702D02*
X141071428Y-80300702D01*
X141071428Y-80300702D02*
X140499999Y-80300702D01*
X140499999Y-80300702D02*
X140357142Y-80372131D01*
X140357142Y-80372131D02*
X140285713Y-80443559D01*
X140285713Y-80443559D02*
X140214285Y-80586416D01*
X140214285Y-80586416D02*
X140214285Y-80800702D01*
X140214285Y-80800702D02*
X140285713Y-80943559D01*
X140285713Y-80943559D02*
X140357142Y-81014988D01*
X140357142Y-81014988D02*
X140499999Y-81086416D01*
X140499999Y-81086416D02*
X141071428Y-81086416D01*
X153357142Y-84215618D02*
X153357142Y-82715618D01*
X153357142Y-82715618D02*
X152857142Y-83787047D01*
X152857142Y-83787047D02*
X152357142Y-82715618D01*
X152357142Y-82715618D02*
X152357142Y-84215618D01*
X151714284Y-83787047D02*
X150999999Y-83787047D01*
X151857141Y-84215618D02*
X151357141Y-82715618D01*
X151357141Y-82715618D02*
X150857141Y-84215618D01*
X149499999Y-84215618D02*
X149999999Y-83501332D01*
X150357142Y-84215618D02*
X150357142Y-82715618D01*
X150357142Y-82715618D02*
X149785713Y-82715618D01*
X149785713Y-82715618D02*
X149642856Y-82787047D01*
X149642856Y-82787047D02*
X149571427Y-82858475D01*
X149571427Y-82858475D02*
X149499999Y-83001332D01*
X149499999Y-83001332D02*
X149499999Y-83215618D01*
X149499999Y-83215618D02*
X149571427Y-83358475D01*
X149571427Y-83358475D02*
X149642856Y-83429904D01*
X149642856Y-83429904D02*
X149785713Y-83501332D01*
X149785713Y-83501332D02*
X150357142Y-83501332D01*
X147999999Y-84072761D02*
X148071427Y-84144190D01*
X148071427Y-84144190D02*
X148285713Y-84215618D01*
X148285713Y-84215618D02*
X148428570Y-84215618D01*
X148428570Y-84215618D02*
X148642856Y-84144190D01*
X148642856Y-84144190D02*
X148785713Y-84001332D01*
X148785713Y-84001332D02*
X148857142Y-83858475D01*
X148857142Y-83858475D02*
X148928570Y-83572761D01*
X148928570Y-83572761D02*
X148928570Y-83358475D01*
X148928570Y-83358475D02*
X148857142Y-83072761D01*
X148857142Y-83072761D02*
X148785713Y-82929904D01*
X148785713Y-82929904D02*
X148642856Y-82787047D01*
X148642856Y-82787047D02*
X148428570Y-82715618D01*
X148428570Y-82715618D02*
X148285713Y-82715618D01*
X148285713Y-82715618D02*
X148071427Y-82787047D01*
X148071427Y-82787047D02*
X147999999Y-82858475D01*
X147357142Y-84215618D02*
X147357142Y-82715618D01*
X147357142Y-83429904D02*
X146499999Y-83429904D01*
X146499999Y-84215618D02*
X146499999Y-82715618D01*
X144714284Y-82858475D02*
X144642856Y-82787047D01*
X144642856Y-82787047D02*
X144499999Y-82715618D01*
X144499999Y-82715618D02*
X144142856Y-82715618D01*
X144142856Y-82715618D02*
X143999999Y-82787047D01*
X143999999Y-82787047D02*
X143928570Y-82858475D01*
X143928570Y-82858475D02*
X143857141Y-83001332D01*
X143857141Y-83001332D02*
X143857141Y-83144190D01*
X143857141Y-83144190D02*
X143928570Y-83358475D01*
X143928570Y-83358475D02*
X144785713Y-84215618D01*
X144785713Y-84215618D02*
X143857141Y-84215618D01*
X142928570Y-82715618D02*
X142785713Y-82715618D01*
X142785713Y-82715618D02*
X142642856Y-82787047D01*
X142642856Y-82787047D02*
X142571428Y-82858475D01*
X142571428Y-82858475D02*
X142499999Y-83001332D01*
X142499999Y-83001332D02*
X142428570Y-83287047D01*
X142428570Y-83287047D02*
X142428570Y-83644190D01*
X142428570Y-83644190D02*
X142499999Y-83929904D01*
X142499999Y-83929904D02*
X142571428Y-84072761D01*
X142571428Y-84072761D02*
X142642856Y-84144190D01*
X142642856Y-84144190D02*
X142785713Y-84215618D01*
X142785713Y-84215618D02*
X142928570Y-84215618D01*
X142928570Y-84215618D02*
X143071428Y-84144190D01*
X143071428Y-84144190D02*
X143142856Y-84072761D01*
X143142856Y-84072761D02*
X143214285Y-83929904D01*
X143214285Y-83929904D02*
X143285713Y-83644190D01*
X143285713Y-83644190D02*
X143285713Y-83287047D01*
X143285713Y-83287047D02*
X143214285Y-83001332D01*
X143214285Y-83001332D02*
X143142856Y-82858475D01*
X143142856Y-82858475D02*
X143071428Y-82787047D01*
X143071428Y-82787047D02*
X142928570Y-82715618D01*
X141857142Y-82858475D02*
X141785714Y-82787047D01*
X141785714Y-82787047D02*
X141642857Y-82715618D01*
X141642857Y-82715618D02*
X141285714Y-82715618D01*
X141285714Y-82715618D02*
X141142857Y-82787047D01*
X141142857Y-82787047D02*
X141071428Y-82858475D01*
X141071428Y-82858475D02*
X140999999Y-83001332D01*
X140999999Y-83001332D02*
X140999999Y-83144190D01*
X140999999Y-83144190D02*
X141071428Y-83358475D01*
X141071428Y-83358475D02*
X141928571Y-84215618D01*
X141928571Y-84215618D02*
X140999999Y-84215618D01*
X139642857Y-82715618D02*
X140357143Y-82715618D01*
X140357143Y-82715618D02*
X140428571Y-83429904D01*
X140428571Y-83429904D02*
X140357143Y-83358475D01*
X140357143Y-83358475D02*
X140214286Y-83287047D01*
X140214286Y-83287047D02*
X139857143Y-83287047D01*
X139857143Y-83287047D02*
X139714286Y-83358475D01*
X139714286Y-83358475D02*
X139642857Y-83429904D01*
X139642857Y-83429904D02*
X139571428Y-83572761D01*
X139571428Y-83572761D02*
X139571428Y-83929904D01*
X139571428Y-83929904D02*
X139642857Y-84072761D01*
X139642857Y-84072761D02*
X139714286Y-84144190D01*
X139714286Y-84144190D02*
X139857143Y-84215618D01*
X139857143Y-84215618D02*
X140214286Y-84215618D01*
X140214286Y-84215618D02*
X140357143Y-84144190D01*
X140357143Y-84144190D02*
X140428571Y-84072761D01*
D11*
X106649678Y-139445604D02*
X106192535Y-139445604D01*
X106421107Y-139445604D02*
X106421107Y-140245604D01*
X106421107Y-140245604D02*
X106344916Y-140131319D01*
X106344916Y-140131319D02*
X106268726Y-140055128D01*
X106268726Y-140055128D02*
X106192535Y-140017033D01*
D12*
X113364819Y-140293333D02*
X112888628Y-139960000D01*
X113364819Y-139721905D02*
X112364819Y-139721905D01*
X112364819Y-139721905D02*
X112364819Y-140102857D01*
X112364819Y-140102857D02*
X112412438Y-140198095D01*
X112412438Y-140198095D02*
X112460057Y-140245714D01*
X112460057Y-140245714D02*
X112555295Y-140293333D01*
X112555295Y-140293333D02*
X112698152Y-140293333D01*
X112698152Y-140293333D02*
X112793390Y-140245714D01*
X112793390Y-140245714D02*
X112841009Y-140198095D01*
X112841009Y-140198095D02*
X112888628Y-140102857D01*
X112888628Y-140102857D02*
X112888628Y-139721905D01*
X113364819Y-141245714D02*
X113364819Y-140674286D01*
X113364819Y-140960000D02*
X112364819Y-140960000D01*
X112364819Y-140960000D02*
X112507676Y-140864762D01*
X112507676Y-140864762D02*
X112602914Y-140769524D01*
X112602914Y-140769524D02*
X112650533Y-140674286D01*
X113314819Y-143653333D02*
X112838628Y-143320000D01*
X113314819Y-143081905D02*
X112314819Y-143081905D01*
X112314819Y-143081905D02*
X112314819Y-143462857D01*
X112314819Y-143462857D02*
X112362438Y-143558095D01*
X112362438Y-143558095D02*
X112410057Y-143605714D01*
X112410057Y-143605714D02*
X112505295Y-143653333D01*
X112505295Y-143653333D02*
X112648152Y-143653333D01*
X112648152Y-143653333D02*
X112743390Y-143605714D01*
X112743390Y-143605714D02*
X112791009Y-143558095D01*
X112791009Y-143558095D02*
X112838628Y-143462857D01*
X112838628Y-143462857D02*
X112838628Y-143081905D01*
X112648152Y-144510476D02*
X113314819Y-144510476D01*
X112267200Y-144272381D02*
X112981485Y-144034286D01*
X112981485Y-144034286D02*
X112981485Y-144653333D01*
D13*
%TO.C,G\u002A\u002A\u002A*%
G36*
X119062369Y-101144842D02*
G01*
X119022306Y-101184905D01*
X118982243Y-101144842D01*
X119022306Y-101104779D01*
X119062369Y-101144842D01*
G37*
G36*
X120237553Y-101772497D02*
G01*
X120250089Y-101796598D01*
X120184136Y-101825915D01*
X120141717Y-101820132D01*
X120130719Y-101772497D01*
X120142462Y-101762908D01*
X120237553Y-101772497D01*
G37*
G36*
X119561655Y-101428363D02*
G01*
X119623253Y-101505410D01*
X119622334Y-101523543D01*
X119587918Y-101585536D01*
X119575065Y-101581849D01*
X119503063Y-101505410D01*
X119490543Y-101474372D01*
X119538398Y-101425284D01*
X119561655Y-101428363D01*
G37*
G36*
X120082453Y-101289631D02*
G01*
X120096230Y-101293596D01*
X120108093Y-101317983D01*
X119983821Y-101329537D01*
X119964845Y-101329647D01*
X119839411Y-101318904D01*
X119842075Y-101292600D01*
X119907914Y-101277900D01*
X120082453Y-101289631D01*
G37*
G36*
X119908324Y-101749394D02*
G01*
X119983821Y-101825915D01*
X119998745Y-101854283D01*
X119993278Y-101906041D01*
X119979190Y-101902435D01*
X119903694Y-101825915D01*
X119888770Y-101797546D01*
X119894237Y-101745788D01*
X119908324Y-101749394D01*
G37*
G36*
X120061111Y-100642376D02*
G01*
X120228916Y-100746567D01*
X120313229Y-100815663D01*
X120324753Y-100855876D01*
X120190412Y-100846724D01*
X120059958Y-100809724D01*
X119963388Y-100724179D01*
X119966280Y-100639915D01*
X120061111Y-100642376D01*
G37*
G36*
X119671878Y-100987870D02*
G01*
X119626200Y-101099272D01*
X119614652Y-101118855D01*
X119489892Y-101228725D01*
X119338499Y-101268435D01*
X119215715Y-101234843D01*
X119176784Y-101124810D01*
X119244002Y-101021018D01*
X119455902Y-100959051D01*
X119619896Y-100950340D01*
X119671878Y-100987870D01*
G37*
G36*
X121026366Y-102033757D02*
G01*
X121189695Y-102069271D01*
X121301705Y-102120107D01*
X121303881Y-102122807D01*
X121245079Y-102136774D01*
X121081358Y-102131855D01*
X121065622Y-102130535D01*
X120895260Y-102097360D01*
X120825145Y-102047723D01*
X120881671Y-102024191D01*
X121026366Y-102033757D01*
G37*
G36*
X122509314Y-102548569D02*
G01*
X122690001Y-102729256D01*
X122378551Y-102665852D01*
X122331268Y-102656484D01*
X122095429Y-102616399D01*
X121926880Y-102597643D01*
X121853083Y-102584316D01*
X121786660Y-102521194D01*
X121845716Y-102486603D01*
X121999406Y-102502947D01*
X122148461Y-102518947D01*
X122270390Y-102462113D01*
X122275252Y-102454875D01*
X122362123Y-102434653D01*
X122509314Y-102548569D01*
G37*
G36*
X126592809Y-108537750D02*
G01*
X126582919Y-108835609D01*
X126559587Y-109023484D01*
X126518166Y-109131830D01*
X126454010Y-109191105D01*
X126430476Y-109201636D01*
X126254011Y-109238285D01*
X125978553Y-109264513D01*
X125652748Y-109275213D01*
X124991707Y-109277650D01*
X124991707Y-109117756D01*
X125432401Y-109117756D01*
X125813000Y-109117577D01*
X126193600Y-109117397D01*
X126193600Y-108356198D01*
X126193600Y-107595000D01*
X125838530Y-107595000D01*
X125483461Y-107595000D01*
X125457931Y-108356378D01*
X125432401Y-109117756D01*
X124991707Y-109117756D01*
X124991707Y-108502728D01*
X124991722Y-108469252D01*
X124999647Y-108047967D01*
X125037227Y-107759889D01*
X125126535Y-107579772D01*
X125289646Y-107482373D01*
X125548635Y-107442446D01*
X125925577Y-107434747D01*
X126594231Y-107434747D01*
X126594231Y-108272091D01*
X126593781Y-108356198D01*
X126592809Y-108537750D01*
G37*
G36*
X124106936Y-107675126D02*
G01*
X124108129Y-107962486D01*
X124107437Y-108445305D01*
X124101402Y-108796766D01*
X124088692Y-109036300D01*
X124067977Y-109183337D01*
X124037927Y-109257310D01*
X123997211Y-109277650D01*
X123887674Y-109232858D01*
X123754295Y-109099569D01*
X123730442Y-109059711D01*
X123688902Y-108940125D01*
X123660003Y-108755984D01*
X123641785Y-108483383D01*
X123632291Y-108098414D01*
X123629562Y-107577171D01*
X123629562Y-106232855D01*
X122908426Y-106232855D01*
X122187291Y-106232855D01*
X122187291Y-107608722D01*
X122185547Y-108090518D01*
X122178452Y-108478723D01*
X122163907Y-108752900D01*
X122139823Y-108937035D01*
X122104112Y-109055112D01*
X122054683Y-109131120D01*
X121947241Y-109222674D01*
X121810661Y-109277650D01*
X121800433Y-109276367D01*
X121764389Y-109238397D01*
X121738385Y-109133824D01*
X121721264Y-108943928D01*
X121711870Y-108649992D01*
X121709045Y-108233298D01*
X121711634Y-107675126D01*
X121724022Y-106072602D01*
X122911250Y-106072602D01*
X124098478Y-106072602D01*
X124106936Y-107675126D01*
G37*
G36*
X119002973Y-100115242D02*
G01*
X119239828Y-100174328D01*
X119397517Y-100301702D01*
X119398026Y-100302332D01*
X119521759Y-100489075D01*
X119516254Y-100592292D01*
X119380891Y-100624022D01*
X119256790Y-100580906D01*
X119130962Y-100403675D01*
X119125989Y-100391472D01*
X119056212Y-100274064D01*
X119007416Y-100279472D01*
X118958456Y-100329513D01*
X118796620Y-100309125D01*
X118726217Y-100286036D01*
X118637543Y-100305085D01*
X118609084Y-100449967D01*
X118631856Y-100605835D01*
X118729274Y-100758302D01*
X118775602Y-100794621D01*
X118811484Y-100849053D01*
X118701802Y-100860625D01*
X118603630Y-100850457D01*
X118421360Y-100784274D01*
X118359617Y-100733076D01*
X118401328Y-100705375D01*
X118438087Y-100699369D01*
X118501486Y-100624966D01*
X118461150Y-100579462D01*
X118321202Y-100564872D01*
X118205926Y-100555984D01*
X118140918Y-100463769D01*
X118180248Y-100383465D01*
X118321202Y-100317976D01*
X118433289Y-100280047D01*
X118501486Y-100191496D01*
X118508016Y-100165874D01*
X118619666Y-100113877D01*
X118876697Y-100106251D01*
X119002973Y-100115242D01*
G37*
G36*
X120825145Y-108209668D02*
G01*
X120819767Y-108576304D01*
X120799008Y-108847603D01*
X120758158Y-109021701D01*
X120692538Y-109131120D01*
X120658281Y-109166868D01*
X120497629Y-109269842D01*
X120386132Y-109231661D01*
X120344388Y-109056725D01*
X120343020Y-108985409D01*
X120314486Y-108885784D01*
X120214799Y-108853299D01*
X119999897Y-108863199D01*
X119871042Y-108877885D01*
X119679743Y-108940797D01*
X119579235Y-109063624D01*
X119503942Y-109174183D01*
X119362843Y-109263025D01*
X119307471Y-109263612D01*
X119262606Y-109217970D01*
X119236951Y-109095436D01*
X119225344Y-108868238D01*
X119222622Y-108508604D01*
X119222648Y-108463815D01*
X119227890Y-108195946D01*
X119623253Y-108195946D01*
X119623347Y-108254325D01*
X119626653Y-108527493D01*
X119633730Y-108716337D01*
X119643284Y-108782894D01*
X119659828Y-108778278D01*
X119790662Y-108760008D01*
X120003852Y-108738224D01*
X120344388Y-108707552D01*
X120344388Y-108278018D01*
X120347683Y-108114415D01*
X120365294Y-107871178D01*
X120393024Y-107721742D01*
X120400256Y-107699740D01*
X120385009Y-107634179D01*
X120272896Y-107602951D01*
X120032456Y-107595000D01*
X119623253Y-107595000D01*
X119623253Y-108195946D01*
X119227890Y-108195946D01*
X119230854Y-108044458D01*
X119268836Y-107757814D01*
X119358493Y-107578702D01*
X119521722Y-107481940D01*
X119780422Y-107442349D01*
X120156491Y-107434747D01*
X120825145Y-107434747D01*
X120825145Y-107699740D01*
X120825145Y-108209668D01*
G37*
G36*
X118341234Y-107835378D02*
G01*
X118339458Y-108345274D01*
X118332870Y-108734025D01*
X118319887Y-109001728D01*
X118298930Y-109168292D01*
X118268416Y-109253629D01*
X118226768Y-109277650D01*
X118082694Y-109245378D01*
X117955092Y-109104135D01*
X117883093Y-108837339D01*
X117860477Y-108430601D01*
X117860477Y-107835378D01*
X117139341Y-107835378D01*
X116418205Y-107835378D01*
X116418205Y-108409984D01*
X116406222Y-108752509D01*
X116364122Y-108987560D01*
X116285598Y-109131120D01*
X116197266Y-109219719D01*
X116073492Y-109286614D01*
X115993421Y-109222161D01*
X115950319Y-109017303D01*
X115937448Y-108662981D01*
X115937631Y-108577751D01*
X115949554Y-108243934D01*
X115997979Y-108015186D01*
X116107650Y-107871042D01*
X116303315Y-107791039D01*
X116609717Y-107754713D01*
X117051602Y-107741599D01*
X117900540Y-107727946D01*
X117032675Y-107681505D01*
X117028943Y-107681305D01*
X116591857Y-107651093D01*
X116289983Y-107603020D01*
X116098463Y-107518407D01*
X116087161Y-107503501D01*
X116418205Y-107503501D01*
X117139525Y-107529219D01*
X117860845Y-107554937D01*
X117860661Y-106893896D01*
X117860477Y-106232855D01*
X117139341Y-106232855D01*
X116418205Y-106232855D01*
X116418205Y-106868178D01*
X116418205Y-107503501D01*
X116087161Y-107503501D01*
X115992439Y-107378576D01*
X115947053Y-107164850D01*
X115937448Y-106858550D01*
X115937529Y-106825391D01*
X115952847Y-106531565D01*
X116010934Y-106325501D01*
X116135208Y-106191887D01*
X116349089Y-106115409D01*
X116675994Y-106080752D01*
X117139341Y-106072602D01*
X117327336Y-106072296D01*
X117674515Y-106076269D01*
X117931882Y-106102726D01*
X118112853Y-106171343D01*
X118230840Y-106301791D01*
X118299258Y-106513745D01*
X118331520Y-106826879D01*
X118341041Y-107260865D01*
X118341140Y-107554937D01*
X118341234Y-107835378D01*
G37*
G36*
X129547852Y-106104435D02*
G01*
X129701323Y-106197335D01*
X129716507Y-106208120D01*
X129775340Y-106259216D01*
X129817981Y-106330043D01*
X129847034Y-106444023D01*
X129865100Y-106624574D01*
X129874782Y-106895117D01*
X129878682Y-107279072D01*
X129879404Y-107799859D01*
X129879391Y-107854938D01*
X129877232Y-108372326D01*
X129870298Y-108751152D01*
X129857036Y-109011256D01*
X129835894Y-109172480D01*
X129805319Y-109254664D01*
X129763758Y-109277650D01*
X129655197Y-109248987D01*
X129516331Y-109085789D01*
X129428984Y-108790039D01*
X129398647Y-108375313D01*
X129398647Y-107829139D01*
X128697543Y-107852290D01*
X127996439Y-107875441D01*
X127973884Y-108476388D01*
X127970949Y-108546721D01*
X127944035Y-108870565D01*
X127895432Y-109070618D01*
X127818349Y-109177492D01*
X127731528Y-109234235D01*
X127620556Y-109277650D01*
X127618636Y-109277503D01*
X127582190Y-109199161D01*
X127561066Y-109006673D01*
X127554311Y-108743448D01*
X127560970Y-108452898D01*
X127580090Y-108178434D01*
X127610717Y-107963465D01*
X127651896Y-107851403D01*
X127674304Y-107835983D01*
X127849266Y-107790013D01*
X128161483Y-107757586D01*
X128593379Y-107740767D01*
X129438710Y-107726283D01*
X128629257Y-107680673D01*
X128548983Y-107675822D01*
X128136773Y-107637915D01*
X127842708Y-107586516D01*
X127687774Y-107525094D01*
X127639067Y-107469084D01*
X127589010Y-107331354D01*
X127563119Y-107100759D01*
X127555745Y-106743864D01*
X127556568Y-106626882D01*
X127566421Y-106343651D01*
X127585065Y-106146540D01*
X127609530Y-106072602D01*
X127677678Y-106103243D01*
X127809846Y-106205210D01*
X127852977Y-106251569D01*
X127915833Y-106383528D01*
X127947593Y-106595135D01*
X127956376Y-106926346D01*
X127956376Y-107514873D01*
X128677511Y-107514873D01*
X129398647Y-107514873D01*
X129398647Y-106793738D01*
X129400223Y-106632739D01*
X129412240Y-106345384D01*
X129433510Y-106146756D01*
X129460945Y-106072602D01*
X129547852Y-106104435D01*
G37*
G36*
X118859932Y-101986167D02*
G01*
X118881454Y-101990885D01*
X119020073Y-102062411D01*
X119236901Y-102202092D01*
X119495259Y-102386798D01*
X119573759Y-102444332D01*
X119833818Y-102619215D01*
X120049064Y-102741444D01*
X120179226Y-102787429D01*
X120249470Y-102803202D01*
X120264166Y-102806502D01*
X120376190Y-102914983D01*
X120386072Y-102936038D01*
X120446822Y-102988239D01*
X120573902Y-103014827D01*
X120798394Y-103019440D01*
X121151381Y-103005715D01*
X121305304Y-102996003D01*
X121616870Y-102963818D01*
X121851820Y-102922362D01*
X121968357Y-102878161D01*
X122096781Y-102802687D01*
X122286600Y-102810002D01*
X122442866Y-102919955D01*
X122507795Y-103107933D01*
X122501027Y-103152992D01*
X122497733Y-103174921D01*
X122411644Y-103332287D01*
X122383577Y-103355732D01*
X122214968Y-103418423D01*
X122029164Y-103416887D01*
X121906980Y-103348525D01*
X121905914Y-103347018D01*
X121804194Y-103317118D01*
X121586673Y-103301340D01*
X121295389Y-103298537D01*
X120972377Y-103307564D01*
X120659674Y-103327273D01*
X120399316Y-103356520D01*
X120233340Y-103394158D01*
X120083455Y-103413729D01*
X119898523Y-103324237D01*
X119785327Y-103125937D01*
X119772774Y-103096060D01*
X119749263Y-103066493D01*
X119983897Y-103066493D01*
X120053417Y-103179321D01*
X120144010Y-103232625D01*
X120220784Y-103188060D01*
X120504641Y-103188060D01*
X120509720Y-103202488D01*
X120612243Y-103244366D01*
X120805114Y-103254187D01*
X121201881Y-103230605D01*
X121533833Y-103195166D01*
X121725222Y-103149981D01*
X121756329Y-103121288D01*
X122067101Y-103121288D01*
X122076389Y-103162235D01*
X122174911Y-103250705D01*
X122235226Y-103251264D01*
X122255038Y-103152992D01*
X122195353Y-103048031D01*
X122110180Y-103031123D01*
X122080468Y-103093311D01*
X122067101Y-103121288D01*
X121756329Y-103121288D01*
X121786660Y-103093311D01*
X121722103Y-103044384D01*
X121536265Y-103057855D01*
X121460389Y-103070494D01*
X121188871Y-103097267D01*
X120895256Y-103107933D01*
X120760133Y-103112905D01*
X120576599Y-103141858D01*
X120553541Y-103156663D01*
X120504641Y-103188060D01*
X120220784Y-103188060D01*
X120226109Y-103184969D01*
X120239532Y-103156663D01*
X120223553Y-103038586D01*
X120130802Y-102968248D01*
X120020488Y-102999153D01*
X119983897Y-103066493D01*
X119749263Y-103066493D01*
X119657746Y-102951404D01*
X119455254Y-102759263D01*
X119199280Y-102552869D01*
X118655118Y-102146946D01*
X118177385Y-102307883D01*
X117699653Y-102468819D01*
X117379434Y-102256909D01*
X117152415Y-102080422D01*
X117062519Y-101955614D01*
X117103301Y-101901919D01*
X117262432Y-101934885D01*
X117527582Y-102070062D01*
X117669949Y-102149175D01*
X117812410Y-102184890D01*
X117928213Y-102133790D01*
X117996473Y-102080418D01*
X118819089Y-102080418D01*
X118850094Y-102163446D01*
X119011845Y-102315706D01*
X119298833Y-102531277D01*
X119427815Y-102621728D01*
X119654487Y-102774464D01*
X119786679Y-102847917D01*
X119848394Y-102853645D01*
X119863631Y-102803202D01*
X119852913Y-102783920D01*
X119749805Y-102686532D01*
X119569339Y-102541253D01*
X119351119Y-102377337D01*
X119134748Y-102224037D01*
X118959830Y-102110604D01*
X118865969Y-102066293D01*
X118819089Y-102080418D01*
X117996473Y-102080418D01*
X118017701Y-102063820D01*
X118154292Y-101921064D01*
X118359596Y-101921064D01*
X118438801Y-102026535D01*
X118534906Y-102040527D01*
X118581612Y-101952781D01*
X118565123Y-101890428D01*
X118454746Y-101825915D01*
X118394469Y-101839329D01*
X118359596Y-101921064D01*
X118154292Y-101921064D01*
X118169822Y-101904833D01*
X118199885Y-101757409D01*
X118123375Y-101577414D01*
X118039757Y-101461202D01*
X117888947Y-101367177D01*
X117643904Y-101328902D01*
X117521122Y-101316557D01*
X117342549Y-101269802D01*
X117314773Y-101210984D01*
X117433833Y-101155998D01*
X117695769Y-101120741D01*
X117863331Y-101113211D01*
X118038813Y-101131458D01*
X118156194Y-101211189D01*
X118277735Y-101380159D01*
X118323472Y-101446202D01*
X118461788Y-101601941D01*
X118569082Y-101664670D01*
X118639450Y-101695242D01*
X118718648Y-101825915D01*
X118761703Y-101919146D01*
X118811000Y-101952781D01*
X118859932Y-101986167D01*
G37*
G36*
X124799118Y-99679011D02*
G01*
X124710250Y-99760608D01*
X124756696Y-99869291D01*
X124892245Y-99959220D01*
X124930536Y-99962969D01*
X125066641Y-99976295D01*
X125192022Y-99902886D01*
X125267471Y-99852303D01*
X125437130Y-99822760D01*
X125564236Y-99805667D01*
X125632716Y-99751979D01*
X125634050Y-99739347D01*
X125717822Y-99663953D01*
X125886111Y-99634329D01*
X126074690Y-99663354D01*
X126170293Y-99727958D01*
X126233663Y-99911359D01*
X126236045Y-99963203D01*
X126294973Y-100081288D01*
X126466841Y-100129793D01*
X126486186Y-100132284D01*
X126765284Y-100218175D01*
X126970478Y-100333886D01*
X127051517Y-100379585D01*
X127305158Y-100584778D01*
X127471664Y-100784274D01*
X127486477Y-100802022D01*
X127555745Y-100999580D01*
X127573935Y-101116821D01*
X127635871Y-101184905D01*
X127670640Y-101196250D01*
X127679058Y-101215270D01*
X127715997Y-101298728D01*
X127716200Y-101303388D01*
X127792170Y-101397359D01*
X127963873Y-101466993D01*
X128174990Y-101554295D01*
X128339895Y-101683205D01*
X128378953Y-101713738D01*
X128380486Y-101715496D01*
X128528926Y-101850131D01*
X128651898Y-101906041D01*
X128726481Y-101966868D01*
X128731855Y-101998464D01*
X128757638Y-102150061D01*
X128792565Y-102338690D01*
X128880257Y-102482792D01*
X128937921Y-102577551D01*
X129068069Y-102758443D01*
X129119807Y-102903786D01*
X129137862Y-102954508D01*
X129142024Y-103008132D01*
X129126446Y-103087563D01*
X129050417Y-103132056D01*
X128880684Y-103154390D01*
X128583989Y-103167345D01*
X128395605Y-103177997D01*
X128040918Y-103230017D01*
X127813343Y-103315848D01*
X127626699Y-103398298D01*
X127445765Y-103363861D01*
X127323354Y-103309616D01*
X127121684Y-103232762D01*
X127021557Y-103174742D01*
X127061589Y-103089281D01*
X127111913Y-103023362D01*
X127138531Y-102936811D01*
X127733015Y-102936811D01*
X127811487Y-103056979D01*
X127959211Y-103086902D01*
X128104953Y-103001812D01*
X128155818Y-102903786D01*
X128087709Y-102796677D01*
X128052766Y-102772687D01*
X127898570Y-102745068D01*
X127770463Y-102808280D01*
X127733015Y-102936811D01*
X127138531Y-102936811D01*
X127155180Y-102882676D01*
X127128779Y-102774905D01*
X127036984Y-102757663D01*
X126927519Y-102753129D01*
X126776574Y-102660033D01*
X126696365Y-102583610D01*
X126636770Y-102571016D01*
X126609186Y-102688526D01*
X126595709Y-102744655D01*
X126478582Y-102883647D01*
X126285443Y-102913491D01*
X126057088Y-102824165D01*
X125921657Y-102739957D01*
X125875771Y-102737903D01*
X125902164Y-102827735D01*
X125916594Y-102893674D01*
X125923837Y-103105763D01*
X125903060Y-103367421D01*
X125891201Y-103451262D01*
X125841511Y-103664467D01*
X125755566Y-103786134D01*
X125601182Y-103869827D01*
X125357841Y-103920255D01*
X124988231Y-103912577D01*
X124554113Y-103842152D01*
X124097126Y-103713312D01*
X124049733Y-103697073D01*
X123879898Y-103649466D01*
X123749332Y-103657204D01*
X123602627Y-103734435D01*
X123384374Y-103895307D01*
X123202611Y-104039738D01*
X123067193Y-104182612D01*
X123007976Y-104328867D01*
X122993116Y-104530173D01*
X122992066Y-104587178D01*
X122974138Y-104773950D01*
X122915571Y-104853833D01*
X122790220Y-104870709D01*
X122687939Y-104865213D01*
X122629562Y-104813006D01*
X122670031Y-104665178D01*
X122719418Y-104503819D01*
X122728439Y-104138034D01*
X122581386Y-103778432D01*
X122495343Y-103622712D01*
X122469479Y-103520319D01*
X122535569Y-103546457D01*
X122682363Y-103708880D01*
X122865445Y-103869722D01*
X123066945Y-103889994D01*
X123267634Y-103750446D01*
X123307222Y-103700290D01*
X123346956Y-103536451D01*
X123236276Y-103401616D01*
X122982317Y-103306879D01*
X122840965Y-103261450D01*
X122787018Y-103201900D01*
X122866541Y-103163669D01*
X123065151Y-103170450D01*
X123248018Y-103172213D01*
X123318284Y-103096996D01*
X123322624Y-102996777D01*
X123264861Y-102707939D01*
X123186568Y-102627176D01*
X124711265Y-102627176D01*
X124711323Y-102632824D01*
X124775907Y-102790581D01*
X124922449Y-102864103D01*
X125092271Y-102843123D01*
X125226696Y-102717372D01*
X125260869Y-102649952D01*
X125306926Y-102482792D01*
X125228443Y-102406830D01*
X125011738Y-102401992D01*
X124830212Y-102427799D01*
X124733401Y-102492401D01*
X124711265Y-102627176D01*
X123186568Y-102627176D01*
X123093755Y-102531436D01*
X122811088Y-102469472D01*
X122662287Y-102440044D01*
X122508600Y-102308175D01*
X122392776Y-102169733D01*
X122205308Y-102033912D01*
X122088888Y-101967172D01*
X122048828Y-101910124D01*
X122131273Y-101862019D01*
X122258219Y-101855246D01*
X122459353Y-101978295D01*
X122614274Y-102083990D01*
X122775781Y-102100049D01*
X122804569Y-102086528D01*
X122853972Y-102030959D01*
X127074988Y-102030959D01*
X127080958Y-102087275D01*
X127152528Y-102140293D01*
X127314696Y-102068403D01*
X127385944Y-101998464D01*
X127341710Y-101900334D01*
X127251937Y-101851160D01*
X127129787Y-101889538D01*
X127074988Y-102030959D01*
X122853972Y-102030959D01*
X122893734Y-101986235D01*
X122895290Y-101877118D01*
X122802687Y-101825915D01*
X122801713Y-101825907D01*
X122714918Y-101785851D01*
X126594231Y-101785851D01*
X126602120Y-101840999D01*
X126664546Y-101906041D01*
X126718943Y-101886578D01*
X126834609Y-101785851D01*
X126856798Y-101757992D01*
X126880046Y-101683205D01*
X126764294Y-101665662D01*
X126661931Y-101688212D01*
X126594231Y-101785851D01*
X122714918Y-101785851D01*
X122678068Y-101768845D01*
X122529742Y-101633612D01*
X122351670Y-101489630D01*
X122113962Y-101386714D01*
X122094887Y-101382273D01*
X121946798Y-101323049D01*
X121911228Y-101257945D01*
X121918646Y-101215776D01*
X121840656Y-101139101D01*
X121802792Y-101109508D01*
X122507795Y-101109508D01*
X122536701Y-101163783D01*
X122658793Y-101176072D01*
X122826054Y-101107862D01*
X122838175Y-101100093D01*
X122898886Y-101035144D01*
X122809860Y-100981800D01*
X122725210Y-100962283D01*
X122572878Y-100996351D01*
X122507795Y-101109508D01*
X121802792Y-101109508D01*
X121785042Y-101095635D01*
X121759627Y-100959118D01*
X121759727Y-100952578D01*
X124325392Y-100952578D01*
X124332333Y-101035144D01*
X124337374Y-101095111D01*
X124482454Y-101189303D01*
X124676361Y-101247017D01*
X124845227Y-101261161D01*
X124911581Y-101216230D01*
X124911385Y-101212534D01*
X124849827Y-101106795D01*
X124802367Y-101056143D01*
X125873095Y-101056143D01*
X125906447Y-101151723D01*
X126029140Y-101216230D01*
X126034604Y-101219103D01*
X126196548Y-101183083D01*
X126277213Y-101158664D01*
X126444425Y-101190496D01*
X126536853Y-101234115D01*
X126672640Y-101263505D01*
X126703197Y-101215270D01*
X126605385Y-101102113D01*
X126516193Y-101043155D01*
X126311886Y-100968730D01*
X126102357Y-100943937D01*
X125938971Y-100971999D01*
X125873095Y-101056143D01*
X124802367Y-101056143D01*
X124716729Y-100964744D01*
X124568163Y-100839870D01*
X124460200Y-100785658D01*
X124397864Y-100817167D01*
X124326331Y-100948924D01*
X124325392Y-100952578D01*
X121759727Y-100952578D01*
X121760456Y-100904702D01*
X121676117Y-100737754D01*
X121645537Y-100704148D01*
X122267417Y-100704148D01*
X122279318Y-100739474D01*
X122382877Y-100784274D01*
X122668048Y-100784274D01*
X122683336Y-100822566D01*
X122792966Y-100864400D01*
X122850199Y-100852870D01*
X122868363Y-100784274D01*
X122851963Y-100762392D01*
X122743445Y-100704148D01*
X122725556Y-100706441D01*
X122668048Y-100784274D01*
X122382877Y-100784274D01*
X122431926Y-100777874D01*
X122547858Y-100704148D01*
X122543190Y-100654867D01*
X122432398Y-100624022D01*
X122334728Y-100639676D01*
X122267417Y-100704148D01*
X121645537Y-100704148D01*
X121500020Y-100544234D01*
X121301827Y-100379800D01*
X121466155Y-100379800D01*
X121475002Y-100427512D01*
X121562582Y-100457216D01*
X121731339Y-100373044D01*
X121965767Y-100181160D01*
X121994219Y-100154259D01*
X123262199Y-100154259D01*
X123277825Y-100261453D01*
X123397691Y-100392856D01*
X123443115Y-100424728D01*
X123650937Y-100514578D01*
X123863613Y-100541428D01*
X124048324Y-100514267D01*
X124172253Y-100442090D01*
X124202584Y-100333886D01*
X124106499Y-100198649D01*
X124046204Y-100158674D01*
X123840443Y-100090319D01*
X123599783Y-100064621D01*
X123386332Y-100084846D01*
X123262199Y-100154259D01*
X121994219Y-100154259D01*
X122076913Y-100076074D01*
X122179681Y-99962969D01*
X122178986Y-99914594D01*
X122085956Y-99905418D01*
X122058437Y-99907801D01*
X121881346Y-99975180D01*
X121876287Y-99978541D01*
X121687143Y-100104211D01*
X121530517Y-100253036D01*
X121466155Y-100379800D01*
X121301827Y-100379800D01*
X121269951Y-100353354D01*
X121023695Y-100194328D01*
X120799037Y-100096368D01*
X120633761Y-100088687D01*
X120527413Y-100166041D01*
X120518244Y-100259284D01*
X120624830Y-100303517D01*
X120679851Y-100310260D01*
X120745019Y-100363913D01*
X120748610Y-100375381D01*
X120824661Y-100481986D01*
X120979302Y-100663002D01*
X121185713Y-100886617D01*
X121290023Y-100997403D01*
X121502635Y-101240630D01*
X121604710Y-101397051D01*
X121603490Y-101480651D01*
X121506218Y-101505410D01*
X121451009Y-101507785D01*
X121396146Y-101539208D01*
X121444378Y-101627070D01*
X121604099Y-101796322D01*
X121679124Y-101875528D01*
X121754476Y-101994281D01*
X121711244Y-102051368D01*
X121636465Y-102051600D01*
X121510430Y-101965415D01*
X121485061Y-101937179D01*
X121325433Y-101822152D01*
X121105745Y-101710955D01*
X121046568Y-101685083D01*
X120813956Y-101564130D01*
X120647794Y-101449872D01*
X120583248Y-101382020D01*
X120510625Y-101246833D01*
X120528691Y-101159507D01*
X120638741Y-101161267D01*
X120730136Y-101174776D01*
X120723926Y-101085258D01*
X120713784Y-101012967D01*
X120790142Y-100913609D01*
X120848216Y-100885601D01*
X120897233Y-100794289D01*
X120789629Y-100678774D01*
X120524672Y-100538020D01*
X120521135Y-100536435D01*
X120262942Y-100396128D01*
X120064883Y-100244422D01*
X119940671Y-100102693D01*
X119904018Y-99992321D01*
X119968635Y-99934682D01*
X120148237Y-99951154D01*
X120299414Y-99960689D01*
X120317187Y-99942949D01*
X121065524Y-99942949D01*
X121067850Y-99974881D01*
X121133994Y-100060642D01*
X121250307Y-100011899D01*
X121270608Y-99978541D01*
X121245552Y-99875776D01*
X121140921Y-99822760D01*
X121106281Y-99836283D01*
X121065524Y-99942949D01*
X120317187Y-99942949D01*
X120394344Y-99865936D01*
X120396461Y-99733733D01*
X120307404Y-99627173D01*
X121466155Y-99627173D01*
X121482138Y-99693022D01*
X121595533Y-99732210D01*
X121824936Y-99669459D01*
X121913213Y-99631262D01*
X121926634Y-99585744D01*
X121803248Y-99511133D01*
X121668047Y-99459727D01*
X121520595Y-99484501D01*
X121466155Y-99627173D01*
X120307404Y-99627173D01*
X120292254Y-99609045D01*
X120118262Y-99536603D01*
X119922995Y-99534886D01*
X119754961Y-99622372D01*
X119668523Y-99687601D01*
X119623253Y-99668231D01*
X119616835Y-99639411D01*
X119524716Y-99587740D01*
X119376274Y-99600870D01*
X119239982Y-99677197D01*
X119184154Y-99717895D01*
X119091197Y-99718044D01*
X119107906Y-99678507D01*
X119235632Y-99593836D01*
X119450430Y-99492356D01*
X119621182Y-99415980D01*
X119795915Y-99321491D01*
X119863631Y-99260417D01*
X119890550Y-99229634D01*
X120031176Y-99156140D01*
X120251807Y-99073230D01*
X120286458Y-99062097D01*
X120552484Y-98997945D01*
X120815312Y-98988028D01*
X121153226Y-99028457D01*
X121405039Y-99077758D01*
X121606168Y-99135704D01*
X121693179Y-99186263D01*
X121698809Y-99198237D01*
X121804196Y-99254687D01*
X121956516Y-99248835D01*
X122067101Y-99181750D01*
X122111545Y-99141457D01*
X122259727Y-99101624D01*
X122387750Y-99062924D01*
X122547858Y-98941372D01*
X122563830Y-98925632D01*
X122747635Y-98834555D01*
X123011620Y-98783395D01*
X123297642Y-98774561D01*
X123547554Y-98810462D01*
X123703212Y-98893506D01*
X123731287Y-98918757D01*
X123900498Y-98996488D01*
X124133686Y-99048583D01*
X124134335Y-99048665D01*
X124512357Y-99101129D01*
X124757215Y-99151222D01*
X124895378Y-99210244D01*
X124953310Y-99289492D01*
X124957477Y-99400266D01*
X124912976Y-99545174D01*
X124878462Y-99585744D01*
X124799118Y-99679011D01*
G37*
D14*
%TO.C,J2*%
X180700000Y-93850000D02*
X180700000Y-95100000D01*
X181000000Y-94150000D02*
X181000000Y-96410000D01*
X181000000Y-96410000D02*
X182000000Y-96410000D01*
X181000000Y-99610000D02*
X181000000Y-101870000D01*
X181000000Y-101870000D02*
X187620000Y-101870000D01*
X181400000Y-97610000D02*
X181400000Y-98410000D01*
X181400000Y-98410000D02*
X182000000Y-98410000D01*
X181950000Y-93850000D02*
X180700000Y-93850000D01*
X182000000Y-96410000D02*
X182000000Y-97610000D01*
X182000000Y-97610000D02*
X181400000Y-97610000D01*
X182000000Y-98410000D02*
X182000000Y-99610000D01*
X182000000Y-99610000D02*
X181000000Y-99610000D01*
X182610000Y-95160000D02*
X182610000Y-100860000D01*
X182610000Y-100860000D02*
X186910000Y-100860000D01*
X184310000Y-95160000D02*
X184310000Y-94150000D01*
X184310000Y-100860000D02*
X184310000Y-101870000D01*
X186910000Y-95160000D02*
X182610000Y-95160000D01*
X186910000Y-100860000D02*
X186910000Y-95160000D01*
X187620000Y-94150000D02*
X181000000Y-94150000D01*
X187620000Y-101870000D02*
X187620000Y-94150000D01*
%TO.C,J6*%
X168960000Y-128850000D02*
X168960000Y-127520000D01*
X170290000Y-128850000D02*
X168960000Y-128850000D01*
X171560000Y-128850000D02*
X171560000Y-126190000D01*
X176700000Y-126190000D02*
X171560000Y-126190000D01*
X176700000Y-128850000D02*
X171560000Y-128850000D01*
X176700000Y-128850000D02*
X176700000Y-126190000D01*
%TO.C,U4*%
X106254366Y-141112500D02*
X106254366Y-145012500D01*
X106254366Y-145012500D02*
X106624366Y-145482500D01*
X109824366Y-141102500D02*
X109824366Y-145482500D01*
X109824366Y-145482500D02*
X106624366Y-145482500D01*
%TO.C,R1*%
X111320000Y-140610121D02*
X111320000Y-140274879D01*
X112080000Y-140610121D02*
X112080000Y-140274879D01*
D15*
%TO.C,REF\u002A\u002A*%
X142355406Y-127274949D02*
X142381127Y-127290647D01*
X142407778Y-127312227D01*
X142407778Y-127959684D01*
X142381127Y-127981264D01*
X142349767Y-127998739D01*
X142313966Y-127999575D01*
X142282528Y-127979082D01*
X142278652Y-127974416D01*
X142273186Y-127964949D01*
X142268979Y-127951267D01*
X142265867Y-127930748D01*
X142263687Y-127900768D01*
X142262276Y-127858704D01*
X142261471Y-127801932D01*
X142261107Y-127727830D01*
X142261022Y-127633773D01*
X142261022Y-127312227D01*
X142287673Y-127290647D01*
X142311386Y-127275877D01*
X142334400Y-127269067D01*
X142355406Y-127274949D01*
G36*
X142355406Y-127274949D02*
G01*
X142381127Y-127290647D01*
X142407778Y-127312227D01*
X142407778Y-127959684D01*
X142381127Y-127981264D01*
X142349767Y-127998739D01*
X142313966Y-127999575D01*
X142282528Y-127979082D01*
X142278652Y-127974416D01*
X142273186Y-127964949D01*
X142268979Y-127951267D01*
X142265867Y-127930748D01*
X142263687Y-127900768D01*
X142262276Y-127858704D01*
X142261471Y-127801932D01*
X142261107Y-127727830D01*
X142261022Y-127633773D01*
X142261022Y-127312227D01*
X142287673Y-127290647D01*
X142311386Y-127275877D01*
X142334400Y-127269067D01*
X142355406Y-127274949D01*
G37*
X149486137Y-127273463D02*
X149520291Y-127296776D01*
X149548000Y-127324485D01*
X149548000Y-127637537D01*
X149547959Y-127721567D01*
X149547701Y-127795789D01*
X149547030Y-127852541D01*
X149545752Y-127894512D01*
X149543673Y-127924389D01*
X149540599Y-127944861D01*
X149536334Y-127958614D01*
X149530684Y-127968337D01*
X149523455Y-127976717D01*
X149491991Y-127998181D01*
X149456826Y-127999947D01*
X149423822Y-127980267D01*
X149418516Y-127974398D01*
X149413066Y-127965314D01*
X149408900Y-127951973D01*
X149405846Y-127931757D01*
X149403732Y-127902049D01*
X149402386Y-127860232D01*
X149401638Y-127803689D01*
X149401314Y-127729802D01*
X149401245Y-127635956D01*
X149401284Y-127560294D01*
X149401539Y-127482385D01*
X149402183Y-127422375D01*
X149403387Y-127377648D01*
X149405324Y-127345585D01*
X149408164Y-127323571D01*
X149412079Y-127308987D01*
X149417242Y-127299218D01*
X149423822Y-127291645D01*
X149453006Y-127272623D01*
X149486137Y-127273463D01*
G36*
X149486137Y-127273463D02*
G01*
X149520291Y-127296776D01*
X149548000Y-127324485D01*
X149548000Y-127637537D01*
X149547959Y-127721567D01*
X149547701Y-127795789D01*
X149547030Y-127852541D01*
X149545752Y-127894512D01*
X149543673Y-127924389D01*
X149540599Y-127944861D01*
X149536334Y-127958614D01*
X149530684Y-127968337D01*
X149523455Y-127976717D01*
X149491991Y-127998181D01*
X149456826Y-127999947D01*
X149423822Y-127980267D01*
X149418516Y-127974398D01*
X149413066Y-127965314D01*
X149408900Y-127951973D01*
X149405846Y-127931757D01*
X149403732Y-127902049D01*
X149402386Y-127860232D01*
X149401638Y-127803689D01*
X149401314Y-127729802D01*
X149401245Y-127635956D01*
X149401284Y-127560294D01*
X149401539Y-127482385D01*
X149402183Y-127422375D01*
X149403387Y-127377648D01*
X149405324Y-127345585D01*
X149408164Y-127323571D01*
X149412079Y-127308987D01*
X149417242Y-127299218D01*
X149423822Y-127291645D01*
X149453006Y-127272623D01*
X149486137Y-127273463D01*
G37*
X148954562Y-122032850D02*
X149037313Y-122060053D01*
X149112406Y-122105484D01*
X149184298Y-122171302D01*
X149222846Y-122215567D01*
X149262256Y-122273961D01*
X149287446Y-122334586D01*
X149300861Y-122403865D01*
X149304948Y-122488222D01*
X149304669Y-122534307D01*
X149302460Y-122575450D01*
X149296894Y-122607582D01*
X149286586Y-122638122D01*
X149270148Y-122674489D01*
X149256200Y-122701728D01*
X149197665Y-122787429D01*
X149125619Y-122856617D01*
X149041947Y-122907741D01*
X148948531Y-122939250D01*
X148915434Y-122946225D01*
X148874960Y-122953094D01*
X148841999Y-122954919D01*
X148807698Y-122951947D01*
X148763200Y-122944426D01*
X148711934Y-122932002D01*
X148621434Y-122894112D01*
X148542345Y-122839836D01*
X148476528Y-122771770D01*
X148425840Y-122692511D01*
X148392140Y-122604654D01*
X148377286Y-122510795D01*
X148383136Y-122413530D01*
X148409399Y-122317220D01*
X148454418Y-122228494D01*
X148515373Y-122153419D01*
X148590184Y-122093641D01*
X148676768Y-122050809D01*
X148773043Y-122026571D01*
X148876928Y-122022576D01*
X148954562Y-122032850D01*
G36*
X148954562Y-122032850D02*
G01*
X149037313Y-122060053D01*
X149112406Y-122105484D01*
X149184298Y-122171302D01*
X149222846Y-122215567D01*
X149262256Y-122273961D01*
X149287446Y-122334586D01*
X149300861Y-122403865D01*
X149304948Y-122488222D01*
X149304669Y-122534307D01*
X149302460Y-122575450D01*
X149296894Y-122607582D01*
X149286586Y-122638122D01*
X149270148Y-122674489D01*
X149256200Y-122701728D01*
X149197665Y-122787429D01*
X149125619Y-122856617D01*
X149041947Y-122907741D01*
X148948531Y-122939250D01*
X148915434Y-122946225D01*
X148874960Y-122953094D01*
X148841999Y-122954919D01*
X148807698Y-122951947D01*
X148763200Y-122944426D01*
X148711934Y-122932002D01*
X148621434Y-122894112D01*
X148542345Y-122839836D01*
X148476528Y-122771770D01*
X148425840Y-122692511D01*
X148392140Y-122604654D01*
X148377286Y-122510795D01*
X148383136Y-122413530D01*
X148409399Y-122317220D01*
X148454418Y-122228494D01*
X148515373Y-122153419D01*
X148590184Y-122093641D01*
X148676768Y-122050809D01*
X148773043Y-122026571D01*
X148876928Y-122022576D01*
X148954562Y-122032850D01*
G37*
X141655767Y-127269068D02*
X141749890Y-127269158D01*
X141824405Y-127269498D01*
X141881811Y-127270239D01*
X141924611Y-127271535D01*
X141955304Y-127273537D01*
X141976391Y-127276396D01*
X141990373Y-127280266D01*
X141999750Y-127285298D01*
X142007022Y-127291645D01*
X142025828Y-127324362D01*
X142027275Y-127361939D01*
X142010917Y-127395178D01*
X142009557Y-127396631D01*
X141998354Y-127404992D01*
X141981252Y-127410547D01*
X141954082Y-127413840D01*
X141912678Y-127415418D01*
X141852873Y-127415822D01*
X141713511Y-127415822D01*
X141713511Y-127679589D01*
X141713436Y-127755417D01*
X141713028Y-127822083D01*
X141712046Y-127871867D01*
X141710250Y-127907784D01*
X141707399Y-127932850D01*
X141703253Y-127950081D01*
X141697571Y-127962492D01*
X141690114Y-127973100D01*
X141687824Y-127975906D01*
X141656646Y-127998548D01*
X141622266Y-128000112D01*
X141589334Y-127980267D01*
X141582355Y-127972191D01*
X141576883Y-127961593D01*
X141572863Y-127945749D01*
X141570072Y-127921773D01*
X141568288Y-127886774D01*
X141567289Y-127837864D01*
X141566852Y-127772154D01*
X141566756Y-127686756D01*
X141566756Y-127415822D01*
X141420820Y-127415822D01*
X141409720Y-127415821D01*
X141353202Y-127415596D01*
X141314358Y-127414457D01*
X141288965Y-127411657D01*
X141272804Y-127406450D01*
X141261652Y-127398089D01*
X141251289Y-127385826D01*
X141235441Y-127355138D01*
X141238543Y-127321358D01*
X141264187Y-127288822D01*
X141269129Y-127285105D01*
X141279338Y-127280269D01*
X141294764Y-127276506D01*
X141317886Y-127273683D01*
X141351183Y-127271670D01*
X141397137Y-127270333D01*
X141458228Y-127269542D01*
X141536935Y-127269163D01*
X141635740Y-127269067D01*
X141655767Y-127269068D01*
G36*
X141655767Y-127269068D02*
G01*
X141749890Y-127269158D01*
X141824405Y-127269498D01*
X141881811Y-127270239D01*
X141924611Y-127271535D01*
X141955304Y-127273537D01*
X141976391Y-127276396D01*
X141990373Y-127280266D01*
X141999750Y-127285298D01*
X142007022Y-127291645D01*
X142025828Y-127324362D01*
X142027275Y-127361939D01*
X142010917Y-127395178D01*
X142009557Y-127396631D01*
X141998354Y-127404992D01*
X141981252Y-127410547D01*
X141954082Y-127413840D01*
X141912678Y-127415418D01*
X141852873Y-127415822D01*
X141713511Y-127415822D01*
X141713511Y-127679589D01*
X141713436Y-127755417D01*
X141713028Y-127822083D01*
X141712046Y-127871867D01*
X141710250Y-127907784D01*
X141707399Y-127932850D01*
X141703253Y-127950081D01*
X141697571Y-127962492D01*
X141690114Y-127973100D01*
X141687824Y-127975906D01*
X141656646Y-127998548D01*
X141622266Y-128000112D01*
X141589334Y-127980267D01*
X141582355Y-127972191D01*
X141576883Y-127961593D01*
X141572863Y-127945749D01*
X141570072Y-127921773D01*
X141568288Y-127886774D01*
X141567289Y-127837864D01*
X141566852Y-127772154D01*
X141566756Y-127686756D01*
X141566756Y-127415822D01*
X141420820Y-127415822D01*
X141409720Y-127415821D01*
X141353202Y-127415596D01*
X141314358Y-127414457D01*
X141288965Y-127411657D01*
X141272804Y-127406450D01*
X141261652Y-127398089D01*
X141251289Y-127385826D01*
X141235441Y-127355138D01*
X141238543Y-127321358D01*
X141264187Y-127288822D01*
X141269129Y-127285105D01*
X141279338Y-127280269D01*
X141294764Y-127276506D01*
X141317886Y-127273683D01*
X141351183Y-127271670D01*
X141397137Y-127270333D01*
X141458228Y-127269542D01*
X141536935Y-127269163D01*
X141635740Y-127269067D01*
X141655767Y-127269068D01*
G37*
X140979734Y-127291645D02*
X140985366Y-127297835D01*
X140990456Y-127306041D01*
X140994543Y-127317817D01*
X140997721Y-127335276D01*
X141000087Y-127360530D01*
X141001738Y-127395690D01*
X141002769Y-127442869D01*
X141003277Y-127504177D01*
X141003359Y-127581727D01*
X141003109Y-127677631D01*
X141002625Y-127794000D01*
X141002557Y-127808175D01*
X141001971Y-127869937D01*
X141000648Y-127913620D01*
X140998103Y-127943001D01*
X140993848Y-127961855D01*
X140987396Y-127973959D01*
X140978262Y-127983089D01*
X140944804Y-128000506D01*
X140909856Y-127997604D01*
X140878953Y-127973100D01*
X140869944Y-127959897D01*
X140862492Y-127941361D01*
X140858124Y-127915333D01*
X140856069Y-127876787D01*
X140855556Y-127820700D01*
X140855556Y-127698045D01*
X140358845Y-127698045D01*
X140358845Y-127832871D01*
X140358772Y-127868662D01*
X140358009Y-127914992D01*
X140355833Y-127945526D01*
X140351536Y-127964557D01*
X140344412Y-127976374D01*
X140333755Y-127985271D01*
X140301504Y-128000341D01*
X140266217Y-127997673D01*
X140235486Y-127973100D01*
X140230831Y-127966845D01*
X140224895Y-127956321D01*
X140220364Y-127942391D01*
X140217048Y-127922317D01*
X140214759Y-127893360D01*
X140213308Y-127852780D01*
X140212505Y-127797840D01*
X140212162Y-127725799D01*
X140212089Y-127633920D01*
X140212089Y-127324485D01*
X140239798Y-127296776D01*
X140271177Y-127274533D01*
X140304406Y-127271844D01*
X140336267Y-127291645D01*
X140344553Y-127301415D01*
X140351965Y-127317307D01*
X140356302Y-127341275D01*
X140358338Y-127378148D01*
X140358845Y-127432756D01*
X140358845Y-127551289D01*
X140855556Y-127551289D01*
X140855556Y-127435776D01*
X140855994Y-127384078D01*
X140857958Y-127349554D01*
X140862474Y-127326978D01*
X140870567Y-127311126D01*
X140883265Y-127296776D01*
X140914643Y-127274533D01*
X140947872Y-127271844D01*
X140979734Y-127291645D01*
G36*
X140979734Y-127291645D02*
G01*
X140985366Y-127297835D01*
X140990456Y-127306041D01*
X140994543Y-127317817D01*
X140997721Y-127335276D01*
X141000087Y-127360530D01*
X141001738Y-127395690D01*
X141002769Y-127442869D01*
X141003277Y-127504177D01*
X141003359Y-127581727D01*
X141003109Y-127677631D01*
X141002625Y-127794000D01*
X141002557Y-127808175D01*
X141001971Y-127869937D01*
X141000648Y-127913620D01*
X140998103Y-127943001D01*
X140993848Y-127961855D01*
X140987396Y-127973959D01*
X140978262Y-127983089D01*
X140944804Y-128000506D01*
X140909856Y-127997604D01*
X140878953Y-127973100D01*
X140869944Y-127959897D01*
X140862492Y-127941361D01*
X140858124Y-127915333D01*
X140856069Y-127876787D01*
X140855556Y-127820700D01*
X140855556Y-127698045D01*
X140358845Y-127698045D01*
X140358845Y-127832871D01*
X140358772Y-127868662D01*
X140358009Y-127914992D01*
X140355833Y-127945526D01*
X140351536Y-127964557D01*
X140344412Y-127976374D01*
X140333755Y-127985271D01*
X140301504Y-128000341D01*
X140266217Y-127997673D01*
X140235486Y-127973100D01*
X140230831Y-127966845D01*
X140224895Y-127956321D01*
X140220364Y-127942391D01*
X140217048Y-127922317D01*
X140214759Y-127893360D01*
X140213308Y-127852780D01*
X140212505Y-127797840D01*
X140212162Y-127725799D01*
X140212089Y-127633920D01*
X140212089Y-127324485D01*
X140239798Y-127296776D01*
X140271177Y-127274533D01*
X140304406Y-127271844D01*
X140336267Y-127291645D01*
X140344553Y-127301415D01*
X140351965Y-127317307D01*
X140356302Y-127341275D01*
X140358338Y-127378148D01*
X140358845Y-127432756D01*
X140358845Y-127551289D01*
X140855556Y-127551289D01*
X140855556Y-127435776D01*
X140855994Y-127384078D01*
X140857958Y-127349554D01*
X140862474Y-127326978D01*
X140870567Y-127311126D01*
X140883265Y-127296776D01*
X140914643Y-127274533D01*
X140947872Y-127271844D01*
X140979734Y-127291645D01*
G37*
X145685133Y-127880396D02*
X145683163Y-127913175D01*
X145680235Y-127936095D01*
X145676158Y-127951897D01*
X145670743Y-127963319D01*
X145663803Y-127973100D01*
X145640406Y-128002845D01*
X145474714Y-128002251D01*
X145439918Y-128001953D01*
X145341435Y-127998522D01*
X145260473Y-127990839D01*
X145193379Y-127978282D01*
X145136496Y-127960227D01*
X145086169Y-127936052D01*
X145082810Y-127934135D01*
X145024998Y-127897417D01*
X144982644Y-127860451D01*
X144949828Y-127816966D01*
X144920628Y-127760689D01*
X144916346Y-127751073D01*
X144893769Y-127687887D01*
X144888034Y-127642333D01*
X145037279Y-127642333D01*
X145042892Y-127667061D01*
X145048618Y-127682939D01*
X145081548Y-127742847D01*
X145128886Y-127788600D01*
X145192652Y-127821736D01*
X145274861Y-127843790D01*
X145277655Y-127844292D01*
X145323940Y-127850255D01*
X145380336Y-127854483D01*
X145435274Y-127856089D01*
X145529156Y-127856089D01*
X145529156Y-127415822D01*
X145441667Y-127416270D01*
X145374747Y-127418746D01*
X145282349Y-127429998D01*
X145203034Y-127449537D01*
X145141060Y-127476511D01*
X145110120Y-127497240D01*
X145082000Y-127527006D01*
X145058660Y-127569434D01*
X145051533Y-127585400D01*
X145039709Y-127617902D01*
X145037279Y-127642333D01*
X144888034Y-127642333D01*
X144886797Y-127632509D01*
X144895399Y-127577483D01*
X144919541Y-127515351D01*
X144920337Y-127513658D01*
X144960788Y-127444236D01*
X145011473Y-127387638D01*
X145074198Y-127343070D01*
X145150774Y-127309741D01*
X145243009Y-127286861D01*
X145352712Y-127273636D01*
X145481691Y-127269275D01*
X145485263Y-127269270D01*
X145545283Y-127269410D01*
X145587214Y-127270446D01*
X145615328Y-127273040D01*
X145633897Y-127277853D01*
X145647194Y-127285544D01*
X145659491Y-127296776D01*
X145687200Y-127324485D01*
X145687200Y-127633920D01*
X145687175Y-127695526D01*
X145686950Y-127774311D01*
X145686332Y-127835021D01*
X145685775Y-127856089D01*
X145685133Y-127880396D01*
G36*
X145685133Y-127880396D02*
G01*
X145683163Y-127913175D01*
X145680235Y-127936095D01*
X145676158Y-127951897D01*
X145670743Y-127963319D01*
X145663803Y-127973100D01*
X145640406Y-128002845D01*
X145474714Y-128002251D01*
X145439918Y-128001953D01*
X145341435Y-127998522D01*
X145260473Y-127990839D01*
X145193379Y-127978282D01*
X145136496Y-127960227D01*
X145086169Y-127936052D01*
X145082810Y-127934135D01*
X145024998Y-127897417D01*
X144982644Y-127860451D01*
X144949828Y-127816966D01*
X144920628Y-127760689D01*
X144916346Y-127751073D01*
X144893769Y-127687887D01*
X144888034Y-127642333D01*
X145037279Y-127642333D01*
X145042892Y-127667061D01*
X145048618Y-127682939D01*
X145081548Y-127742847D01*
X145128886Y-127788600D01*
X145192652Y-127821736D01*
X145274861Y-127843790D01*
X145277655Y-127844292D01*
X145323940Y-127850255D01*
X145380336Y-127854483D01*
X145435274Y-127856089D01*
X145529156Y-127856089D01*
X145529156Y-127415822D01*
X145441667Y-127416270D01*
X145374747Y-127418746D01*
X145282349Y-127429998D01*
X145203034Y-127449537D01*
X145141060Y-127476511D01*
X145110120Y-127497240D01*
X145082000Y-127527006D01*
X145058660Y-127569434D01*
X145051533Y-127585400D01*
X145039709Y-127617902D01*
X145037279Y-127642333D01*
X144888034Y-127642333D01*
X144886797Y-127632509D01*
X144895399Y-127577483D01*
X144919541Y-127515351D01*
X144920337Y-127513658D01*
X144960788Y-127444236D01*
X145011473Y-127387638D01*
X145074198Y-127343070D01*
X145150774Y-127309741D01*
X145243009Y-127286861D01*
X145352712Y-127273636D01*
X145481691Y-127269275D01*
X145485263Y-127269270D01*
X145545283Y-127269410D01*
X145587214Y-127270446D01*
X145615328Y-127273040D01*
X145633897Y-127277853D01*
X145647194Y-127285544D01*
X145659491Y-127296776D01*
X145687200Y-127324485D01*
X145687200Y-127633920D01*
X145687175Y-127695526D01*
X145686950Y-127774311D01*
X145686332Y-127835021D01*
X145685775Y-127856089D01*
X145685133Y-127880396D01*
G37*
X152776817Y-127454427D02*
X152776870Y-127535041D01*
X152776622Y-127635956D01*
X152776583Y-127711617D01*
X152776328Y-127789526D01*
X152775684Y-127849536D01*
X152774480Y-127894264D01*
X152772543Y-127926326D01*
X152769703Y-127948340D01*
X152765788Y-127962924D01*
X152760626Y-127972694D01*
X152754045Y-127980267D01*
X152747077Y-127986501D01*
X152734079Y-127993801D01*
X152714931Y-127998554D01*
X152685528Y-128001292D01*
X152641762Y-128002545D01*
X152579528Y-128002845D01*
X152530582Y-128002469D01*
X152423722Y-127998041D01*
X152334494Y-127987953D01*
X152259696Y-127971365D01*
X152196125Y-127947435D01*
X152140579Y-127915321D01*
X152089854Y-127874182D01*
X152083866Y-127868330D01*
X152046999Y-127819821D01*
X152015899Y-127759013D01*
X151994417Y-127694769D01*
X151989136Y-127656026D01*
X152136353Y-127656026D01*
X152154635Y-127706961D01*
X152184305Y-127752878D01*
X152231002Y-127795287D01*
X152292392Y-127825090D01*
X152371538Y-127844226D01*
X152373028Y-127844464D01*
X152421999Y-127850256D01*
X152480693Y-127854396D01*
X152536734Y-127856004D01*
X152629867Y-127856089D01*
X152629867Y-127415822D01*
X152553667Y-127415808D01*
X152550639Y-127415817D01*
X152499519Y-127417782D01*
X152439416Y-127422507D01*
X152382708Y-127429035D01*
X152332750Y-127438331D01*
X152257998Y-127464600D01*
X152200489Y-127503899D01*
X152158988Y-127556933D01*
X152137771Y-127608200D01*
X152136353Y-127656026D01*
X151989136Y-127656026D01*
X151986400Y-127635956D01*
X151987679Y-127614739D01*
X151999991Y-127557323D01*
X152022520Y-127497413D01*
X152051750Y-127443363D01*
X152084167Y-127403532D01*
X152103708Y-127386510D01*
X152158420Y-127347322D01*
X152218723Y-127317193D01*
X152287919Y-127295232D01*
X152369311Y-127280550D01*
X152466200Y-127272259D01*
X152581889Y-127269467D01*
X152621371Y-127269066D01*
X152667082Y-127268653D01*
X152702883Y-127270457D01*
X152729974Y-127276739D01*
X152749556Y-127289759D01*
X152762830Y-127311778D01*
X152770998Y-127345055D01*
X152775260Y-127391851D01*
X152775857Y-127415822D01*
X152776817Y-127454427D01*
G36*
X152776817Y-127454427D02*
G01*
X152776870Y-127535041D01*
X152776622Y-127635956D01*
X152776583Y-127711617D01*
X152776328Y-127789526D01*
X152775684Y-127849536D01*
X152774480Y-127894264D01*
X152772543Y-127926326D01*
X152769703Y-127948340D01*
X152765788Y-127962924D01*
X152760626Y-127972694D01*
X152754045Y-127980267D01*
X152747077Y-127986501D01*
X152734079Y-127993801D01*
X152714931Y-127998554D01*
X152685528Y-128001292D01*
X152641762Y-128002545D01*
X152579528Y-128002845D01*
X152530582Y-128002469D01*
X152423722Y-127998041D01*
X152334494Y-127987953D01*
X152259696Y-127971365D01*
X152196125Y-127947435D01*
X152140579Y-127915321D01*
X152089854Y-127874182D01*
X152083866Y-127868330D01*
X152046999Y-127819821D01*
X152015899Y-127759013D01*
X151994417Y-127694769D01*
X151989136Y-127656026D01*
X152136353Y-127656026D01*
X152154635Y-127706961D01*
X152184305Y-127752878D01*
X152231002Y-127795287D01*
X152292392Y-127825090D01*
X152371538Y-127844226D01*
X152373028Y-127844464D01*
X152421999Y-127850256D01*
X152480693Y-127854396D01*
X152536734Y-127856004D01*
X152629867Y-127856089D01*
X152629867Y-127415822D01*
X152553667Y-127415808D01*
X152550639Y-127415817D01*
X152499519Y-127417782D01*
X152439416Y-127422507D01*
X152382708Y-127429035D01*
X152332750Y-127438331D01*
X152257998Y-127464600D01*
X152200489Y-127503899D01*
X152158988Y-127556933D01*
X152137771Y-127608200D01*
X152136353Y-127656026D01*
X151989136Y-127656026D01*
X151986400Y-127635956D01*
X151987679Y-127614739D01*
X151999991Y-127557323D01*
X152022520Y-127497413D01*
X152051750Y-127443363D01*
X152084167Y-127403532D01*
X152103708Y-127386510D01*
X152158420Y-127347322D01*
X152218723Y-127317193D01*
X152287919Y-127295232D01*
X152369311Y-127280550D01*
X152466200Y-127272259D01*
X152581889Y-127269467D01*
X152621371Y-127269066D01*
X152667082Y-127268653D01*
X152702883Y-127270457D01*
X152729974Y-127276739D01*
X152749556Y-127289759D01*
X152762830Y-127311778D01*
X152770998Y-127345055D01*
X152775260Y-127391851D01*
X152775857Y-127415822D01*
X152776817Y-127454427D01*
G37*
X147831893Y-127267892D02*
X147843301Y-127274029D01*
X147853850Y-127284691D01*
X147865136Y-127298811D01*
X147869589Y-127304772D01*
X147875588Y-127315268D01*
X147880167Y-127329093D01*
X147883519Y-127348998D01*
X147885833Y-127377732D01*
X147887301Y-127418045D01*
X147888113Y-127472687D01*
X147888460Y-127544407D01*
X147888534Y-127635956D01*
X147888511Y-127694486D01*
X147888292Y-127773573D01*
X147887683Y-127834516D01*
X147886492Y-127880062D01*
X147884529Y-127912963D01*
X147881603Y-127935968D01*
X147877523Y-127951826D01*
X147872097Y-127963286D01*
X147865136Y-127973100D01*
X147834708Y-127997493D01*
X147799765Y-128000372D01*
X147762784Y-127981282D01*
X147758600Y-127977807D01*
X147750424Y-127969279D01*
X147744364Y-127957728D01*
X147739981Y-127939896D01*
X147736839Y-127912524D01*
X147734502Y-127872354D01*
X147732531Y-127816128D01*
X147730489Y-127740589D01*
X147724845Y-127521458D01*
X147459556Y-127762099D01*
X147385722Y-127828875D01*
X147320542Y-127886991D01*
X147268348Y-127931949D01*
X147227273Y-127964871D01*
X147195455Y-127986879D01*
X147171026Y-127999094D01*
X147152124Y-128002639D01*
X147136883Y-127998636D01*
X147123439Y-127988207D01*
X147109927Y-127972474D01*
X147103682Y-127963991D01*
X147098050Y-127953413D01*
X147093839Y-127939255D01*
X147090887Y-127918803D01*
X147089032Y-127889342D01*
X147088113Y-127848161D01*
X147087968Y-127792544D01*
X147088435Y-127719779D01*
X147089352Y-127627151D01*
X147092667Y-127312199D01*
X147119318Y-127290633D01*
X147145383Y-127274441D01*
X147178241Y-127271670D01*
X147212772Y-127290623D01*
X147217084Y-127294208D01*
X147225216Y-127302737D01*
X147231245Y-127314329D01*
X147235606Y-127332235D01*
X147238734Y-127359706D01*
X147241063Y-127399994D01*
X147243029Y-127456351D01*
X147245067Y-127532029D01*
X147250711Y-127751878D01*
X147431334Y-127588084D01*
X147518072Y-127509451D01*
X147593843Y-127441058D01*
X147655980Y-127385708D01*
X147706078Y-127342338D01*
X147745735Y-127309881D01*
X147776548Y-127287273D01*
X147800114Y-127273448D01*
X147818030Y-127267343D01*
X147831893Y-127267892D01*
G36*
X147831893Y-127267892D02*
G01*
X147843301Y-127274029D01*
X147853850Y-127284691D01*
X147865136Y-127298811D01*
X147869589Y-127304772D01*
X147875588Y-127315268D01*
X147880167Y-127329093D01*
X147883519Y-127348998D01*
X147885833Y-127377732D01*
X147887301Y-127418045D01*
X147888113Y-127472687D01*
X147888460Y-127544407D01*
X147888534Y-127635956D01*
X147888511Y-127694486D01*
X147888292Y-127773573D01*
X147887683Y-127834516D01*
X147886492Y-127880062D01*
X147884529Y-127912963D01*
X147881603Y-127935968D01*
X147877523Y-127951826D01*
X147872097Y-127963286D01*
X147865136Y-127973100D01*
X147834708Y-127997493D01*
X147799765Y-128000372D01*
X147762784Y-127981282D01*
X147758600Y-127977807D01*
X147750424Y-127969279D01*
X147744364Y-127957728D01*
X147739981Y-127939896D01*
X147736839Y-127912524D01*
X147734502Y-127872354D01*
X147732531Y-127816128D01*
X147730489Y-127740589D01*
X147724845Y-127521458D01*
X147459556Y-127762099D01*
X147385722Y-127828875D01*
X147320542Y-127886991D01*
X147268348Y-127931949D01*
X147227273Y-127964871D01*
X147195455Y-127986879D01*
X147171026Y-127999094D01*
X147152124Y-128002639D01*
X147136883Y-127998636D01*
X147123439Y-127988207D01*
X147109927Y-127972474D01*
X147103682Y-127963991D01*
X147098050Y-127953413D01*
X147093839Y-127939255D01*
X147090887Y-127918803D01*
X147089032Y-127889342D01*
X147088113Y-127848161D01*
X147087968Y-127792544D01*
X147088435Y-127719779D01*
X147089352Y-127627151D01*
X147092667Y-127312199D01*
X147119318Y-127290633D01*
X147145383Y-127274441D01*
X147178241Y-127271670D01*
X147212772Y-127290623D01*
X147217084Y-127294208D01*
X147225216Y-127302737D01*
X147231245Y-127314329D01*
X147235606Y-127332235D01*
X147238734Y-127359706D01*
X147241063Y-127399994D01*
X147243029Y-127456351D01*
X147245067Y-127532029D01*
X147250711Y-127751878D01*
X147431334Y-127588084D01*
X147518072Y-127509451D01*
X147593843Y-127441058D01*
X147655980Y-127385708D01*
X147706078Y-127342338D01*
X147745735Y-127309881D01*
X147776548Y-127287273D01*
X147800114Y-127273448D01*
X147818030Y-127267343D01*
X147831893Y-127267892D01*
G37*
X148629150Y-127274179D02*
X148735157Y-127290494D01*
X148828969Y-127318545D01*
X148907765Y-127357452D01*
X148968719Y-127406334D01*
X148994789Y-127439195D01*
X149024297Y-127488394D01*
X149049568Y-127542252D01*
X149067218Y-127593419D01*
X149073858Y-127634544D01*
X149072298Y-127654259D01*
X149059357Y-127705592D01*
X149036194Y-127762118D01*
X149006302Y-127816035D01*
X148973173Y-127859539D01*
X148962977Y-127869887D01*
X148895892Y-127921662D01*
X148815766Y-127961554D01*
X148729556Y-127985956D01*
X148674592Y-127994068D01*
X148581139Y-128000673D01*
X148491358Y-127998586D01*
X148408869Y-127988340D01*
X148337286Y-127970470D01*
X148280228Y-127945508D01*
X148241311Y-127913988D01*
X148239936Y-127912012D01*
X148232848Y-127886786D01*
X148228609Y-127839535D01*
X148227200Y-127770071D01*
X148228060Y-127707838D01*
X148232780Y-127660456D01*
X148244470Y-127628353D01*
X148266239Y-127608800D01*
X148301198Y-127599070D01*
X148352456Y-127596433D01*
X148423123Y-127598161D01*
X148471743Y-127601173D01*
X148521939Y-127609366D01*
X148554433Y-127623419D01*
X148571892Y-127644654D01*
X148576983Y-127674394D01*
X148576877Y-127678936D01*
X148568175Y-127713730D01*
X148544165Y-127737147D01*
X148502900Y-127750347D01*
X148442431Y-127754489D01*
X148373956Y-127754489D01*
X148373956Y-127792841D01*
X148374006Y-127801976D01*
X148376227Y-127819227D01*
X148385494Y-127829521D01*
X148406875Y-127836459D01*
X148445436Y-127843641D01*
X148450910Y-127844575D01*
X148547860Y-127854478D01*
X148637852Y-127851559D01*
X148718760Y-127836829D01*
X148788459Y-127811299D01*
X148844824Y-127775978D01*
X148885729Y-127731879D01*
X148909051Y-127680012D01*
X148912663Y-127621388D01*
X148907145Y-127592494D01*
X148880461Y-127536604D01*
X148834273Y-127490945D01*
X148769291Y-127456108D01*
X148686229Y-127432690D01*
X148661555Y-127428241D01*
X148572226Y-127417742D01*
X148492419Y-127418971D01*
X148414326Y-127431906D01*
X148379183Y-127438696D01*
X148333745Y-127439713D01*
X148302430Y-127427182D01*
X148282277Y-127400395D01*
X148275893Y-127372148D01*
X148285379Y-127340924D01*
X148294708Y-127327499D01*
X148328943Y-127303967D01*
X148381565Y-127286095D01*
X148450081Y-127274599D01*
X148532000Y-127270192D01*
X148629150Y-127274179D01*
G36*
X148629150Y-127274179D02*
G01*
X148735157Y-127290494D01*
X148828969Y-127318545D01*
X148907765Y-127357452D01*
X148968719Y-127406334D01*
X148994789Y-127439195D01*
X149024297Y-127488394D01*
X149049568Y-127542252D01*
X149067218Y-127593419D01*
X149073858Y-127634544D01*
X149072298Y-127654259D01*
X149059357Y-127705592D01*
X149036194Y-127762118D01*
X149006302Y-127816035D01*
X148973173Y-127859539D01*
X148962977Y-127869887D01*
X148895892Y-127921662D01*
X148815766Y-127961554D01*
X148729556Y-127985956D01*
X148674592Y-127994068D01*
X148581139Y-128000673D01*
X148491358Y-127998586D01*
X148408869Y-127988340D01*
X148337286Y-127970470D01*
X148280228Y-127945508D01*
X148241311Y-127913988D01*
X148239936Y-127912012D01*
X148232848Y-127886786D01*
X148228609Y-127839535D01*
X148227200Y-127770071D01*
X148228060Y-127707838D01*
X148232780Y-127660456D01*
X148244470Y-127628353D01*
X148266239Y-127608800D01*
X148301198Y-127599070D01*
X148352456Y-127596433D01*
X148423123Y-127598161D01*
X148471743Y-127601173D01*
X148521939Y-127609366D01*
X148554433Y-127623419D01*
X148571892Y-127644654D01*
X148576983Y-127674394D01*
X148576877Y-127678936D01*
X148568175Y-127713730D01*
X148544165Y-127737147D01*
X148502900Y-127750347D01*
X148442431Y-127754489D01*
X148373956Y-127754489D01*
X148373956Y-127792841D01*
X148374006Y-127801976D01*
X148376227Y-127819227D01*
X148385494Y-127829521D01*
X148406875Y-127836459D01*
X148445436Y-127843641D01*
X148450910Y-127844575D01*
X148547860Y-127854478D01*
X148637852Y-127851559D01*
X148718760Y-127836829D01*
X148788459Y-127811299D01*
X148844824Y-127775978D01*
X148885729Y-127731879D01*
X148909051Y-127680012D01*
X148912663Y-127621388D01*
X148907145Y-127592494D01*
X148880461Y-127536604D01*
X148834273Y-127490945D01*
X148769291Y-127456108D01*
X148686229Y-127432690D01*
X148661555Y-127428241D01*
X148572226Y-127417742D01*
X148492419Y-127418971D01*
X148414326Y-127431906D01*
X148379183Y-127438696D01*
X148333745Y-127439713D01*
X148302430Y-127427182D01*
X148282277Y-127400395D01*
X148275893Y-127372148D01*
X148285379Y-127340924D01*
X148294708Y-127327499D01*
X148328943Y-127303967D01*
X148381565Y-127286095D01*
X148450081Y-127274599D01*
X148532000Y-127270192D01*
X148629150Y-127274179D01*
G37*
X146679803Y-127298811D02*
X146684752Y-127305495D01*
X146690596Y-127316066D01*
X146695057Y-127330153D01*
X146698321Y-127350478D01*
X146700574Y-127379765D01*
X146702002Y-127420737D01*
X146702792Y-127476117D01*
X146703129Y-127548628D01*
X146703200Y-127640994D01*
X146703171Y-127706911D01*
X146702939Y-127785228D01*
X146702319Y-127845496D01*
X146701126Y-127890393D01*
X146699179Y-127922602D01*
X146696294Y-127944800D01*
X146692288Y-127959669D01*
X146686979Y-127969889D01*
X146680183Y-127978138D01*
X146675668Y-127982795D01*
X146667438Y-127989282D01*
X146656078Y-127994194D01*
X146638810Y-127997749D01*
X146612855Y-128000167D01*
X146575436Y-128001667D01*
X146523773Y-128002467D01*
X146455089Y-128002787D01*
X146366606Y-128002845D01*
X146346931Y-128002838D01*
X146259906Y-128002572D01*
X146192254Y-128001806D01*
X146141299Y-128000392D01*
X146104367Y-127998180D01*
X146078783Y-127995022D01*
X146061871Y-127990769D01*
X146050957Y-127985271D01*
X146040464Y-127975285D01*
X146027203Y-127944168D01*
X146028386Y-127908280D01*
X146044550Y-127876733D01*
X146046739Y-127874457D01*
X146055427Y-127868189D01*
X146068769Y-127863523D01*
X146089752Y-127860227D01*
X146121363Y-127858068D01*
X146166590Y-127856814D01*
X146228420Y-127856231D01*
X146309839Y-127856089D01*
X146556445Y-127856089D01*
X146556445Y-127698045D01*
X146394006Y-127698045D01*
X146358338Y-127697964D01*
X146302568Y-127697167D01*
X146263430Y-127695162D01*
X146236976Y-127691521D01*
X146219259Y-127685812D01*
X146206329Y-127677607D01*
X146202686Y-127674423D01*
X146184278Y-127643448D01*
X146183644Y-127607112D01*
X146201183Y-127573493D01*
X146201245Y-127573424D01*
X146210916Y-127564798D01*
X146224209Y-127558742D01*
X146244917Y-127554811D01*
X146276828Y-127552556D01*
X146323734Y-127551531D01*
X146389424Y-127551289D01*
X146557571Y-127551289D01*
X146554186Y-127486378D01*
X146550800Y-127421467D01*
X146308723Y-127418414D01*
X146283707Y-127418086D01*
X146202087Y-127416606D01*
X146139768Y-127414222D01*
X146094154Y-127410227D01*
X146062652Y-127403913D01*
X146042667Y-127394574D01*
X146031604Y-127381503D01*
X146026869Y-127363992D01*
X146025867Y-127341335D01*
X146025873Y-127338970D01*
X146027027Y-127318939D01*
X146031824Y-127303146D01*
X146042632Y-127291090D01*
X146061817Y-127282267D01*
X146091745Y-127276175D01*
X146134783Y-127272311D01*
X146193299Y-127270174D01*
X146269657Y-127269260D01*
X146366226Y-127269067D01*
X146656406Y-127269067D01*
X146679803Y-127298811D01*
G36*
X146679803Y-127298811D02*
G01*
X146684752Y-127305495D01*
X146690596Y-127316066D01*
X146695057Y-127330153D01*
X146698321Y-127350478D01*
X146700574Y-127379765D01*
X146702002Y-127420737D01*
X146702792Y-127476117D01*
X146703129Y-127548628D01*
X146703200Y-127640994D01*
X146703171Y-127706911D01*
X146702939Y-127785228D01*
X146702319Y-127845496D01*
X146701126Y-127890393D01*
X146699179Y-127922602D01*
X146696294Y-127944800D01*
X146692288Y-127959669D01*
X146686979Y-127969889D01*
X146680183Y-127978138D01*
X146675668Y-127982795D01*
X146667438Y-127989282D01*
X146656078Y-127994194D01*
X146638810Y-127997749D01*
X146612855Y-128000167D01*
X146575436Y-128001667D01*
X146523773Y-128002467D01*
X146455089Y-128002787D01*
X146366606Y-128002845D01*
X146346931Y-128002838D01*
X146259906Y-128002572D01*
X146192254Y-128001806D01*
X146141299Y-128000392D01*
X146104367Y-127998180D01*
X146078783Y-127995022D01*
X146061871Y-127990769D01*
X146050957Y-127985271D01*
X146040464Y-127975285D01*
X146027203Y-127944168D01*
X146028386Y-127908280D01*
X146044550Y-127876733D01*
X146046739Y-127874457D01*
X146055427Y-127868189D01*
X146068769Y-127863523D01*
X146089752Y-127860227D01*
X146121363Y-127858068D01*
X146166590Y-127856814D01*
X146228420Y-127856231D01*
X146309839Y-127856089D01*
X146556445Y-127856089D01*
X146556445Y-127698045D01*
X146394006Y-127698045D01*
X146358338Y-127697964D01*
X146302568Y-127697167D01*
X146263430Y-127695162D01*
X146236976Y-127691521D01*
X146219259Y-127685812D01*
X146206329Y-127677607D01*
X146202686Y-127674423D01*
X146184278Y-127643448D01*
X146183644Y-127607112D01*
X146201183Y-127573493D01*
X146201245Y-127573424D01*
X146210916Y-127564798D01*
X146224209Y-127558742D01*
X146244917Y-127554811D01*
X146276828Y-127552556D01*
X146323734Y-127551531D01*
X146389424Y-127551289D01*
X146557571Y-127551289D01*
X146554186Y-127486378D01*
X146550800Y-127421467D01*
X146308723Y-127418414D01*
X146283707Y-127418086D01*
X146202087Y-127416606D01*
X146139768Y-127414222D01*
X146094154Y-127410227D01*
X146062652Y-127403913D01*
X146042667Y-127394574D01*
X146031604Y-127381503D01*
X146026869Y-127363992D01*
X146025867Y-127341335D01*
X146025873Y-127338970D01*
X146027027Y-127318939D01*
X146031824Y-127303146D01*
X146042632Y-127291090D01*
X146061817Y-127282267D01*
X146091745Y-127276175D01*
X146134783Y-127272311D01*
X146193299Y-127270174D01*
X146269657Y-127269260D01*
X146366226Y-127269067D01*
X146656406Y-127269067D01*
X146679803Y-127298811D01*
G37*
X151356734Y-127269083D02*
X151433831Y-127269275D01*
X151492777Y-127269860D01*
X151536364Y-127271051D01*
X151567383Y-127273064D01*
X151588625Y-127276112D01*
X151602882Y-127280409D01*
X151612945Y-127286172D01*
X151621606Y-127293612D01*
X151623391Y-127295293D01*
X151630635Y-127302832D01*
X151636277Y-127311850D01*
X151640517Y-127324984D01*
X151643556Y-127344872D01*
X151645594Y-127374151D01*
X151646830Y-127415458D01*
X151647465Y-127471431D01*
X151647700Y-127544707D01*
X151647734Y-127637923D01*
X151647697Y-127710713D01*
X151647448Y-127788889D01*
X151646812Y-127849103D01*
X151645615Y-127893982D01*
X151643684Y-127926152D01*
X151640846Y-127948239D01*
X151636927Y-127962870D01*
X151631755Y-127972670D01*
X151625156Y-127980267D01*
X151621822Y-127983444D01*
X151613300Y-127989554D01*
X151601298Y-127994229D01*
X151583087Y-127997659D01*
X151555940Y-128000036D01*
X151517129Y-128001552D01*
X151463924Y-128002398D01*
X151393598Y-128002765D01*
X151303422Y-128002845D01*
X151261314Y-128002833D01*
X151180167Y-128002651D01*
X151117675Y-128002098D01*
X151071109Y-128000982D01*
X151037741Y-127999113D01*
X151014844Y-127996298D01*
X150999688Y-127992346D01*
X150989546Y-127987066D01*
X150981689Y-127980267D01*
X150966963Y-127958667D01*
X150959111Y-127929467D01*
X150964610Y-127905560D01*
X150981689Y-127878667D01*
X150986668Y-127874059D01*
X150996443Y-127867772D01*
X151010559Y-127863146D01*
X151032054Y-127859930D01*
X151063968Y-127857870D01*
X151109342Y-127856712D01*
X151171213Y-127856202D01*
X151252622Y-127856089D01*
X151500978Y-127856089D01*
X151500978Y-127698045D01*
X151339801Y-127698045D01*
X151303983Y-127697899D01*
X151238359Y-127696176D01*
X151191118Y-127691741D01*
X151159383Y-127683637D01*
X151140277Y-127670906D01*
X151130923Y-127652592D01*
X151128445Y-127627738D01*
X151129242Y-127607482D01*
X151134494Y-127585656D01*
X151147288Y-127570304D01*
X151170628Y-127560309D01*
X151207517Y-127554553D01*
X151260959Y-127551919D01*
X151333958Y-127551289D01*
X151502105Y-127551289D01*
X151498719Y-127486378D01*
X151495334Y-127421467D01*
X151247617Y-127418418D01*
X151185026Y-127417539D01*
X151116565Y-127416095D01*
X151065661Y-127414164D01*
X151029408Y-127411514D01*
X151004901Y-127407910D01*
X150989235Y-127403121D01*
X150979506Y-127396913D01*
X150973491Y-127390510D01*
X150960482Y-127358828D01*
X150964043Y-127323142D01*
X150983818Y-127292084D01*
X150987069Y-127289161D01*
X150996049Y-127282810D01*
X151008153Y-127277957D01*
X151026159Y-127274403D01*
X151052847Y-127271946D01*
X151090997Y-127270385D01*
X151143386Y-127269518D01*
X151212794Y-127269146D01*
X151302001Y-127269067D01*
X151356734Y-127269083D01*
G36*
X151356734Y-127269083D02*
G01*
X151433831Y-127269275D01*
X151492777Y-127269860D01*
X151536364Y-127271051D01*
X151567383Y-127273064D01*
X151588625Y-127276112D01*
X151602882Y-127280409D01*
X151612945Y-127286172D01*
X151621606Y-127293612D01*
X151623391Y-127295293D01*
X151630635Y-127302832D01*
X151636277Y-127311850D01*
X151640517Y-127324984D01*
X151643556Y-127344872D01*
X151645594Y-127374151D01*
X151646830Y-127415458D01*
X151647465Y-127471431D01*
X151647700Y-127544707D01*
X151647734Y-127637923D01*
X151647697Y-127710713D01*
X151647448Y-127788889D01*
X151646812Y-127849103D01*
X151645615Y-127893982D01*
X151643684Y-127926152D01*
X151640846Y-127948239D01*
X151636927Y-127962870D01*
X151631755Y-127972670D01*
X151625156Y-127980267D01*
X151621822Y-127983444D01*
X151613300Y-127989554D01*
X151601298Y-127994229D01*
X151583087Y-127997659D01*
X151555940Y-128000036D01*
X151517129Y-128001552D01*
X151463924Y-128002398D01*
X151393598Y-128002765D01*
X151303422Y-128002845D01*
X151261314Y-128002833D01*
X151180167Y-128002651D01*
X151117675Y-128002098D01*
X151071109Y-128000982D01*
X151037741Y-127999113D01*
X151014844Y-127996298D01*
X150999688Y-127992346D01*
X150989546Y-127987066D01*
X150981689Y-127980267D01*
X150966963Y-127958667D01*
X150959111Y-127929467D01*
X150964610Y-127905560D01*
X150981689Y-127878667D01*
X150986668Y-127874059D01*
X150996443Y-127867772D01*
X151010559Y-127863146D01*
X151032054Y-127859930D01*
X151063968Y-127857870D01*
X151109342Y-127856712D01*
X151171213Y-127856202D01*
X151252622Y-127856089D01*
X151500978Y-127856089D01*
X151500978Y-127698045D01*
X151339801Y-127698045D01*
X151303983Y-127697899D01*
X151238359Y-127696176D01*
X151191118Y-127691741D01*
X151159383Y-127683637D01*
X151140277Y-127670906D01*
X151130923Y-127652592D01*
X151128445Y-127627738D01*
X151129242Y-127607482D01*
X151134494Y-127585656D01*
X151147288Y-127570304D01*
X151170628Y-127560309D01*
X151207517Y-127554553D01*
X151260959Y-127551919D01*
X151333958Y-127551289D01*
X151502105Y-127551289D01*
X151498719Y-127486378D01*
X151495334Y-127421467D01*
X151247617Y-127418418D01*
X151185026Y-127417539D01*
X151116565Y-127416095D01*
X151065661Y-127414164D01*
X151029408Y-127411514D01*
X151004901Y-127407910D01*
X150989235Y-127403121D01*
X150979506Y-127396913D01*
X150973491Y-127390510D01*
X150960482Y-127358828D01*
X150964043Y-127323142D01*
X150983818Y-127292084D01*
X150987069Y-127289161D01*
X150996049Y-127282810D01*
X151008153Y-127277957D01*
X151026159Y-127274403D01*
X151052847Y-127271946D01*
X151090997Y-127270385D01*
X151143386Y-127269518D01*
X151212794Y-127269146D01*
X151302001Y-127269067D01*
X151356734Y-127269083D01*
G37*
X142789702Y-127278478D02*
X142807663Y-127296989D01*
X142828263Y-127328071D01*
X142853095Y-127373756D01*
X142883750Y-127436078D01*
X142921820Y-127517071D01*
X142936454Y-127548454D01*
X142966203Y-127611638D01*
X142992297Y-127666244D01*
X143013292Y-127709290D01*
X143027739Y-127737793D01*
X143034191Y-127748770D01*
X143035550Y-127748189D01*
X143045542Y-127734242D01*
X143062833Y-127704704D01*
X143085430Y-127663087D01*
X143111338Y-127612903D01*
X143127311Y-127581414D01*
X143156261Y-127526061D01*
X143178749Y-127487044D01*
X143196965Y-127461566D01*
X143213096Y-127446831D01*
X143229330Y-127440042D01*
X143247857Y-127438400D01*
X143258360Y-127438875D01*
X143274476Y-127443082D01*
X143289790Y-127453946D01*
X143306388Y-127474219D01*
X143326357Y-127506654D01*
X143351783Y-127554004D01*
X143384752Y-127619022D01*
X143394485Y-127638277D01*
X143418943Y-127684946D01*
X143439178Y-127721109D01*
X143453311Y-127743497D01*
X143459460Y-127748845D01*
X143460827Y-127745573D01*
X143470202Y-127724664D01*
X143487062Y-127687725D01*
X143509979Y-127637874D01*
X143537520Y-127578226D01*
X143568255Y-127511898D01*
X143594970Y-127454677D01*
X143624593Y-127392688D01*
X143647664Y-127346949D01*
X143665643Y-127314908D01*
X143679990Y-127294014D01*
X143692166Y-127281718D01*
X143703632Y-127275466D01*
X143713042Y-127272574D01*
X143738147Y-127272425D01*
X143765290Y-127287768D01*
X143766590Y-127288753D01*
X143788674Y-127311388D01*
X143799723Y-127333613D01*
X143799769Y-127334253D01*
X143795228Y-127351915D01*
X143782364Y-127386481D01*
X143762605Y-127434826D01*
X143737381Y-127493825D01*
X143708119Y-127560355D01*
X143676250Y-127631291D01*
X143643201Y-127703507D01*
X143610401Y-127773880D01*
X143579280Y-127839285D01*
X143551265Y-127896597D01*
X143527786Y-127942692D01*
X143510272Y-127974446D01*
X143500151Y-127988733D01*
X143465743Y-128002102D01*
X143424046Y-127995741D01*
X143418681Y-127991044D01*
X143402852Y-127968893D01*
X143380650Y-127932132D01*
X143354233Y-127884415D01*
X143325760Y-127829393D01*
X143245986Y-127670150D01*
X143172799Y-127816742D01*
X143163103Y-127836032D01*
X143136125Y-127888380D01*
X143112096Y-127933170D01*
X143093332Y-127966154D01*
X143082146Y-127983089D01*
X143081000Y-127984332D01*
X143052879Y-127999619D01*
X143017817Y-128001302D01*
X142986776Y-127988733D01*
X142984350Y-127985884D01*
X142972090Y-127965259D01*
X142952352Y-127927708D01*
X142926448Y-127875880D01*
X142895685Y-127812423D01*
X142861375Y-127739985D01*
X142824825Y-127661216D01*
X142804585Y-127617093D01*
X142767812Y-127536365D01*
X142739355Y-127472687D01*
X142718331Y-127423752D01*
X142703854Y-127387257D01*
X142695039Y-127360895D01*
X142691004Y-127342361D01*
X142690862Y-127329352D01*
X142693730Y-127319561D01*
X142708387Y-127298678D01*
X142734990Y-127278377D01*
X142735745Y-127278035D01*
X142755335Y-127271034D01*
X142772790Y-127270504D01*
X142789702Y-127278478D01*
G36*
X142789702Y-127278478D02*
G01*
X142807663Y-127296989D01*
X142828263Y-127328071D01*
X142853095Y-127373756D01*
X142883750Y-127436078D01*
X142921820Y-127517071D01*
X142936454Y-127548454D01*
X142966203Y-127611638D01*
X142992297Y-127666244D01*
X143013292Y-127709290D01*
X143027739Y-127737793D01*
X143034191Y-127748770D01*
X143035550Y-127748189D01*
X143045542Y-127734242D01*
X143062833Y-127704704D01*
X143085430Y-127663087D01*
X143111338Y-127612903D01*
X143127311Y-127581414D01*
X143156261Y-127526061D01*
X143178749Y-127487044D01*
X143196965Y-127461566D01*
X143213096Y-127446831D01*
X143229330Y-127440042D01*
X143247857Y-127438400D01*
X143258360Y-127438875D01*
X143274476Y-127443082D01*
X143289790Y-127453946D01*
X143306388Y-127474219D01*
X143326357Y-127506654D01*
X143351783Y-127554004D01*
X143384752Y-127619022D01*
X143394485Y-127638277D01*
X143418943Y-127684946D01*
X143439178Y-127721109D01*
X143453311Y-127743497D01*
X143459460Y-127748845D01*
X143460827Y-127745573D01*
X143470202Y-127724664D01*
X143487062Y-127687725D01*
X143509979Y-127637874D01*
X143537520Y-127578226D01*
X143568255Y-127511898D01*
X143594970Y-127454677D01*
X143624593Y-127392688D01*
X143647664Y-127346949D01*
X143665643Y-127314908D01*
X143679990Y-127294014D01*
X143692166Y-127281718D01*
X143703632Y-127275466D01*
X143713042Y-127272574D01*
X143738147Y-127272425D01*
X143765290Y-127287768D01*
X143766590Y-127288753D01*
X143788674Y-127311388D01*
X143799723Y-127333613D01*
X143799769Y-127334253D01*
X143795228Y-127351915D01*
X143782364Y-127386481D01*
X143762605Y-127434826D01*
X143737381Y-127493825D01*
X143708119Y-127560355D01*
X143676250Y-127631291D01*
X143643201Y-127703507D01*
X143610401Y-127773880D01*
X143579280Y-127839285D01*
X143551265Y-127896597D01*
X143527786Y-127942692D01*
X143510272Y-127974446D01*
X143500151Y-127988733D01*
X143465743Y-128002102D01*
X143424046Y-127995741D01*
X143418681Y-127991044D01*
X143402852Y-127968893D01*
X143380650Y-127932132D01*
X143354233Y-127884415D01*
X143325760Y-127829393D01*
X143245986Y-127670150D01*
X143172799Y-127816742D01*
X143163103Y-127836032D01*
X143136125Y-127888380D01*
X143112096Y-127933170D01*
X143093332Y-127966154D01*
X143082146Y-127983089D01*
X143081000Y-127984332D01*
X143052879Y-127999619D01*
X143017817Y-128001302D01*
X142986776Y-127988733D01*
X142984350Y-127985884D01*
X142972090Y-127965259D01*
X142952352Y-127927708D01*
X142926448Y-127875880D01*
X142895685Y-127812423D01*
X142861375Y-127739985D01*
X142824825Y-127661216D01*
X142804585Y-127617093D01*
X142767812Y-127536365D01*
X142739355Y-127472687D01*
X142718331Y-127423752D01*
X142703854Y-127387257D01*
X142695039Y-127360895D01*
X142691004Y-127342361D01*
X142690862Y-127329352D01*
X142693730Y-127319561D01*
X142708387Y-127298678D01*
X142734990Y-127278377D01*
X142735745Y-127278035D01*
X142755335Y-127271034D01*
X142772790Y-127270504D01*
X142789702Y-127278478D01*
G37*
X150340853Y-127269936D02*
X150407100Y-127275366D01*
X150462400Y-127284964D01*
X150513283Y-127299825D01*
X150584595Y-127332958D01*
X150635752Y-127375640D01*
X150666575Y-127427705D01*
X150676889Y-127488983D01*
X150675952Y-127520232D01*
X150670160Y-127545029D01*
X150655353Y-127566699D01*
X150627380Y-127594049D01*
X150619402Y-127601378D01*
X150595692Y-127622281D01*
X150573298Y-127639251D01*
X150549265Y-127653205D01*
X150520637Y-127665056D01*
X150484460Y-127675720D01*
X150437780Y-127686111D01*
X150377641Y-127697146D01*
X150301090Y-127709738D01*
X150205171Y-127724804D01*
X150186808Y-127727838D01*
X150124478Y-127741458D01*
X150079260Y-127757192D01*
X150052976Y-127774263D01*
X150047447Y-127791897D01*
X150050068Y-127796168D01*
X150068000Y-127811233D01*
X150096126Y-127827867D01*
X150108926Y-127833857D01*
X150130224Y-127841050D01*
X150156610Y-127845827D01*
X150192454Y-127848646D01*
X150242128Y-127849964D01*
X150310000Y-127850237D01*
X150327785Y-127850164D01*
X150395406Y-127849053D01*
X150460345Y-127846828D01*
X150515970Y-127843762D01*
X150555651Y-127840127D01*
X150591162Y-127836059D01*
X150620415Y-127835276D01*
X150639315Y-127839876D01*
X150654429Y-127850551D01*
X150658085Y-127854144D01*
X150674427Y-127885918D01*
X150673107Y-127921572D01*
X150654150Y-127952190D01*
X150633780Y-127963796D01*
X150597796Y-127976491D01*
X150555372Y-127986541D01*
X150551922Y-127987140D01*
X150509252Y-127992356D01*
X150451866Y-127996730D01*
X150386849Y-127999818D01*
X150321289Y-128001177D01*
X150305057Y-128001218D01*
X150206744Y-127998741D01*
X150126692Y-127990735D01*
X150061513Y-127976203D01*
X150007817Y-127954149D01*
X149962216Y-127923576D01*
X149921323Y-127883486D01*
X149901202Y-127857259D01*
X149889576Y-127827712D01*
X149886667Y-127787995D01*
X149886808Y-127776026D01*
X149890681Y-127743345D01*
X149903065Y-127716819D01*
X149928230Y-127685971D01*
X149949442Y-127663831D01*
X149975838Y-127641285D01*
X150005555Y-127622917D01*
X150041785Y-127607661D01*
X150087717Y-127594449D01*
X150146544Y-127582214D01*
X150221456Y-127569889D01*
X150315645Y-127556406D01*
X150360957Y-127549396D01*
X150428911Y-127534837D01*
X150478047Y-127518337D01*
X150507614Y-127500439D01*
X150516864Y-127481685D01*
X150505048Y-127462615D01*
X150471416Y-127443771D01*
X150468370Y-127442557D01*
X150422011Y-127430479D01*
X150359361Y-127422279D01*
X150285927Y-127418119D01*
X150207217Y-127418161D01*
X150128739Y-127422569D01*
X150056000Y-127431505D01*
X150052073Y-127432154D01*
X150003257Y-127439861D01*
X149971005Y-127443473D01*
X149950008Y-127442876D01*
X149934954Y-127437954D01*
X149920534Y-127428596D01*
X149919364Y-127427725D01*
X149894847Y-127397351D01*
X149890054Y-127361850D01*
X149905860Y-127327269D01*
X149910406Y-127322813D01*
X149940020Y-127307673D01*
X149987002Y-127294550D01*
X150047306Y-127283750D01*
X150116888Y-127275581D01*
X150191703Y-127270351D01*
X150267706Y-127268367D01*
X150340853Y-127269936D01*
G36*
X150340853Y-127269936D02*
G01*
X150407100Y-127275366D01*
X150462400Y-127284964D01*
X150513283Y-127299825D01*
X150584595Y-127332958D01*
X150635752Y-127375640D01*
X150666575Y-127427705D01*
X150676889Y-127488983D01*
X150675952Y-127520232D01*
X150670160Y-127545029D01*
X150655353Y-127566699D01*
X150627380Y-127594049D01*
X150619402Y-127601378D01*
X150595692Y-127622281D01*
X150573298Y-127639251D01*
X150549265Y-127653205D01*
X150520637Y-127665056D01*
X150484460Y-127675720D01*
X150437780Y-127686111D01*
X150377641Y-127697146D01*
X150301090Y-127709738D01*
X150205171Y-127724804D01*
X150186808Y-127727838D01*
X150124478Y-127741458D01*
X150079260Y-127757192D01*
X150052976Y-127774263D01*
X150047447Y-127791897D01*
X150050068Y-127796168D01*
X150068000Y-127811233D01*
X150096126Y-127827867D01*
X150108926Y-127833857D01*
X150130224Y-127841050D01*
X150156610Y-127845827D01*
X150192454Y-127848646D01*
X150242128Y-127849964D01*
X150310000Y-127850237D01*
X150327785Y-127850164D01*
X150395406Y-127849053D01*
X150460345Y-127846828D01*
X150515970Y-127843762D01*
X150555651Y-127840127D01*
X150591162Y-127836059D01*
X150620415Y-127835276D01*
X150639315Y-127839876D01*
X150654429Y-127850551D01*
X150658085Y-127854144D01*
X150674427Y-127885918D01*
X150673107Y-127921572D01*
X150654150Y-127952190D01*
X150633780Y-127963796D01*
X150597796Y-127976491D01*
X150555372Y-127986541D01*
X150551922Y-127987140D01*
X150509252Y-127992356D01*
X150451866Y-127996730D01*
X150386849Y-127999818D01*
X150321289Y-128001177D01*
X150305057Y-128001218D01*
X150206744Y-127998741D01*
X150126692Y-127990735D01*
X150061513Y-127976203D01*
X150007817Y-127954149D01*
X149962216Y-127923576D01*
X149921323Y-127883486D01*
X149901202Y-127857259D01*
X149889576Y-127827712D01*
X149886667Y-127787995D01*
X149886808Y-127776026D01*
X149890681Y-127743345D01*
X149903065Y-127716819D01*
X149928230Y-127685971D01*
X149949442Y-127663831D01*
X149975838Y-127641285D01*
X150005555Y-127622917D01*
X150041785Y-127607661D01*
X150087717Y-127594449D01*
X150146544Y-127582214D01*
X150221456Y-127569889D01*
X150315645Y-127556406D01*
X150360957Y-127549396D01*
X150428911Y-127534837D01*
X150478047Y-127518337D01*
X150507614Y-127500439D01*
X150516864Y-127481685D01*
X150505048Y-127462615D01*
X150471416Y-127443771D01*
X150468370Y-127442557D01*
X150422011Y-127430479D01*
X150359361Y-127422279D01*
X150285927Y-127418119D01*
X150207217Y-127418161D01*
X150128739Y-127422569D01*
X150056000Y-127431505D01*
X150052073Y-127432154D01*
X150003257Y-127439861D01*
X149971005Y-127443473D01*
X149950008Y-127442876D01*
X149934954Y-127437954D01*
X149920534Y-127428596D01*
X149919364Y-127427725D01*
X149894847Y-127397351D01*
X149890054Y-127361850D01*
X149905860Y-127327269D01*
X149910406Y-127322813D01*
X149940020Y-127307673D01*
X149987002Y-127294550D01*
X150047306Y-127283750D01*
X150116888Y-127275581D01*
X150191703Y-127270351D01*
X150267706Y-127268367D01*
X150340853Y-127269936D01*
G37*
X146488711Y-122962033D02*
X146584268Y-122979523D01*
X146748558Y-123024564D01*
X146902589Y-123087656D01*
X147048509Y-123169915D01*
X147188466Y-123272457D01*
X147324608Y-123396399D01*
X147368473Y-123441661D01*
X147480758Y-123573865D01*
X147573972Y-123711832D01*
X147650719Y-123859750D01*
X147713603Y-124021803D01*
X147717420Y-124033391D01*
X147767507Y-124219392D01*
X147800899Y-124415521D01*
X147817584Y-124617568D01*
X147817551Y-124821325D01*
X147800791Y-125022581D01*
X147767292Y-125217128D01*
X147717044Y-125400756D01*
X147673190Y-125518053D01*
X147595348Y-125680951D01*
X147501828Y-125834866D01*
X147394822Y-125976671D01*
X147276519Y-126103239D01*
X147149111Y-126211441D01*
X147071606Y-126264120D01*
X146944725Y-126333750D01*
X146807243Y-126392468D01*
X146665716Y-126437587D01*
X146526702Y-126466422D01*
X146512597Y-126468106D01*
X146469153Y-126471434D01*
X146411723Y-126474275D01*
X146346122Y-126476373D01*
X146278167Y-126477468D01*
X146151378Y-126475140D01*
X146003673Y-126462136D01*
X145865779Y-126437133D01*
X145732014Y-126399318D01*
X145708562Y-126390889D01*
X145660612Y-126371408D01*
X145604140Y-126346473D01*
X145542379Y-126317722D01*
X145478563Y-126286790D01*
X145415926Y-126255315D01*
X145357703Y-126224934D01*
X145307127Y-126197283D01*
X145267433Y-126173999D01*
X145241854Y-126156718D01*
X145233625Y-126147079D01*
X145235076Y-126143984D01*
X145246250Y-126124079D01*
X145267134Y-126088420D01*
X145296265Y-126039459D01*
X145332181Y-125979646D01*
X145373420Y-125911433D01*
X145418517Y-125837271D01*
X145599785Y-125540008D01*
X145646315Y-125584539D01*
X145737723Y-125662865D01*
X145851334Y-125737439D01*
X145969122Y-125791474D01*
X146089559Y-125824290D01*
X146211117Y-125835211D01*
X146252585Y-125833868D01*
X146370080Y-125815612D01*
X146480089Y-125776617D01*
X146581430Y-125717670D01*
X146672921Y-125639557D01*
X146753380Y-125543064D01*
X146821627Y-125428978D01*
X146837908Y-125394724D01*
X146883982Y-125271240D01*
X146919106Y-125132918D01*
X146943197Y-124983561D01*
X146956173Y-124826973D01*
X146957949Y-124666956D01*
X146948443Y-124507314D01*
X146927572Y-124351850D01*
X146895252Y-124204366D01*
X146851399Y-124068667D01*
X146813982Y-123982076D01*
X146749185Y-123868688D01*
X146673772Y-123775070D01*
X146587418Y-123700959D01*
X146489795Y-123646094D01*
X146380577Y-123610212D01*
X146259439Y-123593051D01*
X146190038Y-123591880D01*
X146067168Y-123606141D01*
X145951664Y-123641241D01*
X145844953Y-123696682D01*
X145748464Y-123771964D01*
X145732720Y-123786440D01*
X145702150Y-123812962D01*
X145679809Y-123830138D01*
X145669691Y-123834787D01*
X145667706Y-123832597D01*
X145653241Y-123813721D01*
X145629400Y-123780397D01*
X145598029Y-123735380D01*
X145560974Y-123681425D01*
X145520083Y-123621285D01*
X145477202Y-123557718D01*
X145434178Y-123493476D01*
X145392857Y-123431315D01*
X145355086Y-123373991D01*
X145322712Y-123324257D01*
X145297582Y-123284868D01*
X145281542Y-123258580D01*
X145276439Y-123248147D01*
X145281050Y-123243941D01*
X145300267Y-123238933D01*
X145309838Y-123236386D01*
X145337809Y-123225249D01*
X145379448Y-123206802D01*
X145430995Y-123182725D01*
X145488690Y-123154699D01*
X145499957Y-123149154D01*
X145677687Y-123069889D01*
X145847490Y-123010385D01*
X146011430Y-122970245D01*
X146171571Y-122949071D01*
X146329977Y-122946466D01*
X146488711Y-122962033D01*
G36*
X146488711Y-122962033D02*
G01*
X146584268Y-122979523D01*
X146748558Y-123024564D01*
X146902589Y-123087656D01*
X147048509Y-123169915D01*
X147188466Y-123272457D01*
X147324608Y-123396399D01*
X147368473Y-123441661D01*
X147480758Y-123573865D01*
X147573972Y-123711832D01*
X147650719Y-123859750D01*
X147713603Y-124021803D01*
X147717420Y-124033391D01*
X147767507Y-124219392D01*
X147800899Y-124415521D01*
X147817584Y-124617568D01*
X147817551Y-124821325D01*
X147800791Y-125022581D01*
X147767292Y-125217128D01*
X147717044Y-125400756D01*
X147673190Y-125518053D01*
X147595348Y-125680951D01*
X147501828Y-125834866D01*
X147394822Y-125976671D01*
X147276519Y-126103239D01*
X147149111Y-126211441D01*
X147071606Y-126264120D01*
X146944725Y-126333750D01*
X146807243Y-126392468D01*
X146665716Y-126437587D01*
X146526702Y-126466422D01*
X146512597Y-126468106D01*
X146469153Y-126471434D01*
X146411723Y-126474275D01*
X146346122Y-126476373D01*
X146278167Y-126477468D01*
X146151378Y-126475140D01*
X146003673Y-126462136D01*
X145865779Y-126437133D01*
X145732014Y-126399318D01*
X145708562Y-126390889D01*
X145660612Y-126371408D01*
X145604140Y-126346473D01*
X145542379Y-126317722D01*
X145478563Y-126286790D01*
X145415926Y-126255315D01*
X145357703Y-126224934D01*
X145307127Y-126197283D01*
X145267433Y-126173999D01*
X145241854Y-126156718D01*
X145233625Y-126147079D01*
X145235076Y-126143984D01*
X145246250Y-126124079D01*
X145267134Y-126088420D01*
X145296265Y-126039459D01*
X145332181Y-125979646D01*
X145373420Y-125911433D01*
X145418517Y-125837271D01*
X145599785Y-125540008D01*
X145646315Y-125584539D01*
X145737723Y-125662865D01*
X145851334Y-125737439D01*
X145969122Y-125791474D01*
X146089559Y-125824290D01*
X146211117Y-125835211D01*
X146252585Y-125833868D01*
X146370080Y-125815612D01*
X146480089Y-125776617D01*
X146581430Y-125717670D01*
X146672921Y-125639557D01*
X146753380Y-125543064D01*
X146821627Y-125428978D01*
X146837908Y-125394724D01*
X146883982Y-125271240D01*
X146919106Y-125132918D01*
X146943197Y-124983561D01*
X146956173Y-124826973D01*
X146957949Y-124666956D01*
X146948443Y-124507314D01*
X146927572Y-124351850D01*
X146895252Y-124204366D01*
X146851399Y-124068667D01*
X146813982Y-123982076D01*
X146749185Y-123868688D01*
X146673772Y-123775070D01*
X146587418Y-123700959D01*
X146489795Y-123646094D01*
X146380577Y-123610212D01*
X146259439Y-123593051D01*
X146190038Y-123591880D01*
X146067168Y-123606141D01*
X145951664Y-123641241D01*
X145844953Y-123696682D01*
X145748464Y-123771964D01*
X145732720Y-123786440D01*
X145702150Y-123812962D01*
X145679809Y-123830138D01*
X145669691Y-123834787D01*
X145667706Y-123832597D01*
X145653241Y-123813721D01*
X145629400Y-123780397D01*
X145598029Y-123735380D01*
X145560974Y-123681425D01*
X145520083Y-123621285D01*
X145477202Y-123557718D01*
X145434178Y-123493476D01*
X145392857Y-123431315D01*
X145355086Y-123373991D01*
X145322712Y-123324257D01*
X145297582Y-123284868D01*
X145281542Y-123258580D01*
X145276439Y-123248147D01*
X145281050Y-123243941D01*
X145300267Y-123238933D01*
X145309838Y-123236386D01*
X145337809Y-123225249D01*
X145379448Y-123206802D01*
X145430995Y-123182725D01*
X145488690Y-123154699D01*
X145499957Y-123149154D01*
X145677687Y-123069889D01*
X145847490Y-123010385D01*
X146011430Y-122970245D01*
X146171571Y-122949071D01*
X146329977Y-122946466D01*
X146488711Y-122962033D01*
G37*
X142685994Y-125242711D02*
X142685268Y-125320158D01*
X142676689Y-125471594D01*
X142657833Y-125608283D01*
X142627837Y-125734276D01*
X142585836Y-125853625D01*
X142530969Y-125970381D01*
X142464167Y-126081179D01*
X142373363Y-126194739D01*
X142269708Y-126290211D01*
X142153887Y-126367073D01*
X142026586Y-126424797D01*
X141888489Y-126462858D01*
X141850793Y-126468666D01*
X141771752Y-126474396D01*
X141683629Y-126474583D01*
X141594236Y-126469539D01*
X141511384Y-126459578D01*
X141442887Y-126445012D01*
X141412035Y-126435364D01*
X141334730Y-126405123D01*
X141257679Y-126367617D01*
X141188200Y-126326614D01*
X141133615Y-126285879D01*
X141110916Y-126266505D01*
X141088201Y-126248662D01*
X141076779Y-126241778D01*
X141075537Y-126243424D01*
X141072728Y-126261205D01*
X141070776Y-126294370D01*
X141070045Y-126337733D01*
X141070045Y-126433689D01*
X140211896Y-126433689D01*
X140246161Y-126372974D01*
X140251355Y-126363868D01*
X140259715Y-126349249D01*
X140267288Y-126335173D01*
X140274112Y-126320540D01*
X140280227Y-126304249D01*
X140285673Y-126285198D01*
X140290487Y-126262286D01*
X140294708Y-126234413D01*
X140298377Y-126200478D01*
X140301531Y-126159379D01*
X140304211Y-126110015D01*
X140306454Y-126051286D01*
X140308299Y-125982090D01*
X140309787Y-125901326D01*
X140310955Y-125807894D01*
X140311678Y-125720721D01*
X141115200Y-125720721D01*
X141185756Y-125767089D01*
X141226417Y-125790791D01*
X141280546Y-125816639D01*
X141329689Y-125834829D01*
X141393165Y-125850551D01*
X141489331Y-125861541D01*
X141573900Y-125853365D01*
X141647219Y-125825805D01*
X141709637Y-125778642D01*
X141761502Y-125711658D01*
X141803160Y-125624633D01*
X141834962Y-125517350D01*
X141837545Y-125505009D01*
X141846000Y-125443772D01*
X141851663Y-125366692D01*
X141854576Y-125279002D01*
X141854783Y-125185934D01*
X141852330Y-125092720D01*
X141847261Y-125004594D01*
X141839619Y-124926788D01*
X141829448Y-124864533D01*
X141828167Y-124858666D01*
X141799126Y-124748121D01*
X141764610Y-124657575D01*
X141723456Y-124584953D01*
X141674499Y-124528181D01*
X141616574Y-124485184D01*
X141584620Y-124469615D01*
X141511784Y-124450722D01*
X141430443Y-124447465D01*
X141345319Y-124459389D01*
X141261133Y-124486040D01*
X141182608Y-124526962D01*
X141115200Y-124570530D01*
X141115200Y-125720721D01*
X140311678Y-125720721D01*
X140311844Y-125700692D01*
X140312491Y-125578620D01*
X140312936Y-125440576D01*
X140313218Y-125285459D01*
X140313375Y-125112168D01*
X140313448Y-124919603D01*
X140313474Y-124706662D01*
X140313493Y-124472245D01*
X140313689Y-122787378D01*
X141219017Y-122787378D01*
X141194585Y-122824067D01*
X141188318Y-122833647D01*
X141162208Y-122879981D01*
X141144469Y-122927102D01*
X141132908Y-122982251D01*
X141125331Y-123052667D01*
X141124839Y-123059650D01*
X141123062Y-123097641D01*
X141121444Y-123151576D01*
X141119999Y-123218703D01*
X141118740Y-123296271D01*
X141117680Y-123381528D01*
X141116829Y-123471724D01*
X141116203Y-123564107D01*
X141115812Y-123655925D01*
X141115670Y-123744427D01*
X141115790Y-123826862D01*
X141116183Y-123900479D01*
X141116862Y-123962526D01*
X141117841Y-124010251D01*
X141119132Y-124040904D01*
X141120747Y-124051733D01*
X141128957Y-124047333D01*
X141150647Y-124032362D01*
X141180014Y-124010448D01*
X141228879Y-123976236D01*
X141317125Y-123929714D01*
X141415916Y-123896046D01*
X141528510Y-123874231D01*
X141658164Y-123863265D01*
X141750670Y-123862219D01*
X141872011Y-123872014D01*
X141982099Y-123896174D01*
X142085389Y-123935785D01*
X142186338Y-123991932D01*
X142231503Y-124022883D01*
X142336911Y-124114115D01*
X142428538Y-124223106D01*
X142506332Y-124349726D01*
X142570241Y-124493845D01*
X142620214Y-124655332D01*
X142656198Y-124834059D01*
X142678143Y-125029895D01*
X142683900Y-125185934D01*
X142685994Y-125242711D01*
G36*
X142685994Y-125242711D02*
G01*
X142685268Y-125320158D01*
X142676689Y-125471594D01*
X142657833Y-125608283D01*
X142627837Y-125734276D01*
X142585836Y-125853625D01*
X142530969Y-125970381D01*
X142464167Y-126081179D01*
X142373363Y-126194739D01*
X142269708Y-126290211D01*
X142153887Y-126367073D01*
X142026586Y-126424797D01*
X141888489Y-126462858D01*
X141850793Y-126468666D01*
X141771752Y-126474396D01*
X141683629Y-126474583D01*
X141594236Y-126469539D01*
X141511384Y-126459578D01*
X141442887Y-126445012D01*
X141412035Y-126435364D01*
X141334730Y-126405123D01*
X141257679Y-126367617D01*
X141188200Y-126326614D01*
X141133615Y-126285879D01*
X141110916Y-126266505D01*
X141088201Y-126248662D01*
X141076779Y-126241778D01*
X141075537Y-126243424D01*
X141072728Y-126261205D01*
X141070776Y-126294370D01*
X141070045Y-126337733D01*
X141070045Y-126433689D01*
X140211896Y-126433689D01*
X140246161Y-126372974D01*
X140251355Y-126363868D01*
X140259715Y-126349249D01*
X140267288Y-126335173D01*
X140274112Y-126320540D01*
X140280227Y-126304249D01*
X140285673Y-126285198D01*
X140290487Y-126262286D01*
X140294708Y-126234413D01*
X140298377Y-126200478D01*
X140301531Y-126159379D01*
X140304211Y-126110015D01*
X140306454Y-126051286D01*
X140308299Y-125982090D01*
X140309787Y-125901326D01*
X140310955Y-125807894D01*
X140311678Y-125720721D01*
X141115200Y-125720721D01*
X141185756Y-125767089D01*
X141226417Y-125790791D01*
X141280546Y-125816639D01*
X141329689Y-125834829D01*
X141393165Y-125850551D01*
X141489331Y-125861541D01*
X141573900Y-125853365D01*
X141647219Y-125825805D01*
X141709637Y-125778642D01*
X141761502Y-125711658D01*
X141803160Y-125624633D01*
X141834962Y-125517350D01*
X141837545Y-125505009D01*
X141846000Y-125443772D01*
X141851663Y-125366692D01*
X141854576Y-125279002D01*
X141854783Y-125185934D01*
X141852330Y-125092720D01*
X141847261Y-125004594D01*
X141839619Y-124926788D01*
X141829448Y-124864533D01*
X141828167Y-124858666D01*
X141799126Y-124748121D01*
X141764610Y-124657575D01*
X141723456Y-124584953D01*
X141674499Y-124528181D01*
X141616574Y-124485184D01*
X141584620Y-124469615D01*
X141511784Y-124450722D01*
X141430443Y-124447465D01*
X141345319Y-124459389D01*
X141261133Y-124486040D01*
X141182608Y-124526962D01*
X141115200Y-124570530D01*
X141115200Y-125720721D01*
X140311678Y-125720721D01*
X140311844Y-125700692D01*
X140312491Y-125578620D01*
X140312936Y-125440576D01*
X140313218Y-125285459D01*
X140313375Y-125112168D01*
X140313448Y-124919603D01*
X140313474Y-124706662D01*
X140313493Y-124472245D01*
X140313689Y-122787378D01*
X141219017Y-122787378D01*
X141194585Y-122824067D01*
X141188318Y-122833647D01*
X141162208Y-122879981D01*
X141144469Y-122927102D01*
X141132908Y-122982251D01*
X141125331Y-123052667D01*
X141124839Y-123059650D01*
X141123062Y-123097641D01*
X141121444Y-123151576D01*
X141119999Y-123218703D01*
X141118740Y-123296271D01*
X141117680Y-123381528D01*
X141116829Y-123471724D01*
X141116203Y-123564107D01*
X141115812Y-123655925D01*
X141115670Y-123744427D01*
X141115790Y-123826862D01*
X141116183Y-123900479D01*
X141116862Y-123962526D01*
X141117841Y-124010251D01*
X141119132Y-124040904D01*
X141120747Y-124051733D01*
X141128957Y-124047333D01*
X141150647Y-124032362D01*
X141180014Y-124010448D01*
X141228879Y-123976236D01*
X141317125Y-123929714D01*
X141415916Y-123896046D01*
X141528510Y-123874231D01*
X141658164Y-123863265D01*
X141750670Y-123862219D01*
X141872011Y-123872014D01*
X141982099Y-123896174D01*
X142085389Y-123935785D01*
X142186338Y-123991932D01*
X142231503Y-124022883D01*
X142336911Y-124114115D01*
X142428538Y-124223106D01*
X142506332Y-124349726D01*
X142570241Y-124493845D01*
X142620214Y-124655332D01*
X142656198Y-124834059D01*
X142678143Y-125029895D01*
X142683900Y-125185934D01*
X142685994Y-125242711D01*
G37*
X145227755Y-125643467D02*
X145227261Y-125677363D01*
X145223632Y-125752202D01*
X145216022Y-125814401D01*
X145203688Y-125870984D01*
X145159313Y-125997076D01*
X145096400Y-126111679D01*
X145016238Y-126212568D01*
X144919740Y-126298924D01*
X144807822Y-126369932D01*
X144681397Y-126424776D01*
X144541378Y-126462638D01*
X144505149Y-126468351D01*
X144426155Y-126474313D01*
X144337841Y-126474646D01*
X144248075Y-126469659D01*
X144164722Y-126459666D01*
X144095651Y-126444978D01*
X144009187Y-126414749D01*
X143899286Y-126360057D01*
X143801956Y-126292543D01*
X143739867Y-126241556D01*
X143736605Y-126337622D01*
X143733343Y-126433689D01*
X143310450Y-126433689D01*
X143299543Y-126433686D01*
X143205056Y-126433380D01*
X143118331Y-126432616D01*
X143041837Y-126431451D01*
X142978043Y-126429942D01*
X142929418Y-126428147D01*
X142898433Y-126426121D01*
X142887556Y-126423922D01*
X142887578Y-126423463D01*
X142894614Y-126407910D01*
X142910434Y-126385071D01*
X142914734Y-126379638D01*
X142925777Y-126365606D01*
X142935311Y-126352186D01*
X142943461Y-126337722D01*
X142950352Y-126320556D01*
X142956111Y-126299034D01*
X142960862Y-126271498D01*
X142964731Y-126236292D01*
X142967844Y-126191760D01*
X142970325Y-126136246D01*
X142972300Y-126068093D01*
X142973894Y-125985645D01*
X142975234Y-125887246D01*
X142976444Y-125771239D01*
X142976896Y-125720462D01*
X143779378Y-125720462D01*
X143824048Y-125776973D01*
X143836785Y-125792212D01*
X143883604Y-125834844D01*
X143944255Y-125870672D01*
X143954897Y-125875850D01*
X143993676Y-125892745D01*
X144028692Y-125902909D01*
X144068722Y-125908325D01*
X144122541Y-125910978D01*
X144140648Y-125911383D01*
X144216011Y-125908540D01*
X144276743Y-125896620D01*
X144328452Y-125874037D01*
X144376746Y-125839211D01*
X144381803Y-125834798D01*
X144430272Y-125779160D01*
X144458459Y-125715333D01*
X144467752Y-125640282D01*
X144460520Y-125568693D01*
X144435796Y-125505645D01*
X144391249Y-125447758D01*
X144336319Y-125400808D01*
X144263894Y-125360961D01*
X144177340Y-125333263D01*
X144074670Y-125317096D01*
X143953894Y-125311842D01*
X143945007Y-125311857D01*
X143889660Y-125312655D01*
X143842736Y-125314488D01*
X143808953Y-125317111D01*
X143793028Y-125320274D01*
X143788943Y-125326741D01*
X143784572Y-125348875D01*
X143781604Y-125387988D01*
X143779914Y-125445939D01*
X143779378Y-125524586D01*
X143779378Y-125720462D01*
X142976896Y-125720462D01*
X142977649Y-125635968D01*
X142978975Y-125479778D01*
X142980228Y-125337012D01*
X142981651Y-125191942D01*
X142983176Y-125066027D01*
X142984933Y-124957436D01*
X142987051Y-124864334D01*
X142989660Y-124784891D01*
X142992890Y-124717273D01*
X142996869Y-124659649D01*
X143001728Y-124610185D01*
X143007597Y-124567050D01*
X143014604Y-124528410D01*
X143022880Y-124492434D01*
X143032554Y-124457289D01*
X143043756Y-124421142D01*
X143056616Y-124382161D01*
X143072090Y-124339091D01*
X143114994Y-124246871D01*
X143168735Y-124167099D01*
X143237576Y-124092965D01*
X143315185Y-124029405D01*
X143419761Y-123967725D01*
X143539244Y-123920202D01*
X143674508Y-123886567D01*
X143826426Y-123866552D01*
X143995872Y-123859889D01*
X144053890Y-123860287D01*
X144119398Y-123862335D01*
X144180693Y-123866704D01*
X144242097Y-123874035D01*
X144307932Y-123884969D01*
X144382520Y-123900147D01*
X144470184Y-123920209D01*
X144575245Y-123945797D01*
X144603806Y-123952820D01*
X144679054Y-123970776D01*
X144749388Y-123986820D01*
X144810567Y-124000028D01*
X144858354Y-124009474D01*
X144888511Y-124014231D01*
X144916783Y-124017910D01*
X144943060Y-124023187D01*
X144953059Y-124027942D01*
X144949952Y-124036781D01*
X144939194Y-124064072D01*
X144921864Y-124106906D01*
X144899126Y-124162425D01*
X144872147Y-124227772D01*
X144842090Y-124300089D01*
X144835493Y-124315879D01*
X144796907Y-124406484D01*
X144765768Y-124476217D01*
X144741917Y-124525405D01*
X144725198Y-124554374D01*
X144715454Y-124563452D01*
X144707766Y-124561405D01*
X144681415Y-124551760D01*
X144642982Y-124536190D01*
X144597822Y-124516815D01*
X144503293Y-124478814D01*
X144366480Y-124437780D01*
X144225289Y-124412612D01*
X144187314Y-124408611D01*
X144084059Y-124406447D01*
X143996952Y-124419622D01*
X143925129Y-124448756D01*
X143867731Y-124494466D01*
X143823896Y-124557372D01*
X143792762Y-124638092D01*
X143773470Y-124737245D01*
X143766050Y-124796224D01*
X143927936Y-124789445D01*
X144054495Y-124787813D01*
X144205951Y-124794194D01*
X144354396Y-124808777D01*
X144490578Y-124830882D01*
X144555245Y-124845821D01*
X144687490Y-124888741D01*
X144809762Y-124945340D01*
X144919685Y-125014017D01*
X145014883Y-125093170D01*
X145092980Y-125181196D01*
X145151599Y-125276493D01*
X145175595Y-125328864D01*
X145201232Y-125399590D01*
X145217478Y-125470812D01*
X145225822Y-125549712D01*
X145227690Y-125640282D01*
X145227755Y-125643467D01*
G36*
X145227755Y-125643467D02*
G01*
X145227261Y-125677363D01*
X145223632Y-125752202D01*
X145216022Y-125814401D01*
X145203688Y-125870984D01*
X145159313Y-125997076D01*
X145096400Y-126111679D01*
X145016238Y-126212568D01*
X144919740Y-126298924D01*
X144807822Y-126369932D01*
X144681397Y-126424776D01*
X144541378Y-126462638D01*
X144505149Y-126468351D01*
X144426155Y-126474313D01*
X144337841Y-126474646D01*
X144248075Y-126469659D01*
X144164722Y-126459666D01*
X144095651Y-126444978D01*
X144009187Y-126414749D01*
X143899286Y-126360057D01*
X143801956Y-126292543D01*
X143739867Y-126241556D01*
X143736605Y-126337622D01*
X143733343Y-126433689D01*
X143310450Y-126433689D01*
X143299543Y-126433686D01*
X143205056Y-126433380D01*
X143118331Y-126432616D01*
X143041837Y-126431451D01*
X142978043Y-126429942D01*
X142929418Y-126428147D01*
X142898433Y-126426121D01*
X142887556Y-126423922D01*
X142887578Y-126423463D01*
X142894614Y-126407910D01*
X142910434Y-126385071D01*
X142914734Y-126379638D01*
X142925777Y-126365606D01*
X142935311Y-126352186D01*
X142943461Y-126337722D01*
X142950352Y-126320556D01*
X142956111Y-126299034D01*
X142960862Y-126271498D01*
X142964731Y-126236292D01*
X142967844Y-126191760D01*
X142970325Y-126136246D01*
X142972300Y-126068093D01*
X142973894Y-125985645D01*
X142975234Y-125887246D01*
X142976444Y-125771239D01*
X142976896Y-125720462D01*
X143779378Y-125720462D01*
X143824048Y-125776973D01*
X143836785Y-125792212D01*
X143883604Y-125834844D01*
X143944255Y-125870672D01*
X143954897Y-125875850D01*
X143993676Y-125892745D01*
X144028692Y-125902909D01*
X144068722Y-125908325D01*
X144122541Y-125910978D01*
X144140648Y-125911383D01*
X144216011Y-125908540D01*
X144276743Y-125896620D01*
X144328452Y-125874037D01*
X144376746Y-125839211D01*
X144381803Y-125834798D01*
X144430272Y-125779160D01*
X144458459Y-125715333D01*
X144467752Y-125640282D01*
X144460520Y-125568693D01*
X144435796Y-125505645D01*
X144391249Y-125447758D01*
X144336319Y-125400808D01*
X144263894Y-125360961D01*
X144177340Y-125333263D01*
X144074670Y-125317096D01*
X143953894Y-125311842D01*
X143945007Y-125311857D01*
X143889660Y-125312655D01*
X143842736Y-125314488D01*
X143808953Y-125317111D01*
X143793028Y-125320274D01*
X143788943Y-125326741D01*
X143784572Y-125348875D01*
X143781604Y-125387988D01*
X143779914Y-125445939D01*
X143779378Y-125524586D01*
X143779378Y-125720462D01*
X142976896Y-125720462D01*
X142977649Y-125635968D01*
X142978975Y-125479778D01*
X142980228Y-125337012D01*
X142981651Y-125191942D01*
X142983176Y-125066027D01*
X142984933Y-124957436D01*
X142987051Y-124864334D01*
X142989660Y-124784891D01*
X142992890Y-124717273D01*
X142996869Y-124659649D01*
X143001728Y-124610185D01*
X143007597Y-124567050D01*
X143014604Y-124528410D01*
X143022880Y-124492434D01*
X143032554Y-124457289D01*
X143043756Y-124421142D01*
X143056616Y-124382161D01*
X143072090Y-124339091D01*
X143114994Y-124246871D01*
X143168735Y-124167099D01*
X143237576Y-124092965D01*
X143315185Y-124029405D01*
X143419761Y-123967725D01*
X143539244Y-123920202D01*
X143674508Y-123886567D01*
X143826426Y-123866552D01*
X143995872Y-123859889D01*
X144053890Y-123860287D01*
X144119398Y-123862335D01*
X144180693Y-123866704D01*
X144242097Y-123874035D01*
X144307932Y-123884969D01*
X144382520Y-123900147D01*
X144470184Y-123920209D01*
X144575245Y-123945797D01*
X144603806Y-123952820D01*
X144679054Y-123970776D01*
X144749388Y-123986820D01*
X144810567Y-124000028D01*
X144858354Y-124009474D01*
X144888511Y-124014231D01*
X144916783Y-124017910D01*
X144943060Y-124023187D01*
X144953059Y-124027942D01*
X144949952Y-124036781D01*
X144939194Y-124064072D01*
X144921864Y-124106906D01*
X144899126Y-124162425D01*
X144872147Y-124227772D01*
X144842090Y-124300089D01*
X144835493Y-124315879D01*
X144796907Y-124406484D01*
X144765768Y-124476217D01*
X144741917Y-124525405D01*
X144725198Y-124554374D01*
X144715454Y-124563452D01*
X144707766Y-124561405D01*
X144681415Y-124551760D01*
X144642982Y-124536190D01*
X144597822Y-124516815D01*
X144503293Y-124478814D01*
X144366480Y-124437780D01*
X144225289Y-124412612D01*
X144187314Y-124408611D01*
X144084059Y-124406447D01*
X143996952Y-124419622D01*
X143925129Y-124448756D01*
X143867731Y-124494466D01*
X143823896Y-124557372D01*
X143792762Y-124638092D01*
X143773470Y-124737245D01*
X143766050Y-124796224D01*
X143927936Y-124789445D01*
X144054495Y-124787813D01*
X144205951Y-124794194D01*
X144354396Y-124808777D01*
X144490578Y-124830882D01*
X144555245Y-124845821D01*
X144687490Y-124888741D01*
X144809762Y-124945340D01*
X144919685Y-125014017D01*
X145014883Y-125093170D01*
X145092980Y-125181196D01*
X145151599Y-125276493D01*
X145175595Y-125328864D01*
X145201232Y-125399590D01*
X145217478Y-125470812D01*
X145225822Y-125549712D01*
X145227690Y-125640282D01*
X145227755Y-125643467D01*
G37*
X152775614Y-123111792D02*
X152776059Y-123243011D01*
X152776362Y-123390216D01*
X152776548Y-123554349D01*
X152776642Y-123736352D01*
X152776671Y-123937165D01*
X152776661Y-124157732D01*
X152776636Y-124398992D01*
X152776622Y-124661889D01*
X152776622Y-124704040D01*
X152776646Y-124964668D01*
X152776685Y-125203796D01*
X152776708Y-125422360D01*
X152776687Y-125621295D01*
X152776593Y-125801535D01*
X152776395Y-125964015D01*
X152776063Y-126109670D01*
X152775569Y-126239434D01*
X152774883Y-126354243D01*
X152773976Y-126455030D01*
X152772817Y-126542730D01*
X152771378Y-126618279D01*
X152769629Y-126682611D01*
X152767540Y-126736661D01*
X152765083Y-126781363D01*
X152762227Y-126817652D01*
X152758943Y-126846463D01*
X152755202Y-126868731D01*
X152750974Y-126885390D01*
X152746229Y-126897375D01*
X152740939Y-126905621D01*
X152735073Y-126911062D01*
X152728602Y-126914634D01*
X152721497Y-126917270D01*
X152713728Y-126919906D01*
X152705266Y-126923477D01*
X152700908Y-126925145D01*
X152692395Y-126927111D01*
X152679694Y-126928911D01*
X152661885Y-126930555D01*
X152638049Y-126932047D01*
X152607266Y-126933397D01*
X152568617Y-126934611D01*
X152521182Y-126935697D01*
X152464043Y-126936661D01*
X152396279Y-126937511D01*
X152316971Y-126938253D01*
X152225199Y-126938897D01*
X152120044Y-126939447D01*
X152000587Y-126939913D01*
X151865908Y-126940300D01*
X151715088Y-126940616D01*
X151547206Y-126940869D01*
X151361345Y-126941066D01*
X151156583Y-126941213D01*
X150932002Y-126941318D01*
X150686682Y-126941389D01*
X150419704Y-126941432D01*
X150381321Y-126941437D01*
X150115922Y-126941480D01*
X149872050Y-126941525D01*
X149648783Y-126941548D01*
X149445196Y-126941524D01*
X149260367Y-126941430D01*
X149093373Y-126941243D01*
X148943290Y-126940939D01*
X148809196Y-126940494D01*
X148690166Y-126939885D01*
X148585279Y-126939089D01*
X148493610Y-126938080D01*
X148414237Y-126936837D01*
X148346237Y-126935335D01*
X148288686Y-126933551D01*
X148240662Y-126931461D01*
X148201240Y-126929042D01*
X148169499Y-126926270D01*
X148144514Y-126923121D01*
X148125364Y-126919572D01*
X148111123Y-126915598D01*
X148100871Y-126911178D01*
X148093682Y-126906286D01*
X148088635Y-126900900D01*
X148084805Y-126894996D01*
X148081271Y-126888549D01*
X148077108Y-126881537D01*
X148076025Y-126879687D01*
X148073813Y-126874180D01*
X148071786Y-126865868D01*
X148069938Y-126853809D01*
X148068261Y-126837063D01*
X148066745Y-126814687D01*
X148065383Y-126785740D01*
X148064167Y-126749280D01*
X148063089Y-126704367D01*
X148062140Y-126650057D01*
X148061312Y-126585410D01*
X148060597Y-126509484D01*
X148059987Y-126421338D01*
X148059942Y-126412493D01*
X148351378Y-126412493D01*
X148355260Y-126413765D01*
X148378520Y-126415791D01*
X148420874Y-126417626D01*
X148480132Y-126419227D01*
X148554107Y-126420549D01*
X148640610Y-126421548D01*
X148737452Y-126422180D01*
X148842445Y-126422400D01*
X149540651Y-126422400D01*
X150695090Y-126422400D01*
X150694456Y-126346200D01*
X150695574Y-126304160D01*
X150701304Y-126268334D01*
X150713890Y-126230772D01*
X150735568Y-126182577D01*
X150738789Y-126175897D01*
X150764188Y-126126359D01*
X150790996Y-126078369D01*
X150813917Y-126041466D01*
X150818485Y-126034834D01*
X150840516Y-126003593D01*
X150872693Y-125958654D01*
X150913457Y-125902147D01*
X150961245Y-125836204D01*
X151014498Y-125762957D01*
X151071655Y-125684536D01*
X151131155Y-125603072D01*
X151191437Y-125520698D01*
X151250940Y-125439544D01*
X151308105Y-125361742D01*
X151361370Y-125289423D01*
X151409174Y-125224718D01*
X151449957Y-125169759D01*
X151482158Y-125126676D01*
X151504216Y-125097602D01*
X151514571Y-125084667D01*
X151519044Y-125080351D01*
X151523236Y-125078312D01*
X151526643Y-125080926D01*
X151529325Y-125089986D01*
X151531341Y-125107285D01*
X151532748Y-125134614D01*
X151533605Y-125173765D01*
X151533970Y-125226533D01*
X151533903Y-125294707D01*
X151533460Y-125380082D01*
X151532702Y-125484449D01*
X151531685Y-125609600D01*
X151531308Y-125654300D01*
X151530169Y-125775395D01*
X151528972Y-125876688D01*
X151527636Y-125960262D01*
X151526077Y-126028204D01*
X151524215Y-126082599D01*
X151521966Y-126125532D01*
X151519248Y-126159089D01*
X151515979Y-126185355D01*
X151512078Y-126206416D01*
X151507461Y-126224357D01*
X151499192Y-126250770D01*
X151475583Y-126312772D01*
X151449685Y-126365573D01*
X151424535Y-126402645D01*
X151423339Y-126404075D01*
X151421168Y-126408424D01*
X151423328Y-126412026D01*
X151431644Y-126414951D01*
X151447940Y-126417269D01*
X151474041Y-126419051D01*
X151511771Y-126420367D01*
X151562956Y-126421286D01*
X151629420Y-126421878D01*
X151712987Y-126422215D01*
X151815483Y-126422365D01*
X151938732Y-126422400D01*
X152470296Y-126422400D01*
X152431523Y-126364783D01*
X152425432Y-126355893D01*
X152414976Y-126341069D01*
X152405579Y-126327422D01*
X152397183Y-126313765D01*
X152389733Y-126298911D01*
X152383173Y-126281670D01*
X152377446Y-126260855D01*
X152372495Y-126235280D01*
X152368266Y-126203755D01*
X152364701Y-126165093D01*
X152361744Y-126118107D01*
X152359340Y-126061608D01*
X152357431Y-125994409D01*
X152355962Y-125915322D01*
X152354876Y-125823160D01*
X152354118Y-125716734D01*
X152353630Y-125594857D01*
X152353358Y-125456341D01*
X152353243Y-125299999D01*
X152353231Y-125124642D01*
X152353265Y-124929082D01*
X152353289Y-124712133D01*
X152353280Y-124589513D01*
X152353243Y-124384447D01*
X152353227Y-124200116D01*
X152353288Y-124035334D01*
X152353484Y-123888916D01*
X152353870Y-123759674D01*
X152354505Y-123646422D01*
X152355444Y-123547975D01*
X152356745Y-123463144D01*
X152358464Y-123390744D01*
X152360659Y-123329589D01*
X152363385Y-123278492D01*
X152366701Y-123236267D01*
X152370662Y-123201727D01*
X152375325Y-123173686D01*
X152380747Y-123150958D01*
X152386986Y-123132356D01*
X152394097Y-123116693D01*
X152402138Y-123102784D01*
X152411166Y-123089441D01*
X152421236Y-123075479D01*
X152432407Y-123059711D01*
X152472197Y-123001867D01*
X151412314Y-123001867D01*
X151450311Y-123064966D01*
X151464993Y-123090005D01*
X151479531Y-123117586D01*
X151491627Y-123145700D01*
X151501532Y-123176551D01*
X151509494Y-123212344D01*
X151515761Y-123255283D01*
X151520582Y-123307574D01*
X151524206Y-123371419D01*
X151526881Y-123449025D01*
X151528857Y-123542594D01*
X151530382Y-123654333D01*
X151531704Y-123786445D01*
X151532613Y-123906434D01*
X151533020Y-124023063D01*
X151532767Y-124118531D01*
X151531857Y-124192556D01*
X151530293Y-124244855D01*
X151528079Y-124275149D01*
X151525220Y-124283156D01*
X151522161Y-124279858D01*
X151504006Y-124258408D01*
X151474275Y-124221889D01*
X151434639Y-124172442D01*
X151386771Y-124112207D01*
X151332343Y-124043327D01*
X151273027Y-123967943D01*
X151210495Y-123888196D01*
X151146421Y-123806228D01*
X151082475Y-123724180D01*
X151020331Y-123644194D01*
X150961661Y-123568411D01*
X150908137Y-123498973D01*
X150861430Y-123438021D01*
X150823214Y-123387696D01*
X150795161Y-123350140D01*
X150778943Y-123327495D01*
X150733635Y-123255212D01*
X150693661Y-123175463D01*
X150672130Y-123107188D01*
X150668827Y-123049844D01*
X150674116Y-123001867D01*
X149542356Y-123002117D01*
X149581867Y-123032722D01*
X149591248Y-123040089D01*
X149654183Y-123094438D01*
X149722997Y-123162259D01*
X149799596Y-123245516D01*
X149885888Y-123346178D01*
X149903052Y-123366847D01*
X149943833Y-123416409D01*
X149993588Y-123477326D01*
X150050955Y-123547898D01*
X150114569Y-123626424D01*
X150183069Y-123711204D01*
X150255090Y-123800537D01*
X150329270Y-123892722D01*
X150344517Y-123911702D01*
X150404246Y-123986060D01*
X150478653Y-124078848D01*
X150551131Y-124169388D01*
X150620314Y-124255978D01*
X150684841Y-124336918D01*
X150743347Y-124410506D01*
X150794470Y-124475044D01*
X150836847Y-124528829D01*
X150869115Y-124570162D01*
X150889910Y-124597342D01*
X150897869Y-124608668D01*
X150896111Y-124612771D01*
X150883230Y-124633334D01*
X150858885Y-124669561D01*
X150824247Y-124719824D01*
X150780486Y-124782492D01*
X150728775Y-124855936D01*
X150670284Y-124938527D01*
X150606184Y-125028636D01*
X150537646Y-125124631D01*
X150465843Y-125224885D01*
X150391944Y-125327768D01*
X150317121Y-125431650D01*
X150242545Y-125534901D01*
X150169387Y-125635892D01*
X150098819Y-125732994D01*
X150032011Y-125824577D01*
X149970135Y-125909011D01*
X149914361Y-125984667D01*
X149865862Y-126049916D01*
X149825807Y-126103128D01*
X149795369Y-126142673D01*
X149774944Y-126168026D01*
X149728899Y-126222295D01*
X149678612Y-126278775D01*
X149631815Y-126328669D01*
X149540651Y-126422400D01*
X148842445Y-126422400D01*
X148911356Y-126422349D01*
X149009607Y-126422091D01*
X149099030Y-126421637D01*
X149177333Y-126421010D01*
X149242223Y-126420235D01*
X149291411Y-126419335D01*
X149322604Y-126418334D01*
X149333511Y-126417257D01*
X149332322Y-126414037D01*
X149322176Y-126396452D01*
X149305040Y-126370158D01*
X149296540Y-126357691D01*
X149287329Y-126343622D01*
X149279233Y-126329351D01*
X149272185Y-126313479D01*
X149266117Y-126294609D01*
X149260961Y-126271341D01*
X149256651Y-126242278D01*
X149253119Y-126206021D01*
X149250297Y-126161170D01*
X149248118Y-126106328D01*
X149246514Y-126040097D01*
X149245419Y-125961077D01*
X149244765Y-125867871D01*
X149244484Y-125759079D01*
X149244509Y-125633303D01*
X149244772Y-125489145D01*
X149245206Y-125325207D01*
X149245745Y-125140089D01*
X149246279Y-124961232D01*
X149246805Y-124802374D01*
X149247350Y-124663316D01*
X149247945Y-124542665D01*
X149248619Y-124439028D01*
X149249403Y-124351011D01*
X149250326Y-124277223D01*
X149251419Y-124216269D01*
X149252712Y-124166757D01*
X149254235Y-124127293D01*
X149256019Y-124096484D01*
X149258092Y-124072938D01*
X149260486Y-124055260D01*
X149263230Y-124042059D01*
X149266356Y-124031940D01*
X149269892Y-124023511D01*
X149273791Y-124015375D01*
X149293438Y-123978544D01*
X149312225Y-123948391D01*
X149313272Y-123946908D01*
X149327602Y-123924659D01*
X149333511Y-123911702D01*
X149332504Y-123911249D01*
X149315305Y-123909803D01*
X149278656Y-123908480D01*
X149224962Y-123907316D01*
X149156630Y-123906347D01*
X149076064Y-123905611D01*
X148985670Y-123905142D01*
X148887853Y-123904978D01*
X148442195Y-123904978D01*
X148439120Y-125081845D01*
X148436045Y-126258711D01*
X148409407Y-126317622D01*
X148397485Y-126342183D01*
X148380246Y-126372434D01*
X148367074Y-126389560D01*
X148359076Y-126397591D01*
X148351378Y-126412493D01*
X148059942Y-126412493D01*
X148059474Y-126320029D01*
X148059050Y-126204617D01*
X148058706Y-126074160D01*
X148058434Y-125927716D01*
X148058227Y-125764344D01*
X148058076Y-125583101D01*
X148057972Y-125383048D01*
X148057908Y-125163241D01*
X148057876Y-124922739D01*
X148057867Y-124660602D01*
X148057867Y-122469031D01*
X148096249Y-122430649D01*
X148123355Y-122406911D01*
X148150253Y-122395111D01*
X148186560Y-122392267D01*
X148238489Y-122392267D01*
X148238489Y-122480206D01*
X148240427Y-122530102D01*
X148259199Y-122640523D01*
X148296217Y-122741987D01*
X148349369Y-122833152D01*
X148416546Y-122912673D01*
X148495638Y-122979205D01*
X148584534Y-123031406D01*
X148681125Y-123067930D01*
X148783300Y-123087434D01*
X148888950Y-123088573D01*
X148995964Y-123070005D01*
X149102232Y-123030384D01*
X149199219Y-122972516D01*
X149284293Y-122897684D01*
X149353015Y-122809615D01*
X149403918Y-122710616D01*
X149435535Y-122602993D01*
X149446400Y-122489054D01*
X149446400Y-122392267D01*
X151066753Y-122392267D01*
X151277897Y-122392280D01*
X151482020Y-122392330D01*
X151665686Y-122392430D01*
X151829991Y-122392592D01*
X151976029Y-122392829D01*
X152104894Y-122393153D01*
X152217683Y-122393575D01*
X152315488Y-122394109D01*
X152399404Y-122394767D01*
X152470527Y-122395561D01*
X152529950Y-122396504D01*
X152578768Y-122397608D01*
X152618077Y-122398884D01*
X152648969Y-122400347D01*
X152672541Y-122402007D01*
X152689886Y-122403878D01*
X152702099Y-122405972D01*
X152710275Y-122408300D01*
X152715508Y-122410876D01*
X152721504Y-122414445D01*
X152728279Y-122417978D01*
X152734478Y-122421488D01*
X152740126Y-122425918D01*
X152745247Y-122432208D01*
X152749869Y-122441301D01*
X152754015Y-122454139D01*
X152757713Y-122471662D01*
X152760987Y-122494813D01*
X152763863Y-122524534D01*
X152766367Y-122561765D01*
X152768524Y-122607449D01*
X152770360Y-122662527D01*
X152771900Y-122727941D01*
X152773170Y-122804633D01*
X152774195Y-122893544D01*
X152775001Y-122995617D01*
X152775034Y-123001867D01*
X152775614Y-123111792D01*
G36*
X152775614Y-123111792D02*
G01*
X152776059Y-123243011D01*
X152776362Y-123390216D01*
X152776548Y-123554349D01*
X152776642Y-123736352D01*
X152776671Y-123937165D01*
X152776661Y-124157732D01*
X152776636Y-124398992D01*
X152776622Y-124661889D01*
X152776622Y-124704040D01*
X152776646Y-124964668D01*
X152776685Y-125203796D01*
X152776708Y-125422360D01*
X152776687Y-125621295D01*
X152776593Y-125801535D01*
X152776395Y-125964015D01*
X152776063Y-126109670D01*
X152775569Y-126239434D01*
X152774883Y-126354243D01*
X152773976Y-126455030D01*
X152772817Y-126542730D01*
X152771378Y-126618279D01*
X152769629Y-126682611D01*
X152767540Y-126736661D01*
X152765083Y-126781363D01*
X152762227Y-126817652D01*
X152758943Y-126846463D01*
X152755202Y-126868731D01*
X152750974Y-126885390D01*
X152746229Y-126897375D01*
X152740939Y-126905621D01*
X152735073Y-126911062D01*
X152728602Y-126914634D01*
X152721497Y-126917270D01*
X152713728Y-126919906D01*
X152705266Y-126923477D01*
X152700908Y-126925145D01*
X152692395Y-126927111D01*
X152679694Y-126928911D01*
X152661885Y-126930555D01*
X152638049Y-126932047D01*
X152607266Y-126933397D01*
X152568617Y-126934611D01*
X152521182Y-126935697D01*
X152464043Y-126936661D01*
X152396279Y-126937511D01*
X152316971Y-126938253D01*
X152225199Y-126938897D01*
X152120044Y-126939447D01*
X152000587Y-126939913D01*
X151865908Y-126940300D01*
X151715088Y-126940616D01*
X151547206Y-126940869D01*
X151361345Y-126941066D01*
X151156583Y-126941213D01*
X150932002Y-126941318D01*
X150686682Y-126941389D01*
X150419704Y-126941432D01*
X150381321Y-126941437D01*
X150115922Y-126941480D01*
X149872050Y-126941525D01*
X149648783Y-126941548D01*
X149445196Y-126941524D01*
X149260367Y-126941430D01*
X149093373Y-126941243D01*
X148943290Y-126940939D01*
X148809196Y-126940494D01*
X148690166Y-126939885D01*
X148585279Y-126939089D01*
X148493610Y-126938080D01*
X148414237Y-126936837D01*
X148346237Y-126935335D01*
X148288686Y-126933551D01*
X148240662Y-126931461D01*
X148201240Y-126929042D01*
X148169499Y-126926270D01*
X148144514Y-126923121D01*
X148125364Y-126919572D01*
X148111123Y-126915598D01*
X148100871Y-126911178D01*
X148093682Y-126906286D01*
X148088635Y-126900900D01*
X148084805Y-126894996D01*
X148081271Y-126888549D01*
X148077108Y-126881537D01*
X148076025Y-126879687D01*
X148073813Y-126874180D01*
X148071786Y-126865868D01*
X148069938Y-126853809D01*
X148068261Y-126837063D01*
X148066745Y-126814687D01*
X148065383Y-126785740D01*
X148064167Y-126749280D01*
X148063089Y-126704367D01*
X148062140Y-126650057D01*
X148061312Y-126585410D01*
X148060597Y-126509484D01*
X148059987Y-126421338D01*
X148059942Y-126412493D01*
X148351378Y-126412493D01*
X148355260Y-126413765D01*
X148378520Y-126415791D01*
X148420874Y-126417626D01*
X148480132Y-126419227D01*
X148554107Y-126420549D01*
X148640610Y-126421548D01*
X148737452Y-126422180D01*
X148842445Y-126422400D01*
X149540651Y-126422400D01*
X150695090Y-126422400D01*
X150694456Y-126346200D01*
X150695574Y-126304160D01*
X150701304Y-126268334D01*
X150713890Y-126230772D01*
X150735568Y-126182577D01*
X150738789Y-126175897D01*
X150764188Y-126126359D01*
X150790996Y-126078369D01*
X150813917Y-126041466D01*
X150818485Y-126034834D01*
X150840516Y-126003593D01*
X150872693Y-125958654D01*
X150913457Y-125902147D01*
X150961245Y-125836204D01*
X151014498Y-125762957D01*
X151071655Y-125684536D01*
X151131155Y-125603072D01*
X151191437Y-125520698D01*
X151250940Y-125439544D01*
X151308105Y-125361742D01*
X151361370Y-125289423D01*
X151409174Y-125224718D01*
X151449957Y-125169759D01*
X151482158Y-125126676D01*
X151504216Y-125097602D01*
X151514571Y-125084667D01*
X151519044Y-125080351D01*
X151523236Y-125078312D01*
X151526643Y-125080926D01*
X151529325Y-125089986D01*
X151531341Y-125107285D01*
X151532748Y-125134614D01*
X151533605Y-125173765D01*
X151533970Y-125226533D01*
X151533903Y-125294707D01*
X151533460Y-125380082D01*
X151532702Y-125484449D01*
X151531685Y-125609600D01*
X151531308Y-125654300D01*
X151530169Y-125775395D01*
X151528972Y-125876688D01*
X151527636Y-125960262D01*
X151526077Y-126028204D01*
X151524215Y-126082599D01*
X151521966Y-126125532D01*
X151519248Y-126159089D01*
X151515979Y-126185355D01*
X151512078Y-126206416D01*
X151507461Y-126224357D01*
X151499192Y-126250770D01*
X151475583Y-126312772D01*
X151449685Y-126365573D01*
X151424535Y-126402645D01*
X151423339Y-126404075D01*
X151421168Y-126408424D01*
X151423328Y-126412026D01*
X151431644Y-126414951D01*
X151447940Y-126417269D01*
X151474041Y-126419051D01*
X151511771Y-126420367D01*
X151562956Y-126421286D01*
X151629420Y-126421878D01*
X151712987Y-126422215D01*
X151815483Y-126422365D01*
X151938732Y-126422400D01*
X152470296Y-126422400D01*
X152431523Y-126364783D01*
X152425432Y-126355893D01*
X152414976Y-126341069D01*
X152405579Y-126327422D01*
X152397183Y-126313765D01*
X152389733Y-126298911D01*
X152383173Y-126281670D01*
X152377446Y-126260855D01*
X152372495Y-126235280D01*
X152368266Y-126203755D01*
X152364701Y-126165093D01*
X152361744Y-126118107D01*
X152359340Y-126061608D01*
X152357431Y-125994409D01*
X152355962Y-125915322D01*
X152354876Y-125823160D01*
X152354118Y-125716734D01*
X152353630Y-125594857D01*
X152353358Y-125456341D01*
X152353243Y-125299999D01*
X152353231Y-125124642D01*
X152353265Y-124929082D01*
X152353289Y-124712133D01*
X152353280Y-124589513D01*
X152353243Y-124384447D01*
X152353227Y-124200116D01*
X152353288Y-124035334D01*
X152353484Y-123888916D01*
X152353870Y-123759674D01*
X152354505Y-123646422D01*
X152355444Y-123547975D01*
X152356745Y-123463144D01*
X152358464Y-123390744D01*
X152360659Y-123329589D01*
X152363385Y-123278492D01*
X152366701Y-123236267D01*
X152370662Y-123201727D01*
X152375325Y-123173686D01*
X152380747Y-123150958D01*
X152386986Y-123132356D01*
X152394097Y-123116693D01*
X152402138Y-123102784D01*
X152411166Y-123089441D01*
X152421236Y-123075479D01*
X152432407Y-123059711D01*
X152472197Y-123001867D01*
X151412314Y-123001867D01*
X151450311Y-123064966D01*
X151464993Y-123090005D01*
X151479531Y-123117586D01*
X151491627Y-123145700D01*
X151501532Y-123176551D01*
X151509494Y-123212344D01*
X151515761Y-123255283D01*
X151520582Y-123307574D01*
X151524206Y-123371419D01*
X151526881Y-123449025D01*
X151528857Y-123542594D01*
X151530382Y-123654333D01*
X151531704Y-123786445D01*
X151532613Y-123906434D01*
X151533020Y-124023063D01*
X151532767Y-124118531D01*
X151531857Y-124192556D01*
X151530293Y-124244855D01*
X151528079Y-124275149D01*
X151525220Y-124283156D01*
X151522161Y-124279858D01*
X151504006Y-124258408D01*
X151474275Y-124221889D01*
X151434639Y-124172442D01*
X151386771Y-124112207D01*
X151332343Y-124043327D01*
X151273027Y-123967943D01*
X151210495Y-123888196D01*
X151146421Y-123806228D01*
X151082475Y-123724180D01*
X151020331Y-123644194D01*
X150961661Y-123568411D01*
X150908137Y-123498973D01*
X150861430Y-123438021D01*
X150823214Y-123387696D01*
X150795161Y-123350140D01*
X150778943Y-123327495D01*
X150733635Y-123255212D01*
X150693661Y-123175463D01*
X150672130Y-123107188D01*
X150668827Y-123049844D01*
X150674116Y-123001867D01*
X149542356Y-123002117D01*
X149581867Y-123032722D01*
X149591248Y-123040089D01*
X149654183Y-123094438D01*
X149722997Y-123162259D01*
X149799596Y-123245516D01*
X149885888Y-123346178D01*
X149903052Y-123366847D01*
X149943833Y-123416409D01*
X149993588Y-123477326D01*
X150050955Y-123547898D01*
X150114569Y-123626424D01*
X150183069Y-123711204D01*
X150255090Y-123800537D01*
X150329270Y-123892722D01*
X150344517Y-123911702D01*
X150404246Y-123986060D01*
X150478653Y-124078848D01*
X150551131Y-124169388D01*
X150620314Y-124255978D01*
X150684841Y-124336918D01*
X150743347Y-124410506D01*
X150794470Y-124475044D01*
X150836847Y-124528829D01*
X150869115Y-124570162D01*
X150889910Y-124597342D01*
X150897869Y-124608668D01*
X150896111Y-124612771D01*
X150883230Y-124633334D01*
X150858885Y-124669561D01*
X150824247Y-124719824D01*
X150780486Y-124782492D01*
X150728775Y-124855936D01*
X150670284Y-124938527D01*
X150606184Y-125028636D01*
X150537646Y-125124631D01*
X150465843Y-125224885D01*
X150391944Y-125327768D01*
X150317121Y-125431650D01*
X150242545Y-125534901D01*
X150169387Y-125635892D01*
X150098819Y-125732994D01*
X150032011Y-125824577D01*
X149970135Y-125909011D01*
X149914361Y-125984667D01*
X149865862Y-126049916D01*
X149825807Y-126103128D01*
X149795369Y-126142673D01*
X149774944Y-126168026D01*
X149728899Y-126222295D01*
X149678612Y-126278775D01*
X149631815Y-126328669D01*
X149540651Y-126422400D01*
X148842445Y-126422400D01*
X148911356Y-126422349D01*
X149009607Y-126422091D01*
X149099030Y-126421637D01*
X149177333Y-126421010D01*
X149242223Y-126420235D01*
X149291411Y-126419335D01*
X149322604Y-126418334D01*
X149333511Y-126417257D01*
X149332322Y-126414037D01*
X149322176Y-126396452D01*
X149305040Y-126370158D01*
X149296540Y-126357691D01*
X149287329Y-126343622D01*
X149279233Y-126329351D01*
X149272185Y-126313479D01*
X149266117Y-126294609D01*
X149260961Y-126271341D01*
X149256651Y-126242278D01*
X149253119Y-126206021D01*
X149250297Y-126161170D01*
X149248118Y-126106328D01*
X149246514Y-126040097D01*
X149245419Y-125961077D01*
X149244765Y-125867871D01*
X149244484Y-125759079D01*
X149244509Y-125633303D01*
X149244772Y-125489145D01*
X149245206Y-125325207D01*
X149245745Y-125140089D01*
X149246279Y-124961232D01*
X149246805Y-124802374D01*
X149247350Y-124663316D01*
X149247945Y-124542665D01*
X149248619Y-124439028D01*
X149249403Y-124351011D01*
X149250326Y-124277223D01*
X149251419Y-124216269D01*
X149252712Y-124166757D01*
X149254235Y-124127293D01*
X149256019Y-124096484D01*
X149258092Y-124072938D01*
X149260486Y-124055260D01*
X149263230Y-124042059D01*
X149266356Y-124031940D01*
X149269892Y-124023511D01*
X149273791Y-124015375D01*
X149293438Y-123978544D01*
X149312225Y-123948391D01*
X149313272Y-123946908D01*
X149327602Y-123924659D01*
X149333511Y-123911702D01*
X149332504Y-123911249D01*
X149315305Y-123909803D01*
X149278656Y-123908480D01*
X149224962Y-123907316D01*
X149156630Y-123906347D01*
X149076064Y-123905611D01*
X148985670Y-123905142D01*
X148887853Y-123904978D01*
X148442195Y-123904978D01*
X148439120Y-125081845D01*
X148436045Y-126258711D01*
X148409407Y-126317622D01*
X148397485Y-126342183D01*
X148380246Y-126372434D01*
X148367074Y-126389560D01*
X148359076Y-126397591D01*
X148351378Y-126412493D01*
X148059942Y-126412493D01*
X148059474Y-126320029D01*
X148059050Y-126204617D01*
X148058706Y-126074160D01*
X148058434Y-125927716D01*
X148058227Y-125764344D01*
X148058076Y-125583101D01*
X148057972Y-125383048D01*
X148057908Y-125163241D01*
X148057876Y-124922739D01*
X148057867Y-124660602D01*
X148057867Y-122469031D01*
X148096249Y-122430649D01*
X148123355Y-122406911D01*
X148150253Y-122395111D01*
X148186560Y-122392267D01*
X148238489Y-122392267D01*
X148238489Y-122480206D01*
X148240427Y-122530102D01*
X148259199Y-122640523D01*
X148296217Y-122741987D01*
X148349369Y-122833152D01*
X148416546Y-122912673D01*
X148495638Y-122979205D01*
X148584534Y-123031406D01*
X148681125Y-123067930D01*
X148783300Y-123087434D01*
X148888950Y-123088573D01*
X148995964Y-123070005D01*
X149102232Y-123030384D01*
X149199219Y-122972516D01*
X149284293Y-122897684D01*
X149353015Y-122809615D01*
X149403918Y-122710616D01*
X149435535Y-122602993D01*
X149446400Y-122489054D01*
X149446400Y-122392267D01*
X151066753Y-122392267D01*
X151277897Y-122392280D01*
X151482020Y-122392330D01*
X151665686Y-122392430D01*
X151829991Y-122392592D01*
X151976029Y-122392829D01*
X152104894Y-122393153D01*
X152217683Y-122393575D01*
X152315488Y-122394109D01*
X152399404Y-122394767D01*
X152470527Y-122395561D01*
X152529950Y-122396504D01*
X152578768Y-122397608D01*
X152618077Y-122398884D01*
X152648969Y-122400347D01*
X152672541Y-122402007D01*
X152689886Y-122403878D01*
X152702099Y-122405972D01*
X152710275Y-122408300D01*
X152715508Y-122410876D01*
X152721504Y-122414445D01*
X152728279Y-122417978D01*
X152734478Y-122421488D01*
X152740126Y-122425918D01*
X152745247Y-122432208D01*
X152749869Y-122441301D01*
X152754015Y-122454139D01*
X152757713Y-122471662D01*
X152760987Y-122494813D01*
X152763863Y-122524534D01*
X152766367Y-122561765D01*
X152768524Y-122607449D01*
X152770360Y-122662527D01*
X152771900Y-122727941D01*
X152773170Y-122804633D01*
X152774195Y-122893544D01*
X152775001Y-122995617D01*
X152775034Y-123001867D01*
X152775614Y-123111792D01*
G37*
D13*
%TO.C,G\u002A\u002A\u002A*%
G36*
X168113624Y-101131813D02*
G01*
X168117567Y-101139392D01*
X168096825Y-101148611D01*
X168083486Y-101146793D01*
X168080027Y-101131813D01*
X168083720Y-101128797D01*
X168113624Y-101131813D01*
G37*
G36*
X167766686Y-100983779D02*
G01*
X167819643Y-101012998D01*
X167830457Y-101019214D01*
X167906353Y-101060426D01*
X167970833Y-101092088D01*
X167998085Y-101105335D01*
X168014014Y-101118968D01*
X167995330Y-101120098D01*
X167951004Y-101109280D01*
X167890010Y-101087071D01*
X167882278Y-101083728D01*
X167814529Y-101045993D01*
X167767240Y-101006276D01*
X167764449Y-101002783D01*
X167750310Y-100980633D01*
X167766686Y-100983779D01*
G37*
G36*
X164246073Y-105021720D02*
G01*
X164312477Y-105066972D01*
X164340450Y-105094255D01*
X164382958Y-105168860D01*
X164385987Y-105242143D01*
X164350951Y-105302535D01*
X164279266Y-105338464D01*
X164242953Y-105343005D01*
X164153090Y-105329439D01*
X164071544Y-105288195D01*
X164012336Y-105228020D01*
X163989484Y-105157659D01*
X164011806Y-105098373D01*
X164071812Y-105046699D01*
X164156640Y-105014635D01*
X164186238Y-105010643D01*
X164246073Y-105021720D01*
G37*
G36*
X170238752Y-100317932D02*
G01*
X170321665Y-100344761D01*
X170373895Y-100400730D01*
X170392028Y-100474473D01*
X170372651Y-100554620D01*
X170312352Y-100629804D01*
X170273561Y-100660336D01*
X170213830Y-100690015D01*
X170165125Y-100679477D01*
X170114527Y-100628646D01*
X170074011Y-100560583D01*
X170066882Y-100483306D01*
X170100746Y-100391408D01*
X170110940Y-100373055D01*
X170153842Y-100328750D01*
X170218455Y-100317064D01*
X170238752Y-100317932D01*
G37*
G36*
X171453425Y-99840767D02*
G01*
X171524457Y-99873289D01*
X171567686Y-99934276D01*
X171580297Y-100011907D01*
X171559478Y-100094360D01*
X171502413Y-100169817D01*
X171458638Y-100206651D01*
X171404943Y-100235868D01*
X171358856Y-100228771D01*
X171304948Y-100186679D01*
X171279834Y-100157320D01*
X171249448Y-100078152D01*
X171253176Y-99993285D01*
X171286463Y-99916099D01*
X171344757Y-99859975D01*
X171423503Y-99838294D01*
X171453425Y-99840767D01*
G37*
G36*
X165055734Y-105412348D02*
G01*
X165143830Y-105441233D01*
X165176283Y-105464158D01*
X165235539Y-105527897D01*
X165281228Y-105602006D01*
X165299636Y-105666643D01*
X165299635Y-105666995D01*
X165276858Y-105709722D01*
X165217907Y-105748534D01*
X165190954Y-105759324D01*
X165087468Y-105774079D01*
X164988972Y-105741487D01*
X164890327Y-105660163D01*
X164881605Y-105650908D01*
X164824391Y-105585050D01*
X164801251Y-105539264D01*
X164809444Y-105500957D01*
X164846230Y-105457540D01*
X164876896Y-105435332D01*
X164959870Y-105410758D01*
X165055734Y-105412348D01*
G37*
G36*
X168173126Y-100220799D02*
G01*
X168240301Y-100242564D01*
X168305784Y-100290655D01*
X168345317Y-100330406D01*
X168409948Y-100434021D01*
X168434760Y-100544617D01*
X168416014Y-100650004D01*
X168395364Y-100692464D01*
X168320249Y-100782503D01*
X168210218Y-100840701D01*
X168111912Y-100853404D01*
X168017241Y-100825766D01*
X167935074Y-100765489D01*
X167870598Y-100681584D01*
X167828996Y-100583064D01*
X167815456Y-100478940D01*
X167835162Y-100378223D01*
X167893300Y-100289927D01*
X167893543Y-100289684D01*
X167949262Y-100243220D01*
X168008347Y-100221588D01*
X168094010Y-100216270D01*
X168173126Y-100220799D01*
G37*
G36*
X173917659Y-109514484D02*
G01*
X173917659Y-110749207D01*
X172997917Y-110749207D01*
X172078175Y-110749207D01*
X172078175Y-110472024D01*
X172078175Y-110194842D01*
X172708135Y-110194842D01*
X173338095Y-110194842D01*
X173338095Y-109955457D01*
X173338095Y-109716072D01*
X172758532Y-109716072D01*
X172178968Y-109716072D01*
X172178968Y-109450172D01*
X172178968Y-109184271D01*
X172758557Y-109191888D01*
X173338145Y-109199504D01*
X173338120Y-108979018D01*
X173338095Y-108758532D01*
X172708135Y-108758532D01*
X172078175Y-108758532D01*
X172078175Y-108519147D01*
X172078175Y-108279762D01*
X172997917Y-108279762D01*
X173917659Y-108279762D01*
X173917659Y-109514484D01*
G37*
G36*
X168435037Y-105844674D02*
G01*
X168423504Y-105863154D01*
X168376508Y-105892093D01*
X168303753Y-105927506D01*
X168214947Y-105965412D01*
X168119795Y-106001827D01*
X168028004Y-106032769D01*
X167949279Y-106054255D01*
X167893327Y-106062302D01*
X167862916Y-106068032D01*
X167795663Y-106090824D01*
X167715052Y-106125052D01*
X167687067Y-106137553D01*
X167600196Y-106169298D01*
X167531707Y-106184712D01*
X167487733Y-106184736D01*
X167474404Y-106170311D01*
X167497851Y-106142381D01*
X167564206Y-106101885D01*
X167568059Y-106099936D01*
X167631689Y-106073068D01*
X167726322Y-106038859D01*
X167842119Y-106000263D01*
X167969245Y-105960231D01*
X168097861Y-105921717D01*
X168218131Y-105887672D01*
X168320217Y-105861050D01*
X168394282Y-105844803D01*
X168430490Y-105841882D01*
X168435037Y-105844674D01*
G37*
G36*
X172722969Y-101214275D02*
G01*
X172813097Y-101252708D01*
X172920926Y-101320050D01*
X172948252Y-101338831D01*
X173025399Y-101395436D01*
X173081406Y-101441937D01*
X173105662Y-101469736D01*
X173107769Y-101478163D01*
X173105257Y-101490752D01*
X173089467Y-101504746D01*
X173053651Y-101523485D01*
X172991056Y-101550313D01*
X172894933Y-101588571D01*
X172758532Y-101641601D01*
X172710416Y-101660158D01*
X172622434Y-101693583D01*
X172558798Y-101717061D01*
X172530801Y-101726386D01*
X172527320Y-101723580D01*
X172518571Y-101687896D01*
X172513102Y-101623983D01*
X172512994Y-101621502D01*
X172488406Y-101516236D01*
X172422777Y-101431502D01*
X172311885Y-101361794D01*
X172279278Y-101344618D01*
X172247846Y-101315384D01*
X172259697Y-101289030D01*
X172317118Y-101262919D01*
X172422397Y-101234416D01*
X172527080Y-101212329D01*
X172633358Y-101201799D01*
X172722969Y-101214275D01*
G37*
G36*
X173373555Y-101731780D02*
G01*
X173428153Y-101764398D01*
X173495622Y-101823626D01*
X173565795Y-101898136D01*
X173628505Y-101976602D01*
X173673587Y-102047695D01*
X173690873Y-102100090D01*
X173683036Y-102110437D01*
X173639728Y-102135191D01*
X173571181Y-102162421D01*
X173564293Y-102164768D01*
X173489580Y-102190533D01*
X173382423Y-102227814D01*
X173256105Y-102271980D01*
X173123909Y-102318398D01*
X173093076Y-102329166D01*
X172971132Y-102370140D01*
X172865069Y-102403335D01*
X172785374Y-102425581D01*
X172742531Y-102433707D01*
X172705137Y-102425127D01*
X172652149Y-102373683D01*
X172613188Y-102279129D01*
X172590276Y-102145298D01*
X172575229Y-101984165D01*
X172698379Y-101946361D01*
X172738513Y-101933627D01*
X172835667Y-101901360D01*
X172953069Y-101861173D01*
X173073512Y-101818913D01*
X173153517Y-101790992D01*
X173249818Y-101758977D01*
X173321641Y-101737011D01*
X173357557Y-101728722D01*
X173373555Y-101731780D01*
G37*
G36*
X168646024Y-97284586D02*
G01*
X168758056Y-97343048D01*
X168862458Y-97450978D01*
X168881748Y-97479060D01*
X168925401Y-97594058D01*
X168924143Y-97716507D01*
X168879294Y-97837094D01*
X168792176Y-97946506D01*
X168790792Y-97947802D01*
X168756610Y-97985491D01*
X168737294Y-98027915D01*
X168728726Y-98090273D01*
X168726786Y-98187766D01*
X168726786Y-98367938D01*
X168607093Y-98407750D01*
X168535312Y-98431375D01*
X168467261Y-98448311D01*
X168426770Y-98441635D01*
X168406693Y-98404653D01*
X168399887Y-98330671D01*
X168399206Y-98212996D01*
X168399204Y-98207611D01*
X168397496Y-98093554D01*
X168391826Y-98021727D01*
X168381048Y-97984342D01*
X168364019Y-97973611D01*
X168349917Y-97969525D01*
X168304257Y-97937661D01*
X168250626Y-97884540D01*
X168202069Y-97820396D01*
X168178281Y-97755590D01*
X168172421Y-97667028D01*
X168173536Y-97632195D01*
X168203936Y-97497176D01*
X168274690Y-97390905D01*
X168384202Y-97316031D01*
X168389903Y-97313475D01*
X168524070Y-97274944D01*
X168646024Y-97284586D01*
G37*
G36*
X170934331Y-102792593D02*
G01*
X171019104Y-102838854D01*
X171126501Y-102919693D01*
X171175590Y-102959939D01*
X171259307Y-103032321D01*
X171325413Y-103094231D01*
X171362775Y-103135499D01*
X171375350Y-103154436D01*
X171386556Y-103184151D01*
X171379598Y-103218261D01*
X171350667Y-103268900D01*
X171295951Y-103348198D01*
X171237851Y-103437396D01*
X171182052Y-103535874D01*
X171144540Y-103616569D01*
X171142745Y-103621322D01*
X171117419Y-103679564D01*
X171086512Y-103722623D01*
X171039599Y-103758657D01*
X170966254Y-103795821D01*
X170856052Y-103842272D01*
X170806377Y-103861696D01*
X170739478Y-103884987D01*
X170701242Y-103894417D01*
X170676561Y-103883162D01*
X170624686Y-103842891D01*
X170558875Y-103783218D01*
X170489547Y-103714543D01*
X170427125Y-103647267D01*
X170382030Y-103591791D01*
X170364683Y-103558516D01*
X170373313Y-103530473D01*
X170404533Y-103470584D01*
X170450697Y-103397875D01*
X170459352Y-103385050D01*
X170515339Y-103294868D01*
X170578546Y-103184093D01*
X170636885Y-103073767D01*
X170675228Y-102999352D01*
X170742630Y-102884290D01*
X170803406Y-102813010D01*
X170864869Y-102783212D01*
X170934331Y-102792593D01*
G37*
G36*
X164770635Y-103197809D02*
G01*
X164769507Y-103250882D01*
X164744368Y-103439159D01*
X164687717Y-103596778D01*
X164601544Y-103719476D01*
X164487842Y-103802989D01*
X164457969Y-103816610D01*
X164368919Y-103840388D01*
X164272810Y-103835798D01*
X164152350Y-103802831D01*
X164032019Y-103744327D01*
X163901421Y-103635758D01*
X163791034Y-103493633D01*
X163704982Y-103326284D01*
X163647392Y-103142041D01*
X163629956Y-103007594D01*
X164029798Y-103007594D01*
X164029910Y-103012237D01*
X164038234Y-103088992D01*
X164065790Y-103145762D01*
X164123922Y-103206525D01*
X164199362Y-103264502D01*
X164274031Y-103289406D01*
X164336169Y-103267153D01*
X164388886Y-103197639D01*
X164398283Y-103177619D01*
X164418567Y-103078458D01*
X164404860Y-102977638D01*
X164362600Y-102887794D01*
X164297225Y-102821565D01*
X164214171Y-102791586D01*
X164162544Y-102792501D01*
X164087403Y-102824969D01*
X164042905Y-102896958D01*
X164029798Y-103007594D01*
X163629956Y-103007594D01*
X163622388Y-102949237D01*
X163634096Y-102756202D01*
X163641772Y-102713905D01*
X163695440Y-102531914D01*
X163776402Y-102391442D01*
X163885628Y-102291177D01*
X164024090Y-102229809D01*
X164119253Y-102222602D01*
X164232797Y-102255424D01*
X164346745Y-102326120D01*
X164456306Y-102428480D01*
X164556690Y-102556290D01*
X164643105Y-102703340D01*
X164710761Y-102863417D01*
X164754868Y-103030311D01*
X164759400Y-103078458D01*
X164770635Y-103197809D01*
G37*
G36*
X167290476Y-104850756D02*
G01*
X167289402Y-104910966D01*
X167268939Y-105088757D01*
X167220200Y-105231037D01*
X167140185Y-105344440D01*
X167025893Y-105435600D01*
X166986798Y-105455104D01*
X166873150Y-105479406D01*
X166744818Y-105472451D01*
X166619266Y-105434295D01*
X166544329Y-105394841D01*
X166420792Y-105298770D01*
X166310372Y-105166356D01*
X166206534Y-104990571D01*
X166093552Y-104770809D01*
X166093552Y-104602168D01*
X166484127Y-104602168D01*
X166484323Y-104626176D01*
X166491772Y-104702091D01*
X166517072Y-104757842D01*
X166569802Y-104817500D01*
X166597569Y-104843272D01*
X166682128Y-104893972D01*
X166759287Y-104895019D01*
X166829616Y-104846479D01*
X166887134Y-104753816D01*
X166905734Y-104642397D01*
X166880305Y-104528879D01*
X166811312Y-104423983D01*
X166789944Y-104403015D01*
X166708026Y-104355720D01*
X166625715Y-104358219D01*
X166545978Y-104410661D01*
X166511274Y-104453334D01*
X166489804Y-104513283D01*
X166484127Y-104602168D01*
X166093552Y-104602168D01*
X166093552Y-104452716D01*
X166093599Y-104414883D01*
X166095153Y-104288217D01*
X166100027Y-104197750D01*
X166109732Y-104132092D01*
X166125778Y-104079856D01*
X166149678Y-104029652D01*
X166161904Y-104008002D01*
X166254247Y-103895731D01*
X166368502Y-103824700D01*
X166497761Y-103795501D01*
X166635117Y-103808726D01*
X166773662Y-103864967D01*
X166906489Y-103964815D01*
X166940425Y-103998612D01*
X167086588Y-104183921D01*
X167196755Y-104394877D01*
X167266270Y-104620737D01*
X167268549Y-104642397D01*
X167290476Y-104850756D01*
G37*
G36*
X166317678Y-108293139D02*
G01*
X166497394Y-108336821D01*
X166658683Y-108414865D01*
X166791758Y-108526640D01*
X166885202Y-108630361D01*
X166870550Y-108473454D01*
X166855898Y-108316547D01*
X167142483Y-108326055D01*
X167246935Y-108329984D01*
X167343307Y-108334621D01*
X167410013Y-108339018D01*
X167436698Y-108342591D01*
X167438291Y-108354645D01*
X167440853Y-108410886D01*
X167443531Y-108507536D01*
X167446266Y-108638573D01*
X167449000Y-108797972D01*
X167451673Y-108979709D01*
X167454227Y-109177763D01*
X167456601Y-109386108D01*
X167458736Y-109598723D01*
X167460575Y-109809583D01*
X167462057Y-110012665D01*
X167463123Y-110201946D01*
X167463714Y-110371402D01*
X167463771Y-110515010D01*
X167463236Y-110626746D01*
X167462047Y-110700588D01*
X167460148Y-110730511D01*
X167459973Y-110730944D01*
X167438528Y-110744937D01*
X167384703Y-110753138D01*
X167292556Y-110756005D01*
X167156147Y-110753998D01*
X166864100Y-110746189D01*
X166856802Y-109945751D01*
X166849504Y-109145313D01*
X166786508Y-109053197D01*
X166784837Y-109050775D01*
X166694714Y-108960077D01*
X166578493Y-108898899D01*
X166447210Y-108867401D01*
X166311904Y-108865747D01*
X166183610Y-108894100D01*
X166073366Y-108952623D01*
X165992208Y-109041479D01*
X165990638Y-109044097D01*
X165977109Y-109069987D01*
X165966253Y-109100987D01*
X165957707Y-109142756D01*
X165951106Y-109200957D01*
X165946083Y-109281250D01*
X165942274Y-109389296D01*
X165939314Y-109530755D01*
X165936839Y-109711289D01*
X165934481Y-109936558D01*
X165926601Y-110749207D01*
X165624129Y-110749207D01*
X165321657Y-110749207D01*
X165329628Y-109820550D01*
X165337599Y-108891893D01*
X165425794Y-108719068D01*
X165462791Y-108651465D01*
X165542484Y-108540179D01*
X165638400Y-108452321D01*
X165765857Y-108374567D01*
X165942121Y-108311381D01*
X166129325Y-108284449D01*
X166317678Y-108293139D01*
G37*
G36*
X169942335Y-109710181D02*
G01*
X169930592Y-109796116D01*
X169909928Y-109877664D01*
X169877953Y-109971122D01*
X169844200Y-110053950D01*
X169724255Y-110263142D01*
X169568725Y-110441473D01*
X169382844Y-110584602D01*
X169171848Y-110688190D01*
X168940972Y-110747897D01*
X168880323Y-110755459D01*
X168648205Y-110753774D01*
X168424626Y-110704240D01*
X168214256Y-110608829D01*
X168021764Y-110469510D01*
X167851817Y-110288254D01*
X167774768Y-110182324D01*
X167667166Y-109991797D01*
X167601148Y-109799060D01*
X167572365Y-109593303D01*
X167569965Y-109502782D01*
X167572255Y-109477540D01*
X168164684Y-109477540D01*
X168170865Y-109658872D01*
X168217511Y-109823337D01*
X168302017Y-109965037D01*
X168421780Y-110078074D01*
X168574194Y-110156550D01*
X168621705Y-110171418D01*
X168787222Y-110193042D01*
X168942948Y-110166936D01*
X169084638Y-110095035D01*
X169208044Y-109979277D01*
X169308920Y-109821596D01*
X169313264Y-109812714D01*
X169338326Y-109751397D01*
X169351770Y-109687767D01*
X169355669Y-109605892D01*
X169352094Y-109489842D01*
X169350870Y-109465414D01*
X169342559Y-109356609D01*
X169328496Y-109278234D01*
X169304478Y-109213404D01*
X169266301Y-109145234D01*
X169186235Y-109045348D01*
X169058207Y-108950181D01*
X168909285Y-108891219D01*
X168750792Y-108872617D01*
X168594052Y-108898531D01*
X168480463Y-108951567D01*
X168356578Y-109048366D01*
X168257793Y-109169349D01*
X168196746Y-109301691D01*
X168164684Y-109477540D01*
X167572255Y-109477540D01*
X167592118Y-109258599D01*
X167658594Y-109036513D01*
X167770849Y-108832658D01*
X167930338Y-108643171D01*
X167965935Y-108608538D01*
X168138387Y-108469559D01*
X168317974Y-108375572D01*
X168514904Y-108322317D01*
X168739385Y-108305532D01*
X168860853Y-108309424D01*
X169035905Y-108334332D01*
X169203072Y-108386858D01*
X169382740Y-108472286D01*
X169386217Y-108474162D01*
X169531975Y-108567435D01*
X169652277Y-108679314D01*
X169756548Y-108820368D01*
X169854209Y-109001169D01*
X169884161Y-109064678D01*
X169915117Y-109137592D01*
X169934180Y-109201713D01*
X169944211Y-109271838D01*
X169948072Y-109362763D01*
X169948626Y-109489286D01*
X169947548Y-109603559D01*
X169947434Y-109605892D01*
X169942335Y-109710181D01*
G37*
G36*
X165223732Y-109461452D02*
G01*
X165212796Y-109694332D01*
X165164057Y-109921974D01*
X165078926Y-110129959D01*
X164996127Y-110258319D01*
X164851055Y-110417723D01*
X164676169Y-110557100D01*
X164483084Y-110667543D01*
X164283414Y-110740142D01*
X164201604Y-110754623D01*
X164071038Y-110764466D01*
X163926488Y-110764148D01*
X163830112Y-110758648D01*
X163724910Y-110744992D01*
X163633847Y-110720220D01*
X163535913Y-110679794D01*
X163490785Y-110656934D01*
X163402940Y-110605213D01*
X163306070Y-110541902D01*
X163210630Y-110474492D01*
X163127074Y-110410477D01*
X163065859Y-110357347D01*
X163037438Y-110322595D01*
X163040390Y-110312991D01*
X163072484Y-110280095D01*
X163129221Y-110237958D01*
X163181383Y-110198076D01*
X163261595Y-110124477D01*
X163335891Y-110044693D01*
X163443673Y-109916870D01*
X163486539Y-109982214D01*
X163515246Y-110020628D01*
X163623072Y-110113268D01*
X163758997Y-110176614D01*
X163912403Y-110209168D01*
X164072670Y-110209431D01*
X164229180Y-110175904D01*
X164371313Y-110107089D01*
X164379292Y-110101749D01*
X164461823Y-110034834D01*
X164523369Y-109954316D01*
X164578077Y-109842064D01*
X164614891Y-109753869D01*
X163766722Y-109753869D01*
X162918552Y-109753869D01*
X162910884Y-109605285D01*
X162909450Y-109569283D01*
X162923155Y-109321840D01*
X162925205Y-109312897D01*
X163507318Y-109312897D01*
X164050782Y-109312897D01*
X164153077Y-109312919D01*
X164312811Y-109312487D01*
X164430605Y-109310139D01*
X164512009Y-109304336D01*
X164562571Y-109293540D01*
X164587839Y-109276211D01*
X164593362Y-109250812D01*
X164584690Y-109215803D01*
X164567369Y-109169647D01*
X164529178Y-109095235D01*
X164438907Y-108999724D01*
X164304464Y-108919233D01*
X164292766Y-108913856D01*
X164132069Y-108866444D01*
X163974461Y-108865139D01*
X163827436Y-108906701D01*
X163698490Y-108987891D01*
X163595116Y-109105471D01*
X163524808Y-109256201D01*
X163507318Y-109312897D01*
X162925205Y-109312897D01*
X162976014Y-109091267D01*
X163064241Y-108881657D01*
X163184050Y-108697102D01*
X163331658Y-108541695D01*
X163503277Y-108419528D01*
X163695123Y-108334693D01*
X163903410Y-108291284D01*
X164124353Y-108293392D01*
X164343031Y-108335791D01*
X164572491Y-108424110D01*
X164772727Y-108552473D01*
X164941340Y-108718902D01*
X165075932Y-108921423D01*
X165174105Y-109158061D01*
X165195452Y-109237746D01*
X165197104Y-109250812D01*
X165223732Y-109461452D01*
G37*
G36*
X170087572Y-108317646D02*
G01*
X170112936Y-108318676D01*
X170235598Y-108324742D01*
X170338211Y-108331550D01*
X170410666Y-108338340D01*
X170442856Y-108344352D01*
X170447996Y-108349269D01*
X170478544Y-108387932D01*
X170529298Y-108457652D01*
X170594611Y-108550572D01*
X170668838Y-108658835D01*
X170698007Y-108701702D01*
X170769119Y-108804734D01*
X170828895Y-108889271D01*
X170871767Y-108947519D01*
X170892172Y-108971682D01*
X170911276Y-108961785D01*
X170949188Y-108918837D01*
X170995868Y-108852215D01*
X171013553Y-108824691D01*
X171073913Y-108731292D01*
X171145404Y-108621212D01*
X171216089Y-108512848D01*
X171352052Y-108304961D01*
X171677316Y-108304961D01*
X171699586Y-108305006D01*
X171818063Y-108306887D01*
X171914313Y-108311120D01*
X171978948Y-108317144D01*
X172002579Y-108324399D01*
X172001347Y-108328905D01*
X171980247Y-108366868D01*
X171938410Y-108431246D01*
X171882887Y-108511041D01*
X171854930Y-108550830D01*
X171787845Y-108649247D01*
X171706019Y-108771884D01*
X171617307Y-108906926D01*
X171529562Y-109042557D01*
X171470213Y-109134082D01*
X171393571Y-109249243D01*
X171326892Y-109346050D01*
X171275788Y-109416394D01*
X171245876Y-109452168D01*
X171225976Y-109471406D01*
X171210520Y-109503187D01*
X171231521Y-109537473D01*
X171246968Y-109557324D01*
X171288932Y-109615816D01*
X171349460Y-109702748D01*
X171423054Y-109810202D01*
X171504215Y-109930258D01*
X171546971Y-109993889D01*
X171639721Y-110131846D01*
X171729952Y-110265967D01*
X171809141Y-110383582D01*
X171868762Y-110472024D01*
X171893639Y-110509399D01*
X171949220Y-110596897D01*
X171991121Y-110668466D01*
X172011759Y-110711409D01*
X172011915Y-110711921D01*
X172015735Y-110732319D01*
X172007436Y-110746233D01*
X171979361Y-110754902D01*
X171923856Y-110759562D01*
X171833266Y-110761451D01*
X171699934Y-110761806D01*
X171675978Y-110761764D01*
X171557317Y-110760247D01*
X171460967Y-110756870D01*
X171396288Y-110752076D01*
X171372642Y-110746308D01*
X171372562Y-110745575D01*
X171357526Y-110715936D01*
X171321540Y-110657639D01*
X171271886Y-110582518D01*
X171269023Y-110578293D01*
X171219598Y-110501302D01*
X171184475Y-110439211D01*
X171171092Y-110405113D01*
X171163631Y-110384638D01*
X171131020Y-110333004D01*
X171081300Y-110268597D01*
X171048155Y-110227256D01*
X170992550Y-110150876D01*
X170954661Y-110089824D01*
X170953200Y-110087030D01*
X170921801Y-110038502D01*
X170897154Y-110018453D01*
X170882120Y-110032532D01*
X170842830Y-110082550D01*
X170784965Y-110162295D01*
X170713428Y-110264983D01*
X170633122Y-110383830D01*
X170389690Y-110749207D01*
X170047243Y-110749207D01*
X169704796Y-110749207D01*
X169800314Y-110616915D01*
X169828384Y-110577596D01*
X169914693Y-110453314D01*
X170016291Y-110303456D01*
X170125007Y-110140339D01*
X170232672Y-109976278D01*
X170331115Y-109823587D01*
X170412168Y-109694584D01*
X170541807Y-109484108D01*
X170460601Y-109341806D01*
X170422985Y-109277643D01*
X170345468Y-109151605D01*
X170254296Y-109008768D01*
X170156121Y-108859100D01*
X170057595Y-108712571D01*
X169965372Y-108579150D01*
X169886104Y-108468805D01*
X169826443Y-108391505D01*
X169754375Y-108304590D01*
X170087572Y-108317646D01*
G37*
G36*
X170695694Y-97859320D02*
G01*
X170752983Y-97875554D01*
X170838845Y-97910468D01*
X170961217Y-97966600D01*
X171063393Y-98014497D01*
X171173478Y-98065438D01*
X171264094Y-98106671D01*
X171322222Y-98132222D01*
X171324270Y-98133081D01*
X171393180Y-98162914D01*
X171487272Y-98204748D01*
X171586806Y-98249809D01*
X171591887Y-98252133D01*
X171690344Y-98297082D01*
X171781098Y-98338400D01*
X171845089Y-98367409D01*
X171855692Y-98372354D01*
X171906369Y-98401600D01*
X171926984Y-98423705D01*
X171926775Y-98424739D01*
X171900918Y-98442999D01*
X171840270Y-98470595D01*
X171756895Y-98501975D01*
X171707720Y-98519371D01*
X171601674Y-98557914D01*
X171468756Y-98607028D01*
X171321148Y-98662201D01*
X171171032Y-98718923D01*
X171094509Y-98747990D01*
X170905601Y-98819641D01*
X170699138Y-98897834D01*
X170495305Y-98974930D01*
X170314286Y-99043284D01*
X170166503Y-99099345D01*
X169923035Y-99193581D01*
X169723116Y-99273874D01*
X169563932Y-99341436D01*
X169442670Y-99397484D01*
X169356517Y-99443230D01*
X169302658Y-99479890D01*
X169286178Y-99493775D01*
X169253309Y-99523143D01*
X169226455Y-99553380D01*
X169205009Y-99589439D01*
X169188362Y-99636273D01*
X169175906Y-99698835D01*
X169167034Y-99782077D01*
X169161138Y-99890952D01*
X169157611Y-100030412D01*
X169155843Y-100205411D01*
X169155229Y-100420902D01*
X169155159Y-100681837D01*
X169155159Y-101679072D01*
X169073264Y-101637147D01*
X169059366Y-101629792D01*
X168995405Y-101594067D01*
X168902158Y-101540483D01*
X168789870Y-101474958D01*
X168668787Y-101403415D01*
X168624692Y-101377241D01*
X168505772Y-101307094D01*
X168399481Y-101244998D01*
X168316026Y-101196893D01*
X168265613Y-101168721D01*
X168246178Y-101157935D01*
X168214360Y-101133427D01*
X168229955Y-101124623D01*
X168304039Y-101108026D01*
X168404142Y-101058271D01*
X168508143Y-100985499D01*
X168603368Y-100899947D01*
X168677141Y-100811850D01*
X168716788Y-100731445D01*
X168724655Y-100683075D01*
X168726046Y-100568517D01*
X168712550Y-100438519D01*
X168686738Y-100313389D01*
X168651183Y-100213437D01*
X168642573Y-100196773D01*
X168552096Y-100079195D01*
X168430613Y-99992294D01*
X168287909Y-99938590D01*
X168133767Y-99920606D01*
X167977973Y-99940863D01*
X167830311Y-100001883D01*
X167720151Y-100066441D01*
X167704435Y-100003822D01*
X167700340Y-99967256D01*
X167697053Y-99886225D01*
X167695397Y-99772469D01*
X167695499Y-99635425D01*
X167697484Y-99484524D01*
X167698680Y-99424740D01*
X167702485Y-99274910D01*
X167707170Y-99165956D01*
X167713506Y-99090720D01*
X167722265Y-99042049D01*
X167734216Y-99012786D01*
X167750131Y-98995777D01*
X167769196Y-98984524D01*
X167832328Y-98954267D01*
X167922612Y-98915266D01*
X168027314Y-98873153D01*
X168049519Y-98864537D01*
X168273650Y-98777888D01*
X168499411Y-98691136D01*
X168718708Y-98607354D01*
X168923444Y-98529617D01*
X169105526Y-98461001D01*
X169256858Y-98404579D01*
X169369345Y-98363426D01*
X169385462Y-98357613D01*
X169519294Y-98308452D01*
X169686027Y-98246048D01*
X169873487Y-98175032D01*
X170069500Y-98100037D01*
X170261895Y-98025693D01*
X170438498Y-97956633D01*
X170523491Y-97921838D01*
X170599141Y-97888380D01*
X170644456Y-97865352D01*
X170659038Y-97859229D01*
X170695694Y-97859320D01*
G37*
G36*
X172259590Y-99962186D02*
G01*
X172255429Y-100159903D01*
X172251392Y-100316694D01*
X172247089Y-100437830D01*
X172242132Y-100528581D01*
X172236131Y-100594220D01*
X172228697Y-100640017D01*
X172219440Y-100671243D01*
X172207971Y-100693170D01*
X172193901Y-100711069D01*
X172193521Y-100711496D01*
X172158884Y-100737037D01*
X172091718Y-100771365D01*
X171988914Y-100815753D01*
X171847367Y-100871476D01*
X171663970Y-100939806D01*
X171435615Y-101022020D01*
X171426083Y-101025410D01*
X171230557Y-101095153D01*
X171035932Y-101164910D01*
X170851529Y-101231316D01*
X170686672Y-101291005D01*
X170550680Y-101340613D01*
X170452877Y-101376775D01*
X170377950Y-101404785D01*
X170218069Y-101464315D01*
X170053877Y-101525203D01*
X169911111Y-101577893D01*
X169839986Y-101602929D01*
X169720505Y-101639753D01*
X169622474Y-101663257D01*
X169558333Y-101670186D01*
X169470139Y-101665179D01*
X169463538Y-100731766D01*
X169462798Y-100606271D01*
X169815919Y-100606271D01*
X169848806Y-100728750D01*
X169917615Y-100831585D01*
X170021516Y-100906120D01*
X170074603Y-100927214D01*
X170207171Y-100947042D01*
X170334500Y-100924524D01*
X170449873Y-100865284D01*
X170546575Y-100774946D01*
X170617888Y-100659135D01*
X170657097Y-100523473D01*
X170657484Y-100373587D01*
X170650614Y-100333464D01*
X170602153Y-100197907D01*
X170561883Y-100145845D01*
X171003204Y-100145845D01*
X171020706Y-100235234D01*
X171075242Y-100348716D01*
X171102003Y-100373587D01*
X171166117Y-100433174D01*
X171237730Y-100468794D01*
X171365110Y-100497596D01*
X171491968Y-100491806D01*
X171527310Y-100482234D01*
X171641448Y-100421384D01*
X171740774Y-100325727D01*
X171817051Y-100207167D01*
X171862045Y-100077609D01*
X171867521Y-99948954D01*
X171866269Y-99940176D01*
X171824112Y-99785183D01*
X171749405Y-99667825D01*
X171642689Y-99588966D01*
X171607525Y-99572789D01*
X171507125Y-99541934D01*
X171414512Y-99545658D01*
X171307841Y-99583609D01*
X171256643Y-99610675D01*
X171139478Y-99708972D01*
X171054625Y-99837499D01*
X171007422Y-99986406D01*
X171003204Y-100145845D01*
X170561883Y-100145845D01*
X170524695Y-100097768D01*
X170425407Y-100034886D01*
X170311458Y-100011104D01*
X170190014Y-100028260D01*
X170068243Y-100088197D01*
X169953314Y-100192755D01*
X169941055Y-100207525D01*
X169861215Y-100337002D01*
X169819779Y-100472803D01*
X169815919Y-100606271D01*
X169462798Y-100606271D01*
X169462279Y-100518130D01*
X169461807Y-100301667D01*
X169462596Y-100127952D01*
X169464754Y-99992799D01*
X169468393Y-99892023D01*
X169473623Y-99821438D01*
X169480554Y-99776859D01*
X169489297Y-99754099D01*
X169492105Y-99750407D01*
X169504347Y-99737341D01*
X169522771Y-99723040D01*
X169550529Y-99706225D01*
X169590768Y-99685619D01*
X169646639Y-99659943D01*
X169721292Y-99627919D01*
X169817876Y-99588269D01*
X169939542Y-99539714D01*
X170089438Y-99480977D01*
X170270714Y-99410779D01*
X170486521Y-99327842D01*
X170740007Y-99230888D01*
X171034324Y-99118639D01*
X171372619Y-98989816D01*
X171411999Y-98974828D01*
X171626426Y-98893343D01*
X171799102Y-98828037D01*
X171934579Y-98777289D01*
X172037410Y-98739479D01*
X172112146Y-98712987D01*
X172163341Y-98696193D01*
X172195545Y-98687476D01*
X172213312Y-98685217D01*
X172221194Y-98687795D01*
X172236415Y-98713893D01*
X172249227Y-98764252D01*
X172258796Y-98841785D01*
X172265273Y-98950353D01*
X172268807Y-99093817D01*
X172269548Y-99276040D01*
X172267645Y-99500882D01*
X172263248Y-99772204D01*
X172259845Y-99948954D01*
X172259590Y-99962186D01*
G37*
G36*
X173867182Y-102385604D02*
G01*
X173899542Y-102427496D01*
X173933937Y-102497683D01*
X173960620Y-102561512D01*
X173993282Y-102657218D01*
X174011234Y-102733614D01*
X174011502Y-102735623D01*
X174015456Y-102798832D01*
X173998701Y-102832645D01*
X173951912Y-102856353D01*
X173867411Y-102887804D01*
X173738017Y-102933811D01*
X173590054Y-102984899D01*
X173439367Y-103035670D01*
X173301802Y-103080730D01*
X173193204Y-103114684D01*
X173098219Y-103144696D01*
X173039959Y-103173587D01*
X173014024Y-103212796D01*
X173012304Y-103274874D01*
X173026689Y-103372371D01*
X173029977Y-103389664D01*
X173047746Y-103444686D01*
X173067731Y-103466865D01*
X173080122Y-103464155D01*
X173135450Y-103446138D01*
X173227407Y-103413323D01*
X173349389Y-103368167D01*
X173494794Y-103313129D01*
X173657020Y-103250667D01*
X173829464Y-103183241D01*
X173875291Y-103166023D01*
X173960662Y-103137681D01*
X174024752Y-103120983D01*
X174094048Y-103108368D01*
X174091066Y-103281317D01*
X174089077Y-103389420D01*
X174082917Y-103480277D01*
X174065681Y-103544315D01*
X174030129Y-103590391D01*
X173969023Y-103627363D01*
X173875124Y-103664089D01*
X173741192Y-103709427D01*
X173574585Y-103765934D01*
X173378528Y-103833928D01*
X173218413Y-103891371D01*
X173097281Y-103937138D01*
X173018171Y-103970108D01*
X172984120Y-103989157D01*
X172977910Y-104001203D01*
X172963764Y-104053776D01*
X172951268Y-104128324D01*
X172946207Y-104177932D01*
X172948798Y-104231569D01*
X172966901Y-104247743D01*
X172971739Y-104247539D01*
X173021457Y-104237894D01*
X173104982Y-104213063D01*
X173225482Y-104171972D01*
X173386124Y-104113549D01*
X173590079Y-104036721D01*
X173608815Y-104029589D01*
X173754715Y-103975298D01*
X173858725Y-103940981D01*
X173925154Y-103927502D01*
X173958312Y-103935731D01*
X173962510Y-103966534D01*
X173942057Y-104020778D01*
X173901264Y-104099331D01*
X173864832Y-104159458D01*
X173755300Y-104285644D01*
X173610144Y-104388809D01*
X173422796Y-104474099D01*
X173344802Y-104503220D01*
X173214792Y-104552262D01*
X173071729Y-104606643D01*
X172934921Y-104659044D01*
X172869687Y-104683644D01*
X172737857Y-104728680D01*
X172649591Y-104750548D01*
X172604142Y-104749451D01*
X172585381Y-104744794D01*
X172519088Y-104757744D01*
X172416842Y-104803154D01*
X172336178Y-104841093D01*
X172262073Y-104864493D01*
X172178688Y-104875333D01*
X172065537Y-104877977D01*
X172056269Y-104877940D01*
X171938488Y-104872369D01*
X171823848Y-104859166D01*
X171735949Y-104840978D01*
X171733641Y-104840285D01*
X171656061Y-104810479D01*
X171575655Y-104769825D01*
X171504739Y-104725925D01*
X171455633Y-104686379D01*
X171440657Y-104658787D01*
X171443579Y-104655346D01*
X171481689Y-104636508D01*
X171555228Y-104609547D01*
X171653750Y-104577725D01*
X171766811Y-104544304D01*
X171883963Y-104512547D01*
X171994763Y-104485717D01*
X172055504Y-104470926D01*
X172221501Y-104413731D01*
X172356025Y-104336261D01*
X172460930Y-104234713D01*
X172538071Y-104105288D01*
X172589303Y-103944184D01*
X172616480Y-103747601D01*
X172621456Y-103511737D01*
X172606086Y-103232793D01*
X172600926Y-103170467D01*
X172587725Y-103005730D01*
X172580283Y-102883372D01*
X172580156Y-102797416D01*
X172588903Y-102741884D01*
X172608083Y-102710798D01*
X172639252Y-102698182D01*
X172683969Y-102698057D01*
X172743793Y-102704445D01*
X172757864Y-102705696D01*
X172822893Y-102703664D01*
X172905850Y-102688406D01*
X173016227Y-102657779D01*
X173163516Y-102609639D01*
X173165040Y-102609119D01*
X173296219Y-102563372D01*
X173422407Y-102517638D01*
X173529321Y-102477196D01*
X173602679Y-102447325D01*
X173679270Y-102414032D01*
X173767351Y-102380439D01*
X173826554Y-102370441D01*
X173867182Y-102385604D01*
G37*
G36*
X165372675Y-103385159D02*
G01*
X165359126Y-103516144D01*
X165324378Y-103664584D01*
X165270274Y-103839674D01*
X165187376Y-104040118D01*
X165089226Y-104202220D01*
X164970547Y-104332723D01*
X164826064Y-104438371D01*
X164650503Y-104525905D01*
X164604653Y-104542402D01*
X164449280Y-104570710D01*
X164275647Y-104569733D01*
X164100016Y-104540434D01*
X163938651Y-104483775D01*
X163893723Y-104461669D01*
X163753412Y-104377459D01*
X163622822Y-104272083D01*
X163495396Y-104138930D01*
X163364577Y-103971387D01*
X163223807Y-103762840D01*
X163160054Y-103647987D01*
X163079711Y-103449488D01*
X163018333Y-103229573D01*
X162979085Y-103003406D01*
X162972438Y-102899901D01*
X163350498Y-102899901D01*
X163351096Y-102931318D01*
X163378740Y-103169267D01*
X163444243Y-103396346D01*
X163543465Y-103605253D01*
X163672272Y-103788686D01*
X163826523Y-103939342D01*
X164002083Y-104049918D01*
X164111545Y-104092260D01*
X164282569Y-104122994D01*
X164448869Y-104113166D01*
X164600843Y-104063756D01*
X164728887Y-103975743D01*
X164731381Y-103973356D01*
X164812263Y-103870515D01*
X164884893Y-103732702D01*
X164943685Y-103574831D01*
X164983056Y-103411816D01*
X164997421Y-103258572D01*
X164993325Y-103191749D01*
X164971804Y-103058262D01*
X164935984Y-102906857D01*
X164890572Y-102754424D01*
X164840280Y-102617854D01*
X164789816Y-102514037D01*
X164692526Y-102369691D01*
X164551401Y-102210266D01*
X164399908Y-102087517D01*
X164242714Y-102003199D01*
X164084486Y-101959070D01*
X163929893Y-101956883D01*
X163783600Y-101998396D01*
X163650275Y-102085364D01*
X163636884Y-102097434D01*
X163510837Y-102247869D01*
X163420756Y-102432667D01*
X163367142Y-102650466D01*
X163350498Y-102899901D01*
X162972438Y-102899901D01*
X162965133Y-102786150D01*
X162979640Y-102592969D01*
X162988008Y-102545971D01*
X163055580Y-102275934D01*
X163150402Y-102046982D01*
X163274168Y-101856953D01*
X163428570Y-101703683D01*
X163615301Y-101585011D01*
X163836054Y-101498774D01*
X163862763Y-101489856D01*
X163942750Y-101452987D01*
X164000721Y-101412266D01*
X164001163Y-101411828D01*
X164057529Y-101373386D01*
X164157891Y-101324016D01*
X164297591Y-101265667D01*
X164471969Y-101200285D01*
X164676367Y-101129818D01*
X164768644Y-101099842D01*
X164837309Y-101082201D01*
X164891966Y-101078445D01*
X164950087Y-101087511D01*
X165029145Y-101108333D01*
X165105407Y-101131728D01*
X165189832Y-101163056D01*
X165245574Y-101190195D01*
X165280268Y-101214599D01*
X165288141Y-101235498D01*
X165258173Y-101260720D01*
X165221608Y-101280050D01*
X165134212Y-101315533D01*
X165006521Y-101360926D01*
X164843323Y-101414546D01*
X164649404Y-101474711D01*
X164640852Y-101477334D01*
X164548501Y-101510439D01*
X164480807Y-101543338D01*
X164449933Y-101570210D01*
X164448113Y-101577936D01*
X164466176Y-101627481D01*
X164527282Y-101694789D01*
X164574845Y-101737145D01*
X164614683Y-101762319D01*
X164649891Y-101761426D01*
X164698303Y-101739087D01*
X164731060Y-101724150D01*
X164811809Y-101692254D01*
X164916900Y-101654140D01*
X165031967Y-101615145D01*
X165099829Y-101592730D01*
X165225489Y-101550140D01*
X165339838Y-101510147D01*
X165424525Y-101479111D01*
X165561847Y-101426461D01*
X165623184Y-101482824D01*
X165657771Y-101517616D01*
X165719454Y-101586251D01*
X165783328Y-101662894D01*
X165832087Y-101726035D01*
X165859198Y-101771097D01*
X165861414Y-101800392D01*
X165843052Y-101825685D01*
X165807624Y-101848560D01*
X165729003Y-101885408D01*
X165617348Y-101930810D01*
X165480769Y-101981637D01*
X165327377Y-102034763D01*
X165165281Y-102087059D01*
X165082840Y-102114245D01*
X165024640Y-102144274D01*
X165002976Y-102183884D01*
X165012062Y-102245415D01*
X165046111Y-102341211D01*
X165065550Y-102382682D01*
X165096764Y-102402088D01*
X165155038Y-102395168D01*
X165213467Y-102378702D01*
X165313935Y-102343277D01*
X165435065Y-102295890D01*
X165563427Y-102242021D01*
X165685591Y-102187152D01*
X165788130Y-102136765D01*
X165864732Y-102096393D01*
X165938390Y-102061479D01*
X165986471Y-102052811D01*
X166020624Y-102073314D01*
X166052498Y-102125917D01*
X166093742Y-102213544D01*
X166122143Y-102273426D01*
X166166441Y-102369082D01*
X166190101Y-102438193D01*
X166188850Y-102488508D01*
X166158413Y-102527775D01*
X166094516Y-102563742D01*
X165992884Y-102604157D01*
X165849245Y-102656768D01*
X165835497Y-102661842D01*
X165674062Y-102721460D01*
X165553130Y-102766400D01*
X165466404Y-102799274D01*
X165407588Y-102822696D01*
X165370385Y-102839278D01*
X165348499Y-102851633D01*
X165335632Y-102862374D01*
X165325488Y-102874115D01*
X165314789Y-102905785D01*
X165317591Y-102975849D01*
X165337252Y-103087238D01*
X165338058Y-103091081D01*
X165365495Y-103250511D01*
X165365925Y-103258572D01*
X165372675Y-103385159D01*
G37*
G36*
X167882639Y-105070536D02*
G01*
X167874815Y-105191958D01*
X167873523Y-105231656D01*
X167877930Y-105299374D01*
X167889921Y-105336310D01*
X167892368Y-105338018D01*
X167932758Y-105337379D01*
X168008760Y-105317166D01*
X168111931Y-105279540D01*
X168163602Y-105259106D01*
X168289378Y-105210935D01*
X168423560Y-105161266D01*
X168556899Y-105113342D01*
X168680148Y-105070411D01*
X168784059Y-105035719D01*
X168859384Y-105012510D01*
X168896875Y-105004032D01*
X168908630Y-105006544D01*
X168926844Y-105040245D01*
X168922244Y-105106682D01*
X168896144Y-105197474D01*
X168849856Y-105304237D01*
X168848583Y-105306777D01*
X168805560Y-105385858D01*
X168767591Y-105444138D01*
X168742762Y-105469164D01*
X168742065Y-105469354D01*
X168705531Y-105479289D01*
X168631355Y-105499442D01*
X168529969Y-105526979D01*
X168411806Y-105559067D01*
X168295360Y-105591327D01*
X168165462Y-105628670D01*
X168052827Y-105662418D01*
X167973188Y-105687947D01*
X167916128Y-105706034D01*
X167835671Y-105726683D01*
X167780978Y-105734723D01*
X167745996Y-105745718D01*
X167676105Y-105799151D01*
X167582621Y-105896898D01*
X167540839Y-105943226D01*
X167419176Y-106060180D01*
X167299262Y-106144189D01*
X167167450Y-106205392D01*
X167128689Y-106216502D01*
X167015868Y-106230512D01*
X166869301Y-106231040D01*
X166822642Y-106228824D01*
X166726609Y-106219841D01*
X166645362Y-106201742D01*
X166559388Y-106169229D01*
X166449172Y-106117006D01*
X166426359Y-106105582D01*
X166320497Y-106047350D01*
X166231889Y-105985817D01*
X166144614Y-105908710D01*
X166042752Y-105803761D01*
X165978432Y-105732873D01*
X165902514Y-105644349D01*
X165843433Y-105569874D01*
X165810287Y-105520536D01*
X165809732Y-105519469D01*
X165765488Y-105444241D01*
X165714318Y-105369346D01*
X165708893Y-105361915D01*
X165654856Y-105270254D01*
X165596004Y-105143999D01*
X165537988Y-104996267D01*
X165486456Y-104840179D01*
X165465641Y-104753044D01*
X165451249Y-104646065D01*
X165443013Y-104510773D01*
X165440929Y-104393110D01*
X165814880Y-104393110D01*
X165831269Y-104627583D01*
X165881074Y-104856331D01*
X165960811Y-105073089D01*
X166066998Y-105271592D01*
X166196152Y-105445575D01*
X166344788Y-105588773D01*
X166509425Y-105694920D01*
X166686578Y-105757752D01*
X166803013Y-105775727D01*
X166966081Y-105769955D01*
X167110098Y-105721104D01*
X167241736Y-105627608D01*
X167284689Y-105585826D01*
X167368872Y-105478361D01*
X167431432Y-105350147D01*
X167480296Y-105186524D01*
X167498522Y-105097193D01*
X167512049Y-104954103D01*
X167504425Y-104804266D01*
X167474677Y-104635173D01*
X167421833Y-104434313D01*
X167399976Y-104362392D01*
X167338700Y-104192732D01*
X167268597Y-104051247D01*
X167180747Y-103921723D01*
X167066232Y-103787949D01*
X166967922Y-103687123D01*
X166865699Y-103600660D01*
X166768413Y-103544595D01*
X166664092Y-103512302D01*
X166540761Y-103497157D01*
X166506456Y-103495543D01*
X166324857Y-103510358D01*
X166171077Y-103566562D01*
X166044774Y-103664499D01*
X165945603Y-103804514D01*
X165873221Y-103986951D01*
X165827283Y-104212155D01*
X165814880Y-104393110D01*
X165440929Y-104393110D01*
X165439921Y-104336211D01*
X165439869Y-104213967D01*
X165442170Y-104101023D01*
X165448580Y-104015307D01*
X165460708Y-103944109D01*
X165480165Y-103874724D01*
X165508560Y-103794445D01*
X165533976Y-103730658D01*
X165619429Y-103558220D01*
X165721197Y-103399487D01*
X165830978Y-103266444D01*
X165940467Y-103171074D01*
X166024811Y-103122858D01*
X166137751Y-103071871D01*
X166250363Y-103031947D01*
X166280316Y-103022917D01*
X166376335Y-102988525D01*
X166435018Y-102954866D01*
X166466444Y-102916560D01*
X166500166Y-102876966D01*
X166571512Y-102834023D01*
X166685714Y-102787236D01*
X166687541Y-102786572D01*
X166799540Y-102743447D01*
X166911949Y-102696315D01*
X167000695Y-102655262D01*
X167041646Y-102635613D01*
X167153604Y-102587586D01*
X167259227Y-102548500D01*
X167311131Y-102531968D01*
X167365929Y-102519682D01*
X167415311Y-102521418D01*
X167476764Y-102538529D01*
X167567773Y-102572366D01*
X167572036Y-102574001D01*
X167666939Y-102613813D01*
X167748905Y-102653923D01*
X167800610Y-102685886D01*
X167857441Y-102732150D01*
X167731448Y-102787790D01*
X167726034Y-102790150D01*
X167649492Y-102820538D01*
X167540085Y-102860613D01*
X167411613Y-102905439D01*
X167277877Y-102950077D01*
X167227115Y-102966707D01*
X167107939Y-103007353D01*
X167027231Y-103038691D01*
X166977596Y-103064301D01*
X166951643Y-103087761D01*
X166941978Y-103112648D01*
X166941668Y-103144812D01*
X166958848Y-103180592D01*
X167002855Y-103222761D01*
X167081848Y-103281146D01*
X167119285Y-103303469D01*
X167154390Y-103302301D01*
X167202747Y-103269414D01*
X167204285Y-103268227D01*
X167262468Y-103235043D01*
X167350223Y-103197275D01*
X167449173Y-103162869D01*
X167472170Y-103155700D01*
X167591144Y-103115913D01*
X167725825Y-103067675D01*
X167851275Y-103019855D01*
X167855573Y-103018154D01*
X167979135Y-102973855D01*
X168073203Y-102949476D01*
X168130316Y-102946965D01*
X168131479Y-102947275D01*
X168174836Y-102971437D01*
X168234530Y-103019499D01*
X168301454Y-103082023D01*
X168366499Y-103149567D01*
X168420557Y-103212691D01*
X168454519Y-103261955D01*
X168459276Y-103287918D01*
X168432978Y-103302655D01*
X168364722Y-103332254D01*
X168265978Y-103371220D01*
X168146392Y-103416122D01*
X168015607Y-103463529D01*
X167883267Y-103510010D01*
X167759017Y-103552134D01*
X167652501Y-103586470D01*
X167573363Y-103609588D01*
X167531248Y-103618056D01*
X167518889Y-103618749D01*
X167482813Y-103641046D01*
X167483524Y-103695606D01*
X167520947Y-103783600D01*
X167542927Y-103823174D01*
X167575860Y-103874963D01*
X167595262Y-103895238D01*
X167595644Y-103895220D01*
X167626809Y-103886413D01*
X167695548Y-103863800D01*
X167792520Y-103830674D01*
X167908386Y-103790331D01*
X168033806Y-103746067D01*
X168159441Y-103701176D01*
X168275951Y-103658955D01*
X168373996Y-103622697D01*
X168444236Y-103595700D01*
X168501073Y-103573890D01*
X168567039Y-103551243D01*
X168603050Y-103542461D01*
X168622086Y-103559671D01*
X168655259Y-103612181D01*
X168694924Y-103687530D01*
X168734822Y-103772987D01*
X168768695Y-103855820D01*
X168790283Y-103923298D01*
X168790972Y-103926033D01*
X168796706Y-103944569D01*
X168799532Y-103959655D01*
X168794488Y-103973523D01*
X168776612Y-103988408D01*
X168740942Y-104006544D01*
X168682517Y-104030166D01*
X168596375Y-104061507D01*
X168477553Y-104102801D01*
X168321090Y-104156282D01*
X168122024Y-104224186D01*
X168099001Y-104232081D01*
X167982718Y-104272883D01*
X167885398Y-104308520D01*
X167816656Y-104335395D01*
X167786103Y-104349909D01*
X167784687Y-104367432D01*
X167798020Y-104417895D01*
X167822834Y-104483703D01*
X167852555Y-104547910D01*
X167880613Y-104593570D01*
X167885524Y-104594603D01*
X167929228Y-104584975D01*
X168014008Y-104558170D01*
X168135784Y-104515595D01*
X168290479Y-104458659D01*
X168474011Y-104388770D01*
X168545597Y-104361272D01*
X168664094Y-104316420D01*
X168761231Y-104280506D01*
X168828481Y-104256661D01*
X168857315Y-104248016D01*
X168862678Y-104250242D01*
X168882405Y-104286719D01*
X168903124Y-104359984D01*
X168922309Y-104459716D01*
X168937437Y-104575596D01*
X168951534Y-104714187D01*
X168417087Y-104892361D01*
X168231888Y-104954103D01*
X167882639Y-105070536D01*
G37*
G36*
X172327682Y-103170784D02*
G01*
X172327458Y-103273974D01*
X172326687Y-103496781D01*
X172325439Y-103675782D01*
X172323498Y-103815674D01*
X172320649Y-103921156D01*
X172316677Y-103996925D01*
X172311367Y-104047678D01*
X172304503Y-104078114D01*
X172295871Y-104092931D01*
X172285255Y-104096826D01*
X172246188Y-104103459D01*
X172161933Y-104126710D01*
X172041329Y-104164752D01*
X171890033Y-104215575D01*
X171713701Y-104277168D01*
X171517989Y-104347523D01*
X171308553Y-104424628D01*
X171091049Y-104506474D01*
X170871134Y-104591051D01*
X170654464Y-104676349D01*
X170459750Y-104752064D01*
X170243534Y-104832653D01*
X170024002Y-104911446D01*
X169813616Y-104984055D01*
X169624841Y-105046094D01*
X169470139Y-105093178D01*
X169361715Y-105123869D01*
X169280402Y-105144183D01*
X169232863Y-105149011D01*
X169211331Y-105137360D01*
X169208039Y-105108242D01*
X169215223Y-105060665D01*
X169215305Y-105060188D01*
X169241604Y-104866974D01*
X169249834Y-104685813D01*
X169238699Y-104505492D01*
X169206902Y-104314799D01*
X169153147Y-104102520D01*
X169076139Y-103857441D01*
X169026806Y-103719222D01*
X168909271Y-103445171D01*
X168778746Y-103207601D01*
X168638745Y-103013294D01*
X168588954Y-102955058D01*
X168533936Y-102894763D01*
X168528079Y-102889075D01*
X169709524Y-102889075D01*
X169709868Y-103700837D01*
X169710053Y-103810733D01*
X169711066Y-104003477D01*
X169712853Y-104178375D01*
X169715297Y-104328916D01*
X169718281Y-104448589D01*
X169721690Y-104530886D01*
X169725406Y-104569296D01*
X169744151Y-104609787D01*
X169781915Y-104621788D01*
X169848115Y-104600106D01*
X169892217Y-104581636D01*
X169982071Y-104545773D01*
X170106618Y-104497041D01*
X170259097Y-104438008D01*
X170432745Y-104371242D01*
X170620800Y-104299314D01*
X170816502Y-104224791D01*
X171013087Y-104150243D01*
X171203793Y-104078237D01*
X171381860Y-104011344D01*
X171540525Y-103952131D01*
X171673027Y-103903167D01*
X171772602Y-103867021D01*
X171832490Y-103846263D01*
X171926984Y-103815735D01*
X171926984Y-102948344D01*
X171926760Y-102781091D01*
X171925918Y-102591118D01*
X171924527Y-102422792D01*
X171922665Y-102281862D01*
X171920411Y-102174079D01*
X171917845Y-102105193D01*
X171915045Y-102080953D01*
X171906820Y-102082128D01*
X171855212Y-102096240D01*
X171766683Y-102124214D01*
X171648780Y-102163391D01*
X171509050Y-102211110D01*
X171355039Y-102264711D01*
X171194293Y-102321534D01*
X171034359Y-102378918D01*
X170882783Y-102434203D01*
X170747112Y-102484730D01*
X170634892Y-102527836D01*
X170553671Y-102560863D01*
X170433752Y-102610804D01*
X170286798Y-102668942D01*
X170148334Y-102720846D01*
X170037103Y-102759315D01*
X169999072Y-102771719D01*
X169898247Y-102806353D01*
X169815638Y-102837142D01*
X169766220Y-102858598D01*
X169709524Y-102889075D01*
X168528079Y-102889075D01*
X168478158Y-102840597D01*
X168413422Y-102785688D01*
X168331531Y-102723162D01*
X168224289Y-102646148D01*
X168083498Y-102547772D01*
X167999997Y-102491366D01*
X167820659Y-102381860D01*
X167660260Y-102300419D01*
X167524286Y-102249646D01*
X167418223Y-102232143D01*
X167394429Y-102234457D01*
X167315165Y-102252871D01*
X167202546Y-102287257D01*
X167065189Y-102334708D01*
X166911714Y-102392319D01*
X166750736Y-102457184D01*
X166670228Y-102490159D01*
X166575256Y-102524684D01*
X166513980Y-102536894D01*
X166479068Y-102526197D01*
X166463190Y-102492006D01*
X166459015Y-102433731D01*
X166455461Y-102386957D01*
X166429850Y-102264318D01*
X166383568Y-102118187D01*
X166321371Y-101961142D01*
X166248014Y-101805760D01*
X166168251Y-101664621D01*
X166085389Y-101546269D01*
X165914735Y-101353983D01*
X165712160Y-101174462D01*
X165489131Y-101017422D01*
X165257114Y-100892579D01*
X165178214Y-100858562D01*
X165102207Y-100834130D01*
X165034495Y-100826962D01*
X164955037Y-100833114D01*
X164821032Y-100849857D01*
X164821032Y-100545663D01*
X164821221Y-100487216D01*
X164823654Y-100370075D01*
X164829437Y-100294349D01*
X164839265Y-100253619D01*
X164853828Y-100241469D01*
X164884373Y-100253496D01*
X164948110Y-100288502D01*
X165034859Y-100340947D01*
X165135051Y-100405258D01*
X165230773Y-100467134D01*
X165316434Y-100520064D01*
X165378795Y-100555880D01*
X165408616Y-100569048D01*
X165432642Y-100578321D01*
X165492162Y-100609341D01*
X165576349Y-100657006D01*
X165675459Y-100715951D01*
X165724313Y-100745453D01*
X165869827Y-100831326D01*
X166036607Y-100926915D01*
X166230549Y-101035533D01*
X166457552Y-101160498D01*
X166723512Y-101305123D01*
X166738683Y-101313341D01*
X167046433Y-101483326D01*
X167353724Y-101659751D01*
X167681052Y-101854371D01*
X167861251Y-101962951D01*
X168049340Y-102075795D01*
X168204930Y-102168351D01*
X168333819Y-102243935D01*
X168441803Y-102305863D01*
X168534683Y-102357452D01*
X168618254Y-102402018D01*
X168698317Y-102442878D01*
X168780667Y-102483347D01*
X168839107Y-102511074D01*
X168978322Y-102572435D01*
X169103448Y-102621250D01*
X169206798Y-102654901D01*
X169280687Y-102670768D01*
X169317430Y-102666234D01*
X169323971Y-102654942D01*
X169331548Y-102610634D01*
X169331547Y-102610242D01*
X169326623Y-102582745D01*
X169309899Y-102552755D01*
X169278077Y-102518212D01*
X169227859Y-102477050D01*
X169155947Y-102427208D01*
X169059044Y-102366622D01*
X168933851Y-102293228D01*
X168777071Y-102204964D01*
X168585405Y-102099767D01*
X168355556Y-101975573D01*
X168084226Y-101830320D01*
X167967874Y-101767732D01*
X167799137Y-101675355D01*
X167639366Y-101586118D01*
X167497483Y-101505076D01*
X167382413Y-101437284D01*
X167303075Y-101387796D01*
X167254346Y-101356141D01*
X167104703Y-101263095D01*
X166921755Y-101153797D01*
X166713803Y-101032941D01*
X166489151Y-100905217D01*
X166256100Y-100775318D01*
X166022954Y-100647934D01*
X165798014Y-100527759D01*
X165589583Y-100419484D01*
X165518329Y-100383020D01*
X165377998Y-100310622D01*
X165255805Y-100246807D01*
X165158457Y-100195120D01*
X165092660Y-100159105D01*
X165065120Y-100142306D01*
X165073428Y-100125813D01*
X165127835Y-100092702D01*
X165229683Y-100044274D01*
X165378704Y-99980642D01*
X165574634Y-99901920D01*
X165817205Y-99808221D01*
X166106151Y-99699659D01*
X166201909Y-99664064D01*
X166383368Y-99596562D01*
X166559388Y-99531022D01*
X166719518Y-99471339D01*
X166853305Y-99421408D01*
X166950298Y-99385122D01*
X167026171Y-99357211D01*
X167135430Y-99318837D01*
X167226180Y-99289061D01*
X167284177Y-99272680D01*
X167366071Y-99254726D01*
X167366897Y-99779595D01*
X167367034Y-99827161D01*
X167369400Y-100057657D01*
X167374341Y-100280719D01*
X167381525Y-100490209D01*
X167390619Y-100679989D01*
X167401291Y-100843923D01*
X167413209Y-100975873D01*
X167426039Y-101069702D01*
X167439450Y-101119271D01*
X167447774Y-101131492D01*
X167505483Y-101169732D01*
X167609278Y-101199802D01*
X167649082Y-101209488D01*
X167747280Y-101245842D01*
X167817243Y-101290077D01*
X167820147Y-101292742D01*
X167879906Y-101338624D01*
X167933036Y-101366399D01*
X167940879Y-101369263D01*
X167991670Y-101390961D01*
X168077934Y-101429777D01*
X168192194Y-101482287D01*
X168326975Y-101545064D01*
X168474802Y-101614682D01*
X168508902Y-101630800D01*
X168777431Y-101755489D01*
X169003749Y-101856139D01*
X169189385Y-101933361D01*
X169335868Y-101987765D01*
X169444726Y-102019960D01*
X169517488Y-102030556D01*
X169533771Y-102029576D01*
X169608371Y-102015726D01*
X169707322Y-101988925D01*
X169813738Y-101953563D01*
X169871535Y-101932456D01*
X170154044Y-101829505D01*
X170396432Y-101741628D01*
X170604686Y-101666706D01*
X170784794Y-101602620D01*
X170942744Y-101547252D01*
X171084521Y-101498483D01*
X171216115Y-101454195D01*
X171343511Y-101412269D01*
X171604184Y-101327385D01*
X171697939Y-101386570D01*
X171723644Y-101402411D01*
X171817954Y-101456257D01*
X171924707Y-101512473D01*
X172032635Y-101565635D01*
X172130467Y-101610323D01*
X172206934Y-101641112D01*
X172250767Y-101652580D01*
X172258835Y-101653002D01*
X172277130Y-101661334D01*
X172290015Y-101686744D01*
X172299267Y-101737553D01*
X172306664Y-101822084D01*
X172313981Y-101948661D01*
X172316849Y-102020436D01*
X172320140Y-102150195D01*
X172322959Y-102315677D01*
X172325215Y-102508680D01*
X172326815Y-102721000D01*
X172327668Y-102944436D01*
X172327668Y-102948344D01*
X172327682Y-103170784D01*
G37*
D14*
%TO.C,J1*%
X179890000Y-103390000D02*
X179890000Y-110010000D01*
X179890000Y-110010000D02*
X187610000Y-110010000D01*
X180900000Y-105000000D02*
X180900000Y-109300000D01*
X180900000Y-106700000D02*
X179890000Y-106700000D01*
X180900000Y-109300000D02*
X186600000Y-109300000D01*
X182150000Y-103390000D02*
X179890000Y-103390000D01*
X182150000Y-104390000D02*
X182150000Y-103390000D01*
X183350000Y-103790000D02*
X183350000Y-104390000D01*
X183350000Y-104390000D02*
X182150000Y-104390000D01*
X184150000Y-103790000D02*
X183350000Y-103790000D01*
X184150000Y-104390000D02*
X184150000Y-103790000D01*
X185350000Y-103390000D02*
X185350000Y-104390000D01*
X185350000Y-104390000D02*
X184150000Y-104390000D01*
X186600000Y-105000000D02*
X180900000Y-105000000D01*
X186600000Y-106700000D02*
X187610000Y-106700000D01*
X186600000Y-109300000D02*
X186600000Y-105000000D01*
X187610000Y-103390000D02*
X185350000Y-103390000D01*
X187610000Y-110010000D02*
X187610000Y-103390000D01*
X187910000Y-103090000D02*
X186660000Y-103090000D01*
X187910000Y-104340000D02*
X187910000Y-103090000D01*
%TO.C,R4*%
X111310000Y-143652379D02*
X111310000Y-143987621D01*
X112070000Y-143652379D02*
X112070000Y-143987621D01*
%TO.C,J4*%
X114485000Y-138505000D02*
X115815000Y-138505000D01*
X114485000Y-139835000D02*
X114485000Y-138505000D01*
X114485000Y-141105000D02*
X117145000Y-141105000D01*
X114485000Y-146245000D02*
X114485000Y-141105000D01*
X114485000Y-146245000D02*
X117145000Y-146245000D01*
X117145000Y-146245000D02*
X117145000Y-141105000D01*
%TO.C,J5*%
X117990000Y-128480000D02*
X117990000Y-127150000D01*
X119320000Y-128480000D02*
X117990000Y-128480000D01*
X120590000Y-128480000D02*
X120590000Y-125820000D01*
X125730000Y-125820000D02*
X120590000Y-125820000D01*
X125730000Y-128480000D02*
X120590000Y-128480000D01*
X125730000Y-128480000D02*
X125730000Y-125820000D01*
%TO.C,J3*%
X104760000Y-94070000D02*
X104760000Y-96670000D01*
X104760000Y-99270000D02*
X104760000Y-97940000D01*
X106090000Y-99270000D02*
X104760000Y-99270000D01*
X107420000Y-94070000D02*
X104760000Y-94070000D01*
X107420000Y-94070000D02*
X107420000Y-96670000D01*
X107420000Y-96670000D02*
X104760000Y-96670000D01*
%TD*%
M02*
