%TF.GenerationSoftware,KiCad,Pcbnew,8.0.1*%
%TF.CreationDate,2025-03-10T11:27:17+01:00*%
%TF.ProjectId,main_board,6d61696e-5f62-46f6-9172-642e6b696361,rev?*%
%TF.SameCoordinates,Original*%
%TF.FileFunction,Drillmap*%
%TF.FilePolarity,Positive*%
%FSLAX45Y45*%
G04 Gerber Fmt 4.5, Leading zero omitted, Abs format (unit mm)*
G04 Created by KiCad (PCBNEW 8.0.1) date 2025-03-10 11:27:17*
%MOMM*%
%LPD*%
G01*
G04 APERTURE LIST*
%ADD10C,0.200000*%
%ADD11C,0.050000*%
%ADD12C,0.010000*%
G04 APERTURE END LIST*
D10*
X14218296Y-13396126D02*
X13088163Y-13093308D01*
X10291000Y-11650000D02*
X10031000Y-11650000D01*
X10314000Y-14037000D02*
G75*
G02*
X10064000Y-14037000I-125000J0D01*
G01*
X10064000Y-14037000D02*
G75*
G02*
X10314000Y-14037000I125000J0D01*
G01*
X15471759Y-13144985D02*
X16601892Y-12842167D01*
X19581000Y-13334889D02*
G75*
G02*
X19381000Y-13534890I-200000J-1D01*
G01*
X19051000Y-10050000D02*
X19311000Y-10050000D01*
X11803437Y-14627000D02*
X11803437Y-13847000D01*
X18074935Y-13405600D02*
X17891087Y-13221752D01*
X9961000Y-13534889D02*
G75*
G02*
X9761001Y-13334889I0J199999D01*
G01*
X16681000Y-9240000D02*
G75*
G02*
X16481000Y-9040000I0J200000D01*
G01*
X10031000Y-11650000D02*
X10031000Y-10480000D01*
X10171000Y-9500000D02*
G75*
G02*
X9871000Y-9500000I-150000J0D01*
G01*
X9871000Y-9500000D02*
G75*
G02*
X10171000Y-9500000I150000J0D01*
G01*
X15539052Y-13396126D02*
X15471759Y-13144985D01*
X9761000Y-9440000D02*
X9761000Y-13334889D01*
X9803437Y-13847000D02*
G75*
G02*
X9863437Y-13786997I60003J0D01*
G01*
X9863437Y-14687000D02*
X11743437Y-14687000D01*
X19471000Y-9500000D02*
G75*
G02*
X19171000Y-9500000I-150000J0D01*
G01*
X19171000Y-9500000D02*
G75*
G02*
X19471000Y-9500000I150000J0D01*
G01*
X10314000Y-14437000D02*
G75*
G02*
X10064000Y-14437000I-125000J0D01*
G01*
X10064000Y-14437000D02*
G75*
G02*
X10314000Y-14437000I125000J0D01*
G01*
X17891087Y-13221752D02*
X18718402Y-12394437D01*
X13088163Y-13093308D02*
X13155456Y-12842167D01*
D11*
X9863437Y-13787000D02*
X9961000Y-13534889D01*
D10*
X19311000Y-10050000D02*
X19311000Y-11220000D01*
X12861000Y-6640000D02*
G75*
G02*
X13061000Y-6440000I200000J0D01*
G01*
X13155456Y-12842167D02*
X14285589Y-13144985D01*
X10171000Y-12288437D02*
G75*
G02*
X9871000Y-12288437I-150000J0D01*
G01*
X9871000Y-12288437D02*
G75*
G02*
X10171000Y-12288437I150000J0D01*
G01*
X10371000Y-12520832D02*
X10554848Y-12336984D01*
D11*
X11803437Y-13847000D02*
X11950000Y-13535031D01*
D10*
X11198315Y-13348147D02*
X10371000Y-12520832D01*
X19471000Y-12288437D02*
G75*
G02*
X19171000Y-12288437I-150000J0D01*
G01*
X19171000Y-12288437D02*
G75*
G02*
X19471000Y-12288437I150000J0D01*
G01*
X16281000Y-6440000D02*
G75*
G02*
X16481000Y-6640000I0J-200000D01*
G01*
X10031000Y-10480000D02*
X10291000Y-10480000D01*
X14285589Y-13144985D02*
X14218296Y-13396126D01*
X16601892Y-12842167D02*
X16669185Y-13093308D01*
X18902250Y-12578285D02*
X18074935Y-13405600D01*
D11*
X11950000Y-13535031D02*
X19381000Y-13534889D01*
D10*
X12861000Y-9040000D02*
G75*
G02*
X12661000Y-9240000I-200000J0D01*
G01*
X9803437Y-13847000D02*
X9803437Y-14627000D01*
X18718402Y-12394437D02*
X18902250Y-12578285D01*
X19051000Y-11220000D02*
X19051000Y-10050000D01*
X19381000Y-9240000D02*
X16681000Y-9240000D01*
X9761000Y-9440000D02*
G75*
G02*
X9961000Y-9240000I200000J0D01*
G01*
X16669185Y-13093308D02*
X15539052Y-13396126D01*
X10554848Y-12336984D02*
X11382163Y-13164299D01*
X9863437Y-14687000D02*
G75*
G02*
X9803440Y-14627000I3J60000D01*
G01*
X19581000Y-13334889D02*
X19581000Y-9440000D01*
X16481000Y-9040000D02*
X16481000Y-6640000D01*
X16281000Y-6440000D02*
X13061000Y-6440000D01*
X12661000Y-9240000D02*
X9961000Y-9240000D01*
X12861000Y-6640000D02*
X12861000Y-9040000D01*
X11803437Y-14627000D02*
G75*
G02*
X11743437Y-14686997I-59997J0D01*
G01*
X19311000Y-11220000D02*
X19051000Y-11220000D01*
X19381000Y-9240000D02*
G75*
G02*
X19581000Y-9440000I0J-200000D01*
G01*
X10291000Y-10480000D02*
X10291000Y-11650000D01*
X11382163Y-13164299D02*
X11198315Y-13348147D01*
D12*
X13967000Y-10772000D02*
X15367000Y-10772000D01*
X13967000Y-11672000D02*
X13967000Y-10772000D01*
X15367000Y-10772000D02*
X15367000Y-11672000D01*
X15367000Y-11672000D02*
X13967000Y-11672000D01*
D10*
X10011777Y-15008484D02*
X10011777Y-14808484D01*
X10011777Y-14808484D02*
X10059396Y-14808484D01*
X10059396Y-14808484D02*
X10087967Y-14818008D01*
X10087967Y-14818008D02*
X10107015Y-14837055D01*
X10107015Y-14837055D02*
X10116539Y-14856103D01*
X10116539Y-14856103D02*
X10126063Y-14894198D01*
X10126063Y-14894198D02*
X10126063Y-14922769D01*
X10126063Y-14922769D02*
X10116539Y-14960865D01*
X10116539Y-14960865D02*
X10107015Y-14979912D01*
X10107015Y-14979912D02*
X10087967Y-14998960D01*
X10087967Y-14998960D02*
X10059396Y-15008484D01*
X10059396Y-15008484D02*
X10011777Y-15008484D01*
X10211777Y-15008484D02*
X10211777Y-14875150D01*
X10211777Y-14913246D02*
X10221301Y-14894198D01*
X10221301Y-14894198D02*
X10230824Y-14884674D01*
X10230824Y-14884674D02*
X10249872Y-14875150D01*
X10249872Y-14875150D02*
X10268920Y-14875150D01*
X10335586Y-15008484D02*
X10335586Y-14875150D01*
X10335586Y-14808484D02*
X10326063Y-14818008D01*
X10326063Y-14818008D02*
X10335586Y-14827531D01*
X10335586Y-14827531D02*
X10345110Y-14818008D01*
X10345110Y-14818008D02*
X10335586Y-14808484D01*
X10335586Y-14808484D02*
X10335586Y-14827531D01*
X10459396Y-15008484D02*
X10440348Y-14998960D01*
X10440348Y-14998960D02*
X10430824Y-14979912D01*
X10430824Y-14979912D02*
X10430824Y-14808484D01*
X10564158Y-15008484D02*
X10545110Y-14998960D01*
X10545110Y-14998960D02*
X10535586Y-14979912D01*
X10535586Y-14979912D02*
X10535586Y-14808484D01*
X10792729Y-15008484D02*
X10792729Y-14808484D01*
X10792729Y-14808484D02*
X10859396Y-14951341D01*
X10859396Y-14951341D02*
X10926063Y-14808484D01*
X10926063Y-14808484D02*
X10926063Y-15008484D01*
X11107015Y-15008484D02*
X11107015Y-14903722D01*
X11107015Y-14903722D02*
X11097491Y-14884674D01*
X11097491Y-14884674D02*
X11078444Y-14875150D01*
X11078444Y-14875150D02*
X11040348Y-14875150D01*
X11040348Y-14875150D02*
X11021301Y-14884674D01*
X11107015Y-14998960D02*
X11087967Y-15008484D01*
X11087967Y-15008484D02*
X11040348Y-15008484D01*
X11040348Y-15008484D02*
X11021301Y-14998960D01*
X11021301Y-14998960D02*
X11011777Y-14979912D01*
X11011777Y-14979912D02*
X11011777Y-14960865D01*
X11011777Y-14960865D02*
X11021301Y-14941817D01*
X11021301Y-14941817D02*
X11040348Y-14932293D01*
X11040348Y-14932293D02*
X11087967Y-14932293D01*
X11087967Y-14932293D02*
X11107015Y-14922769D01*
X11202253Y-14875150D02*
X11202253Y-15075150D01*
X11202253Y-14884674D02*
X11221301Y-14875150D01*
X11221301Y-14875150D02*
X11259396Y-14875150D01*
X11259396Y-14875150D02*
X11278443Y-14884674D01*
X11278443Y-14884674D02*
X11287967Y-14894198D01*
X11287967Y-14894198D02*
X11297491Y-14913246D01*
X11297491Y-14913246D02*
X11297491Y-14970388D01*
X11297491Y-14970388D02*
X11287967Y-14989436D01*
X11287967Y-14989436D02*
X11278443Y-14998960D01*
X11278443Y-14998960D02*
X11259396Y-15008484D01*
X11259396Y-15008484D02*
X11221301Y-15008484D01*
X11221301Y-15008484D02*
X11202253Y-14998960D01*
X11383205Y-14989436D02*
X11392729Y-14998960D01*
X11392729Y-14998960D02*
X11383205Y-15008484D01*
X11383205Y-15008484D02*
X11373682Y-14998960D01*
X11373682Y-14998960D02*
X11383205Y-14989436D01*
X11383205Y-14989436D02*
X11383205Y-15008484D01*
X11383205Y-14884674D02*
X11392729Y-14894198D01*
X11392729Y-14894198D02*
X11383205Y-14903722D01*
X11383205Y-14903722D02*
X11373682Y-14894198D01*
X11373682Y-14894198D02*
X11383205Y-14884674D01*
X11383205Y-14884674D02*
X11383205Y-14903722D01*
M02*
