%TF.GenerationSoftware,KiCad,Pcbnew,8.0.1*%
%TF.CreationDate,2025-03-10T11:27:29+01:00*%
%TF.ProjectId,main_board,6d61696e-5f62-46f6-9172-642e6b696361,rev?*%
%TF.SameCoordinates,Original*%
%TF.FileFunction,Soldermask,Top*%
%TF.FilePolarity,Negative*%
%FSLAX46Y46*%
G04 Gerber Fmt 4.6, Leading zero omitted, Abs format (unit mm)*
G04 Created by KiCad (PCBNEW 8.0.1) date 2025-03-10 11:27:29*
%MOMM*%
%LPD*%
G01*
G04 APERTURE LIST*
G04 Aperture macros list*
%AMRoundRect*
0 Rectangle with rounded corners*
0 $1 Rounding radius*
0 $2 $3 $4 $5 $6 $7 $8 $9 X,Y pos of 4 corners*
0 Add a 4 corners polygon primitive as box body*
4,1,4,$2,$3,$4,$5,$6,$7,$8,$9,$2,$3,0*
0 Add four circle primitives for the rounded corners*
1,1,$1+$1,$2,$3*
1,1,$1+$1,$4,$5*
1,1,$1+$1,$6,$7*
1,1,$1+$1,$8,$9*
0 Add four rect primitives between the rounded corners*
20,1,$1+$1,$2,$3,$4,$5,0*
20,1,$1+$1,$4,$5,$6,$7,0*
20,1,$1+$1,$6,$7,$8,$9,0*
20,1,$1+$1,$8,$9,$2,$3,0*%
G04 Aperture macros list end*
%ADD10C,0.010000*%
%ADD11RoundRect,0.248400X0.651600X0.651600X-0.651600X0.651600X-0.651600X-0.651600X0.651600X-0.651600X0*%
%ADD12C,1.800000*%
%ADD13R,0.450000X1.750000*%
%ADD14RoundRect,0.200000X-0.200000X-0.275000X0.200000X-0.275000X0.200000X0.275000X-0.200000X0.275000X0*%
%ADD15RoundRect,0.250000X0.925000X-0.412500X0.925000X0.412500X-0.925000X0.412500X-0.925000X-0.412500X0*%
%ADD16RoundRect,0.225000X-0.250000X0.225000X-0.250000X-0.225000X0.250000X-0.225000X0.250000X0.225000X0*%
%ADD17RoundRect,0.381000X-0.707107X0.168291X0.168291X-0.707107X0.707107X-0.168291X-0.168291X0.707107X0*%
%ADD18C,1.200000*%
%ADD19RoundRect,0.250000X0.475000X-0.250000X0.475000X0.250000X-0.475000X0.250000X-0.475000X-0.250000X0*%
%ADD20RoundRect,0.200000X0.200000X0.275000X-0.200000X0.275000X-0.200000X-0.275000X0.200000X-0.275000X0*%
%ADD21RoundRect,0.150000X0.512500X0.150000X-0.512500X0.150000X-0.512500X-0.150000X0.512500X-0.150000X0*%
%ADD22R,1.700000X1.700000*%
%ADD23O,1.700000X1.700000*%
%ADD24RoundRect,0.381000X0.381000X-0.619000X0.381000X0.619000X-0.381000X0.619000X-0.381000X-0.619000X0*%
%ADD25RoundRect,0.250000X-0.250000X-0.475000X0.250000X-0.475000X0.250000X0.475000X-0.250000X0.475000X0*%
%ADD26RoundRect,0.250000X-0.412500X-0.925000X0.412500X-0.925000X0.412500X0.925000X-0.412500X0.925000X0*%
%ADD27R,1.120000X2.440000*%
%ADD28RoundRect,0.200000X0.275000X-0.200000X0.275000X0.200000X-0.275000X0.200000X-0.275000X-0.200000X0*%
%ADD29RoundRect,0.218750X0.218750X0.256250X-0.218750X0.256250X-0.218750X-0.256250X0.218750X-0.256250X0*%
%ADD30RoundRect,0.218750X-0.218750X-0.256250X0.218750X-0.256250X0.218750X0.256250X-0.218750X0.256250X0*%
%ADD31R,3.500000X2.950000*%
%ADD32R,1.750000X0.450000*%
%ADD33O,1.304000X2.004000*%
%ADD34O,1.254000X1.654000*%
%ADD35RoundRect,0.102000X-0.787400X-0.787400X0.787400X-0.787400X0.787400X0.787400X-0.787400X0.787400X0*%
%ADD36C,1.778800*%
%ADD37RoundRect,0.340800X-0.511200X-0.511200X0.511200X-0.511200X0.511200X0.511200X-0.511200X0.511200X0*%
%ADD38RoundRect,0.102000X0.754000X0.754000X-0.754000X0.754000X-0.754000X-0.754000X0.754000X-0.754000X0*%
%ADD39C,1.712000*%
%ADD40C,3.204000*%
%ADD41RoundRect,0.250001X0.499999X0.924999X-0.499999X0.924999X-0.499999X-0.924999X0.499999X-0.924999X0*%
%ADD42RoundRect,0.381000X-0.381000X0.619000X-0.381000X-0.619000X0.381000X-0.619000X0.381000X0.619000X0*%
%ADD43RoundRect,0.381000X-0.696518X-0.207809X0.499298X-0.528227X0.696518X0.207809X-0.499298X0.528227X0*%
%ADD44R,1.075000X0.500000*%
%ADD45R,4.120000X4.600000*%
%ADD46R,0.975000X0.500000*%
%ADD47RoundRect,0.200000X-0.275000X0.200000X-0.275000X-0.200000X0.275000X-0.200000X0.275000X0.200000X0*%
%ADD48RoundRect,0.225000X-0.225000X-0.250000X0.225000X-0.250000X0.225000X0.250000X-0.225000X0.250000X0*%
%ADD49RoundRect,0.381000X-0.168291X-0.707107X0.707107X0.168291X0.168291X0.707107X-0.707107X-0.168291X0*%
%ADD50RoundRect,0.381000X-0.499298X-0.528227X0.696518X-0.207809X0.499298X0.528227X-0.696518X0.207809X0*%
%ADD51RoundRect,0.225000X0.225000X0.250000X-0.225000X0.250000X-0.225000X-0.250000X0.225000X-0.250000X0*%
%ADD52RoundRect,0.225000X0.250000X-0.225000X0.250000X0.225000X-0.250000X0.225000X-0.250000X-0.225000X0*%
%ADD53RoundRect,0.250000X-0.725000X0.600000X-0.725000X-0.600000X0.725000X-0.600000X0.725000X0.600000X0*%
%ADD54O,1.950000X1.700000*%
%ADD55RoundRect,0.250000X0.600000X0.725000X-0.600000X0.725000X-0.600000X-0.725000X0.600000X-0.725000X0*%
%ADD56O,1.700000X1.950000*%
G04 APERTURE END LIST*
D10*
%TO.C,U1*%
X137827000Y-66191000D02*
X137874000Y-66195000D01*
X137921000Y-66201000D01*
X137967000Y-66210000D01*
X138013000Y-66221000D01*
X138058000Y-66234000D01*
X138103000Y-66250000D01*
X138146000Y-66268000D01*
X138189000Y-66288000D01*
X138230000Y-66311000D01*
X138270000Y-66335000D01*
X138309000Y-66362000D01*
X138346000Y-66391000D01*
X138382000Y-66421000D01*
X138416000Y-66454000D01*
X138449000Y-66488000D01*
X138479000Y-66524000D01*
X138508000Y-66561000D01*
X138535000Y-66600000D01*
X138559000Y-66640000D01*
X138582000Y-66681000D01*
X138602000Y-66724000D01*
X138620000Y-66767000D01*
X138636000Y-66812000D01*
X138649000Y-66857000D01*
X138660000Y-66903000D01*
X138669000Y-66949000D01*
X138675000Y-66996000D01*
X138679000Y-67043000D01*
X138680000Y-67090000D01*
X138679000Y-67137000D01*
X138675000Y-67184000D01*
X138669000Y-67231000D01*
X138660000Y-67277000D01*
X138649000Y-67323000D01*
X138636000Y-67368000D01*
X138620000Y-67413000D01*
X138602000Y-67456000D01*
X138582000Y-67499000D01*
X138559000Y-67540000D01*
X138535000Y-67580000D01*
X138508000Y-67619000D01*
X138479000Y-67656000D01*
X138449000Y-67692000D01*
X138416000Y-67726000D01*
X138382000Y-67759000D01*
X138346000Y-67789000D01*
X138309000Y-67818000D01*
X138270000Y-67845000D01*
X138230000Y-67869000D01*
X138189000Y-67892000D01*
X138146000Y-67912000D01*
X138103000Y-67930000D01*
X138058000Y-67946000D01*
X138013000Y-67959000D01*
X137967000Y-67970000D01*
X137921000Y-67979000D01*
X137874000Y-67985000D01*
X137827000Y-67989000D01*
X137780000Y-67990000D01*
X135280000Y-67990000D01*
X135280000Y-66190000D01*
X137780000Y-66190000D01*
X137827000Y-66191000D01*
G36*
X137827000Y-66191000D02*
G01*
X137874000Y-66195000D01*
X137921000Y-66201000D01*
X137967000Y-66210000D01*
X138013000Y-66221000D01*
X138058000Y-66234000D01*
X138103000Y-66250000D01*
X138146000Y-66268000D01*
X138189000Y-66288000D01*
X138230000Y-66311000D01*
X138270000Y-66335000D01*
X138309000Y-66362000D01*
X138346000Y-66391000D01*
X138382000Y-66421000D01*
X138416000Y-66454000D01*
X138449000Y-66488000D01*
X138479000Y-66524000D01*
X138508000Y-66561000D01*
X138535000Y-66600000D01*
X138559000Y-66640000D01*
X138582000Y-66681000D01*
X138602000Y-66724000D01*
X138620000Y-66767000D01*
X138636000Y-66812000D01*
X138649000Y-66857000D01*
X138660000Y-66903000D01*
X138669000Y-66949000D01*
X138675000Y-66996000D01*
X138679000Y-67043000D01*
X138680000Y-67090000D01*
X138679000Y-67137000D01*
X138675000Y-67184000D01*
X138669000Y-67231000D01*
X138660000Y-67277000D01*
X138649000Y-67323000D01*
X138636000Y-67368000D01*
X138620000Y-67413000D01*
X138602000Y-67456000D01*
X138582000Y-67499000D01*
X138559000Y-67540000D01*
X138535000Y-67580000D01*
X138508000Y-67619000D01*
X138479000Y-67656000D01*
X138449000Y-67692000D01*
X138416000Y-67726000D01*
X138382000Y-67759000D01*
X138346000Y-67789000D01*
X138309000Y-67818000D01*
X138270000Y-67845000D01*
X138230000Y-67869000D01*
X138189000Y-67892000D01*
X138146000Y-67912000D01*
X138103000Y-67930000D01*
X138058000Y-67946000D01*
X138013000Y-67959000D01*
X137967000Y-67970000D01*
X137921000Y-67979000D01*
X137874000Y-67985000D01*
X137827000Y-67989000D01*
X137780000Y-67990000D01*
X135280000Y-67990000D01*
X135280000Y-66190000D01*
X137780000Y-66190000D01*
X137827000Y-66191000D01*
G37*
X137827000Y-68731000D02*
X137874000Y-68735000D01*
X137921000Y-68741000D01*
X137967000Y-68750000D01*
X138013000Y-68761000D01*
X138058000Y-68774000D01*
X138103000Y-68790000D01*
X138146000Y-68808000D01*
X138189000Y-68828000D01*
X138230000Y-68851000D01*
X138270000Y-68875000D01*
X138309000Y-68902000D01*
X138346000Y-68931000D01*
X138382000Y-68961000D01*
X138416000Y-68994000D01*
X138449000Y-69028000D01*
X138479000Y-69064000D01*
X138508000Y-69101000D01*
X138535000Y-69140000D01*
X138559000Y-69180000D01*
X138582000Y-69221000D01*
X138602000Y-69264000D01*
X138620000Y-69307000D01*
X138636000Y-69352000D01*
X138649000Y-69397000D01*
X138660000Y-69443000D01*
X138669000Y-69489000D01*
X138675000Y-69536000D01*
X138679000Y-69583000D01*
X138680000Y-69630000D01*
X138679000Y-69677000D01*
X138675000Y-69724000D01*
X138669000Y-69771000D01*
X138660000Y-69817000D01*
X138649000Y-69863000D01*
X138636000Y-69908000D01*
X138620000Y-69953000D01*
X138602000Y-69996000D01*
X138582000Y-70039000D01*
X138559000Y-70080000D01*
X138535000Y-70120000D01*
X138508000Y-70159000D01*
X138479000Y-70196000D01*
X138449000Y-70232000D01*
X138416000Y-70266000D01*
X138382000Y-70299000D01*
X138346000Y-70329000D01*
X138309000Y-70358000D01*
X138270000Y-70385000D01*
X138230000Y-70409000D01*
X138189000Y-70432000D01*
X138146000Y-70452000D01*
X138103000Y-70470000D01*
X138058000Y-70486000D01*
X138013000Y-70499000D01*
X137967000Y-70510000D01*
X137921000Y-70519000D01*
X137874000Y-70525000D01*
X137827000Y-70529000D01*
X137780000Y-70530000D01*
X135280000Y-70530000D01*
X135280000Y-68730000D01*
X137780000Y-68730000D01*
X137827000Y-68731000D01*
G36*
X137827000Y-68731000D02*
G01*
X137874000Y-68735000D01*
X137921000Y-68741000D01*
X137967000Y-68750000D01*
X138013000Y-68761000D01*
X138058000Y-68774000D01*
X138103000Y-68790000D01*
X138146000Y-68808000D01*
X138189000Y-68828000D01*
X138230000Y-68851000D01*
X138270000Y-68875000D01*
X138309000Y-68902000D01*
X138346000Y-68931000D01*
X138382000Y-68961000D01*
X138416000Y-68994000D01*
X138449000Y-69028000D01*
X138479000Y-69064000D01*
X138508000Y-69101000D01*
X138535000Y-69140000D01*
X138559000Y-69180000D01*
X138582000Y-69221000D01*
X138602000Y-69264000D01*
X138620000Y-69307000D01*
X138636000Y-69352000D01*
X138649000Y-69397000D01*
X138660000Y-69443000D01*
X138669000Y-69489000D01*
X138675000Y-69536000D01*
X138679000Y-69583000D01*
X138680000Y-69630000D01*
X138679000Y-69677000D01*
X138675000Y-69724000D01*
X138669000Y-69771000D01*
X138660000Y-69817000D01*
X138649000Y-69863000D01*
X138636000Y-69908000D01*
X138620000Y-69953000D01*
X138602000Y-69996000D01*
X138582000Y-70039000D01*
X138559000Y-70080000D01*
X138535000Y-70120000D01*
X138508000Y-70159000D01*
X138479000Y-70196000D01*
X138449000Y-70232000D01*
X138416000Y-70266000D01*
X138382000Y-70299000D01*
X138346000Y-70329000D01*
X138309000Y-70358000D01*
X138270000Y-70385000D01*
X138230000Y-70409000D01*
X138189000Y-70432000D01*
X138146000Y-70452000D01*
X138103000Y-70470000D01*
X138058000Y-70486000D01*
X138013000Y-70499000D01*
X137967000Y-70510000D01*
X137921000Y-70519000D01*
X137874000Y-70525000D01*
X137827000Y-70529000D01*
X137780000Y-70530000D01*
X135280000Y-70530000D01*
X135280000Y-68730000D01*
X137780000Y-68730000D01*
X137827000Y-68731000D01*
G37*
X137827000Y-73811000D02*
X137874000Y-73815000D01*
X137921000Y-73821000D01*
X137967000Y-73830000D01*
X138013000Y-73841000D01*
X138058000Y-73854000D01*
X138103000Y-73870000D01*
X138146000Y-73888000D01*
X138189000Y-73908000D01*
X138230000Y-73931000D01*
X138270000Y-73955000D01*
X138309000Y-73982000D01*
X138346000Y-74011000D01*
X138382000Y-74041000D01*
X138416000Y-74074000D01*
X138449000Y-74108000D01*
X138479000Y-74144000D01*
X138508000Y-74181000D01*
X138535000Y-74220000D01*
X138559000Y-74260000D01*
X138582000Y-74301000D01*
X138602000Y-74344000D01*
X138620000Y-74387000D01*
X138636000Y-74432000D01*
X138649000Y-74477000D01*
X138660000Y-74523000D01*
X138669000Y-74569000D01*
X138675000Y-74616000D01*
X138679000Y-74663000D01*
X138680000Y-74710000D01*
X138679000Y-74757000D01*
X138675000Y-74804000D01*
X138669000Y-74851000D01*
X138660000Y-74897000D01*
X138649000Y-74943000D01*
X138636000Y-74988000D01*
X138620000Y-75033000D01*
X138602000Y-75076000D01*
X138582000Y-75119000D01*
X138559000Y-75160000D01*
X138535000Y-75200000D01*
X138508000Y-75239000D01*
X138479000Y-75276000D01*
X138449000Y-75312000D01*
X138416000Y-75346000D01*
X138382000Y-75379000D01*
X138346000Y-75409000D01*
X138309000Y-75438000D01*
X138270000Y-75465000D01*
X138230000Y-75489000D01*
X138189000Y-75512000D01*
X138146000Y-75532000D01*
X138103000Y-75550000D01*
X138058000Y-75566000D01*
X138013000Y-75579000D01*
X137967000Y-75590000D01*
X137921000Y-75599000D01*
X137874000Y-75605000D01*
X137827000Y-75609000D01*
X137780000Y-75610000D01*
X135280000Y-75610000D01*
X135280000Y-73810000D01*
X137780000Y-73810000D01*
X137827000Y-73811000D01*
G36*
X137827000Y-73811000D02*
G01*
X137874000Y-73815000D01*
X137921000Y-73821000D01*
X137967000Y-73830000D01*
X138013000Y-73841000D01*
X138058000Y-73854000D01*
X138103000Y-73870000D01*
X138146000Y-73888000D01*
X138189000Y-73908000D01*
X138230000Y-73931000D01*
X138270000Y-73955000D01*
X138309000Y-73982000D01*
X138346000Y-74011000D01*
X138382000Y-74041000D01*
X138416000Y-74074000D01*
X138449000Y-74108000D01*
X138479000Y-74144000D01*
X138508000Y-74181000D01*
X138535000Y-74220000D01*
X138559000Y-74260000D01*
X138582000Y-74301000D01*
X138602000Y-74344000D01*
X138620000Y-74387000D01*
X138636000Y-74432000D01*
X138649000Y-74477000D01*
X138660000Y-74523000D01*
X138669000Y-74569000D01*
X138675000Y-74616000D01*
X138679000Y-74663000D01*
X138680000Y-74710000D01*
X138679000Y-74757000D01*
X138675000Y-74804000D01*
X138669000Y-74851000D01*
X138660000Y-74897000D01*
X138649000Y-74943000D01*
X138636000Y-74988000D01*
X138620000Y-75033000D01*
X138602000Y-75076000D01*
X138582000Y-75119000D01*
X138559000Y-75160000D01*
X138535000Y-75200000D01*
X138508000Y-75239000D01*
X138479000Y-75276000D01*
X138449000Y-75312000D01*
X138416000Y-75346000D01*
X138382000Y-75379000D01*
X138346000Y-75409000D01*
X138309000Y-75438000D01*
X138270000Y-75465000D01*
X138230000Y-75489000D01*
X138189000Y-75512000D01*
X138146000Y-75532000D01*
X138103000Y-75550000D01*
X138058000Y-75566000D01*
X138013000Y-75579000D01*
X137967000Y-75590000D01*
X137921000Y-75599000D01*
X137874000Y-75605000D01*
X137827000Y-75609000D01*
X137780000Y-75610000D01*
X135280000Y-75610000D01*
X135280000Y-73810000D01*
X137780000Y-73810000D01*
X137827000Y-73811000D01*
G37*
X137827000Y-76351000D02*
X137874000Y-76355000D01*
X137921000Y-76361000D01*
X137967000Y-76370000D01*
X138013000Y-76381000D01*
X138058000Y-76394000D01*
X138103000Y-76410000D01*
X138146000Y-76428000D01*
X138189000Y-76448000D01*
X138230000Y-76471000D01*
X138270000Y-76495000D01*
X138309000Y-76522000D01*
X138346000Y-76551000D01*
X138382000Y-76581000D01*
X138416000Y-76614000D01*
X138449000Y-76648000D01*
X138479000Y-76684000D01*
X138508000Y-76721000D01*
X138535000Y-76760000D01*
X138559000Y-76800000D01*
X138582000Y-76841000D01*
X138602000Y-76884000D01*
X138620000Y-76927000D01*
X138636000Y-76972000D01*
X138649000Y-77017000D01*
X138660000Y-77063000D01*
X138669000Y-77109000D01*
X138675000Y-77156000D01*
X138679000Y-77203000D01*
X138680000Y-77250000D01*
X138679000Y-77297000D01*
X138675000Y-77344000D01*
X138669000Y-77391000D01*
X138660000Y-77437000D01*
X138649000Y-77483000D01*
X138636000Y-77528000D01*
X138620000Y-77573000D01*
X138602000Y-77616000D01*
X138582000Y-77659000D01*
X138559000Y-77700000D01*
X138535000Y-77740000D01*
X138508000Y-77779000D01*
X138479000Y-77816000D01*
X138449000Y-77852000D01*
X138416000Y-77886000D01*
X138382000Y-77919000D01*
X138346000Y-77949000D01*
X138309000Y-77978000D01*
X138270000Y-78005000D01*
X138230000Y-78029000D01*
X138189000Y-78052000D01*
X138146000Y-78072000D01*
X138103000Y-78090000D01*
X138058000Y-78106000D01*
X138013000Y-78119000D01*
X137967000Y-78130000D01*
X137921000Y-78139000D01*
X137874000Y-78145000D01*
X137827000Y-78149000D01*
X137780000Y-78150000D01*
X135280000Y-78150000D01*
X135280000Y-76350000D01*
X137780000Y-76350000D01*
X137827000Y-76351000D01*
G36*
X137827000Y-76351000D02*
G01*
X137874000Y-76355000D01*
X137921000Y-76361000D01*
X137967000Y-76370000D01*
X138013000Y-76381000D01*
X138058000Y-76394000D01*
X138103000Y-76410000D01*
X138146000Y-76428000D01*
X138189000Y-76448000D01*
X138230000Y-76471000D01*
X138270000Y-76495000D01*
X138309000Y-76522000D01*
X138346000Y-76551000D01*
X138382000Y-76581000D01*
X138416000Y-76614000D01*
X138449000Y-76648000D01*
X138479000Y-76684000D01*
X138508000Y-76721000D01*
X138535000Y-76760000D01*
X138559000Y-76800000D01*
X138582000Y-76841000D01*
X138602000Y-76884000D01*
X138620000Y-76927000D01*
X138636000Y-76972000D01*
X138649000Y-77017000D01*
X138660000Y-77063000D01*
X138669000Y-77109000D01*
X138675000Y-77156000D01*
X138679000Y-77203000D01*
X138680000Y-77250000D01*
X138679000Y-77297000D01*
X138675000Y-77344000D01*
X138669000Y-77391000D01*
X138660000Y-77437000D01*
X138649000Y-77483000D01*
X138636000Y-77528000D01*
X138620000Y-77573000D01*
X138602000Y-77616000D01*
X138582000Y-77659000D01*
X138559000Y-77700000D01*
X138535000Y-77740000D01*
X138508000Y-77779000D01*
X138479000Y-77816000D01*
X138449000Y-77852000D01*
X138416000Y-77886000D01*
X138382000Y-77919000D01*
X138346000Y-77949000D01*
X138309000Y-77978000D01*
X138270000Y-78005000D01*
X138230000Y-78029000D01*
X138189000Y-78052000D01*
X138146000Y-78072000D01*
X138103000Y-78090000D01*
X138058000Y-78106000D01*
X138013000Y-78119000D01*
X137967000Y-78130000D01*
X137921000Y-78139000D01*
X137874000Y-78145000D01*
X137827000Y-78149000D01*
X137780000Y-78150000D01*
X135280000Y-78150000D01*
X135280000Y-76350000D01*
X137780000Y-76350000D01*
X137827000Y-76351000D01*
G37*
X137827000Y-78891000D02*
X137874000Y-78895000D01*
X137921000Y-78901000D01*
X137967000Y-78910000D01*
X138013000Y-78921000D01*
X138058000Y-78934000D01*
X138103000Y-78950000D01*
X138146000Y-78968000D01*
X138189000Y-78988000D01*
X138230000Y-79011000D01*
X138270000Y-79035000D01*
X138309000Y-79062000D01*
X138346000Y-79091000D01*
X138382000Y-79121000D01*
X138416000Y-79154000D01*
X138449000Y-79188000D01*
X138479000Y-79224000D01*
X138508000Y-79261000D01*
X138535000Y-79300000D01*
X138559000Y-79340000D01*
X138582000Y-79381000D01*
X138602000Y-79424000D01*
X138620000Y-79467000D01*
X138636000Y-79512000D01*
X138649000Y-79557000D01*
X138660000Y-79603000D01*
X138669000Y-79649000D01*
X138675000Y-79696000D01*
X138679000Y-79743000D01*
X138680000Y-79790000D01*
X138679000Y-79837000D01*
X138675000Y-79884000D01*
X138669000Y-79931000D01*
X138660000Y-79977000D01*
X138649000Y-80023000D01*
X138636000Y-80068000D01*
X138620000Y-80113000D01*
X138602000Y-80156000D01*
X138582000Y-80199000D01*
X138559000Y-80240000D01*
X138535000Y-80280000D01*
X138508000Y-80319000D01*
X138479000Y-80356000D01*
X138449000Y-80392000D01*
X138416000Y-80426000D01*
X138382000Y-80459000D01*
X138346000Y-80489000D01*
X138309000Y-80518000D01*
X138270000Y-80545000D01*
X138230000Y-80569000D01*
X138189000Y-80592000D01*
X138146000Y-80612000D01*
X138103000Y-80630000D01*
X138058000Y-80646000D01*
X138013000Y-80659000D01*
X137967000Y-80670000D01*
X137921000Y-80679000D01*
X137874000Y-80685000D01*
X137827000Y-80689000D01*
X137780000Y-80690000D01*
X135280000Y-80690000D01*
X135280000Y-78890000D01*
X137780000Y-78890000D01*
X137827000Y-78891000D01*
G36*
X137827000Y-78891000D02*
G01*
X137874000Y-78895000D01*
X137921000Y-78901000D01*
X137967000Y-78910000D01*
X138013000Y-78921000D01*
X138058000Y-78934000D01*
X138103000Y-78950000D01*
X138146000Y-78968000D01*
X138189000Y-78988000D01*
X138230000Y-79011000D01*
X138270000Y-79035000D01*
X138309000Y-79062000D01*
X138346000Y-79091000D01*
X138382000Y-79121000D01*
X138416000Y-79154000D01*
X138449000Y-79188000D01*
X138479000Y-79224000D01*
X138508000Y-79261000D01*
X138535000Y-79300000D01*
X138559000Y-79340000D01*
X138582000Y-79381000D01*
X138602000Y-79424000D01*
X138620000Y-79467000D01*
X138636000Y-79512000D01*
X138649000Y-79557000D01*
X138660000Y-79603000D01*
X138669000Y-79649000D01*
X138675000Y-79696000D01*
X138679000Y-79743000D01*
X138680000Y-79790000D01*
X138679000Y-79837000D01*
X138675000Y-79884000D01*
X138669000Y-79931000D01*
X138660000Y-79977000D01*
X138649000Y-80023000D01*
X138636000Y-80068000D01*
X138620000Y-80113000D01*
X138602000Y-80156000D01*
X138582000Y-80199000D01*
X138559000Y-80240000D01*
X138535000Y-80280000D01*
X138508000Y-80319000D01*
X138479000Y-80356000D01*
X138449000Y-80392000D01*
X138416000Y-80426000D01*
X138382000Y-80459000D01*
X138346000Y-80489000D01*
X138309000Y-80518000D01*
X138270000Y-80545000D01*
X138230000Y-80569000D01*
X138189000Y-80592000D01*
X138146000Y-80612000D01*
X138103000Y-80630000D01*
X138058000Y-80646000D01*
X138013000Y-80659000D01*
X137967000Y-80670000D01*
X137921000Y-80679000D01*
X137874000Y-80685000D01*
X137827000Y-80689000D01*
X137780000Y-80690000D01*
X135280000Y-80690000D01*
X135280000Y-78890000D01*
X137780000Y-78890000D01*
X137827000Y-78891000D01*
G37*
X137827000Y-81431000D02*
X137874000Y-81435000D01*
X137921000Y-81441000D01*
X137967000Y-81450000D01*
X138013000Y-81461000D01*
X138058000Y-81474000D01*
X138103000Y-81490000D01*
X138146000Y-81508000D01*
X138189000Y-81528000D01*
X138230000Y-81551000D01*
X138270000Y-81575000D01*
X138309000Y-81602000D01*
X138346000Y-81631000D01*
X138382000Y-81661000D01*
X138416000Y-81694000D01*
X138449000Y-81728000D01*
X138479000Y-81764000D01*
X138508000Y-81801000D01*
X138535000Y-81840000D01*
X138559000Y-81880000D01*
X138582000Y-81921000D01*
X138602000Y-81964000D01*
X138620000Y-82007000D01*
X138636000Y-82052000D01*
X138649000Y-82097000D01*
X138660000Y-82143000D01*
X138669000Y-82189000D01*
X138675000Y-82236000D01*
X138679000Y-82283000D01*
X138680000Y-82330000D01*
X138679000Y-82377000D01*
X138675000Y-82424000D01*
X138669000Y-82471000D01*
X138660000Y-82517000D01*
X138649000Y-82563000D01*
X138636000Y-82608000D01*
X138620000Y-82653000D01*
X138602000Y-82696000D01*
X138582000Y-82739000D01*
X138559000Y-82780000D01*
X138535000Y-82820000D01*
X138508000Y-82859000D01*
X138479000Y-82896000D01*
X138449000Y-82932000D01*
X138416000Y-82966000D01*
X138382000Y-82999000D01*
X138346000Y-83029000D01*
X138309000Y-83058000D01*
X138270000Y-83085000D01*
X138230000Y-83109000D01*
X138189000Y-83132000D01*
X138146000Y-83152000D01*
X138103000Y-83170000D01*
X138058000Y-83186000D01*
X138013000Y-83199000D01*
X137967000Y-83210000D01*
X137921000Y-83219000D01*
X137874000Y-83225000D01*
X137827000Y-83229000D01*
X137780000Y-83230000D01*
X135280000Y-83230000D01*
X135280000Y-81430000D01*
X137780000Y-81430000D01*
X137827000Y-81431000D01*
G36*
X137827000Y-81431000D02*
G01*
X137874000Y-81435000D01*
X137921000Y-81441000D01*
X137967000Y-81450000D01*
X138013000Y-81461000D01*
X138058000Y-81474000D01*
X138103000Y-81490000D01*
X138146000Y-81508000D01*
X138189000Y-81528000D01*
X138230000Y-81551000D01*
X138270000Y-81575000D01*
X138309000Y-81602000D01*
X138346000Y-81631000D01*
X138382000Y-81661000D01*
X138416000Y-81694000D01*
X138449000Y-81728000D01*
X138479000Y-81764000D01*
X138508000Y-81801000D01*
X138535000Y-81840000D01*
X138559000Y-81880000D01*
X138582000Y-81921000D01*
X138602000Y-81964000D01*
X138620000Y-82007000D01*
X138636000Y-82052000D01*
X138649000Y-82097000D01*
X138660000Y-82143000D01*
X138669000Y-82189000D01*
X138675000Y-82236000D01*
X138679000Y-82283000D01*
X138680000Y-82330000D01*
X138679000Y-82377000D01*
X138675000Y-82424000D01*
X138669000Y-82471000D01*
X138660000Y-82517000D01*
X138649000Y-82563000D01*
X138636000Y-82608000D01*
X138620000Y-82653000D01*
X138602000Y-82696000D01*
X138582000Y-82739000D01*
X138559000Y-82780000D01*
X138535000Y-82820000D01*
X138508000Y-82859000D01*
X138479000Y-82896000D01*
X138449000Y-82932000D01*
X138416000Y-82966000D01*
X138382000Y-82999000D01*
X138346000Y-83029000D01*
X138309000Y-83058000D01*
X138270000Y-83085000D01*
X138230000Y-83109000D01*
X138189000Y-83132000D01*
X138146000Y-83152000D01*
X138103000Y-83170000D01*
X138058000Y-83186000D01*
X138013000Y-83199000D01*
X137967000Y-83210000D01*
X137921000Y-83219000D01*
X137874000Y-83225000D01*
X137827000Y-83229000D01*
X137780000Y-83230000D01*
X135280000Y-83230000D01*
X135280000Y-81430000D01*
X137780000Y-81430000D01*
X137827000Y-81431000D01*
G37*
X137827000Y-86511000D02*
X137874000Y-86515000D01*
X137921000Y-86521000D01*
X137967000Y-86530000D01*
X138013000Y-86541000D01*
X138058000Y-86554000D01*
X138103000Y-86570000D01*
X138146000Y-86588000D01*
X138189000Y-86608000D01*
X138230000Y-86631000D01*
X138270000Y-86655000D01*
X138309000Y-86682000D01*
X138346000Y-86711000D01*
X138382000Y-86741000D01*
X138416000Y-86774000D01*
X138449000Y-86808000D01*
X138479000Y-86844000D01*
X138508000Y-86881000D01*
X138535000Y-86920000D01*
X138559000Y-86960000D01*
X138582000Y-87001000D01*
X138602000Y-87044000D01*
X138620000Y-87087000D01*
X138636000Y-87132000D01*
X138649000Y-87177000D01*
X138660000Y-87223000D01*
X138669000Y-87269000D01*
X138675000Y-87316000D01*
X138679000Y-87363000D01*
X138680000Y-87410000D01*
X138679000Y-87457000D01*
X138675000Y-87504000D01*
X138669000Y-87551000D01*
X138660000Y-87597000D01*
X138649000Y-87643000D01*
X138636000Y-87688000D01*
X138620000Y-87733000D01*
X138602000Y-87776000D01*
X138582000Y-87819000D01*
X138559000Y-87860000D01*
X138535000Y-87900000D01*
X138508000Y-87939000D01*
X138479000Y-87976000D01*
X138449000Y-88012000D01*
X138416000Y-88046000D01*
X138382000Y-88079000D01*
X138346000Y-88109000D01*
X138309000Y-88138000D01*
X138270000Y-88165000D01*
X138230000Y-88189000D01*
X138189000Y-88212000D01*
X138146000Y-88232000D01*
X138103000Y-88250000D01*
X138058000Y-88266000D01*
X138013000Y-88279000D01*
X137967000Y-88290000D01*
X137921000Y-88299000D01*
X137874000Y-88305000D01*
X137827000Y-88309000D01*
X137780000Y-88310000D01*
X135280000Y-88310000D01*
X135280000Y-86510000D01*
X137780000Y-86510000D01*
X137827000Y-86511000D01*
G36*
X137827000Y-86511000D02*
G01*
X137874000Y-86515000D01*
X137921000Y-86521000D01*
X137967000Y-86530000D01*
X138013000Y-86541000D01*
X138058000Y-86554000D01*
X138103000Y-86570000D01*
X138146000Y-86588000D01*
X138189000Y-86608000D01*
X138230000Y-86631000D01*
X138270000Y-86655000D01*
X138309000Y-86682000D01*
X138346000Y-86711000D01*
X138382000Y-86741000D01*
X138416000Y-86774000D01*
X138449000Y-86808000D01*
X138479000Y-86844000D01*
X138508000Y-86881000D01*
X138535000Y-86920000D01*
X138559000Y-86960000D01*
X138582000Y-87001000D01*
X138602000Y-87044000D01*
X138620000Y-87087000D01*
X138636000Y-87132000D01*
X138649000Y-87177000D01*
X138660000Y-87223000D01*
X138669000Y-87269000D01*
X138675000Y-87316000D01*
X138679000Y-87363000D01*
X138680000Y-87410000D01*
X138679000Y-87457000D01*
X138675000Y-87504000D01*
X138669000Y-87551000D01*
X138660000Y-87597000D01*
X138649000Y-87643000D01*
X138636000Y-87688000D01*
X138620000Y-87733000D01*
X138602000Y-87776000D01*
X138582000Y-87819000D01*
X138559000Y-87860000D01*
X138535000Y-87900000D01*
X138508000Y-87939000D01*
X138479000Y-87976000D01*
X138449000Y-88012000D01*
X138416000Y-88046000D01*
X138382000Y-88079000D01*
X138346000Y-88109000D01*
X138309000Y-88138000D01*
X138270000Y-88165000D01*
X138230000Y-88189000D01*
X138189000Y-88212000D01*
X138146000Y-88232000D01*
X138103000Y-88250000D01*
X138058000Y-88266000D01*
X138013000Y-88279000D01*
X137967000Y-88290000D01*
X137921000Y-88299000D01*
X137874000Y-88305000D01*
X137827000Y-88309000D01*
X137780000Y-88310000D01*
X135280000Y-88310000D01*
X135280000Y-86510000D01*
X137780000Y-86510000D01*
X137827000Y-86511000D01*
G37*
X137827000Y-89051000D02*
X137874000Y-89055000D01*
X137921000Y-89061000D01*
X137967000Y-89070000D01*
X138013000Y-89081000D01*
X138058000Y-89094000D01*
X138103000Y-89110000D01*
X138146000Y-89128000D01*
X138189000Y-89148000D01*
X138230000Y-89171000D01*
X138270000Y-89195000D01*
X138309000Y-89222000D01*
X138346000Y-89251000D01*
X138382000Y-89281000D01*
X138416000Y-89314000D01*
X138449000Y-89348000D01*
X138479000Y-89384000D01*
X138508000Y-89421000D01*
X138535000Y-89460000D01*
X138559000Y-89500000D01*
X138582000Y-89541000D01*
X138602000Y-89584000D01*
X138620000Y-89627000D01*
X138636000Y-89672000D01*
X138649000Y-89717000D01*
X138660000Y-89763000D01*
X138669000Y-89809000D01*
X138675000Y-89856000D01*
X138679000Y-89903000D01*
X138680000Y-89950000D01*
X138679000Y-89997000D01*
X138675000Y-90044000D01*
X138669000Y-90091000D01*
X138660000Y-90137000D01*
X138649000Y-90183000D01*
X138636000Y-90228000D01*
X138620000Y-90273000D01*
X138602000Y-90316000D01*
X138582000Y-90359000D01*
X138559000Y-90400000D01*
X138535000Y-90440000D01*
X138508000Y-90479000D01*
X138479000Y-90516000D01*
X138449000Y-90552000D01*
X138416000Y-90586000D01*
X138382000Y-90619000D01*
X138346000Y-90649000D01*
X138309000Y-90678000D01*
X138270000Y-90705000D01*
X138230000Y-90729000D01*
X138189000Y-90752000D01*
X138146000Y-90772000D01*
X138103000Y-90790000D01*
X138058000Y-90806000D01*
X138013000Y-90819000D01*
X137967000Y-90830000D01*
X137921000Y-90839000D01*
X137874000Y-90845000D01*
X137827000Y-90849000D01*
X137780000Y-90850000D01*
X135280000Y-90850000D01*
X135280000Y-89050000D01*
X137780000Y-89050000D01*
X137827000Y-89051000D01*
G36*
X137827000Y-89051000D02*
G01*
X137874000Y-89055000D01*
X137921000Y-89061000D01*
X137967000Y-89070000D01*
X138013000Y-89081000D01*
X138058000Y-89094000D01*
X138103000Y-89110000D01*
X138146000Y-89128000D01*
X138189000Y-89148000D01*
X138230000Y-89171000D01*
X138270000Y-89195000D01*
X138309000Y-89222000D01*
X138346000Y-89251000D01*
X138382000Y-89281000D01*
X138416000Y-89314000D01*
X138449000Y-89348000D01*
X138479000Y-89384000D01*
X138508000Y-89421000D01*
X138535000Y-89460000D01*
X138559000Y-89500000D01*
X138582000Y-89541000D01*
X138602000Y-89584000D01*
X138620000Y-89627000D01*
X138636000Y-89672000D01*
X138649000Y-89717000D01*
X138660000Y-89763000D01*
X138669000Y-89809000D01*
X138675000Y-89856000D01*
X138679000Y-89903000D01*
X138680000Y-89950000D01*
X138679000Y-89997000D01*
X138675000Y-90044000D01*
X138669000Y-90091000D01*
X138660000Y-90137000D01*
X138649000Y-90183000D01*
X138636000Y-90228000D01*
X138620000Y-90273000D01*
X138602000Y-90316000D01*
X138582000Y-90359000D01*
X138559000Y-90400000D01*
X138535000Y-90440000D01*
X138508000Y-90479000D01*
X138479000Y-90516000D01*
X138449000Y-90552000D01*
X138416000Y-90586000D01*
X138382000Y-90619000D01*
X138346000Y-90649000D01*
X138309000Y-90678000D01*
X138270000Y-90705000D01*
X138230000Y-90729000D01*
X138189000Y-90752000D01*
X138146000Y-90772000D01*
X138103000Y-90790000D01*
X138058000Y-90806000D01*
X138013000Y-90819000D01*
X137967000Y-90830000D01*
X137921000Y-90839000D01*
X137874000Y-90845000D01*
X137827000Y-90849000D01*
X137780000Y-90850000D01*
X135280000Y-90850000D01*
X135280000Y-89050000D01*
X137780000Y-89050000D01*
X137827000Y-89051000D01*
G37*
X137827000Y-91591000D02*
X137874000Y-91595000D01*
X137921000Y-91601000D01*
X137967000Y-91610000D01*
X138013000Y-91621000D01*
X138058000Y-91634000D01*
X138103000Y-91650000D01*
X138146000Y-91668000D01*
X138189000Y-91688000D01*
X138230000Y-91711000D01*
X138270000Y-91735000D01*
X138309000Y-91762000D01*
X138346000Y-91791000D01*
X138382000Y-91821000D01*
X138416000Y-91854000D01*
X138449000Y-91888000D01*
X138479000Y-91924000D01*
X138508000Y-91961000D01*
X138535000Y-92000000D01*
X138559000Y-92040000D01*
X138582000Y-92081000D01*
X138602000Y-92124000D01*
X138620000Y-92167000D01*
X138636000Y-92212000D01*
X138649000Y-92257000D01*
X138660000Y-92303000D01*
X138669000Y-92349000D01*
X138675000Y-92396000D01*
X138679000Y-92443000D01*
X138680000Y-92490000D01*
X138679000Y-92537000D01*
X138675000Y-92584000D01*
X138669000Y-92631000D01*
X138660000Y-92677000D01*
X138649000Y-92723000D01*
X138636000Y-92768000D01*
X138620000Y-92813000D01*
X138602000Y-92856000D01*
X138582000Y-92899000D01*
X138559000Y-92940000D01*
X138535000Y-92980000D01*
X138508000Y-93019000D01*
X138479000Y-93056000D01*
X138449000Y-93092000D01*
X138416000Y-93126000D01*
X138382000Y-93159000D01*
X138346000Y-93189000D01*
X138309000Y-93218000D01*
X138270000Y-93245000D01*
X138230000Y-93269000D01*
X138189000Y-93292000D01*
X138146000Y-93312000D01*
X138103000Y-93330000D01*
X138058000Y-93346000D01*
X138013000Y-93359000D01*
X137967000Y-93370000D01*
X137921000Y-93379000D01*
X137874000Y-93385000D01*
X137827000Y-93389000D01*
X137780000Y-93390000D01*
X135280000Y-93390000D01*
X135280000Y-91590000D01*
X137780000Y-91590000D01*
X137827000Y-91591000D01*
G36*
X137827000Y-91591000D02*
G01*
X137874000Y-91595000D01*
X137921000Y-91601000D01*
X137967000Y-91610000D01*
X138013000Y-91621000D01*
X138058000Y-91634000D01*
X138103000Y-91650000D01*
X138146000Y-91668000D01*
X138189000Y-91688000D01*
X138230000Y-91711000D01*
X138270000Y-91735000D01*
X138309000Y-91762000D01*
X138346000Y-91791000D01*
X138382000Y-91821000D01*
X138416000Y-91854000D01*
X138449000Y-91888000D01*
X138479000Y-91924000D01*
X138508000Y-91961000D01*
X138535000Y-92000000D01*
X138559000Y-92040000D01*
X138582000Y-92081000D01*
X138602000Y-92124000D01*
X138620000Y-92167000D01*
X138636000Y-92212000D01*
X138649000Y-92257000D01*
X138660000Y-92303000D01*
X138669000Y-92349000D01*
X138675000Y-92396000D01*
X138679000Y-92443000D01*
X138680000Y-92490000D01*
X138679000Y-92537000D01*
X138675000Y-92584000D01*
X138669000Y-92631000D01*
X138660000Y-92677000D01*
X138649000Y-92723000D01*
X138636000Y-92768000D01*
X138620000Y-92813000D01*
X138602000Y-92856000D01*
X138582000Y-92899000D01*
X138559000Y-92940000D01*
X138535000Y-92980000D01*
X138508000Y-93019000D01*
X138479000Y-93056000D01*
X138449000Y-93092000D01*
X138416000Y-93126000D01*
X138382000Y-93159000D01*
X138346000Y-93189000D01*
X138309000Y-93218000D01*
X138270000Y-93245000D01*
X138230000Y-93269000D01*
X138189000Y-93292000D01*
X138146000Y-93312000D01*
X138103000Y-93330000D01*
X138058000Y-93346000D01*
X138013000Y-93359000D01*
X137967000Y-93370000D01*
X137921000Y-93379000D01*
X137874000Y-93385000D01*
X137827000Y-93389000D01*
X137780000Y-93390000D01*
X135280000Y-93390000D01*
X135280000Y-91590000D01*
X137780000Y-91590000D01*
X137827000Y-91591000D01*
G37*
X137827000Y-94131000D02*
X137874000Y-94135000D01*
X137921000Y-94141000D01*
X137967000Y-94150000D01*
X138013000Y-94161000D01*
X138058000Y-94174000D01*
X138103000Y-94190000D01*
X138146000Y-94208000D01*
X138189000Y-94228000D01*
X138230000Y-94251000D01*
X138270000Y-94275000D01*
X138309000Y-94302000D01*
X138346000Y-94331000D01*
X138382000Y-94361000D01*
X138416000Y-94394000D01*
X138449000Y-94428000D01*
X138479000Y-94464000D01*
X138508000Y-94501000D01*
X138535000Y-94540000D01*
X138559000Y-94580000D01*
X138582000Y-94621000D01*
X138602000Y-94664000D01*
X138620000Y-94707000D01*
X138636000Y-94752000D01*
X138649000Y-94797000D01*
X138660000Y-94843000D01*
X138669000Y-94889000D01*
X138675000Y-94936000D01*
X138679000Y-94983000D01*
X138680000Y-95030000D01*
X138679000Y-95077000D01*
X138675000Y-95124000D01*
X138669000Y-95171000D01*
X138660000Y-95217000D01*
X138649000Y-95263000D01*
X138636000Y-95308000D01*
X138620000Y-95353000D01*
X138602000Y-95396000D01*
X138582000Y-95439000D01*
X138559000Y-95480000D01*
X138535000Y-95520000D01*
X138508000Y-95559000D01*
X138479000Y-95596000D01*
X138449000Y-95632000D01*
X138416000Y-95666000D01*
X138382000Y-95699000D01*
X138346000Y-95729000D01*
X138309000Y-95758000D01*
X138270000Y-95785000D01*
X138230000Y-95809000D01*
X138189000Y-95832000D01*
X138146000Y-95852000D01*
X138103000Y-95870000D01*
X138058000Y-95886000D01*
X138013000Y-95899000D01*
X137967000Y-95910000D01*
X137921000Y-95919000D01*
X137874000Y-95925000D01*
X137827000Y-95929000D01*
X137780000Y-95930000D01*
X135280000Y-95930000D01*
X135280000Y-94130000D01*
X137780000Y-94130000D01*
X137827000Y-94131000D01*
G36*
X137827000Y-94131000D02*
G01*
X137874000Y-94135000D01*
X137921000Y-94141000D01*
X137967000Y-94150000D01*
X138013000Y-94161000D01*
X138058000Y-94174000D01*
X138103000Y-94190000D01*
X138146000Y-94208000D01*
X138189000Y-94228000D01*
X138230000Y-94251000D01*
X138270000Y-94275000D01*
X138309000Y-94302000D01*
X138346000Y-94331000D01*
X138382000Y-94361000D01*
X138416000Y-94394000D01*
X138449000Y-94428000D01*
X138479000Y-94464000D01*
X138508000Y-94501000D01*
X138535000Y-94540000D01*
X138559000Y-94580000D01*
X138582000Y-94621000D01*
X138602000Y-94664000D01*
X138620000Y-94707000D01*
X138636000Y-94752000D01*
X138649000Y-94797000D01*
X138660000Y-94843000D01*
X138669000Y-94889000D01*
X138675000Y-94936000D01*
X138679000Y-94983000D01*
X138680000Y-95030000D01*
X138679000Y-95077000D01*
X138675000Y-95124000D01*
X138669000Y-95171000D01*
X138660000Y-95217000D01*
X138649000Y-95263000D01*
X138636000Y-95308000D01*
X138620000Y-95353000D01*
X138602000Y-95396000D01*
X138582000Y-95439000D01*
X138559000Y-95480000D01*
X138535000Y-95520000D01*
X138508000Y-95559000D01*
X138479000Y-95596000D01*
X138449000Y-95632000D01*
X138416000Y-95666000D01*
X138382000Y-95699000D01*
X138346000Y-95729000D01*
X138309000Y-95758000D01*
X138270000Y-95785000D01*
X138230000Y-95809000D01*
X138189000Y-95832000D01*
X138146000Y-95852000D01*
X138103000Y-95870000D01*
X138058000Y-95886000D01*
X138013000Y-95899000D01*
X137967000Y-95910000D01*
X137921000Y-95919000D01*
X137874000Y-95925000D01*
X137827000Y-95929000D01*
X137780000Y-95930000D01*
X135280000Y-95930000D01*
X135280000Y-94130000D01*
X137780000Y-94130000D01*
X137827000Y-94131000D01*
G37*
X137827000Y-99211000D02*
X137874000Y-99215000D01*
X137921000Y-99221000D01*
X137967000Y-99230000D01*
X138013000Y-99241000D01*
X138058000Y-99254000D01*
X138103000Y-99270000D01*
X138146000Y-99288000D01*
X138189000Y-99308000D01*
X138230000Y-99331000D01*
X138270000Y-99355000D01*
X138309000Y-99382000D01*
X138346000Y-99411000D01*
X138382000Y-99441000D01*
X138416000Y-99474000D01*
X138449000Y-99508000D01*
X138479000Y-99544000D01*
X138508000Y-99581000D01*
X138535000Y-99620000D01*
X138559000Y-99660000D01*
X138582000Y-99701000D01*
X138602000Y-99744000D01*
X138620000Y-99787000D01*
X138636000Y-99832000D01*
X138649000Y-99877000D01*
X138660000Y-99923000D01*
X138669000Y-99969000D01*
X138675000Y-100016000D01*
X138679000Y-100063000D01*
X138680000Y-100110000D01*
X138679000Y-100157000D01*
X138675000Y-100204000D01*
X138669000Y-100251000D01*
X138660000Y-100297000D01*
X138649000Y-100343000D01*
X138636000Y-100388000D01*
X138620000Y-100433000D01*
X138602000Y-100476000D01*
X138582000Y-100519000D01*
X138559000Y-100560000D01*
X138535000Y-100600000D01*
X138508000Y-100639000D01*
X138479000Y-100676000D01*
X138449000Y-100712000D01*
X138416000Y-100746000D01*
X138382000Y-100779000D01*
X138346000Y-100809000D01*
X138309000Y-100838000D01*
X138270000Y-100865000D01*
X138230000Y-100889000D01*
X138189000Y-100912000D01*
X138146000Y-100932000D01*
X138103000Y-100950000D01*
X138058000Y-100966000D01*
X138013000Y-100979000D01*
X137967000Y-100990000D01*
X137921000Y-100999000D01*
X137874000Y-101005000D01*
X137827000Y-101009000D01*
X137780000Y-101010000D01*
X135280000Y-101010000D01*
X135280000Y-99210000D01*
X137780000Y-99210000D01*
X137827000Y-99211000D01*
G36*
X137827000Y-99211000D02*
G01*
X137874000Y-99215000D01*
X137921000Y-99221000D01*
X137967000Y-99230000D01*
X138013000Y-99241000D01*
X138058000Y-99254000D01*
X138103000Y-99270000D01*
X138146000Y-99288000D01*
X138189000Y-99308000D01*
X138230000Y-99331000D01*
X138270000Y-99355000D01*
X138309000Y-99382000D01*
X138346000Y-99411000D01*
X138382000Y-99441000D01*
X138416000Y-99474000D01*
X138449000Y-99508000D01*
X138479000Y-99544000D01*
X138508000Y-99581000D01*
X138535000Y-99620000D01*
X138559000Y-99660000D01*
X138582000Y-99701000D01*
X138602000Y-99744000D01*
X138620000Y-99787000D01*
X138636000Y-99832000D01*
X138649000Y-99877000D01*
X138660000Y-99923000D01*
X138669000Y-99969000D01*
X138675000Y-100016000D01*
X138679000Y-100063000D01*
X138680000Y-100110000D01*
X138679000Y-100157000D01*
X138675000Y-100204000D01*
X138669000Y-100251000D01*
X138660000Y-100297000D01*
X138649000Y-100343000D01*
X138636000Y-100388000D01*
X138620000Y-100433000D01*
X138602000Y-100476000D01*
X138582000Y-100519000D01*
X138559000Y-100560000D01*
X138535000Y-100600000D01*
X138508000Y-100639000D01*
X138479000Y-100676000D01*
X138449000Y-100712000D01*
X138416000Y-100746000D01*
X138382000Y-100779000D01*
X138346000Y-100809000D01*
X138309000Y-100838000D01*
X138270000Y-100865000D01*
X138230000Y-100889000D01*
X138189000Y-100912000D01*
X138146000Y-100932000D01*
X138103000Y-100950000D01*
X138058000Y-100966000D01*
X138013000Y-100979000D01*
X137967000Y-100990000D01*
X137921000Y-100999000D01*
X137874000Y-101005000D01*
X137827000Y-101009000D01*
X137780000Y-101010000D01*
X135280000Y-101010000D01*
X135280000Y-99210000D01*
X137780000Y-99210000D01*
X137827000Y-99211000D01*
G37*
X137827000Y-101751000D02*
X137874000Y-101755000D01*
X137921000Y-101761000D01*
X137967000Y-101770000D01*
X138013000Y-101781000D01*
X138058000Y-101794000D01*
X138103000Y-101810000D01*
X138146000Y-101828000D01*
X138189000Y-101848000D01*
X138230000Y-101871000D01*
X138270000Y-101895000D01*
X138309000Y-101922000D01*
X138346000Y-101951000D01*
X138382000Y-101981000D01*
X138416000Y-102014000D01*
X138449000Y-102048000D01*
X138479000Y-102084000D01*
X138508000Y-102121000D01*
X138535000Y-102160000D01*
X138559000Y-102200000D01*
X138582000Y-102241000D01*
X138602000Y-102284000D01*
X138620000Y-102327000D01*
X138636000Y-102372000D01*
X138649000Y-102417000D01*
X138660000Y-102463000D01*
X138669000Y-102509000D01*
X138675000Y-102556000D01*
X138679000Y-102603000D01*
X138680000Y-102650000D01*
X138679000Y-102697000D01*
X138675000Y-102744000D01*
X138669000Y-102791000D01*
X138660000Y-102837000D01*
X138649000Y-102883000D01*
X138636000Y-102928000D01*
X138620000Y-102973000D01*
X138602000Y-103016000D01*
X138582000Y-103059000D01*
X138559000Y-103100000D01*
X138535000Y-103140000D01*
X138508000Y-103179000D01*
X138479000Y-103216000D01*
X138449000Y-103252000D01*
X138416000Y-103286000D01*
X138382000Y-103319000D01*
X138346000Y-103349000D01*
X138309000Y-103378000D01*
X138270000Y-103405000D01*
X138230000Y-103429000D01*
X138189000Y-103452000D01*
X138146000Y-103472000D01*
X138103000Y-103490000D01*
X138058000Y-103506000D01*
X138013000Y-103519000D01*
X137967000Y-103530000D01*
X137921000Y-103539000D01*
X137874000Y-103545000D01*
X137827000Y-103549000D01*
X137780000Y-103550000D01*
X135280000Y-103550000D01*
X135280000Y-101750000D01*
X137780000Y-101750000D01*
X137827000Y-101751000D01*
G36*
X137827000Y-101751000D02*
G01*
X137874000Y-101755000D01*
X137921000Y-101761000D01*
X137967000Y-101770000D01*
X138013000Y-101781000D01*
X138058000Y-101794000D01*
X138103000Y-101810000D01*
X138146000Y-101828000D01*
X138189000Y-101848000D01*
X138230000Y-101871000D01*
X138270000Y-101895000D01*
X138309000Y-101922000D01*
X138346000Y-101951000D01*
X138382000Y-101981000D01*
X138416000Y-102014000D01*
X138449000Y-102048000D01*
X138479000Y-102084000D01*
X138508000Y-102121000D01*
X138535000Y-102160000D01*
X138559000Y-102200000D01*
X138582000Y-102241000D01*
X138602000Y-102284000D01*
X138620000Y-102327000D01*
X138636000Y-102372000D01*
X138649000Y-102417000D01*
X138660000Y-102463000D01*
X138669000Y-102509000D01*
X138675000Y-102556000D01*
X138679000Y-102603000D01*
X138680000Y-102650000D01*
X138679000Y-102697000D01*
X138675000Y-102744000D01*
X138669000Y-102791000D01*
X138660000Y-102837000D01*
X138649000Y-102883000D01*
X138636000Y-102928000D01*
X138620000Y-102973000D01*
X138602000Y-103016000D01*
X138582000Y-103059000D01*
X138559000Y-103100000D01*
X138535000Y-103140000D01*
X138508000Y-103179000D01*
X138479000Y-103216000D01*
X138449000Y-103252000D01*
X138416000Y-103286000D01*
X138382000Y-103319000D01*
X138346000Y-103349000D01*
X138309000Y-103378000D01*
X138270000Y-103405000D01*
X138230000Y-103429000D01*
X138189000Y-103452000D01*
X138146000Y-103472000D01*
X138103000Y-103490000D01*
X138058000Y-103506000D01*
X138013000Y-103519000D01*
X137967000Y-103530000D01*
X137921000Y-103539000D01*
X137874000Y-103545000D01*
X137827000Y-103549000D01*
X137780000Y-103550000D01*
X135280000Y-103550000D01*
X135280000Y-101750000D01*
X137780000Y-101750000D01*
X137827000Y-101751000D01*
G37*
X137827000Y-104291000D02*
X137874000Y-104295000D01*
X137921000Y-104301000D01*
X137967000Y-104310000D01*
X138013000Y-104321000D01*
X138058000Y-104334000D01*
X138103000Y-104350000D01*
X138146000Y-104368000D01*
X138189000Y-104388000D01*
X138230000Y-104411000D01*
X138270000Y-104435000D01*
X138309000Y-104462000D01*
X138346000Y-104491000D01*
X138382000Y-104521000D01*
X138416000Y-104554000D01*
X138449000Y-104588000D01*
X138479000Y-104624000D01*
X138508000Y-104661000D01*
X138535000Y-104700000D01*
X138559000Y-104740000D01*
X138582000Y-104781000D01*
X138602000Y-104824000D01*
X138620000Y-104867000D01*
X138636000Y-104912000D01*
X138649000Y-104957000D01*
X138660000Y-105003000D01*
X138669000Y-105049000D01*
X138675000Y-105096000D01*
X138679000Y-105143000D01*
X138680000Y-105190000D01*
X138679000Y-105237000D01*
X138675000Y-105284000D01*
X138669000Y-105331000D01*
X138660000Y-105377000D01*
X138649000Y-105423000D01*
X138636000Y-105468000D01*
X138620000Y-105513000D01*
X138602000Y-105556000D01*
X138582000Y-105599000D01*
X138559000Y-105640000D01*
X138535000Y-105680000D01*
X138508000Y-105719000D01*
X138479000Y-105756000D01*
X138449000Y-105792000D01*
X138416000Y-105826000D01*
X138382000Y-105859000D01*
X138346000Y-105889000D01*
X138309000Y-105918000D01*
X138270000Y-105945000D01*
X138230000Y-105969000D01*
X138189000Y-105992000D01*
X138146000Y-106012000D01*
X138103000Y-106030000D01*
X138058000Y-106046000D01*
X138013000Y-106059000D01*
X137967000Y-106070000D01*
X137921000Y-106079000D01*
X137874000Y-106085000D01*
X137827000Y-106089000D01*
X137780000Y-106090000D01*
X135280000Y-106090000D01*
X135280000Y-104290000D01*
X137780000Y-104290000D01*
X137827000Y-104291000D01*
G36*
X137827000Y-104291000D02*
G01*
X137874000Y-104295000D01*
X137921000Y-104301000D01*
X137967000Y-104310000D01*
X138013000Y-104321000D01*
X138058000Y-104334000D01*
X138103000Y-104350000D01*
X138146000Y-104368000D01*
X138189000Y-104388000D01*
X138230000Y-104411000D01*
X138270000Y-104435000D01*
X138309000Y-104462000D01*
X138346000Y-104491000D01*
X138382000Y-104521000D01*
X138416000Y-104554000D01*
X138449000Y-104588000D01*
X138479000Y-104624000D01*
X138508000Y-104661000D01*
X138535000Y-104700000D01*
X138559000Y-104740000D01*
X138582000Y-104781000D01*
X138602000Y-104824000D01*
X138620000Y-104867000D01*
X138636000Y-104912000D01*
X138649000Y-104957000D01*
X138660000Y-105003000D01*
X138669000Y-105049000D01*
X138675000Y-105096000D01*
X138679000Y-105143000D01*
X138680000Y-105190000D01*
X138679000Y-105237000D01*
X138675000Y-105284000D01*
X138669000Y-105331000D01*
X138660000Y-105377000D01*
X138649000Y-105423000D01*
X138636000Y-105468000D01*
X138620000Y-105513000D01*
X138602000Y-105556000D01*
X138582000Y-105599000D01*
X138559000Y-105640000D01*
X138535000Y-105680000D01*
X138508000Y-105719000D01*
X138479000Y-105756000D01*
X138449000Y-105792000D01*
X138416000Y-105826000D01*
X138382000Y-105859000D01*
X138346000Y-105889000D01*
X138309000Y-105918000D01*
X138270000Y-105945000D01*
X138230000Y-105969000D01*
X138189000Y-105992000D01*
X138146000Y-106012000D01*
X138103000Y-106030000D01*
X138058000Y-106046000D01*
X138013000Y-106059000D01*
X137967000Y-106070000D01*
X137921000Y-106079000D01*
X137874000Y-106085000D01*
X137827000Y-106089000D01*
X137780000Y-106090000D01*
X135280000Y-106090000D01*
X135280000Y-104290000D01*
X137780000Y-104290000D01*
X137827000Y-104291000D01*
G37*
X137827000Y-106831000D02*
X137874000Y-106835000D01*
X137921000Y-106841000D01*
X137967000Y-106850000D01*
X138013000Y-106861000D01*
X138058000Y-106874000D01*
X138103000Y-106890000D01*
X138146000Y-106908000D01*
X138189000Y-106928000D01*
X138230000Y-106951000D01*
X138270000Y-106975000D01*
X138309000Y-107002000D01*
X138346000Y-107031000D01*
X138382000Y-107061000D01*
X138416000Y-107094000D01*
X138449000Y-107128000D01*
X138479000Y-107164000D01*
X138508000Y-107201000D01*
X138535000Y-107240000D01*
X138559000Y-107280000D01*
X138582000Y-107321000D01*
X138602000Y-107364000D01*
X138620000Y-107407000D01*
X138636000Y-107452000D01*
X138649000Y-107497000D01*
X138660000Y-107543000D01*
X138669000Y-107589000D01*
X138675000Y-107636000D01*
X138679000Y-107683000D01*
X138680000Y-107730000D01*
X138679000Y-107777000D01*
X138675000Y-107824000D01*
X138669000Y-107871000D01*
X138660000Y-107917000D01*
X138649000Y-107963000D01*
X138636000Y-108008000D01*
X138620000Y-108053000D01*
X138602000Y-108096000D01*
X138582000Y-108139000D01*
X138559000Y-108180000D01*
X138535000Y-108220000D01*
X138508000Y-108259000D01*
X138479000Y-108296000D01*
X138449000Y-108332000D01*
X138416000Y-108366000D01*
X138382000Y-108399000D01*
X138346000Y-108429000D01*
X138309000Y-108458000D01*
X138270000Y-108485000D01*
X138230000Y-108509000D01*
X138189000Y-108532000D01*
X138146000Y-108552000D01*
X138103000Y-108570000D01*
X138058000Y-108586000D01*
X138013000Y-108599000D01*
X137967000Y-108610000D01*
X137921000Y-108619000D01*
X137874000Y-108625000D01*
X137827000Y-108629000D01*
X137780000Y-108630000D01*
X135280000Y-108630000D01*
X135280000Y-106830000D01*
X137780000Y-106830000D01*
X137827000Y-106831000D01*
G36*
X137827000Y-106831000D02*
G01*
X137874000Y-106835000D01*
X137921000Y-106841000D01*
X137967000Y-106850000D01*
X138013000Y-106861000D01*
X138058000Y-106874000D01*
X138103000Y-106890000D01*
X138146000Y-106908000D01*
X138189000Y-106928000D01*
X138230000Y-106951000D01*
X138270000Y-106975000D01*
X138309000Y-107002000D01*
X138346000Y-107031000D01*
X138382000Y-107061000D01*
X138416000Y-107094000D01*
X138449000Y-107128000D01*
X138479000Y-107164000D01*
X138508000Y-107201000D01*
X138535000Y-107240000D01*
X138559000Y-107280000D01*
X138582000Y-107321000D01*
X138602000Y-107364000D01*
X138620000Y-107407000D01*
X138636000Y-107452000D01*
X138649000Y-107497000D01*
X138660000Y-107543000D01*
X138669000Y-107589000D01*
X138675000Y-107636000D01*
X138679000Y-107683000D01*
X138680000Y-107730000D01*
X138679000Y-107777000D01*
X138675000Y-107824000D01*
X138669000Y-107871000D01*
X138660000Y-107917000D01*
X138649000Y-107963000D01*
X138636000Y-108008000D01*
X138620000Y-108053000D01*
X138602000Y-108096000D01*
X138582000Y-108139000D01*
X138559000Y-108180000D01*
X138535000Y-108220000D01*
X138508000Y-108259000D01*
X138479000Y-108296000D01*
X138449000Y-108332000D01*
X138416000Y-108366000D01*
X138382000Y-108399000D01*
X138346000Y-108429000D01*
X138309000Y-108458000D01*
X138270000Y-108485000D01*
X138230000Y-108509000D01*
X138189000Y-108532000D01*
X138146000Y-108552000D01*
X138103000Y-108570000D01*
X138058000Y-108586000D01*
X138013000Y-108599000D01*
X137967000Y-108610000D01*
X137921000Y-108619000D01*
X137874000Y-108625000D01*
X137827000Y-108629000D01*
X137780000Y-108630000D01*
X135280000Y-108630000D01*
X135280000Y-106830000D01*
X137780000Y-106830000D01*
X137827000Y-106831000D01*
G37*
X137827000Y-111911000D02*
X137874000Y-111915000D01*
X137921000Y-111921000D01*
X137967000Y-111930000D01*
X138013000Y-111941000D01*
X138058000Y-111954000D01*
X138103000Y-111970000D01*
X138146000Y-111988000D01*
X138189000Y-112008000D01*
X138230000Y-112031000D01*
X138270000Y-112055000D01*
X138309000Y-112082000D01*
X138346000Y-112111000D01*
X138382000Y-112141000D01*
X138416000Y-112174000D01*
X138449000Y-112208000D01*
X138479000Y-112244000D01*
X138508000Y-112281000D01*
X138535000Y-112320000D01*
X138559000Y-112360000D01*
X138582000Y-112401000D01*
X138602000Y-112444000D01*
X138620000Y-112487000D01*
X138636000Y-112532000D01*
X138649000Y-112577000D01*
X138660000Y-112623000D01*
X138669000Y-112669000D01*
X138675000Y-112716000D01*
X138679000Y-112763000D01*
X138680000Y-112810000D01*
X138679000Y-112857000D01*
X138675000Y-112904000D01*
X138669000Y-112951000D01*
X138660000Y-112997000D01*
X138649000Y-113043000D01*
X138636000Y-113088000D01*
X138620000Y-113133000D01*
X138602000Y-113176000D01*
X138582000Y-113219000D01*
X138559000Y-113260000D01*
X138535000Y-113300000D01*
X138508000Y-113339000D01*
X138479000Y-113376000D01*
X138449000Y-113412000D01*
X138416000Y-113446000D01*
X138382000Y-113479000D01*
X138346000Y-113509000D01*
X138309000Y-113538000D01*
X138270000Y-113565000D01*
X138230000Y-113589000D01*
X138189000Y-113612000D01*
X138146000Y-113632000D01*
X138103000Y-113650000D01*
X138058000Y-113666000D01*
X138013000Y-113679000D01*
X137967000Y-113690000D01*
X137921000Y-113699000D01*
X137874000Y-113705000D01*
X137827000Y-113709000D01*
X137780000Y-113710000D01*
X135280000Y-113710000D01*
X135280000Y-111910000D01*
X137780000Y-111910000D01*
X137827000Y-111911000D01*
G36*
X137827000Y-111911000D02*
G01*
X137874000Y-111915000D01*
X137921000Y-111921000D01*
X137967000Y-111930000D01*
X138013000Y-111941000D01*
X138058000Y-111954000D01*
X138103000Y-111970000D01*
X138146000Y-111988000D01*
X138189000Y-112008000D01*
X138230000Y-112031000D01*
X138270000Y-112055000D01*
X138309000Y-112082000D01*
X138346000Y-112111000D01*
X138382000Y-112141000D01*
X138416000Y-112174000D01*
X138449000Y-112208000D01*
X138479000Y-112244000D01*
X138508000Y-112281000D01*
X138535000Y-112320000D01*
X138559000Y-112360000D01*
X138582000Y-112401000D01*
X138602000Y-112444000D01*
X138620000Y-112487000D01*
X138636000Y-112532000D01*
X138649000Y-112577000D01*
X138660000Y-112623000D01*
X138669000Y-112669000D01*
X138675000Y-112716000D01*
X138679000Y-112763000D01*
X138680000Y-112810000D01*
X138679000Y-112857000D01*
X138675000Y-112904000D01*
X138669000Y-112951000D01*
X138660000Y-112997000D01*
X138649000Y-113043000D01*
X138636000Y-113088000D01*
X138620000Y-113133000D01*
X138602000Y-113176000D01*
X138582000Y-113219000D01*
X138559000Y-113260000D01*
X138535000Y-113300000D01*
X138508000Y-113339000D01*
X138479000Y-113376000D01*
X138449000Y-113412000D01*
X138416000Y-113446000D01*
X138382000Y-113479000D01*
X138346000Y-113509000D01*
X138309000Y-113538000D01*
X138270000Y-113565000D01*
X138230000Y-113589000D01*
X138189000Y-113612000D01*
X138146000Y-113632000D01*
X138103000Y-113650000D01*
X138058000Y-113666000D01*
X138013000Y-113679000D01*
X137967000Y-113690000D01*
X137921000Y-113699000D01*
X137874000Y-113705000D01*
X137827000Y-113709000D01*
X137780000Y-113710000D01*
X135280000Y-113710000D01*
X135280000Y-111910000D01*
X137780000Y-111910000D01*
X137827000Y-111911000D01*
G37*
X137827000Y-114451000D02*
X137874000Y-114455000D01*
X137921000Y-114461000D01*
X137967000Y-114470000D01*
X138013000Y-114481000D01*
X138058000Y-114494000D01*
X138103000Y-114510000D01*
X138146000Y-114528000D01*
X138189000Y-114548000D01*
X138230000Y-114571000D01*
X138270000Y-114595000D01*
X138309000Y-114622000D01*
X138346000Y-114651000D01*
X138382000Y-114681000D01*
X138416000Y-114714000D01*
X138449000Y-114748000D01*
X138479000Y-114784000D01*
X138508000Y-114821000D01*
X138535000Y-114860000D01*
X138559000Y-114900000D01*
X138582000Y-114941000D01*
X138602000Y-114984000D01*
X138620000Y-115027000D01*
X138636000Y-115072000D01*
X138649000Y-115117000D01*
X138660000Y-115163000D01*
X138669000Y-115209000D01*
X138675000Y-115256000D01*
X138679000Y-115303000D01*
X138680000Y-115350000D01*
X138679000Y-115397000D01*
X138675000Y-115444000D01*
X138669000Y-115491000D01*
X138660000Y-115537000D01*
X138649000Y-115583000D01*
X138636000Y-115628000D01*
X138620000Y-115673000D01*
X138602000Y-115716000D01*
X138582000Y-115759000D01*
X138559000Y-115800000D01*
X138535000Y-115840000D01*
X138508000Y-115879000D01*
X138479000Y-115916000D01*
X138449000Y-115952000D01*
X138416000Y-115986000D01*
X138382000Y-116019000D01*
X138346000Y-116049000D01*
X138309000Y-116078000D01*
X138270000Y-116105000D01*
X138230000Y-116129000D01*
X138189000Y-116152000D01*
X138146000Y-116172000D01*
X138103000Y-116190000D01*
X138058000Y-116206000D01*
X138013000Y-116219000D01*
X137967000Y-116230000D01*
X137921000Y-116239000D01*
X137874000Y-116245000D01*
X137827000Y-116249000D01*
X137780000Y-116250000D01*
X135280000Y-116250000D01*
X135280000Y-114450000D01*
X137780000Y-114450000D01*
X137827000Y-114451000D01*
G36*
X137827000Y-114451000D02*
G01*
X137874000Y-114455000D01*
X137921000Y-114461000D01*
X137967000Y-114470000D01*
X138013000Y-114481000D01*
X138058000Y-114494000D01*
X138103000Y-114510000D01*
X138146000Y-114528000D01*
X138189000Y-114548000D01*
X138230000Y-114571000D01*
X138270000Y-114595000D01*
X138309000Y-114622000D01*
X138346000Y-114651000D01*
X138382000Y-114681000D01*
X138416000Y-114714000D01*
X138449000Y-114748000D01*
X138479000Y-114784000D01*
X138508000Y-114821000D01*
X138535000Y-114860000D01*
X138559000Y-114900000D01*
X138582000Y-114941000D01*
X138602000Y-114984000D01*
X138620000Y-115027000D01*
X138636000Y-115072000D01*
X138649000Y-115117000D01*
X138660000Y-115163000D01*
X138669000Y-115209000D01*
X138675000Y-115256000D01*
X138679000Y-115303000D01*
X138680000Y-115350000D01*
X138679000Y-115397000D01*
X138675000Y-115444000D01*
X138669000Y-115491000D01*
X138660000Y-115537000D01*
X138649000Y-115583000D01*
X138636000Y-115628000D01*
X138620000Y-115673000D01*
X138602000Y-115716000D01*
X138582000Y-115759000D01*
X138559000Y-115800000D01*
X138535000Y-115840000D01*
X138508000Y-115879000D01*
X138479000Y-115916000D01*
X138449000Y-115952000D01*
X138416000Y-115986000D01*
X138382000Y-116019000D01*
X138346000Y-116049000D01*
X138309000Y-116078000D01*
X138270000Y-116105000D01*
X138230000Y-116129000D01*
X138189000Y-116152000D01*
X138146000Y-116172000D01*
X138103000Y-116190000D01*
X138058000Y-116206000D01*
X138013000Y-116219000D01*
X137967000Y-116230000D01*
X137921000Y-116239000D01*
X137874000Y-116245000D01*
X137827000Y-116249000D01*
X137780000Y-116250000D01*
X135280000Y-116250000D01*
X135280000Y-114450000D01*
X137780000Y-114450000D01*
X137827000Y-114451000D01*
G37*
X158060000Y-67990000D02*
X155560000Y-67990000D01*
X155513000Y-67989000D01*
X155466000Y-67985000D01*
X155419000Y-67979000D01*
X155373000Y-67970000D01*
X155327000Y-67959000D01*
X155282000Y-67946000D01*
X155237000Y-67930000D01*
X155194000Y-67912000D01*
X155151000Y-67892000D01*
X155110000Y-67869000D01*
X155070000Y-67845000D01*
X155031000Y-67818000D01*
X154994000Y-67789000D01*
X154958000Y-67759000D01*
X154924000Y-67726000D01*
X154891000Y-67692000D01*
X154861000Y-67656000D01*
X154832000Y-67619000D01*
X154805000Y-67580000D01*
X154781000Y-67540000D01*
X154758000Y-67499000D01*
X154738000Y-67456000D01*
X154720000Y-67413000D01*
X154704000Y-67368000D01*
X154691000Y-67323000D01*
X154680000Y-67277000D01*
X154671000Y-67231000D01*
X154665000Y-67184000D01*
X154661000Y-67137000D01*
X154660000Y-67090000D01*
X154661000Y-67043000D01*
X154665000Y-66996000D01*
X154671000Y-66949000D01*
X154680000Y-66903000D01*
X154691000Y-66857000D01*
X154704000Y-66812000D01*
X154720000Y-66767000D01*
X154738000Y-66724000D01*
X154758000Y-66681000D01*
X154781000Y-66640000D01*
X154805000Y-66600000D01*
X154832000Y-66561000D01*
X154861000Y-66524000D01*
X154891000Y-66488000D01*
X154924000Y-66454000D01*
X154958000Y-66421000D01*
X154994000Y-66391000D01*
X155031000Y-66362000D01*
X155070000Y-66335000D01*
X155110000Y-66311000D01*
X155151000Y-66288000D01*
X155194000Y-66268000D01*
X155237000Y-66250000D01*
X155282000Y-66234000D01*
X155327000Y-66221000D01*
X155373000Y-66210000D01*
X155419000Y-66201000D01*
X155466000Y-66195000D01*
X155513000Y-66191000D01*
X155560000Y-66190000D01*
X158060000Y-66190000D01*
X158060000Y-67990000D01*
G36*
X158060000Y-67990000D02*
G01*
X155560000Y-67990000D01*
X155513000Y-67989000D01*
X155466000Y-67985000D01*
X155419000Y-67979000D01*
X155373000Y-67970000D01*
X155327000Y-67959000D01*
X155282000Y-67946000D01*
X155237000Y-67930000D01*
X155194000Y-67912000D01*
X155151000Y-67892000D01*
X155110000Y-67869000D01*
X155070000Y-67845000D01*
X155031000Y-67818000D01*
X154994000Y-67789000D01*
X154958000Y-67759000D01*
X154924000Y-67726000D01*
X154891000Y-67692000D01*
X154861000Y-67656000D01*
X154832000Y-67619000D01*
X154805000Y-67580000D01*
X154781000Y-67540000D01*
X154758000Y-67499000D01*
X154738000Y-67456000D01*
X154720000Y-67413000D01*
X154704000Y-67368000D01*
X154691000Y-67323000D01*
X154680000Y-67277000D01*
X154671000Y-67231000D01*
X154665000Y-67184000D01*
X154661000Y-67137000D01*
X154660000Y-67090000D01*
X154661000Y-67043000D01*
X154665000Y-66996000D01*
X154671000Y-66949000D01*
X154680000Y-66903000D01*
X154691000Y-66857000D01*
X154704000Y-66812000D01*
X154720000Y-66767000D01*
X154738000Y-66724000D01*
X154758000Y-66681000D01*
X154781000Y-66640000D01*
X154805000Y-66600000D01*
X154832000Y-66561000D01*
X154861000Y-66524000D01*
X154891000Y-66488000D01*
X154924000Y-66454000D01*
X154958000Y-66421000D01*
X154994000Y-66391000D01*
X155031000Y-66362000D01*
X155070000Y-66335000D01*
X155110000Y-66311000D01*
X155151000Y-66288000D01*
X155194000Y-66268000D01*
X155237000Y-66250000D01*
X155282000Y-66234000D01*
X155327000Y-66221000D01*
X155373000Y-66210000D01*
X155419000Y-66201000D01*
X155466000Y-66195000D01*
X155513000Y-66191000D01*
X155560000Y-66190000D01*
X158060000Y-66190000D01*
X158060000Y-67990000D01*
G37*
X158060000Y-70530000D02*
X155560000Y-70530000D01*
X155513000Y-70529000D01*
X155466000Y-70525000D01*
X155419000Y-70519000D01*
X155373000Y-70510000D01*
X155327000Y-70499000D01*
X155282000Y-70486000D01*
X155237000Y-70470000D01*
X155194000Y-70452000D01*
X155151000Y-70432000D01*
X155110000Y-70409000D01*
X155070000Y-70385000D01*
X155031000Y-70358000D01*
X154994000Y-70329000D01*
X154958000Y-70299000D01*
X154924000Y-70266000D01*
X154891000Y-70232000D01*
X154861000Y-70196000D01*
X154832000Y-70159000D01*
X154805000Y-70120000D01*
X154781000Y-70080000D01*
X154758000Y-70039000D01*
X154738000Y-69996000D01*
X154720000Y-69953000D01*
X154704000Y-69908000D01*
X154691000Y-69863000D01*
X154680000Y-69817000D01*
X154671000Y-69771000D01*
X154665000Y-69724000D01*
X154661000Y-69677000D01*
X154660000Y-69630000D01*
X154661000Y-69583000D01*
X154665000Y-69536000D01*
X154671000Y-69489000D01*
X154680000Y-69443000D01*
X154691000Y-69397000D01*
X154704000Y-69352000D01*
X154720000Y-69307000D01*
X154738000Y-69264000D01*
X154758000Y-69221000D01*
X154781000Y-69180000D01*
X154805000Y-69140000D01*
X154832000Y-69101000D01*
X154861000Y-69064000D01*
X154891000Y-69028000D01*
X154924000Y-68994000D01*
X154958000Y-68961000D01*
X154994000Y-68931000D01*
X155031000Y-68902000D01*
X155070000Y-68875000D01*
X155110000Y-68851000D01*
X155151000Y-68828000D01*
X155194000Y-68808000D01*
X155237000Y-68790000D01*
X155282000Y-68774000D01*
X155327000Y-68761000D01*
X155373000Y-68750000D01*
X155419000Y-68741000D01*
X155466000Y-68735000D01*
X155513000Y-68731000D01*
X155560000Y-68730000D01*
X158060000Y-68730000D01*
X158060000Y-70530000D01*
G36*
X158060000Y-70530000D02*
G01*
X155560000Y-70530000D01*
X155513000Y-70529000D01*
X155466000Y-70525000D01*
X155419000Y-70519000D01*
X155373000Y-70510000D01*
X155327000Y-70499000D01*
X155282000Y-70486000D01*
X155237000Y-70470000D01*
X155194000Y-70452000D01*
X155151000Y-70432000D01*
X155110000Y-70409000D01*
X155070000Y-70385000D01*
X155031000Y-70358000D01*
X154994000Y-70329000D01*
X154958000Y-70299000D01*
X154924000Y-70266000D01*
X154891000Y-70232000D01*
X154861000Y-70196000D01*
X154832000Y-70159000D01*
X154805000Y-70120000D01*
X154781000Y-70080000D01*
X154758000Y-70039000D01*
X154738000Y-69996000D01*
X154720000Y-69953000D01*
X154704000Y-69908000D01*
X154691000Y-69863000D01*
X154680000Y-69817000D01*
X154671000Y-69771000D01*
X154665000Y-69724000D01*
X154661000Y-69677000D01*
X154660000Y-69630000D01*
X154661000Y-69583000D01*
X154665000Y-69536000D01*
X154671000Y-69489000D01*
X154680000Y-69443000D01*
X154691000Y-69397000D01*
X154704000Y-69352000D01*
X154720000Y-69307000D01*
X154738000Y-69264000D01*
X154758000Y-69221000D01*
X154781000Y-69180000D01*
X154805000Y-69140000D01*
X154832000Y-69101000D01*
X154861000Y-69064000D01*
X154891000Y-69028000D01*
X154924000Y-68994000D01*
X154958000Y-68961000D01*
X154994000Y-68931000D01*
X155031000Y-68902000D01*
X155070000Y-68875000D01*
X155110000Y-68851000D01*
X155151000Y-68828000D01*
X155194000Y-68808000D01*
X155237000Y-68790000D01*
X155282000Y-68774000D01*
X155327000Y-68761000D01*
X155373000Y-68750000D01*
X155419000Y-68741000D01*
X155466000Y-68735000D01*
X155513000Y-68731000D01*
X155560000Y-68730000D01*
X158060000Y-68730000D01*
X158060000Y-70530000D01*
G37*
X158060000Y-75610000D02*
X155560000Y-75610000D01*
X155513000Y-75609000D01*
X155466000Y-75605000D01*
X155419000Y-75599000D01*
X155373000Y-75590000D01*
X155327000Y-75579000D01*
X155282000Y-75566000D01*
X155237000Y-75550000D01*
X155194000Y-75532000D01*
X155151000Y-75512000D01*
X155110000Y-75489000D01*
X155070000Y-75465000D01*
X155031000Y-75438000D01*
X154994000Y-75409000D01*
X154958000Y-75379000D01*
X154924000Y-75346000D01*
X154891000Y-75312000D01*
X154861000Y-75276000D01*
X154832000Y-75239000D01*
X154805000Y-75200000D01*
X154781000Y-75160000D01*
X154758000Y-75119000D01*
X154738000Y-75076000D01*
X154720000Y-75033000D01*
X154704000Y-74988000D01*
X154691000Y-74943000D01*
X154680000Y-74897000D01*
X154671000Y-74851000D01*
X154665000Y-74804000D01*
X154661000Y-74757000D01*
X154660000Y-74710000D01*
X154661000Y-74663000D01*
X154665000Y-74616000D01*
X154671000Y-74569000D01*
X154680000Y-74523000D01*
X154691000Y-74477000D01*
X154704000Y-74432000D01*
X154720000Y-74387000D01*
X154738000Y-74344000D01*
X154758000Y-74301000D01*
X154781000Y-74260000D01*
X154805000Y-74220000D01*
X154832000Y-74181000D01*
X154861000Y-74144000D01*
X154891000Y-74108000D01*
X154924000Y-74074000D01*
X154958000Y-74041000D01*
X154994000Y-74011000D01*
X155031000Y-73982000D01*
X155070000Y-73955000D01*
X155110000Y-73931000D01*
X155151000Y-73908000D01*
X155194000Y-73888000D01*
X155237000Y-73870000D01*
X155282000Y-73854000D01*
X155327000Y-73841000D01*
X155373000Y-73830000D01*
X155419000Y-73821000D01*
X155466000Y-73815000D01*
X155513000Y-73811000D01*
X155560000Y-73810000D01*
X158060000Y-73810000D01*
X158060000Y-75610000D01*
G36*
X158060000Y-75610000D02*
G01*
X155560000Y-75610000D01*
X155513000Y-75609000D01*
X155466000Y-75605000D01*
X155419000Y-75599000D01*
X155373000Y-75590000D01*
X155327000Y-75579000D01*
X155282000Y-75566000D01*
X155237000Y-75550000D01*
X155194000Y-75532000D01*
X155151000Y-75512000D01*
X155110000Y-75489000D01*
X155070000Y-75465000D01*
X155031000Y-75438000D01*
X154994000Y-75409000D01*
X154958000Y-75379000D01*
X154924000Y-75346000D01*
X154891000Y-75312000D01*
X154861000Y-75276000D01*
X154832000Y-75239000D01*
X154805000Y-75200000D01*
X154781000Y-75160000D01*
X154758000Y-75119000D01*
X154738000Y-75076000D01*
X154720000Y-75033000D01*
X154704000Y-74988000D01*
X154691000Y-74943000D01*
X154680000Y-74897000D01*
X154671000Y-74851000D01*
X154665000Y-74804000D01*
X154661000Y-74757000D01*
X154660000Y-74710000D01*
X154661000Y-74663000D01*
X154665000Y-74616000D01*
X154671000Y-74569000D01*
X154680000Y-74523000D01*
X154691000Y-74477000D01*
X154704000Y-74432000D01*
X154720000Y-74387000D01*
X154738000Y-74344000D01*
X154758000Y-74301000D01*
X154781000Y-74260000D01*
X154805000Y-74220000D01*
X154832000Y-74181000D01*
X154861000Y-74144000D01*
X154891000Y-74108000D01*
X154924000Y-74074000D01*
X154958000Y-74041000D01*
X154994000Y-74011000D01*
X155031000Y-73982000D01*
X155070000Y-73955000D01*
X155110000Y-73931000D01*
X155151000Y-73908000D01*
X155194000Y-73888000D01*
X155237000Y-73870000D01*
X155282000Y-73854000D01*
X155327000Y-73841000D01*
X155373000Y-73830000D01*
X155419000Y-73821000D01*
X155466000Y-73815000D01*
X155513000Y-73811000D01*
X155560000Y-73810000D01*
X158060000Y-73810000D01*
X158060000Y-75610000D01*
G37*
X158060000Y-78150000D02*
X155560000Y-78150000D01*
X155513000Y-78149000D01*
X155466000Y-78145000D01*
X155419000Y-78139000D01*
X155373000Y-78130000D01*
X155327000Y-78119000D01*
X155282000Y-78106000D01*
X155237000Y-78090000D01*
X155194000Y-78072000D01*
X155151000Y-78052000D01*
X155110000Y-78029000D01*
X155070000Y-78005000D01*
X155031000Y-77978000D01*
X154994000Y-77949000D01*
X154958000Y-77919000D01*
X154924000Y-77886000D01*
X154891000Y-77852000D01*
X154861000Y-77816000D01*
X154832000Y-77779000D01*
X154805000Y-77740000D01*
X154781000Y-77700000D01*
X154758000Y-77659000D01*
X154738000Y-77616000D01*
X154720000Y-77573000D01*
X154704000Y-77528000D01*
X154691000Y-77483000D01*
X154680000Y-77437000D01*
X154671000Y-77391000D01*
X154665000Y-77344000D01*
X154661000Y-77297000D01*
X154660000Y-77250000D01*
X154661000Y-77203000D01*
X154665000Y-77156000D01*
X154671000Y-77109000D01*
X154680000Y-77063000D01*
X154691000Y-77017000D01*
X154704000Y-76972000D01*
X154720000Y-76927000D01*
X154738000Y-76884000D01*
X154758000Y-76841000D01*
X154781000Y-76800000D01*
X154805000Y-76760000D01*
X154832000Y-76721000D01*
X154861000Y-76684000D01*
X154891000Y-76648000D01*
X154924000Y-76614000D01*
X154958000Y-76581000D01*
X154994000Y-76551000D01*
X155031000Y-76522000D01*
X155070000Y-76495000D01*
X155110000Y-76471000D01*
X155151000Y-76448000D01*
X155194000Y-76428000D01*
X155237000Y-76410000D01*
X155282000Y-76394000D01*
X155327000Y-76381000D01*
X155373000Y-76370000D01*
X155419000Y-76361000D01*
X155466000Y-76355000D01*
X155513000Y-76351000D01*
X155560000Y-76350000D01*
X158060000Y-76350000D01*
X158060000Y-78150000D01*
G36*
X158060000Y-78150000D02*
G01*
X155560000Y-78150000D01*
X155513000Y-78149000D01*
X155466000Y-78145000D01*
X155419000Y-78139000D01*
X155373000Y-78130000D01*
X155327000Y-78119000D01*
X155282000Y-78106000D01*
X155237000Y-78090000D01*
X155194000Y-78072000D01*
X155151000Y-78052000D01*
X155110000Y-78029000D01*
X155070000Y-78005000D01*
X155031000Y-77978000D01*
X154994000Y-77949000D01*
X154958000Y-77919000D01*
X154924000Y-77886000D01*
X154891000Y-77852000D01*
X154861000Y-77816000D01*
X154832000Y-77779000D01*
X154805000Y-77740000D01*
X154781000Y-77700000D01*
X154758000Y-77659000D01*
X154738000Y-77616000D01*
X154720000Y-77573000D01*
X154704000Y-77528000D01*
X154691000Y-77483000D01*
X154680000Y-77437000D01*
X154671000Y-77391000D01*
X154665000Y-77344000D01*
X154661000Y-77297000D01*
X154660000Y-77250000D01*
X154661000Y-77203000D01*
X154665000Y-77156000D01*
X154671000Y-77109000D01*
X154680000Y-77063000D01*
X154691000Y-77017000D01*
X154704000Y-76972000D01*
X154720000Y-76927000D01*
X154738000Y-76884000D01*
X154758000Y-76841000D01*
X154781000Y-76800000D01*
X154805000Y-76760000D01*
X154832000Y-76721000D01*
X154861000Y-76684000D01*
X154891000Y-76648000D01*
X154924000Y-76614000D01*
X154958000Y-76581000D01*
X154994000Y-76551000D01*
X155031000Y-76522000D01*
X155070000Y-76495000D01*
X155110000Y-76471000D01*
X155151000Y-76448000D01*
X155194000Y-76428000D01*
X155237000Y-76410000D01*
X155282000Y-76394000D01*
X155327000Y-76381000D01*
X155373000Y-76370000D01*
X155419000Y-76361000D01*
X155466000Y-76355000D01*
X155513000Y-76351000D01*
X155560000Y-76350000D01*
X158060000Y-76350000D01*
X158060000Y-78150000D01*
G37*
X158060000Y-80690000D02*
X155560000Y-80690000D01*
X155513000Y-80689000D01*
X155466000Y-80685000D01*
X155419000Y-80679000D01*
X155373000Y-80670000D01*
X155327000Y-80659000D01*
X155282000Y-80646000D01*
X155237000Y-80630000D01*
X155194000Y-80612000D01*
X155151000Y-80592000D01*
X155110000Y-80569000D01*
X155070000Y-80545000D01*
X155031000Y-80518000D01*
X154994000Y-80489000D01*
X154958000Y-80459000D01*
X154924000Y-80426000D01*
X154891000Y-80392000D01*
X154861000Y-80356000D01*
X154832000Y-80319000D01*
X154805000Y-80280000D01*
X154781000Y-80240000D01*
X154758000Y-80199000D01*
X154738000Y-80156000D01*
X154720000Y-80113000D01*
X154704000Y-80068000D01*
X154691000Y-80023000D01*
X154680000Y-79977000D01*
X154671000Y-79931000D01*
X154665000Y-79884000D01*
X154661000Y-79837000D01*
X154660000Y-79790000D01*
X154661000Y-79743000D01*
X154665000Y-79696000D01*
X154671000Y-79649000D01*
X154680000Y-79603000D01*
X154691000Y-79557000D01*
X154704000Y-79512000D01*
X154720000Y-79467000D01*
X154738000Y-79424000D01*
X154758000Y-79381000D01*
X154781000Y-79340000D01*
X154805000Y-79300000D01*
X154832000Y-79261000D01*
X154861000Y-79224000D01*
X154891000Y-79188000D01*
X154924000Y-79154000D01*
X154958000Y-79121000D01*
X154994000Y-79091000D01*
X155031000Y-79062000D01*
X155070000Y-79035000D01*
X155110000Y-79011000D01*
X155151000Y-78988000D01*
X155194000Y-78968000D01*
X155237000Y-78950000D01*
X155282000Y-78934000D01*
X155327000Y-78921000D01*
X155373000Y-78910000D01*
X155419000Y-78901000D01*
X155466000Y-78895000D01*
X155513000Y-78891000D01*
X155560000Y-78890000D01*
X158060000Y-78890000D01*
X158060000Y-80690000D01*
G36*
X158060000Y-80690000D02*
G01*
X155560000Y-80690000D01*
X155513000Y-80689000D01*
X155466000Y-80685000D01*
X155419000Y-80679000D01*
X155373000Y-80670000D01*
X155327000Y-80659000D01*
X155282000Y-80646000D01*
X155237000Y-80630000D01*
X155194000Y-80612000D01*
X155151000Y-80592000D01*
X155110000Y-80569000D01*
X155070000Y-80545000D01*
X155031000Y-80518000D01*
X154994000Y-80489000D01*
X154958000Y-80459000D01*
X154924000Y-80426000D01*
X154891000Y-80392000D01*
X154861000Y-80356000D01*
X154832000Y-80319000D01*
X154805000Y-80280000D01*
X154781000Y-80240000D01*
X154758000Y-80199000D01*
X154738000Y-80156000D01*
X154720000Y-80113000D01*
X154704000Y-80068000D01*
X154691000Y-80023000D01*
X154680000Y-79977000D01*
X154671000Y-79931000D01*
X154665000Y-79884000D01*
X154661000Y-79837000D01*
X154660000Y-79790000D01*
X154661000Y-79743000D01*
X154665000Y-79696000D01*
X154671000Y-79649000D01*
X154680000Y-79603000D01*
X154691000Y-79557000D01*
X154704000Y-79512000D01*
X154720000Y-79467000D01*
X154738000Y-79424000D01*
X154758000Y-79381000D01*
X154781000Y-79340000D01*
X154805000Y-79300000D01*
X154832000Y-79261000D01*
X154861000Y-79224000D01*
X154891000Y-79188000D01*
X154924000Y-79154000D01*
X154958000Y-79121000D01*
X154994000Y-79091000D01*
X155031000Y-79062000D01*
X155070000Y-79035000D01*
X155110000Y-79011000D01*
X155151000Y-78988000D01*
X155194000Y-78968000D01*
X155237000Y-78950000D01*
X155282000Y-78934000D01*
X155327000Y-78921000D01*
X155373000Y-78910000D01*
X155419000Y-78901000D01*
X155466000Y-78895000D01*
X155513000Y-78891000D01*
X155560000Y-78890000D01*
X158060000Y-78890000D01*
X158060000Y-80690000D01*
G37*
X158060000Y-83230000D02*
X155560000Y-83230000D01*
X155513000Y-83229000D01*
X155466000Y-83225000D01*
X155419000Y-83219000D01*
X155373000Y-83210000D01*
X155327000Y-83199000D01*
X155282000Y-83186000D01*
X155237000Y-83170000D01*
X155194000Y-83152000D01*
X155151000Y-83132000D01*
X155110000Y-83109000D01*
X155070000Y-83085000D01*
X155031000Y-83058000D01*
X154994000Y-83029000D01*
X154958000Y-82999000D01*
X154924000Y-82966000D01*
X154891000Y-82932000D01*
X154861000Y-82896000D01*
X154832000Y-82859000D01*
X154805000Y-82820000D01*
X154781000Y-82780000D01*
X154758000Y-82739000D01*
X154738000Y-82696000D01*
X154720000Y-82653000D01*
X154704000Y-82608000D01*
X154691000Y-82563000D01*
X154680000Y-82517000D01*
X154671000Y-82471000D01*
X154665000Y-82424000D01*
X154661000Y-82377000D01*
X154660000Y-82330000D01*
X154661000Y-82283000D01*
X154665000Y-82236000D01*
X154671000Y-82189000D01*
X154680000Y-82143000D01*
X154691000Y-82097000D01*
X154704000Y-82052000D01*
X154720000Y-82007000D01*
X154738000Y-81964000D01*
X154758000Y-81921000D01*
X154781000Y-81880000D01*
X154805000Y-81840000D01*
X154832000Y-81801000D01*
X154861000Y-81764000D01*
X154891000Y-81728000D01*
X154924000Y-81694000D01*
X154958000Y-81661000D01*
X154994000Y-81631000D01*
X155031000Y-81602000D01*
X155070000Y-81575000D01*
X155110000Y-81551000D01*
X155151000Y-81528000D01*
X155194000Y-81508000D01*
X155237000Y-81490000D01*
X155282000Y-81474000D01*
X155327000Y-81461000D01*
X155373000Y-81450000D01*
X155419000Y-81441000D01*
X155466000Y-81435000D01*
X155513000Y-81431000D01*
X155560000Y-81430000D01*
X158060000Y-81430000D01*
X158060000Y-83230000D01*
G36*
X158060000Y-83230000D02*
G01*
X155560000Y-83230000D01*
X155513000Y-83229000D01*
X155466000Y-83225000D01*
X155419000Y-83219000D01*
X155373000Y-83210000D01*
X155327000Y-83199000D01*
X155282000Y-83186000D01*
X155237000Y-83170000D01*
X155194000Y-83152000D01*
X155151000Y-83132000D01*
X155110000Y-83109000D01*
X155070000Y-83085000D01*
X155031000Y-83058000D01*
X154994000Y-83029000D01*
X154958000Y-82999000D01*
X154924000Y-82966000D01*
X154891000Y-82932000D01*
X154861000Y-82896000D01*
X154832000Y-82859000D01*
X154805000Y-82820000D01*
X154781000Y-82780000D01*
X154758000Y-82739000D01*
X154738000Y-82696000D01*
X154720000Y-82653000D01*
X154704000Y-82608000D01*
X154691000Y-82563000D01*
X154680000Y-82517000D01*
X154671000Y-82471000D01*
X154665000Y-82424000D01*
X154661000Y-82377000D01*
X154660000Y-82330000D01*
X154661000Y-82283000D01*
X154665000Y-82236000D01*
X154671000Y-82189000D01*
X154680000Y-82143000D01*
X154691000Y-82097000D01*
X154704000Y-82052000D01*
X154720000Y-82007000D01*
X154738000Y-81964000D01*
X154758000Y-81921000D01*
X154781000Y-81880000D01*
X154805000Y-81840000D01*
X154832000Y-81801000D01*
X154861000Y-81764000D01*
X154891000Y-81728000D01*
X154924000Y-81694000D01*
X154958000Y-81661000D01*
X154994000Y-81631000D01*
X155031000Y-81602000D01*
X155070000Y-81575000D01*
X155110000Y-81551000D01*
X155151000Y-81528000D01*
X155194000Y-81508000D01*
X155237000Y-81490000D01*
X155282000Y-81474000D01*
X155327000Y-81461000D01*
X155373000Y-81450000D01*
X155419000Y-81441000D01*
X155466000Y-81435000D01*
X155513000Y-81431000D01*
X155560000Y-81430000D01*
X158060000Y-81430000D01*
X158060000Y-83230000D01*
G37*
X158060000Y-88310000D02*
X155560000Y-88310000D01*
X155513000Y-88309000D01*
X155466000Y-88305000D01*
X155419000Y-88299000D01*
X155373000Y-88290000D01*
X155327000Y-88279000D01*
X155282000Y-88266000D01*
X155237000Y-88250000D01*
X155194000Y-88232000D01*
X155151000Y-88212000D01*
X155110000Y-88189000D01*
X155070000Y-88165000D01*
X155031000Y-88138000D01*
X154994000Y-88109000D01*
X154958000Y-88079000D01*
X154924000Y-88046000D01*
X154891000Y-88012000D01*
X154861000Y-87976000D01*
X154832000Y-87939000D01*
X154805000Y-87900000D01*
X154781000Y-87860000D01*
X154758000Y-87819000D01*
X154738000Y-87776000D01*
X154720000Y-87733000D01*
X154704000Y-87688000D01*
X154691000Y-87643000D01*
X154680000Y-87597000D01*
X154671000Y-87551000D01*
X154665000Y-87504000D01*
X154661000Y-87457000D01*
X154660000Y-87410000D01*
X154661000Y-87363000D01*
X154665000Y-87316000D01*
X154671000Y-87269000D01*
X154680000Y-87223000D01*
X154691000Y-87177000D01*
X154704000Y-87132000D01*
X154720000Y-87087000D01*
X154738000Y-87044000D01*
X154758000Y-87001000D01*
X154781000Y-86960000D01*
X154805000Y-86920000D01*
X154832000Y-86881000D01*
X154861000Y-86844000D01*
X154891000Y-86808000D01*
X154924000Y-86774000D01*
X154958000Y-86741000D01*
X154994000Y-86711000D01*
X155031000Y-86682000D01*
X155070000Y-86655000D01*
X155110000Y-86631000D01*
X155151000Y-86608000D01*
X155194000Y-86588000D01*
X155237000Y-86570000D01*
X155282000Y-86554000D01*
X155327000Y-86541000D01*
X155373000Y-86530000D01*
X155419000Y-86521000D01*
X155466000Y-86515000D01*
X155513000Y-86511000D01*
X155560000Y-86510000D01*
X158060000Y-86510000D01*
X158060000Y-88310000D01*
G36*
X158060000Y-88310000D02*
G01*
X155560000Y-88310000D01*
X155513000Y-88309000D01*
X155466000Y-88305000D01*
X155419000Y-88299000D01*
X155373000Y-88290000D01*
X155327000Y-88279000D01*
X155282000Y-88266000D01*
X155237000Y-88250000D01*
X155194000Y-88232000D01*
X155151000Y-88212000D01*
X155110000Y-88189000D01*
X155070000Y-88165000D01*
X155031000Y-88138000D01*
X154994000Y-88109000D01*
X154958000Y-88079000D01*
X154924000Y-88046000D01*
X154891000Y-88012000D01*
X154861000Y-87976000D01*
X154832000Y-87939000D01*
X154805000Y-87900000D01*
X154781000Y-87860000D01*
X154758000Y-87819000D01*
X154738000Y-87776000D01*
X154720000Y-87733000D01*
X154704000Y-87688000D01*
X154691000Y-87643000D01*
X154680000Y-87597000D01*
X154671000Y-87551000D01*
X154665000Y-87504000D01*
X154661000Y-87457000D01*
X154660000Y-87410000D01*
X154661000Y-87363000D01*
X154665000Y-87316000D01*
X154671000Y-87269000D01*
X154680000Y-87223000D01*
X154691000Y-87177000D01*
X154704000Y-87132000D01*
X154720000Y-87087000D01*
X154738000Y-87044000D01*
X154758000Y-87001000D01*
X154781000Y-86960000D01*
X154805000Y-86920000D01*
X154832000Y-86881000D01*
X154861000Y-86844000D01*
X154891000Y-86808000D01*
X154924000Y-86774000D01*
X154958000Y-86741000D01*
X154994000Y-86711000D01*
X155031000Y-86682000D01*
X155070000Y-86655000D01*
X155110000Y-86631000D01*
X155151000Y-86608000D01*
X155194000Y-86588000D01*
X155237000Y-86570000D01*
X155282000Y-86554000D01*
X155327000Y-86541000D01*
X155373000Y-86530000D01*
X155419000Y-86521000D01*
X155466000Y-86515000D01*
X155513000Y-86511000D01*
X155560000Y-86510000D01*
X158060000Y-86510000D01*
X158060000Y-88310000D01*
G37*
X158060000Y-90850000D02*
X155560000Y-90850000D01*
X155513000Y-90849000D01*
X155466000Y-90845000D01*
X155419000Y-90839000D01*
X155373000Y-90830000D01*
X155327000Y-90819000D01*
X155282000Y-90806000D01*
X155237000Y-90790000D01*
X155194000Y-90772000D01*
X155151000Y-90752000D01*
X155110000Y-90729000D01*
X155070000Y-90705000D01*
X155031000Y-90678000D01*
X154994000Y-90649000D01*
X154958000Y-90619000D01*
X154924000Y-90586000D01*
X154891000Y-90552000D01*
X154861000Y-90516000D01*
X154832000Y-90479000D01*
X154805000Y-90440000D01*
X154781000Y-90400000D01*
X154758000Y-90359000D01*
X154738000Y-90316000D01*
X154720000Y-90273000D01*
X154704000Y-90228000D01*
X154691000Y-90183000D01*
X154680000Y-90137000D01*
X154671000Y-90091000D01*
X154665000Y-90044000D01*
X154661000Y-89997000D01*
X154660000Y-89950000D01*
X154661000Y-89903000D01*
X154665000Y-89856000D01*
X154671000Y-89809000D01*
X154680000Y-89763000D01*
X154691000Y-89717000D01*
X154704000Y-89672000D01*
X154720000Y-89627000D01*
X154738000Y-89584000D01*
X154758000Y-89541000D01*
X154781000Y-89500000D01*
X154805000Y-89460000D01*
X154832000Y-89421000D01*
X154861000Y-89384000D01*
X154891000Y-89348000D01*
X154924000Y-89314000D01*
X154958000Y-89281000D01*
X154994000Y-89251000D01*
X155031000Y-89222000D01*
X155070000Y-89195000D01*
X155110000Y-89171000D01*
X155151000Y-89148000D01*
X155194000Y-89128000D01*
X155237000Y-89110000D01*
X155282000Y-89094000D01*
X155327000Y-89081000D01*
X155373000Y-89070000D01*
X155419000Y-89061000D01*
X155466000Y-89055000D01*
X155513000Y-89051000D01*
X155560000Y-89050000D01*
X158060000Y-89050000D01*
X158060000Y-90850000D01*
G36*
X158060000Y-90850000D02*
G01*
X155560000Y-90850000D01*
X155513000Y-90849000D01*
X155466000Y-90845000D01*
X155419000Y-90839000D01*
X155373000Y-90830000D01*
X155327000Y-90819000D01*
X155282000Y-90806000D01*
X155237000Y-90790000D01*
X155194000Y-90772000D01*
X155151000Y-90752000D01*
X155110000Y-90729000D01*
X155070000Y-90705000D01*
X155031000Y-90678000D01*
X154994000Y-90649000D01*
X154958000Y-90619000D01*
X154924000Y-90586000D01*
X154891000Y-90552000D01*
X154861000Y-90516000D01*
X154832000Y-90479000D01*
X154805000Y-90440000D01*
X154781000Y-90400000D01*
X154758000Y-90359000D01*
X154738000Y-90316000D01*
X154720000Y-90273000D01*
X154704000Y-90228000D01*
X154691000Y-90183000D01*
X154680000Y-90137000D01*
X154671000Y-90091000D01*
X154665000Y-90044000D01*
X154661000Y-89997000D01*
X154660000Y-89950000D01*
X154661000Y-89903000D01*
X154665000Y-89856000D01*
X154671000Y-89809000D01*
X154680000Y-89763000D01*
X154691000Y-89717000D01*
X154704000Y-89672000D01*
X154720000Y-89627000D01*
X154738000Y-89584000D01*
X154758000Y-89541000D01*
X154781000Y-89500000D01*
X154805000Y-89460000D01*
X154832000Y-89421000D01*
X154861000Y-89384000D01*
X154891000Y-89348000D01*
X154924000Y-89314000D01*
X154958000Y-89281000D01*
X154994000Y-89251000D01*
X155031000Y-89222000D01*
X155070000Y-89195000D01*
X155110000Y-89171000D01*
X155151000Y-89148000D01*
X155194000Y-89128000D01*
X155237000Y-89110000D01*
X155282000Y-89094000D01*
X155327000Y-89081000D01*
X155373000Y-89070000D01*
X155419000Y-89061000D01*
X155466000Y-89055000D01*
X155513000Y-89051000D01*
X155560000Y-89050000D01*
X158060000Y-89050000D01*
X158060000Y-90850000D01*
G37*
X158060000Y-93390000D02*
X155560000Y-93390000D01*
X155513000Y-93389000D01*
X155466000Y-93385000D01*
X155419000Y-93379000D01*
X155373000Y-93370000D01*
X155327000Y-93359000D01*
X155282000Y-93346000D01*
X155237000Y-93330000D01*
X155194000Y-93312000D01*
X155151000Y-93292000D01*
X155110000Y-93269000D01*
X155070000Y-93245000D01*
X155031000Y-93218000D01*
X154994000Y-93189000D01*
X154958000Y-93159000D01*
X154924000Y-93126000D01*
X154891000Y-93092000D01*
X154861000Y-93056000D01*
X154832000Y-93019000D01*
X154805000Y-92980000D01*
X154781000Y-92940000D01*
X154758000Y-92899000D01*
X154738000Y-92856000D01*
X154720000Y-92813000D01*
X154704000Y-92768000D01*
X154691000Y-92723000D01*
X154680000Y-92677000D01*
X154671000Y-92631000D01*
X154665000Y-92584000D01*
X154661000Y-92537000D01*
X154660000Y-92490000D01*
X154661000Y-92443000D01*
X154665000Y-92396000D01*
X154671000Y-92349000D01*
X154680000Y-92303000D01*
X154691000Y-92257000D01*
X154704000Y-92212000D01*
X154720000Y-92167000D01*
X154738000Y-92124000D01*
X154758000Y-92081000D01*
X154781000Y-92040000D01*
X154805000Y-92000000D01*
X154832000Y-91961000D01*
X154861000Y-91924000D01*
X154891000Y-91888000D01*
X154924000Y-91854000D01*
X154958000Y-91821000D01*
X154994000Y-91791000D01*
X155031000Y-91762000D01*
X155070000Y-91735000D01*
X155110000Y-91711000D01*
X155151000Y-91688000D01*
X155194000Y-91668000D01*
X155237000Y-91650000D01*
X155282000Y-91634000D01*
X155327000Y-91621000D01*
X155373000Y-91610000D01*
X155419000Y-91601000D01*
X155466000Y-91595000D01*
X155513000Y-91591000D01*
X155560000Y-91590000D01*
X158060000Y-91590000D01*
X158060000Y-93390000D01*
G36*
X158060000Y-93390000D02*
G01*
X155560000Y-93390000D01*
X155513000Y-93389000D01*
X155466000Y-93385000D01*
X155419000Y-93379000D01*
X155373000Y-93370000D01*
X155327000Y-93359000D01*
X155282000Y-93346000D01*
X155237000Y-93330000D01*
X155194000Y-93312000D01*
X155151000Y-93292000D01*
X155110000Y-93269000D01*
X155070000Y-93245000D01*
X155031000Y-93218000D01*
X154994000Y-93189000D01*
X154958000Y-93159000D01*
X154924000Y-93126000D01*
X154891000Y-93092000D01*
X154861000Y-93056000D01*
X154832000Y-93019000D01*
X154805000Y-92980000D01*
X154781000Y-92940000D01*
X154758000Y-92899000D01*
X154738000Y-92856000D01*
X154720000Y-92813000D01*
X154704000Y-92768000D01*
X154691000Y-92723000D01*
X154680000Y-92677000D01*
X154671000Y-92631000D01*
X154665000Y-92584000D01*
X154661000Y-92537000D01*
X154660000Y-92490000D01*
X154661000Y-92443000D01*
X154665000Y-92396000D01*
X154671000Y-92349000D01*
X154680000Y-92303000D01*
X154691000Y-92257000D01*
X154704000Y-92212000D01*
X154720000Y-92167000D01*
X154738000Y-92124000D01*
X154758000Y-92081000D01*
X154781000Y-92040000D01*
X154805000Y-92000000D01*
X154832000Y-91961000D01*
X154861000Y-91924000D01*
X154891000Y-91888000D01*
X154924000Y-91854000D01*
X154958000Y-91821000D01*
X154994000Y-91791000D01*
X155031000Y-91762000D01*
X155070000Y-91735000D01*
X155110000Y-91711000D01*
X155151000Y-91688000D01*
X155194000Y-91668000D01*
X155237000Y-91650000D01*
X155282000Y-91634000D01*
X155327000Y-91621000D01*
X155373000Y-91610000D01*
X155419000Y-91601000D01*
X155466000Y-91595000D01*
X155513000Y-91591000D01*
X155560000Y-91590000D01*
X158060000Y-91590000D01*
X158060000Y-93390000D01*
G37*
X158060000Y-95930000D02*
X155560000Y-95930000D01*
X155513000Y-95929000D01*
X155466000Y-95925000D01*
X155419000Y-95919000D01*
X155373000Y-95910000D01*
X155327000Y-95899000D01*
X155282000Y-95886000D01*
X155237000Y-95870000D01*
X155194000Y-95852000D01*
X155151000Y-95832000D01*
X155110000Y-95809000D01*
X155070000Y-95785000D01*
X155031000Y-95758000D01*
X154994000Y-95729000D01*
X154958000Y-95699000D01*
X154924000Y-95666000D01*
X154891000Y-95632000D01*
X154861000Y-95596000D01*
X154832000Y-95559000D01*
X154805000Y-95520000D01*
X154781000Y-95480000D01*
X154758000Y-95439000D01*
X154738000Y-95396000D01*
X154720000Y-95353000D01*
X154704000Y-95308000D01*
X154691000Y-95263000D01*
X154680000Y-95217000D01*
X154671000Y-95171000D01*
X154665000Y-95124000D01*
X154661000Y-95077000D01*
X154660000Y-95030000D01*
X154661000Y-94983000D01*
X154665000Y-94936000D01*
X154671000Y-94889000D01*
X154680000Y-94843000D01*
X154691000Y-94797000D01*
X154704000Y-94752000D01*
X154720000Y-94707000D01*
X154738000Y-94664000D01*
X154758000Y-94621000D01*
X154781000Y-94580000D01*
X154805000Y-94540000D01*
X154832000Y-94501000D01*
X154861000Y-94464000D01*
X154891000Y-94428000D01*
X154924000Y-94394000D01*
X154958000Y-94361000D01*
X154994000Y-94331000D01*
X155031000Y-94302000D01*
X155070000Y-94275000D01*
X155110000Y-94251000D01*
X155151000Y-94228000D01*
X155194000Y-94208000D01*
X155237000Y-94190000D01*
X155282000Y-94174000D01*
X155327000Y-94161000D01*
X155373000Y-94150000D01*
X155419000Y-94141000D01*
X155466000Y-94135000D01*
X155513000Y-94131000D01*
X155560000Y-94130000D01*
X158060000Y-94130000D01*
X158060000Y-95930000D01*
G36*
X158060000Y-95930000D02*
G01*
X155560000Y-95930000D01*
X155513000Y-95929000D01*
X155466000Y-95925000D01*
X155419000Y-95919000D01*
X155373000Y-95910000D01*
X155327000Y-95899000D01*
X155282000Y-95886000D01*
X155237000Y-95870000D01*
X155194000Y-95852000D01*
X155151000Y-95832000D01*
X155110000Y-95809000D01*
X155070000Y-95785000D01*
X155031000Y-95758000D01*
X154994000Y-95729000D01*
X154958000Y-95699000D01*
X154924000Y-95666000D01*
X154891000Y-95632000D01*
X154861000Y-95596000D01*
X154832000Y-95559000D01*
X154805000Y-95520000D01*
X154781000Y-95480000D01*
X154758000Y-95439000D01*
X154738000Y-95396000D01*
X154720000Y-95353000D01*
X154704000Y-95308000D01*
X154691000Y-95263000D01*
X154680000Y-95217000D01*
X154671000Y-95171000D01*
X154665000Y-95124000D01*
X154661000Y-95077000D01*
X154660000Y-95030000D01*
X154661000Y-94983000D01*
X154665000Y-94936000D01*
X154671000Y-94889000D01*
X154680000Y-94843000D01*
X154691000Y-94797000D01*
X154704000Y-94752000D01*
X154720000Y-94707000D01*
X154738000Y-94664000D01*
X154758000Y-94621000D01*
X154781000Y-94580000D01*
X154805000Y-94540000D01*
X154832000Y-94501000D01*
X154861000Y-94464000D01*
X154891000Y-94428000D01*
X154924000Y-94394000D01*
X154958000Y-94361000D01*
X154994000Y-94331000D01*
X155031000Y-94302000D01*
X155070000Y-94275000D01*
X155110000Y-94251000D01*
X155151000Y-94228000D01*
X155194000Y-94208000D01*
X155237000Y-94190000D01*
X155282000Y-94174000D01*
X155327000Y-94161000D01*
X155373000Y-94150000D01*
X155419000Y-94141000D01*
X155466000Y-94135000D01*
X155513000Y-94131000D01*
X155560000Y-94130000D01*
X158060000Y-94130000D01*
X158060000Y-95930000D01*
G37*
X158060000Y-101010000D02*
X155560000Y-101010000D01*
X155513000Y-101009000D01*
X155466000Y-101005000D01*
X155419000Y-100999000D01*
X155373000Y-100990000D01*
X155327000Y-100979000D01*
X155282000Y-100966000D01*
X155237000Y-100950000D01*
X155194000Y-100932000D01*
X155151000Y-100912000D01*
X155110000Y-100889000D01*
X155070000Y-100865000D01*
X155031000Y-100838000D01*
X154994000Y-100809000D01*
X154958000Y-100779000D01*
X154924000Y-100746000D01*
X154891000Y-100712000D01*
X154861000Y-100676000D01*
X154832000Y-100639000D01*
X154805000Y-100600000D01*
X154781000Y-100560000D01*
X154758000Y-100519000D01*
X154738000Y-100476000D01*
X154720000Y-100433000D01*
X154704000Y-100388000D01*
X154691000Y-100343000D01*
X154680000Y-100297000D01*
X154671000Y-100251000D01*
X154665000Y-100204000D01*
X154661000Y-100157000D01*
X154660000Y-100110000D01*
X154661000Y-100063000D01*
X154665000Y-100016000D01*
X154671000Y-99969000D01*
X154680000Y-99923000D01*
X154691000Y-99877000D01*
X154704000Y-99832000D01*
X154720000Y-99787000D01*
X154738000Y-99744000D01*
X154758000Y-99701000D01*
X154781000Y-99660000D01*
X154805000Y-99620000D01*
X154832000Y-99581000D01*
X154861000Y-99544000D01*
X154891000Y-99508000D01*
X154924000Y-99474000D01*
X154958000Y-99441000D01*
X154994000Y-99411000D01*
X155031000Y-99382000D01*
X155070000Y-99355000D01*
X155110000Y-99331000D01*
X155151000Y-99308000D01*
X155194000Y-99288000D01*
X155237000Y-99270000D01*
X155282000Y-99254000D01*
X155327000Y-99241000D01*
X155373000Y-99230000D01*
X155419000Y-99221000D01*
X155466000Y-99215000D01*
X155513000Y-99211000D01*
X155560000Y-99210000D01*
X158060000Y-99210000D01*
X158060000Y-101010000D01*
G36*
X158060000Y-101010000D02*
G01*
X155560000Y-101010000D01*
X155513000Y-101009000D01*
X155466000Y-101005000D01*
X155419000Y-100999000D01*
X155373000Y-100990000D01*
X155327000Y-100979000D01*
X155282000Y-100966000D01*
X155237000Y-100950000D01*
X155194000Y-100932000D01*
X155151000Y-100912000D01*
X155110000Y-100889000D01*
X155070000Y-100865000D01*
X155031000Y-100838000D01*
X154994000Y-100809000D01*
X154958000Y-100779000D01*
X154924000Y-100746000D01*
X154891000Y-100712000D01*
X154861000Y-100676000D01*
X154832000Y-100639000D01*
X154805000Y-100600000D01*
X154781000Y-100560000D01*
X154758000Y-100519000D01*
X154738000Y-100476000D01*
X154720000Y-100433000D01*
X154704000Y-100388000D01*
X154691000Y-100343000D01*
X154680000Y-100297000D01*
X154671000Y-100251000D01*
X154665000Y-100204000D01*
X154661000Y-100157000D01*
X154660000Y-100110000D01*
X154661000Y-100063000D01*
X154665000Y-100016000D01*
X154671000Y-99969000D01*
X154680000Y-99923000D01*
X154691000Y-99877000D01*
X154704000Y-99832000D01*
X154720000Y-99787000D01*
X154738000Y-99744000D01*
X154758000Y-99701000D01*
X154781000Y-99660000D01*
X154805000Y-99620000D01*
X154832000Y-99581000D01*
X154861000Y-99544000D01*
X154891000Y-99508000D01*
X154924000Y-99474000D01*
X154958000Y-99441000D01*
X154994000Y-99411000D01*
X155031000Y-99382000D01*
X155070000Y-99355000D01*
X155110000Y-99331000D01*
X155151000Y-99308000D01*
X155194000Y-99288000D01*
X155237000Y-99270000D01*
X155282000Y-99254000D01*
X155327000Y-99241000D01*
X155373000Y-99230000D01*
X155419000Y-99221000D01*
X155466000Y-99215000D01*
X155513000Y-99211000D01*
X155560000Y-99210000D01*
X158060000Y-99210000D01*
X158060000Y-101010000D01*
G37*
X158060000Y-103550000D02*
X155560000Y-103550000D01*
X155513000Y-103549000D01*
X155466000Y-103545000D01*
X155419000Y-103539000D01*
X155373000Y-103530000D01*
X155327000Y-103519000D01*
X155282000Y-103506000D01*
X155237000Y-103490000D01*
X155194000Y-103472000D01*
X155151000Y-103452000D01*
X155110000Y-103429000D01*
X155070000Y-103405000D01*
X155031000Y-103378000D01*
X154994000Y-103349000D01*
X154958000Y-103319000D01*
X154924000Y-103286000D01*
X154891000Y-103252000D01*
X154861000Y-103216000D01*
X154832000Y-103179000D01*
X154805000Y-103140000D01*
X154781000Y-103100000D01*
X154758000Y-103059000D01*
X154738000Y-103016000D01*
X154720000Y-102973000D01*
X154704000Y-102928000D01*
X154691000Y-102883000D01*
X154680000Y-102837000D01*
X154671000Y-102791000D01*
X154665000Y-102744000D01*
X154661000Y-102697000D01*
X154660000Y-102650000D01*
X154661000Y-102603000D01*
X154665000Y-102556000D01*
X154671000Y-102509000D01*
X154680000Y-102463000D01*
X154691000Y-102417000D01*
X154704000Y-102372000D01*
X154720000Y-102327000D01*
X154738000Y-102284000D01*
X154758000Y-102241000D01*
X154781000Y-102200000D01*
X154805000Y-102160000D01*
X154832000Y-102121000D01*
X154861000Y-102084000D01*
X154891000Y-102048000D01*
X154924000Y-102014000D01*
X154958000Y-101981000D01*
X154994000Y-101951000D01*
X155031000Y-101922000D01*
X155070000Y-101895000D01*
X155110000Y-101871000D01*
X155151000Y-101848000D01*
X155194000Y-101828000D01*
X155237000Y-101810000D01*
X155282000Y-101794000D01*
X155327000Y-101781000D01*
X155373000Y-101770000D01*
X155419000Y-101761000D01*
X155466000Y-101755000D01*
X155513000Y-101751000D01*
X155560000Y-101750000D01*
X158060000Y-101750000D01*
X158060000Y-103550000D01*
G36*
X158060000Y-103550000D02*
G01*
X155560000Y-103550000D01*
X155513000Y-103549000D01*
X155466000Y-103545000D01*
X155419000Y-103539000D01*
X155373000Y-103530000D01*
X155327000Y-103519000D01*
X155282000Y-103506000D01*
X155237000Y-103490000D01*
X155194000Y-103472000D01*
X155151000Y-103452000D01*
X155110000Y-103429000D01*
X155070000Y-103405000D01*
X155031000Y-103378000D01*
X154994000Y-103349000D01*
X154958000Y-103319000D01*
X154924000Y-103286000D01*
X154891000Y-103252000D01*
X154861000Y-103216000D01*
X154832000Y-103179000D01*
X154805000Y-103140000D01*
X154781000Y-103100000D01*
X154758000Y-103059000D01*
X154738000Y-103016000D01*
X154720000Y-102973000D01*
X154704000Y-102928000D01*
X154691000Y-102883000D01*
X154680000Y-102837000D01*
X154671000Y-102791000D01*
X154665000Y-102744000D01*
X154661000Y-102697000D01*
X154660000Y-102650000D01*
X154661000Y-102603000D01*
X154665000Y-102556000D01*
X154671000Y-102509000D01*
X154680000Y-102463000D01*
X154691000Y-102417000D01*
X154704000Y-102372000D01*
X154720000Y-102327000D01*
X154738000Y-102284000D01*
X154758000Y-102241000D01*
X154781000Y-102200000D01*
X154805000Y-102160000D01*
X154832000Y-102121000D01*
X154861000Y-102084000D01*
X154891000Y-102048000D01*
X154924000Y-102014000D01*
X154958000Y-101981000D01*
X154994000Y-101951000D01*
X155031000Y-101922000D01*
X155070000Y-101895000D01*
X155110000Y-101871000D01*
X155151000Y-101848000D01*
X155194000Y-101828000D01*
X155237000Y-101810000D01*
X155282000Y-101794000D01*
X155327000Y-101781000D01*
X155373000Y-101770000D01*
X155419000Y-101761000D01*
X155466000Y-101755000D01*
X155513000Y-101751000D01*
X155560000Y-101750000D01*
X158060000Y-101750000D01*
X158060000Y-103550000D01*
G37*
X158060000Y-106090000D02*
X155560000Y-106090000D01*
X155513000Y-106089000D01*
X155466000Y-106085000D01*
X155419000Y-106079000D01*
X155373000Y-106070000D01*
X155327000Y-106059000D01*
X155282000Y-106046000D01*
X155237000Y-106030000D01*
X155194000Y-106012000D01*
X155151000Y-105992000D01*
X155110000Y-105969000D01*
X155070000Y-105945000D01*
X155031000Y-105918000D01*
X154994000Y-105889000D01*
X154958000Y-105859000D01*
X154924000Y-105826000D01*
X154891000Y-105792000D01*
X154861000Y-105756000D01*
X154832000Y-105719000D01*
X154805000Y-105680000D01*
X154781000Y-105640000D01*
X154758000Y-105599000D01*
X154738000Y-105556000D01*
X154720000Y-105513000D01*
X154704000Y-105468000D01*
X154691000Y-105423000D01*
X154680000Y-105377000D01*
X154671000Y-105331000D01*
X154665000Y-105284000D01*
X154661000Y-105237000D01*
X154660000Y-105190000D01*
X154661000Y-105143000D01*
X154665000Y-105096000D01*
X154671000Y-105049000D01*
X154680000Y-105003000D01*
X154691000Y-104957000D01*
X154704000Y-104912000D01*
X154720000Y-104867000D01*
X154738000Y-104824000D01*
X154758000Y-104781000D01*
X154781000Y-104740000D01*
X154805000Y-104700000D01*
X154832000Y-104661000D01*
X154861000Y-104624000D01*
X154891000Y-104588000D01*
X154924000Y-104554000D01*
X154958000Y-104521000D01*
X154994000Y-104491000D01*
X155031000Y-104462000D01*
X155070000Y-104435000D01*
X155110000Y-104411000D01*
X155151000Y-104388000D01*
X155194000Y-104368000D01*
X155237000Y-104350000D01*
X155282000Y-104334000D01*
X155327000Y-104321000D01*
X155373000Y-104310000D01*
X155419000Y-104301000D01*
X155466000Y-104295000D01*
X155513000Y-104291000D01*
X155560000Y-104290000D01*
X158060000Y-104290000D01*
X158060000Y-106090000D01*
G36*
X158060000Y-106090000D02*
G01*
X155560000Y-106090000D01*
X155513000Y-106089000D01*
X155466000Y-106085000D01*
X155419000Y-106079000D01*
X155373000Y-106070000D01*
X155327000Y-106059000D01*
X155282000Y-106046000D01*
X155237000Y-106030000D01*
X155194000Y-106012000D01*
X155151000Y-105992000D01*
X155110000Y-105969000D01*
X155070000Y-105945000D01*
X155031000Y-105918000D01*
X154994000Y-105889000D01*
X154958000Y-105859000D01*
X154924000Y-105826000D01*
X154891000Y-105792000D01*
X154861000Y-105756000D01*
X154832000Y-105719000D01*
X154805000Y-105680000D01*
X154781000Y-105640000D01*
X154758000Y-105599000D01*
X154738000Y-105556000D01*
X154720000Y-105513000D01*
X154704000Y-105468000D01*
X154691000Y-105423000D01*
X154680000Y-105377000D01*
X154671000Y-105331000D01*
X154665000Y-105284000D01*
X154661000Y-105237000D01*
X154660000Y-105190000D01*
X154661000Y-105143000D01*
X154665000Y-105096000D01*
X154671000Y-105049000D01*
X154680000Y-105003000D01*
X154691000Y-104957000D01*
X154704000Y-104912000D01*
X154720000Y-104867000D01*
X154738000Y-104824000D01*
X154758000Y-104781000D01*
X154781000Y-104740000D01*
X154805000Y-104700000D01*
X154832000Y-104661000D01*
X154861000Y-104624000D01*
X154891000Y-104588000D01*
X154924000Y-104554000D01*
X154958000Y-104521000D01*
X154994000Y-104491000D01*
X155031000Y-104462000D01*
X155070000Y-104435000D01*
X155110000Y-104411000D01*
X155151000Y-104388000D01*
X155194000Y-104368000D01*
X155237000Y-104350000D01*
X155282000Y-104334000D01*
X155327000Y-104321000D01*
X155373000Y-104310000D01*
X155419000Y-104301000D01*
X155466000Y-104295000D01*
X155513000Y-104291000D01*
X155560000Y-104290000D01*
X158060000Y-104290000D01*
X158060000Y-106090000D01*
G37*
X158060000Y-108630000D02*
X155560000Y-108630000D01*
X155513000Y-108629000D01*
X155466000Y-108625000D01*
X155419000Y-108619000D01*
X155373000Y-108610000D01*
X155327000Y-108599000D01*
X155282000Y-108586000D01*
X155237000Y-108570000D01*
X155194000Y-108552000D01*
X155151000Y-108532000D01*
X155110000Y-108509000D01*
X155070000Y-108485000D01*
X155031000Y-108458000D01*
X154994000Y-108429000D01*
X154958000Y-108399000D01*
X154924000Y-108366000D01*
X154891000Y-108332000D01*
X154861000Y-108296000D01*
X154832000Y-108259000D01*
X154805000Y-108220000D01*
X154781000Y-108180000D01*
X154758000Y-108139000D01*
X154738000Y-108096000D01*
X154720000Y-108053000D01*
X154704000Y-108008000D01*
X154691000Y-107963000D01*
X154680000Y-107917000D01*
X154671000Y-107871000D01*
X154665000Y-107824000D01*
X154661000Y-107777000D01*
X154660000Y-107730000D01*
X154661000Y-107683000D01*
X154665000Y-107636000D01*
X154671000Y-107589000D01*
X154680000Y-107543000D01*
X154691000Y-107497000D01*
X154704000Y-107452000D01*
X154720000Y-107407000D01*
X154738000Y-107364000D01*
X154758000Y-107321000D01*
X154781000Y-107280000D01*
X154805000Y-107240000D01*
X154832000Y-107201000D01*
X154861000Y-107164000D01*
X154891000Y-107128000D01*
X154924000Y-107094000D01*
X154958000Y-107061000D01*
X154994000Y-107031000D01*
X155031000Y-107002000D01*
X155070000Y-106975000D01*
X155110000Y-106951000D01*
X155151000Y-106928000D01*
X155194000Y-106908000D01*
X155237000Y-106890000D01*
X155282000Y-106874000D01*
X155327000Y-106861000D01*
X155373000Y-106850000D01*
X155419000Y-106841000D01*
X155466000Y-106835000D01*
X155513000Y-106831000D01*
X155560000Y-106830000D01*
X158060000Y-106830000D01*
X158060000Y-108630000D01*
G36*
X158060000Y-108630000D02*
G01*
X155560000Y-108630000D01*
X155513000Y-108629000D01*
X155466000Y-108625000D01*
X155419000Y-108619000D01*
X155373000Y-108610000D01*
X155327000Y-108599000D01*
X155282000Y-108586000D01*
X155237000Y-108570000D01*
X155194000Y-108552000D01*
X155151000Y-108532000D01*
X155110000Y-108509000D01*
X155070000Y-108485000D01*
X155031000Y-108458000D01*
X154994000Y-108429000D01*
X154958000Y-108399000D01*
X154924000Y-108366000D01*
X154891000Y-108332000D01*
X154861000Y-108296000D01*
X154832000Y-108259000D01*
X154805000Y-108220000D01*
X154781000Y-108180000D01*
X154758000Y-108139000D01*
X154738000Y-108096000D01*
X154720000Y-108053000D01*
X154704000Y-108008000D01*
X154691000Y-107963000D01*
X154680000Y-107917000D01*
X154671000Y-107871000D01*
X154665000Y-107824000D01*
X154661000Y-107777000D01*
X154660000Y-107730000D01*
X154661000Y-107683000D01*
X154665000Y-107636000D01*
X154671000Y-107589000D01*
X154680000Y-107543000D01*
X154691000Y-107497000D01*
X154704000Y-107452000D01*
X154720000Y-107407000D01*
X154738000Y-107364000D01*
X154758000Y-107321000D01*
X154781000Y-107280000D01*
X154805000Y-107240000D01*
X154832000Y-107201000D01*
X154861000Y-107164000D01*
X154891000Y-107128000D01*
X154924000Y-107094000D01*
X154958000Y-107061000D01*
X154994000Y-107031000D01*
X155031000Y-107002000D01*
X155070000Y-106975000D01*
X155110000Y-106951000D01*
X155151000Y-106928000D01*
X155194000Y-106908000D01*
X155237000Y-106890000D01*
X155282000Y-106874000D01*
X155327000Y-106861000D01*
X155373000Y-106850000D01*
X155419000Y-106841000D01*
X155466000Y-106835000D01*
X155513000Y-106831000D01*
X155560000Y-106830000D01*
X158060000Y-106830000D01*
X158060000Y-108630000D01*
G37*
X158060000Y-113710000D02*
X155560000Y-113710000D01*
X155513000Y-113709000D01*
X155466000Y-113705000D01*
X155419000Y-113699000D01*
X155373000Y-113690000D01*
X155327000Y-113679000D01*
X155282000Y-113666000D01*
X155237000Y-113650000D01*
X155194000Y-113632000D01*
X155151000Y-113612000D01*
X155110000Y-113589000D01*
X155070000Y-113565000D01*
X155031000Y-113538000D01*
X154994000Y-113509000D01*
X154958000Y-113479000D01*
X154924000Y-113446000D01*
X154891000Y-113412000D01*
X154861000Y-113376000D01*
X154832000Y-113339000D01*
X154805000Y-113300000D01*
X154781000Y-113260000D01*
X154758000Y-113219000D01*
X154738000Y-113176000D01*
X154720000Y-113133000D01*
X154704000Y-113088000D01*
X154691000Y-113043000D01*
X154680000Y-112997000D01*
X154671000Y-112951000D01*
X154665000Y-112904000D01*
X154661000Y-112857000D01*
X154660000Y-112810000D01*
X154661000Y-112763000D01*
X154665000Y-112716000D01*
X154671000Y-112669000D01*
X154680000Y-112623000D01*
X154691000Y-112577000D01*
X154704000Y-112532000D01*
X154720000Y-112487000D01*
X154738000Y-112444000D01*
X154758000Y-112401000D01*
X154781000Y-112360000D01*
X154805000Y-112320000D01*
X154832000Y-112281000D01*
X154861000Y-112244000D01*
X154891000Y-112208000D01*
X154924000Y-112174000D01*
X154958000Y-112141000D01*
X154994000Y-112111000D01*
X155031000Y-112082000D01*
X155070000Y-112055000D01*
X155110000Y-112031000D01*
X155151000Y-112008000D01*
X155194000Y-111988000D01*
X155237000Y-111970000D01*
X155282000Y-111954000D01*
X155327000Y-111941000D01*
X155373000Y-111930000D01*
X155419000Y-111921000D01*
X155466000Y-111915000D01*
X155513000Y-111911000D01*
X155560000Y-111910000D01*
X158060000Y-111910000D01*
X158060000Y-113710000D01*
G36*
X158060000Y-113710000D02*
G01*
X155560000Y-113710000D01*
X155513000Y-113709000D01*
X155466000Y-113705000D01*
X155419000Y-113699000D01*
X155373000Y-113690000D01*
X155327000Y-113679000D01*
X155282000Y-113666000D01*
X155237000Y-113650000D01*
X155194000Y-113632000D01*
X155151000Y-113612000D01*
X155110000Y-113589000D01*
X155070000Y-113565000D01*
X155031000Y-113538000D01*
X154994000Y-113509000D01*
X154958000Y-113479000D01*
X154924000Y-113446000D01*
X154891000Y-113412000D01*
X154861000Y-113376000D01*
X154832000Y-113339000D01*
X154805000Y-113300000D01*
X154781000Y-113260000D01*
X154758000Y-113219000D01*
X154738000Y-113176000D01*
X154720000Y-113133000D01*
X154704000Y-113088000D01*
X154691000Y-113043000D01*
X154680000Y-112997000D01*
X154671000Y-112951000D01*
X154665000Y-112904000D01*
X154661000Y-112857000D01*
X154660000Y-112810000D01*
X154661000Y-112763000D01*
X154665000Y-112716000D01*
X154671000Y-112669000D01*
X154680000Y-112623000D01*
X154691000Y-112577000D01*
X154704000Y-112532000D01*
X154720000Y-112487000D01*
X154738000Y-112444000D01*
X154758000Y-112401000D01*
X154781000Y-112360000D01*
X154805000Y-112320000D01*
X154832000Y-112281000D01*
X154861000Y-112244000D01*
X154891000Y-112208000D01*
X154924000Y-112174000D01*
X154958000Y-112141000D01*
X154994000Y-112111000D01*
X155031000Y-112082000D01*
X155070000Y-112055000D01*
X155110000Y-112031000D01*
X155151000Y-112008000D01*
X155194000Y-111988000D01*
X155237000Y-111970000D01*
X155282000Y-111954000D01*
X155327000Y-111941000D01*
X155373000Y-111930000D01*
X155419000Y-111921000D01*
X155466000Y-111915000D01*
X155513000Y-111911000D01*
X155560000Y-111910000D01*
X158060000Y-111910000D01*
X158060000Y-113710000D01*
G37*
X158060000Y-116250000D02*
X155560000Y-116250000D01*
X155513000Y-116249000D01*
X155466000Y-116245000D01*
X155419000Y-116239000D01*
X155373000Y-116230000D01*
X155327000Y-116219000D01*
X155282000Y-116206000D01*
X155237000Y-116190000D01*
X155194000Y-116172000D01*
X155151000Y-116152000D01*
X155110000Y-116129000D01*
X155070000Y-116105000D01*
X155031000Y-116078000D01*
X154994000Y-116049000D01*
X154958000Y-116019000D01*
X154924000Y-115986000D01*
X154891000Y-115952000D01*
X154861000Y-115916000D01*
X154832000Y-115879000D01*
X154805000Y-115840000D01*
X154781000Y-115800000D01*
X154758000Y-115759000D01*
X154738000Y-115716000D01*
X154720000Y-115673000D01*
X154704000Y-115628000D01*
X154691000Y-115583000D01*
X154680000Y-115537000D01*
X154671000Y-115491000D01*
X154665000Y-115444000D01*
X154661000Y-115397000D01*
X154660000Y-115350000D01*
X154661000Y-115303000D01*
X154665000Y-115256000D01*
X154671000Y-115209000D01*
X154680000Y-115163000D01*
X154691000Y-115117000D01*
X154704000Y-115072000D01*
X154720000Y-115027000D01*
X154738000Y-114984000D01*
X154758000Y-114941000D01*
X154781000Y-114900000D01*
X154805000Y-114860000D01*
X154832000Y-114821000D01*
X154861000Y-114784000D01*
X154891000Y-114748000D01*
X154924000Y-114714000D01*
X154958000Y-114681000D01*
X154994000Y-114651000D01*
X155031000Y-114622000D01*
X155070000Y-114595000D01*
X155110000Y-114571000D01*
X155151000Y-114548000D01*
X155194000Y-114528000D01*
X155237000Y-114510000D01*
X155282000Y-114494000D01*
X155327000Y-114481000D01*
X155373000Y-114470000D01*
X155419000Y-114461000D01*
X155466000Y-114455000D01*
X155513000Y-114451000D01*
X155560000Y-114450000D01*
X158060000Y-114450000D01*
X158060000Y-116250000D01*
G36*
X158060000Y-116250000D02*
G01*
X155560000Y-116250000D01*
X155513000Y-116249000D01*
X155466000Y-116245000D01*
X155419000Y-116239000D01*
X155373000Y-116230000D01*
X155327000Y-116219000D01*
X155282000Y-116206000D01*
X155237000Y-116190000D01*
X155194000Y-116172000D01*
X155151000Y-116152000D01*
X155110000Y-116129000D01*
X155070000Y-116105000D01*
X155031000Y-116078000D01*
X154994000Y-116049000D01*
X154958000Y-116019000D01*
X154924000Y-115986000D01*
X154891000Y-115952000D01*
X154861000Y-115916000D01*
X154832000Y-115879000D01*
X154805000Y-115840000D01*
X154781000Y-115800000D01*
X154758000Y-115759000D01*
X154738000Y-115716000D01*
X154720000Y-115673000D01*
X154704000Y-115628000D01*
X154691000Y-115583000D01*
X154680000Y-115537000D01*
X154671000Y-115491000D01*
X154665000Y-115444000D01*
X154661000Y-115397000D01*
X154660000Y-115350000D01*
X154661000Y-115303000D01*
X154665000Y-115256000D01*
X154671000Y-115209000D01*
X154680000Y-115163000D01*
X154691000Y-115117000D01*
X154704000Y-115072000D01*
X154720000Y-115027000D01*
X154738000Y-114984000D01*
X154758000Y-114941000D01*
X154781000Y-114900000D01*
X154805000Y-114860000D01*
X154832000Y-114821000D01*
X154861000Y-114784000D01*
X154891000Y-114748000D01*
X154924000Y-114714000D01*
X154958000Y-114681000D01*
X154994000Y-114651000D01*
X155031000Y-114622000D01*
X155070000Y-114595000D01*
X155110000Y-114571000D01*
X155151000Y-114548000D01*
X155194000Y-114528000D01*
X155237000Y-114510000D01*
X155282000Y-114494000D01*
X155327000Y-114481000D01*
X155373000Y-114470000D01*
X155419000Y-114461000D01*
X155466000Y-114455000D01*
X155513000Y-114451000D01*
X155560000Y-114450000D01*
X158060000Y-114450000D01*
X158060000Y-116250000D01*
G37*
X138411000Y-71272000D02*
X138427000Y-71274000D01*
X138442000Y-71277000D01*
X138458000Y-71280000D01*
X138473000Y-71285000D01*
X138488000Y-71290000D01*
X138502000Y-71296000D01*
X138516000Y-71303000D01*
X138530000Y-71310000D01*
X138543000Y-71318000D01*
X138556000Y-71327000D01*
X138569000Y-71337000D01*
X138581000Y-71347000D01*
X138592000Y-71358000D01*
X138603000Y-71369000D01*
X138613000Y-71381000D01*
X138623000Y-71394000D01*
X138632000Y-71407000D01*
X138640000Y-71420000D01*
X138647000Y-71434000D01*
X138654000Y-71448000D01*
X138660000Y-71462000D01*
X138665000Y-71477000D01*
X138670000Y-71492000D01*
X138673000Y-71508000D01*
X138676000Y-71523000D01*
X138678000Y-71539000D01*
X138680000Y-71554000D01*
X138680000Y-71570000D01*
X138680000Y-72770000D01*
X138680000Y-72786000D01*
X138678000Y-72801000D01*
X138676000Y-72817000D01*
X138673000Y-72832000D01*
X138670000Y-72848000D01*
X138665000Y-72863000D01*
X138660000Y-72878000D01*
X138654000Y-72892000D01*
X138647000Y-72906000D01*
X138640000Y-72920000D01*
X138632000Y-72933000D01*
X138623000Y-72946000D01*
X138613000Y-72959000D01*
X138603000Y-72971000D01*
X138592000Y-72982000D01*
X138581000Y-72993000D01*
X138569000Y-73003000D01*
X138556000Y-73013000D01*
X138543000Y-73022000D01*
X138530000Y-73030000D01*
X138516000Y-73037000D01*
X138502000Y-73044000D01*
X138488000Y-73050000D01*
X138473000Y-73055000D01*
X138458000Y-73060000D01*
X138442000Y-73063000D01*
X138427000Y-73066000D01*
X138411000Y-73068000D01*
X138396000Y-73070000D01*
X138380000Y-73070000D01*
X135280000Y-73070000D01*
X135280000Y-71270000D01*
X138380000Y-71270000D01*
X138396000Y-71270000D01*
X138411000Y-71272000D01*
G36*
X138411000Y-71272000D02*
G01*
X138427000Y-71274000D01*
X138442000Y-71277000D01*
X138458000Y-71280000D01*
X138473000Y-71285000D01*
X138488000Y-71290000D01*
X138502000Y-71296000D01*
X138516000Y-71303000D01*
X138530000Y-71310000D01*
X138543000Y-71318000D01*
X138556000Y-71327000D01*
X138569000Y-71337000D01*
X138581000Y-71347000D01*
X138592000Y-71358000D01*
X138603000Y-71369000D01*
X138613000Y-71381000D01*
X138623000Y-71394000D01*
X138632000Y-71407000D01*
X138640000Y-71420000D01*
X138647000Y-71434000D01*
X138654000Y-71448000D01*
X138660000Y-71462000D01*
X138665000Y-71477000D01*
X138670000Y-71492000D01*
X138673000Y-71508000D01*
X138676000Y-71523000D01*
X138678000Y-71539000D01*
X138680000Y-71554000D01*
X138680000Y-71570000D01*
X138680000Y-72770000D01*
X138680000Y-72786000D01*
X138678000Y-72801000D01*
X138676000Y-72817000D01*
X138673000Y-72832000D01*
X138670000Y-72848000D01*
X138665000Y-72863000D01*
X138660000Y-72878000D01*
X138654000Y-72892000D01*
X138647000Y-72906000D01*
X138640000Y-72920000D01*
X138632000Y-72933000D01*
X138623000Y-72946000D01*
X138613000Y-72959000D01*
X138603000Y-72971000D01*
X138592000Y-72982000D01*
X138581000Y-72993000D01*
X138569000Y-73003000D01*
X138556000Y-73013000D01*
X138543000Y-73022000D01*
X138530000Y-73030000D01*
X138516000Y-73037000D01*
X138502000Y-73044000D01*
X138488000Y-73050000D01*
X138473000Y-73055000D01*
X138458000Y-73060000D01*
X138442000Y-73063000D01*
X138427000Y-73066000D01*
X138411000Y-73068000D01*
X138396000Y-73070000D01*
X138380000Y-73070000D01*
X135280000Y-73070000D01*
X135280000Y-71270000D01*
X138380000Y-71270000D01*
X138396000Y-71270000D01*
X138411000Y-71272000D01*
G37*
X138411000Y-83972000D02*
X138427000Y-83974000D01*
X138442000Y-83977000D01*
X138458000Y-83980000D01*
X138473000Y-83985000D01*
X138488000Y-83990000D01*
X138502000Y-83996000D01*
X138516000Y-84003000D01*
X138530000Y-84010000D01*
X138543000Y-84018000D01*
X138556000Y-84027000D01*
X138569000Y-84037000D01*
X138581000Y-84047000D01*
X138592000Y-84058000D01*
X138603000Y-84069000D01*
X138613000Y-84081000D01*
X138623000Y-84094000D01*
X138632000Y-84107000D01*
X138640000Y-84120000D01*
X138647000Y-84134000D01*
X138654000Y-84148000D01*
X138660000Y-84162000D01*
X138665000Y-84177000D01*
X138670000Y-84192000D01*
X138673000Y-84208000D01*
X138676000Y-84223000D01*
X138678000Y-84239000D01*
X138680000Y-84254000D01*
X138680000Y-84270000D01*
X138680000Y-85470000D01*
X138680000Y-85486000D01*
X138678000Y-85501000D01*
X138676000Y-85517000D01*
X138673000Y-85532000D01*
X138670000Y-85548000D01*
X138665000Y-85563000D01*
X138660000Y-85578000D01*
X138654000Y-85592000D01*
X138647000Y-85606000D01*
X138640000Y-85620000D01*
X138632000Y-85633000D01*
X138623000Y-85646000D01*
X138613000Y-85659000D01*
X138603000Y-85671000D01*
X138592000Y-85682000D01*
X138581000Y-85693000D01*
X138569000Y-85703000D01*
X138556000Y-85713000D01*
X138543000Y-85722000D01*
X138530000Y-85730000D01*
X138516000Y-85737000D01*
X138502000Y-85744000D01*
X138488000Y-85750000D01*
X138473000Y-85755000D01*
X138458000Y-85760000D01*
X138442000Y-85763000D01*
X138427000Y-85766000D01*
X138411000Y-85768000D01*
X138396000Y-85770000D01*
X138380000Y-85770000D01*
X135280000Y-85770000D01*
X135280000Y-83970000D01*
X138380000Y-83970000D01*
X138396000Y-83970000D01*
X138411000Y-83972000D01*
G36*
X138411000Y-83972000D02*
G01*
X138427000Y-83974000D01*
X138442000Y-83977000D01*
X138458000Y-83980000D01*
X138473000Y-83985000D01*
X138488000Y-83990000D01*
X138502000Y-83996000D01*
X138516000Y-84003000D01*
X138530000Y-84010000D01*
X138543000Y-84018000D01*
X138556000Y-84027000D01*
X138569000Y-84037000D01*
X138581000Y-84047000D01*
X138592000Y-84058000D01*
X138603000Y-84069000D01*
X138613000Y-84081000D01*
X138623000Y-84094000D01*
X138632000Y-84107000D01*
X138640000Y-84120000D01*
X138647000Y-84134000D01*
X138654000Y-84148000D01*
X138660000Y-84162000D01*
X138665000Y-84177000D01*
X138670000Y-84192000D01*
X138673000Y-84208000D01*
X138676000Y-84223000D01*
X138678000Y-84239000D01*
X138680000Y-84254000D01*
X138680000Y-84270000D01*
X138680000Y-85470000D01*
X138680000Y-85486000D01*
X138678000Y-85501000D01*
X138676000Y-85517000D01*
X138673000Y-85532000D01*
X138670000Y-85548000D01*
X138665000Y-85563000D01*
X138660000Y-85578000D01*
X138654000Y-85592000D01*
X138647000Y-85606000D01*
X138640000Y-85620000D01*
X138632000Y-85633000D01*
X138623000Y-85646000D01*
X138613000Y-85659000D01*
X138603000Y-85671000D01*
X138592000Y-85682000D01*
X138581000Y-85693000D01*
X138569000Y-85703000D01*
X138556000Y-85713000D01*
X138543000Y-85722000D01*
X138530000Y-85730000D01*
X138516000Y-85737000D01*
X138502000Y-85744000D01*
X138488000Y-85750000D01*
X138473000Y-85755000D01*
X138458000Y-85760000D01*
X138442000Y-85763000D01*
X138427000Y-85766000D01*
X138411000Y-85768000D01*
X138396000Y-85770000D01*
X138380000Y-85770000D01*
X135280000Y-85770000D01*
X135280000Y-83970000D01*
X138380000Y-83970000D01*
X138396000Y-83970000D01*
X138411000Y-83972000D01*
G37*
X138411000Y-96672000D02*
X138427000Y-96674000D01*
X138442000Y-96677000D01*
X138458000Y-96680000D01*
X138473000Y-96685000D01*
X138488000Y-96690000D01*
X138502000Y-96696000D01*
X138516000Y-96703000D01*
X138530000Y-96710000D01*
X138543000Y-96718000D01*
X138556000Y-96727000D01*
X138569000Y-96737000D01*
X138581000Y-96747000D01*
X138592000Y-96758000D01*
X138603000Y-96769000D01*
X138613000Y-96781000D01*
X138623000Y-96794000D01*
X138632000Y-96807000D01*
X138640000Y-96820000D01*
X138647000Y-96834000D01*
X138654000Y-96848000D01*
X138660000Y-96862000D01*
X138665000Y-96877000D01*
X138670000Y-96892000D01*
X138673000Y-96908000D01*
X138676000Y-96923000D01*
X138678000Y-96939000D01*
X138680000Y-96954000D01*
X138680000Y-96970000D01*
X138680000Y-98170000D01*
X138680000Y-98186000D01*
X138678000Y-98201000D01*
X138676000Y-98217000D01*
X138673000Y-98232000D01*
X138670000Y-98248000D01*
X138665000Y-98263000D01*
X138660000Y-98278000D01*
X138654000Y-98292000D01*
X138647000Y-98306000D01*
X138640000Y-98320000D01*
X138632000Y-98333000D01*
X138623000Y-98346000D01*
X138613000Y-98359000D01*
X138603000Y-98371000D01*
X138592000Y-98382000D01*
X138581000Y-98393000D01*
X138569000Y-98403000D01*
X138556000Y-98413000D01*
X138543000Y-98422000D01*
X138530000Y-98430000D01*
X138516000Y-98437000D01*
X138502000Y-98444000D01*
X138488000Y-98450000D01*
X138473000Y-98455000D01*
X138458000Y-98460000D01*
X138442000Y-98463000D01*
X138427000Y-98466000D01*
X138411000Y-98468000D01*
X138396000Y-98470000D01*
X138380000Y-98470000D01*
X135280000Y-98470000D01*
X135280000Y-96670000D01*
X138380000Y-96670000D01*
X138396000Y-96670000D01*
X138411000Y-96672000D01*
G36*
X138411000Y-96672000D02*
G01*
X138427000Y-96674000D01*
X138442000Y-96677000D01*
X138458000Y-96680000D01*
X138473000Y-96685000D01*
X138488000Y-96690000D01*
X138502000Y-96696000D01*
X138516000Y-96703000D01*
X138530000Y-96710000D01*
X138543000Y-96718000D01*
X138556000Y-96727000D01*
X138569000Y-96737000D01*
X138581000Y-96747000D01*
X138592000Y-96758000D01*
X138603000Y-96769000D01*
X138613000Y-96781000D01*
X138623000Y-96794000D01*
X138632000Y-96807000D01*
X138640000Y-96820000D01*
X138647000Y-96834000D01*
X138654000Y-96848000D01*
X138660000Y-96862000D01*
X138665000Y-96877000D01*
X138670000Y-96892000D01*
X138673000Y-96908000D01*
X138676000Y-96923000D01*
X138678000Y-96939000D01*
X138680000Y-96954000D01*
X138680000Y-96970000D01*
X138680000Y-98170000D01*
X138680000Y-98186000D01*
X138678000Y-98201000D01*
X138676000Y-98217000D01*
X138673000Y-98232000D01*
X138670000Y-98248000D01*
X138665000Y-98263000D01*
X138660000Y-98278000D01*
X138654000Y-98292000D01*
X138647000Y-98306000D01*
X138640000Y-98320000D01*
X138632000Y-98333000D01*
X138623000Y-98346000D01*
X138613000Y-98359000D01*
X138603000Y-98371000D01*
X138592000Y-98382000D01*
X138581000Y-98393000D01*
X138569000Y-98403000D01*
X138556000Y-98413000D01*
X138543000Y-98422000D01*
X138530000Y-98430000D01*
X138516000Y-98437000D01*
X138502000Y-98444000D01*
X138488000Y-98450000D01*
X138473000Y-98455000D01*
X138458000Y-98460000D01*
X138442000Y-98463000D01*
X138427000Y-98466000D01*
X138411000Y-98468000D01*
X138396000Y-98470000D01*
X138380000Y-98470000D01*
X135280000Y-98470000D01*
X135280000Y-96670000D01*
X138380000Y-96670000D01*
X138396000Y-96670000D01*
X138411000Y-96672000D01*
G37*
X138411000Y-109372000D02*
X138427000Y-109374000D01*
X138442000Y-109377000D01*
X138458000Y-109380000D01*
X138473000Y-109385000D01*
X138488000Y-109390000D01*
X138502000Y-109396000D01*
X138516000Y-109403000D01*
X138530000Y-109410000D01*
X138543000Y-109418000D01*
X138556000Y-109427000D01*
X138569000Y-109437000D01*
X138581000Y-109447000D01*
X138592000Y-109458000D01*
X138603000Y-109469000D01*
X138613000Y-109481000D01*
X138623000Y-109494000D01*
X138632000Y-109507000D01*
X138640000Y-109520000D01*
X138647000Y-109534000D01*
X138654000Y-109548000D01*
X138660000Y-109562000D01*
X138665000Y-109577000D01*
X138670000Y-109592000D01*
X138673000Y-109608000D01*
X138676000Y-109623000D01*
X138678000Y-109639000D01*
X138680000Y-109654000D01*
X138680000Y-109670000D01*
X138680000Y-110870000D01*
X138680000Y-110886000D01*
X138678000Y-110901000D01*
X138676000Y-110917000D01*
X138673000Y-110932000D01*
X138670000Y-110948000D01*
X138665000Y-110963000D01*
X138660000Y-110978000D01*
X138654000Y-110992000D01*
X138647000Y-111006000D01*
X138640000Y-111020000D01*
X138632000Y-111033000D01*
X138623000Y-111046000D01*
X138613000Y-111059000D01*
X138603000Y-111071000D01*
X138592000Y-111082000D01*
X138581000Y-111093000D01*
X138569000Y-111103000D01*
X138556000Y-111113000D01*
X138543000Y-111122000D01*
X138530000Y-111130000D01*
X138516000Y-111137000D01*
X138502000Y-111144000D01*
X138488000Y-111150000D01*
X138473000Y-111155000D01*
X138458000Y-111160000D01*
X138442000Y-111163000D01*
X138427000Y-111166000D01*
X138411000Y-111168000D01*
X138396000Y-111170000D01*
X138380000Y-111170000D01*
X135280000Y-111170000D01*
X135280000Y-109370000D01*
X138380000Y-109370000D01*
X138396000Y-109370000D01*
X138411000Y-109372000D01*
G36*
X138411000Y-109372000D02*
G01*
X138427000Y-109374000D01*
X138442000Y-109377000D01*
X138458000Y-109380000D01*
X138473000Y-109385000D01*
X138488000Y-109390000D01*
X138502000Y-109396000D01*
X138516000Y-109403000D01*
X138530000Y-109410000D01*
X138543000Y-109418000D01*
X138556000Y-109427000D01*
X138569000Y-109437000D01*
X138581000Y-109447000D01*
X138592000Y-109458000D01*
X138603000Y-109469000D01*
X138613000Y-109481000D01*
X138623000Y-109494000D01*
X138632000Y-109507000D01*
X138640000Y-109520000D01*
X138647000Y-109534000D01*
X138654000Y-109548000D01*
X138660000Y-109562000D01*
X138665000Y-109577000D01*
X138670000Y-109592000D01*
X138673000Y-109608000D01*
X138676000Y-109623000D01*
X138678000Y-109639000D01*
X138680000Y-109654000D01*
X138680000Y-109670000D01*
X138680000Y-110870000D01*
X138680000Y-110886000D01*
X138678000Y-110901000D01*
X138676000Y-110917000D01*
X138673000Y-110932000D01*
X138670000Y-110948000D01*
X138665000Y-110963000D01*
X138660000Y-110978000D01*
X138654000Y-110992000D01*
X138647000Y-111006000D01*
X138640000Y-111020000D01*
X138632000Y-111033000D01*
X138623000Y-111046000D01*
X138613000Y-111059000D01*
X138603000Y-111071000D01*
X138592000Y-111082000D01*
X138581000Y-111093000D01*
X138569000Y-111103000D01*
X138556000Y-111113000D01*
X138543000Y-111122000D01*
X138530000Y-111130000D01*
X138516000Y-111137000D01*
X138502000Y-111144000D01*
X138488000Y-111150000D01*
X138473000Y-111155000D01*
X138458000Y-111160000D01*
X138442000Y-111163000D01*
X138427000Y-111166000D01*
X138411000Y-111168000D01*
X138396000Y-111170000D01*
X138380000Y-111170000D01*
X135280000Y-111170000D01*
X135280000Y-109370000D01*
X138380000Y-109370000D01*
X138396000Y-109370000D01*
X138411000Y-109372000D01*
G37*
X158060000Y-73070000D02*
X154960000Y-73070000D01*
X154944000Y-73070000D01*
X154929000Y-73068000D01*
X154913000Y-73066000D01*
X154898000Y-73063000D01*
X154882000Y-73060000D01*
X154867000Y-73055000D01*
X154852000Y-73050000D01*
X154838000Y-73044000D01*
X154824000Y-73037000D01*
X154810000Y-73030000D01*
X154797000Y-73022000D01*
X154784000Y-73013000D01*
X154771000Y-73003000D01*
X154759000Y-72993000D01*
X154748000Y-72982000D01*
X154737000Y-72971000D01*
X154727000Y-72959000D01*
X154717000Y-72946000D01*
X154708000Y-72933000D01*
X154700000Y-72920000D01*
X154693000Y-72906000D01*
X154686000Y-72892000D01*
X154680000Y-72878000D01*
X154675000Y-72863000D01*
X154670000Y-72848000D01*
X154667000Y-72832000D01*
X154664000Y-72817000D01*
X154662000Y-72801000D01*
X154660000Y-72786000D01*
X154660000Y-72770000D01*
X154660000Y-71570000D01*
X154660000Y-71554000D01*
X154662000Y-71539000D01*
X154664000Y-71523000D01*
X154667000Y-71508000D01*
X154670000Y-71492000D01*
X154675000Y-71477000D01*
X154680000Y-71462000D01*
X154686000Y-71448000D01*
X154693000Y-71434000D01*
X154700000Y-71420000D01*
X154708000Y-71407000D01*
X154717000Y-71394000D01*
X154727000Y-71381000D01*
X154737000Y-71369000D01*
X154748000Y-71358000D01*
X154759000Y-71347000D01*
X154771000Y-71337000D01*
X154784000Y-71327000D01*
X154797000Y-71318000D01*
X154810000Y-71310000D01*
X154824000Y-71303000D01*
X154838000Y-71296000D01*
X154852000Y-71290000D01*
X154867000Y-71285000D01*
X154882000Y-71280000D01*
X154898000Y-71277000D01*
X154913000Y-71274000D01*
X154929000Y-71272000D01*
X154944000Y-71270000D01*
X154960000Y-71270000D01*
X158060000Y-71270000D01*
X158060000Y-73070000D01*
G36*
X158060000Y-73070000D02*
G01*
X154960000Y-73070000D01*
X154944000Y-73070000D01*
X154929000Y-73068000D01*
X154913000Y-73066000D01*
X154898000Y-73063000D01*
X154882000Y-73060000D01*
X154867000Y-73055000D01*
X154852000Y-73050000D01*
X154838000Y-73044000D01*
X154824000Y-73037000D01*
X154810000Y-73030000D01*
X154797000Y-73022000D01*
X154784000Y-73013000D01*
X154771000Y-73003000D01*
X154759000Y-72993000D01*
X154748000Y-72982000D01*
X154737000Y-72971000D01*
X154727000Y-72959000D01*
X154717000Y-72946000D01*
X154708000Y-72933000D01*
X154700000Y-72920000D01*
X154693000Y-72906000D01*
X154686000Y-72892000D01*
X154680000Y-72878000D01*
X154675000Y-72863000D01*
X154670000Y-72848000D01*
X154667000Y-72832000D01*
X154664000Y-72817000D01*
X154662000Y-72801000D01*
X154660000Y-72786000D01*
X154660000Y-72770000D01*
X154660000Y-71570000D01*
X154660000Y-71554000D01*
X154662000Y-71539000D01*
X154664000Y-71523000D01*
X154667000Y-71508000D01*
X154670000Y-71492000D01*
X154675000Y-71477000D01*
X154680000Y-71462000D01*
X154686000Y-71448000D01*
X154693000Y-71434000D01*
X154700000Y-71420000D01*
X154708000Y-71407000D01*
X154717000Y-71394000D01*
X154727000Y-71381000D01*
X154737000Y-71369000D01*
X154748000Y-71358000D01*
X154759000Y-71347000D01*
X154771000Y-71337000D01*
X154784000Y-71327000D01*
X154797000Y-71318000D01*
X154810000Y-71310000D01*
X154824000Y-71303000D01*
X154838000Y-71296000D01*
X154852000Y-71290000D01*
X154867000Y-71285000D01*
X154882000Y-71280000D01*
X154898000Y-71277000D01*
X154913000Y-71274000D01*
X154929000Y-71272000D01*
X154944000Y-71270000D01*
X154960000Y-71270000D01*
X158060000Y-71270000D01*
X158060000Y-73070000D01*
G37*
X158060000Y-85770000D02*
X154960000Y-85770000D01*
X154944000Y-85770000D01*
X154929000Y-85768000D01*
X154913000Y-85766000D01*
X154898000Y-85763000D01*
X154882000Y-85760000D01*
X154867000Y-85755000D01*
X154852000Y-85750000D01*
X154838000Y-85744000D01*
X154824000Y-85737000D01*
X154810000Y-85730000D01*
X154797000Y-85722000D01*
X154784000Y-85713000D01*
X154771000Y-85703000D01*
X154759000Y-85693000D01*
X154748000Y-85682000D01*
X154737000Y-85671000D01*
X154727000Y-85659000D01*
X154717000Y-85646000D01*
X154708000Y-85633000D01*
X154700000Y-85620000D01*
X154693000Y-85606000D01*
X154686000Y-85592000D01*
X154680000Y-85578000D01*
X154675000Y-85563000D01*
X154670000Y-85548000D01*
X154667000Y-85532000D01*
X154664000Y-85517000D01*
X154662000Y-85501000D01*
X154660000Y-85486000D01*
X154660000Y-85470000D01*
X154660000Y-84270000D01*
X154660000Y-84254000D01*
X154662000Y-84239000D01*
X154664000Y-84223000D01*
X154667000Y-84208000D01*
X154670000Y-84192000D01*
X154675000Y-84177000D01*
X154680000Y-84162000D01*
X154686000Y-84148000D01*
X154693000Y-84134000D01*
X154700000Y-84120000D01*
X154708000Y-84107000D01*
X154717000Y-84094000D01*
X154727000Y-84081000D01*
X154737000Y-84069000D01*
X154748000Y-84058000D01*
X154759000Y-84047000D01*
X154771000Y-84037000D01*
X154784000Y-84027000D01*
X154797000Y-84018000D01*
X154810000Y-84010000D01*
X154824000Y-84003000D01*
X154838000Y-83996000D01*
X154852000Y-83990000D01*
X154867000Y-83985000D01*
X154882000Y-83980000D01*
X154898000Y-83977000D01*
X154913000Y-83974000D01*
X154929000Y-83972000D01*
X154944000Y-83970000D01*
X154960000Y-83970000D01*
X158060000Y-83970000D01*
X158060000Y-85770000D01*
G36*
X158060000Y-85770000D02*
G01*
X154960000Y-85770000D01*
X154944000Y-85770000D01*
X154929000Y-85768000D01*
X154913000Y-85766000D01*
X154898000Y-85763000D01*
X154882000Y-85760000D01*
X154867000Y-85755000D01*
X154852000Y-85750000D01*
X154838000Y-85744000D01*
X154824000Y-85737000D01*
X154810000Y-85730000D01*
X154797000Y-85722000D01*
X154784000Y-85713000D01*
X154771000Y-85703000D01*
X154759000Y-85693000D01*
X154748000Y-85682000D01*
X154737000Y-85671000D01*
X154727000Y-85659000D01*
X154717000Y-85646000D01*
X154708000Y-85633000D01*
X154700000Y-85620000D01*
X154693000Y-85606000D01*
X154686000Y-85592000D01*
X154680000Y-85578000D01*
X154675000Y-85563000D01*
X154670000Y-85548000D01*
X154667000Y-85532000D01*
X154664000Y-85517000D01*
X154662000Y-85501000D01*
X154660000Y-85486000D01*
X154660000Y-85470000D01*
X154660000Y-84270000D01*
X154660000Y-84254000D01*
X154662000Y-84239000D01*
X154664000Y-84223000D01*
X154667000Y-84208000D01*
X154670000Y-84192000D01*
X154675000Y-84177000D01*
X154680000Y-84162000D01*
X154686000Y-84148000D01*
X154693000Y-84134000D01*
X154700000Y-84120000D01*
X154708000Y-84107000D01*
X154717000Y-84094000D01*
X154727000Y-84081000D01*
X154737000Y-84069000D01*
X154748000Y-84058000D01*
X154759000Y-84047000D01*
X154771000Y-84037000D01*
X154784000Y-84027000D01*
X154797000Y-84018000D01*
X154810000Y-84010000D01*
X154824000Y-84003000D01*
X154838000Y-83996000D01*
X154852000Y-83990000D01*
X154867000Y-83985000D01*
X154882000Y-83980000D01*
X154898000Y-83977000D01*
X154913000Y-83974000D01*
X154929000Y-83972000D01*
X154944000Y-83970000D01*
X154960000Y-83970000D01*
X158060000Y-83970000D01*
X158060000Y-85770000D01*
G37*
X158060000Y-98470000D02*
X154960000Y-98470000D01*
X154944000Y-98470000D01*
X154929000Y-98468000D01*
X154913000Y-98466000D01*
X154898000Y-98463000D01*
X154882000Y-98460000D01*
X154867000Y-98455000D01*
X154852000Y-98450000D01*
X154838000Y-98444000D01*
X154824000Y-98437000D01*
X154810000Y-98430000D01*
X154797000Y-98422000D01*
X154784000Y-98413000D01*
X154771000Y-98403000D01*
X154759000Y-98393000D01*
X154748000Y-98382000D01*
X154737000Y-98371000D01*
X154727000Y-98359000D01*
X154717000Y-98346000D01*
X154708000Y-98333000D01*
X154700000Y-98320000D01*
X154693000Y-98306000D01*
X154686000Y-98292000D01*
X154680000Y-98278000D01*
X154675000Y-98263000D01*
X154670000Y-98248000D01*
X154667000Y-98232000D01*
X154664000Y-98217000D01*
X154662000Y-98201000D01*
X154660000Y-98186000D01*
X154660000Y-98170000D01*
X154660000Y-96970000D01*
X154660000Y-96954000D01*
X154662000Y-96939000D01*
X154664000Y-96923000D01*
X154667000Y-96908000D01*
X154670000Y-96892000D01*
X154675000Y-96877000D01*
X154680000Y-96862000D01*
X154686000Y-96848000D01*
X154693000Y-96834000D01*
X154700000Y-96820000D01*
X154708000Y-96807000D01*
X154717000Y-96794000D01*
X154727000Y-96781000D01*
X154737000Y-96769000D01*
X154748000Y-96758000D01*
X154759000Y-96747000D01*
X154771000Y-96737000D01*
X154784000Y-96727000D01*
X154797000Y-96718000D01*
X154810000Y-96710000D01*
X154824000Y-96703000D01*
X154838000Y-96696000D01*
X154852000Y-96690000D01*
X154867000Y-96685000D01*
X154882000Y-96680000D01*
X154898000Y-96677000D01*
X154913000Y-96674000D01*
X154929000Y-96672000D01*
X154944000Y-96670000D01*
X154960000Y-96670000D01*
X158060000Y-96670000D01*
X158060000Y-98470000D01*
G36*
X158060000Y-98470000D02*
G01*
X154960000Y-98470000D01*
X154944000Y-98470000D01*
X154929000Y-98468000D01*
X154913000Y-98466000D01*
X154898000Y-98463000D01*
X154882000Y-98460000D01*
X154867000Y-98455000D01*
X154852000Y-98450000D01*
X154838000Y-98444000D01*
X154824000Y-98437000D01*
X154810000Y-98430000D01*
X154797000Y-98422000D01*
X154784000Y-98413000D01*
X154771000Y-98403000D01*
X154759000Y-98393000D01*
X154748000Y-98382000D01*
X154737000Y-98371000D01*
X154727000Y-98359000D01*
X154717000Y-98346000D01*
X154708000Y-98333000D01*
X154700000Y-98320000D01*
X154693000Y-98306000D01*
X154686000Y-98292000D01*
X154680000Y-98278000D01*
X154675000Y-98263000D01*
X154670000Y-98248000D01*
X154667000Y-98232000D01*
X154664000Y-98217000D01*
X154662000Y-98201000D01*
X154660000Y-98186000D01*
X154660000Y-98170000D01*
X154660000Y-96970000D01*
X154660000Y-96954000D01*
X154662000Y-96939000D01*
X154664000Y-96923000D01*
X154667000Y-96908000D01*
X154670000Y-96892000D01*
X154675000Y-96877000D01*
X154680000Y-96862000D01*
X154686000Y-96848000D01*
X154693000Y-96834000D01*
X154700000Y-96820000D01*
X154708000Y-96807000D01*
X154717000Y-96794000D01*
X154727000Y-96781000D01*
X154737000Y-96769000D01*
X154748000Y-96758000D01*
X154759000Y-96747000D01*
X154771000Y-96737000D01*
X154784000Y-96727000D01*
X154797000Y-96718000D01*
X154810000Y-96710000D01*
X154824000Y-96703000D01*
X154838000Y-96696000D01*
X154852000Y-96690000D01*
X154867000Y-96685000D01*
X154882000Y-96680000D01*
X154898000Y-96677000D01*
X154913000Y-96674000D01*
X154929000Y-96672000D01*
X154944000Y-96670000D01*
X154960000Y-96670000D01*
X158060000Y-96670000D01*
X158060000Y-98470000D01*
G37*
X158060000Y-111170000D02*
X154960000Y-111170000D01*
X154944000Y-111170000D01*
X154929000Y-111168000D01*
X154913000Y-111166000D01*
X154898000Y-111163000D01*
X154882000Y-111160000D01*
X154867000Y-111155000D01*
X154852000Y-111150000D01*
X154838000Y-111144000D01*
X154824000Y-111137000D01*
X154810000Y-111130000D01*
X154797000Y-111122000D01*
X154784000Y-111113000D01*
X154771000Y-111103000D01*
X154759000Y-111093000D01*
X154748000Y-111082000D01*
X154737000Y-111071000D01*
X154727000Y-111059000D01*
X154717000Y-111046000D01*
X154708000Y-111033000D01*
X154700000Y-111020000D01*
X154693000Y-111006000D01*
X154686000Y-110992000D01*
X154680000Y-110978000D01*
X154675000Y-110963000D01*
X154670000Y-110948000D01*
X154667000Y-110932000D01*
X154664000Y-110917000D01*
X154662000Y-110901000D01*
X154660000Y-110886000D01*
X154660000Y-110870000D01*
X154660000Y-109670000D01*
X154660000Y-109654000D01*
X154662000Y-109639000D01*
X154664000Y-109623000D01*
X154667000Y-109608000D01*
X154670000Y-109592000D01*
X154675000Y-109577000D01*
X154680000Y-109562000D01*
X154686000Y-109548000D01*
X154693000Y-109534000D01*
X154700000Y-109520000D01*
X154708000Y-109507000D01*
X154717000Y-109494000D01*
X154727000Y-109481000D01*
X154737000Y-109469000D01*
X154748000Y-109458000D01*
X154759000Y-109447000D01*
X154771000Y-109437000D01*
X154784000Y-109427000D01*
X154797000Y-109418000D01*
X154810000Y-109410000D01*
X154824000Y-109403000D01*
X154838000Y-109396000D01*
X154852000Y-109390000D01*
X154867000Y-109385000D01*
X154882000Y-109380000D01*
X154898000Y-109377000D01*
X154913000Y-109374000D01*
X154929000Y-109372000D01*
X154944000Y-109370000D01*
X154960000Y-109370000D01*
X158060000Y-109370000D01*
X158060000Y-111170000D01*
G36*
X158060000Y-111170000D02*
G01*
X154960000Y-111170000D01*
X154944000Y-111170000D01*
X154929000Y-111168000D01*
X154913000Y-111166000D01*
X154898000Y-111163000D01*
X154882000Y-111160000D01*
X154867000Y-111155000D01*
X154852000Y-111150000D01*
X154838000Y-111144000D01*
X154824000Y-111137000D01*
X154810000Y-111130000D01*
X154797000Y-111122000D01*
X154784000Y-111113000D01*
X154771000Y-111103000D01*
X154759000Y-111093000D01*
X154748000Y-111082000D01*
X154737000Y-111071000D01*
X154727000Y-111059000D01*
X154717000Y-111046000D01*
X154708000Y-111033000D01*
X154700000Y-111020000D01*
X154693000Y-111006000D01*
X154686000Y-110992000D01*
X154680000Y-110978000D01*
X154675000Y-110963000D01*
X154670000Y-110948000D01*
X154667000Y-110932000D01*
X154664000Y-110917000D01*
X154662000Y-110901000D01*
X154660000Y-110886000D01*
X154660000Y-110870000D01*
X154660000Y-109670000D01*
X154660000Y-109654000D01*
X154662000Y-109639000D01*
X154664000Y-109623000D01*
X154667000Y-109608000D01*
X154670000Y-109592000D01*
X154675000Y-109577000D01*
X154680000Y-109562000D01*
X154686000Y-109548000D01*
X154693000Y-109534000D01*
X154700000Y-109520000D01*
X154708000Y-109507000D01*
X154717000Y-109494000D01*
X154727000Y-109481000D01*
X154737000Y-109469000D01*
X154748000Y-109458000D01*
X154759000Y-109447000D01*
X154771000Y-109437000D01*
X154784000Y-109427000D01*
X154797000Y-109418000D01*
X154810000Y-109410000D01*
X154824000Y-109403000D01*
X154838000Y-109396000D01*
X154852000Y-109390000D01*
X154867000Y-109385000D01*
X154882000Y-109380000D01*
X154898000Y-109377000D01*
X154913000Y-109374000D01*
X154929000Y-109372000D01*
X154944000Y-109370000D01*
X154960000Y-109370000D01*
X158060000Y-109370000D01*
X158060000Y-111170000D01*
G37*
%TD*%
D11*
%TO.C,U8*%
X128270000Y-117890000D03*
D12*
X125730000Y-117890000D03*
X123190000Y-117890000D03*
%TD*%
D13*
%TO.C,U3*%
X181180000Y-112572500D03*
X180530000Y-112572500D03*
X179880000Y-112572500D03*
X179230000Y-112572500D03*
X178580000Y-112572500D03*
X177930000Y-112572500D03*
X177280000Y-112572500D03*
X176630000Y-112572500D03*
X175980000Y-112572500D03*
X175330000Y-112572500D03*
X174680000Y-112572500D03*
X174030000Y-112572500D03*
X174030000Y-119772500D03*
X174680000Y-119772500D03*
X175330000Y-119772500D03*
X175980000Y-119772500D03*
X176630000Y-119772500D03*
X177280000Y-119772500D03*
X177930000Y-119772500D03*
X178580000Y-119772500D03*
X179230000Y-119772500D03*
X179880000Y-119772500D03*
X180530000Y-119772500D03*
X181180000Y-119772500D03*
%TD*%
D14*
%TO.C,R15*%
X160425000Y-70000000D03*
X162075000Y-70000000D03*
%TD*%
D15*
%TO.C,C8*%
X169250000Y-117325000D03*
X169250000Y-114250000D03*
%TD*%
D16*
%TO.C,C2*%
X170250000Y-107550000D03*
X170250000Y-109100000D03*
%TD*%
D17*
%TO.C,U7*%
X113111320Y-129417625D03*
X111320000Y-127640000D03*
X109523949Y-125843949D03*
X107740667Y-124042000D03*
D18*
X106258571Y-122578571D03*
X105082511Y-121383844D03*
%TD*%
D19*
%TO.C,C9*%
X120346000Y-109813000D03*
X120346000Y-107913000D03*
%TD*%
D20*
%TO.C,R8*%
X163400000Y-92250000D03*
X161750000Y-92250000D03*
%TD*%
D21*
%TO.C,IC1*%
X121127900Y-102497800D03*
X121127900Y-101547800D03*
X121127900Y-100597800D03*
X118852900Y-100597800D03*
X118852900Y-101547800D03*
X118852900Y-102497800D03*
%TD*%
D22*
%TO.C,J8*%
X131750000Y-70725000D03*
D23*
X131750000Y-73265000D03*
%TD*%
D19*
%TO.C,C10*%
X122428800Y-109914600D03*
X122428800Y-108014600D03*
%TD*%
D22*
%TO.C,J7*%
X120080000Y-121475000D03*
D23*
X122620000Y-121475000D03*
X125160000Y-121475000D03*
X127700000Y-121475000D03*
%TD*%
D24*
%TO.C,U12*%
X189420316Y-102556375D03*
X189430000Y-105080000D03*
X189430000Y-107620000D03*
X189416800Y-110155141D03*
D18*
X189430000Y-112237941D03*
X189416800Y-113914341D03*
%TD*%
D16*
%TO.C,C6*%
X171750000Y-120725000D03*
X171750000Y-122275000D03*
%TD*%
D25*
%TO.C,C12*%
X121631200Y-96635400D03*
X123531200Y-96635400D03*
%TD*%
D26*
%TO.C,C3*%
X172985000Y-108410000D03*
X176060000Y-108410000D03*
%TD*%
D25*
%TO.C,C11*%
X121631200Y-98667400D03*
X123531200Y-98667400D03*
%TD*%
D27*
%TO.C,SW1*%
X108920000Y-115065000D03*
X111460000Y-115065000D03*
X114000000Y-115065000D03*
X114000000Y-106455000D03*
X111460000Y-106455000D03*
X108920000Y-106455000D03*
%TD*%
D28*
%TO.C,R6*%
X168000000Y-95705000D03*
X168000000Y-94055000D03*
%TD*%
D29*
%TO.C,LED_1*%
X132750000Y-67000000D03*
X131175000Y-67000000D03*
%TD*%
D30*
%TO.C,3.3V*%
X113705000Y-103720000D03*
X115280000Y-103720000D03*
%TD*%
D31*
%TO.C,L1*%
X126950000Y-106320000D03*
X126950000Y-100870000D03*
%TD*%
D32*
%TO.C,U2*%
X177810000Y-105095000D03*
X177810000Y-104445000D03*
X177810000Y-103795000D03*
X177810000Y-103145000D03*
X177810000Y-102495000D03*
X177810000Y-101845000D03*
X177810000Y-101195000D03*
X177810000Y-100545000D03*
X177810000Y-99895000D03*
X177810000Y-99245000D03*
X177810000Y-98595000D03*
X177810000Y-97945000D03*
X170610000Y-97945000D03*
X170610000Y-98595000D03*
X170610000Y-99245000D03*
X170610000Y-99895000D03*
X170610000Y-100545000D03*
X170610000Y-101195000D03*
X170610000Y-101845000D03*
X170610000Y-102495000D03*
X170610000Y-103145000D03*
X170610000Y-103795000D03*
X170610000Y-104445000D03*
X170610000Y-105095000D03*
%TD*%
D14*
%TO.C,R5*%
X103750000Y-101010000D03*
X105400000Y-101010000D03*
%TD*%
D30*
%TO.C,LED_2*%
X160500000Y-67000000D03*
X162075000Y-67000000D03*
%TD*%
D33*
%TO.C,U1*%
X143945000Y-67220000D03*
X149395000Y-67220000D03*
D34*
X144245000Y-70250000D03*
X149095000Y-70250000D03*
D35*
X147254100Y-96920000D03*
D36*
X149794100Y-96920000D03*
X152334100Y-96920000D03*
D37*
X146670000Y-70220000D03*
X147670000Y-66920000D03*
X145670000Y-66920000D03*
X144170000Y-75220000D03*
X144170000Y-77720000D03*
X144170000Y-80220000D03*
%TD*%
D38*
%TO.C,U5*%
X150500000Y-120670000D03*
D39*
X147960000Y-120670000D03*
X145420000Y-120670000D03*
X142880000Y-120670000D03*
D40*
X157690000Y-120170000D03*
X135690000Y-120170000D03*
%TD*%
D41*
%TO.C,C15*%
X128825050Y-110667800D03*
X125575050Y-110667800D03*
%TD*%
D26*
%TO.C,C7*%
X173010000Y-94910000D03*
X176085000Y-94910000D03*
%TD*%
D42*
%TO.C,U6*%
X103979684Y-114443625D03*
X103970000Y-111920000D03*
X103970000Y-109380000D03*
X103983200Y-106844859D03*
D18*
X103970000Y-104762059D03*
X103983200Y-103085659D03*
%TD*%
D20*
%TO.C,R14*%
X132325000Y-76750000D03*
X130675000Y-76750000D03*
%TD*%
%TO.C,R3*%
X111040000Y-100640000D03*
X109390000Y-100640000D03*
%TD*%
D43*
%TO.C,U9*%
X141143593Y-129871209D03*
X138703451Y-129227401D03*
X136250000Y-128570000D03*
X133804658Y-127901108D03*
D18*
X131789412Y-127374790D03*
X130173550Y-126928155D03*
%TD*%
D20*
%TO.C,R10*%
X120520000Y-117330000D03*
X118870000Y-117330000D03*
%TD*%
D14*
%TO.C,R13*%
X119063800Y-105931800D03*
X120713800Y-105931800D03*
%TD*%
D44*
%TO.C,Q1*%
X109217500Y-98495000D03*
D45*
X112645000Y-96590000D03*
D46*
X115192500Y-94685000D03*
X115192500Y-95955000D03*
X115192500Y-97225000D03*
X115192500Y-98495000D03*
D44*
X109217500Y-94685000D03*
X109217500Y-95955000D03*
X109217500Y-97225000D03*
%TD*%
D20*
%TO.C,R2*%
X115280000Y-100690000D03*
X113630000Y-100690000D03*
%TD*%
D47*
%TO.C,R7*%
X107250000Y-101050000D03*
X107250000Y-102700000D03*
%TD*%
D48*
%TO.C,C1*%
X183965000Y-120147500D03*
X185515000Y-120147500D03*
%TD*%
D28*
%TO.C,R11*%
X118466400Y-109233800D03*
X118466400Y-107583800D03*
%TD*%
D30*
%TO.C,VBAT*%
X109435000Y-103770000D03*
X111010000Y-103770000D03*
%TD*%
D20*
%TO.C,R9*%
X120490000Y-114510000D03*
X118840000Y-114510000D03*
%TD*%
D49*
%TO.C,U11*%
X184965625Y-124639347D03*
X183188000Y-126430667D03*
X181391949Y-128226718D03*
X179590000Y-130010000D03*
D18*
X178126571Y-131492096D03*
X176931844Y-132668156D03*
%TD*%
D50*
%TO.C,U10*%
X163748580Y-127900083D03*
X161313452Y-128562600D03*
X158860000Y-129220000D03*
X156407826Y-129863394D03*
D18*
X154399412Y-130415211D03*
X152776717Y-130836345D03*
%TD*%
D15*
%TO.C,C4*%
X184600000Y-117652500D03*
X184600000Y-114577500D03*
%TD*%
D48*
%TO.C,C13*%
X121894800Y-94705000D03*
X123444800Y-94705000D03*
%TD*%
D51*
%TO.C,C14*%
X120650800Y-104255400D03*
X119100800Y-104255400D03*
%TD*%
D52*
%TO.C,C5*%
X169910000Y-95635000D03*
X169910000Y-94085000D03*
%TD*%
D14*
%TO.C,R12*%
X118263200Y-98261000D03*
X119913200Y-98261000D03*
%TD*%
D53*
%TO.C,J2*%
X184310000Y-96760000D03*
D54*
X184310000Y-99260000D03*
%TD*%
D22*
%TO.C,J6*%
X170290000Y-127520000D03*
D23*
X172830000Y-127520000D03*
X175370000Y-127520000D03*
%TD*%
D55*
%TO.C,J1*%
X185000000Y-106700000D03*
D56*
X182500000Y-106700000D03*
%TD*%
D22*
%TO.C,J4*%
X115815000Y-139835000D03*
D23*
X115815000Y-142375000D03*
X115815000Y-144915000D03*
%TD*%
D22*
%TO.C,J5*%
X119320000Y-127150000D03*
D23*
X121860000Y-127150000D03*
X124400000Y-127150000D03*
%TD*%
D22*
%TO.C,J3*%
X106090000Y-97940000D03*
D23*
X106090000Y-95400000D03*
%TD*%
M02*
