%TF.GenerationSoftware,KiCad,Pcbnew,8.0.1*%
%TF.CreationDate,2025-03-10T11:27:29+01:00*%
%TF.ProjectId,main_board,6d61696e-5f62-46f6-9172-642e6b696361,rev?*%
%TF.SameCoordinates,Original*%
%TF.FileFunction,Soldermask,Bot*%
%TF.FilePolarity,Negative*%
%FSLAX46Y46*%
G04 Gerber Fmt 4.6, Leading zero omitted, Abs format (unit mm)*
G04 Created by KiCad (PCBNEW 8.0.1) date 2025-03-10 11:27:29*
%MOMM*%
%LPD*%
G01*
G04 APERTURE LIST*
G04 Aperture macros list*
%AMRoundRect*
0 Rectangle with rounded corners*
0 $1 Rounding radius*
0 $2 $3 $4 $5 $6 $7 $8 $9 X,Y pos of 4 corners*
0 Add a 4 corners polygon primitive as box body*
4,1,4,$2,$3,$4,$5,$6,$7,$8,$9,$2,$3,0*
0 Add four circle primitives for the rounded corners*
1,1,$1+$1,$2,$3*
1,1,$1+$1,$4,$5*
1,1,$1+$1,$6,$7*
1,1,$1+$1,$8,$9*
0 Add four rect primitives between the rounded corners*
20,1,$1+$1,$2,$3,$4,$5,0*
20,1,$1+$1,$4,$5,$6,$7,0*
20,1,$1+$1,$6,$7,$8,$9,0*
20,1,$1+$1,$8,$9,$2,$3,0*%
G04 Aperture macros list end*
%ADD10RoundRect,0.248400X0.651600X0.651600X-0.651600X0.651600X-0.651600X-0.651600X0.651600X-0.651600X0*%
%ADD11C,1.800000*%
%ADD12RoundRect,0.381000X-0.707107X0.168291X0.168291X-0.707107X0.707107X-0.168291X-0.168291X0.707107X0*%
%ADD13C,1.200000*%
%ADD14R,1.700000X1.700000*%
%ADD15O,1.700000X1.700000*%
%ADD16RoundRect,0.381000X0.381000X-0.619000X0.381000X0.619000X-0.381000X0.619000X-0.381000X-0.619000X0*%
%ADD17RoundRect,0.102000X0.754000X0.754000X-0.754000X0.754000X-0.754000X-0.754000X0.754000X-0.754000X0*%
%ADD18C,1.712000*%
%ADD19C,3.204000*%
%ADD20RoundRect,0.381000X-0.381000X0.619000X-0.381000X-0.619000X0.381000X-0.619000X0.381000X0.619000X0*%
%ADD21RoundRect,0.381000X-0.696518X-0.207809X0.499298X-0.528227X0.696518X0.207809X-0.499298X0.528227X0*%
%ADD22RoundRect,0.381000X-0.168291X-0.707107X0.707107X0.168291X0.168291X0.707107X-0.707107X-0.168291X0*%
%ADD23RoundRect,0.381000X-0.499298X-0.528227X0.696518X-0.207809X0.499298X0.528227X-0.696518X0.207809X0*%
%ADD24RoundRect,0.250000X-0.725000X0.600000X-0.725000X-0.600000X0.725000X-0.600000X0.725000X0.600000X0*%
%ADD25O,1.950000X1.700000*%
%ADD26RoundRect,0.197500X-0.197500X-0.632500X0.197500X-0.632500X0.197500X0.632500X-0.197500X0.632500X0*%
%ADD27RoundRect,0.160000X-0.160000X0.197500X-0.160000X-0.197500X0.160000X-0.197500X0.160000X0.197500X0*%
%ADD28RoundRect,0.250000X0.600000X0.725000X-0.600000X0.725000X-0.600000X-0.725000X0.600000X-0.725000X0*%
%ADD29O,1.700000X1.950000*%
%ADD30RoundRect,0.160000X0.160000X-0.197500X0.160000X0.197500X-0.160000X0.197500X-0.160000X-0.197500X0*%
G04 APERTURE END LIST*
D10*
%TO.C,U8*%
X128270000Y-117890000D03*
D11*
X125730000Y-117890000D03*
X123190000Y-117890000D03*
%TD*%
D12*
%TO.C,U7*%
X113111320Y-129417625D03*
X111320000Y-127640000D03*
X109523949Y-125843949D03*
X107740667Y-124042000D03*
D13*
X106258571Y-122578571D03*
X105082511Y-121383844D03*
%TD*%
D14*
%TO.C,J8*%
X131750000Y-70725000D03*
D15*
X131750000Y-73265000D03*
%TD*%
D14*
%TO.C,J7*%
X120080000Y-121475000D03*
D15*
X122620000Y-121475000D03*
X125160000Y-121475000D03*
X127700000Y-121475000D03*
%TD*%
D16*
%TO.C,U12*%
X189420316Y-102556375D03*
X189430000Y-105080000D03*
X189430000Y-107620000D03*
X189416800Y-110155141D03*
D13*
X189430000Y-112237941D03*
X189416800Y-113914341D03*
%TD*%
D17*
%TO.C,U5*%
X150500000Y-120670000D03*
D18*
X147960000Y-120670000D03*
X145420000Y-120670000D03*
X142880000Y-120670000D03*
D19*
X157690000Y-120170000D03*
X135690000Y-120170000D03*
%TD*%
D20*
%TO.C,U6*%
X103979684Y-114443625D03*
X103970000Y-111920000D03*
X103970000Y-109380000D03*
X103983200Y-106844859D03*
D13*
X103970000Y-104762059D03*
X103983200Y-103085659D03*
%TD*%
D21*
%TO.C,U9*%
X141143593Y-129871209D03*
X138703451Y-129227401D03*
X136250000Y-128570000D03*
X133804658Y-127901108D03*
D13*
X131789412Y-127374790D03*
X130173550Y-126928155D03*
%TD*%
D22*
%TO.C,U11*%
X184965625Y-124639347D03*
X183188000Y-126430667D03*
X181391949Y-128226718D03*
X179590000Y-130010000D03*
D13*
X178126571Y-131492096D03*
X176931844Y-132668156D03*
%TD*%
D23*
%TO.C,U10*%
X163748580Y-127900083D03*
X161313452Y-128562600D03*
X158860000Y-129220000D03*
X156407826Y-129863394D03*
D13*
X154399412Y-130415211D03*
X152776717Y-130836345D03*
%TD*%
D24*
%TO.C,J2*%
X184310000Y-96760000D03*
D25*
X184310000Y-99260000D03*
%TD*%
D14*
%TO.C,J6*%
X170290000Y-127520000D03*
D15*
X172830000Y-127520000D03*
X175370000Y-127520000D03*
%TD*%
D26*
%TO.C,U4*%
X107134366Y-140392500D03*
X107134366Y-144392500D03*
X108934366Y-140392500D03*
X108934366Y-144392500D03*
%TD*%
D27*
%TO.C,R1*%
X111700000Y-139845000D03*
X111700000Y-141040000D03*
%TD*%
D28*
%TO.C,J1*%
X185000000Y-106700000D03*
D29*
X182500000Y-106700000D03*
%TD*%
D30*
%TO.C,R4*%
X111690000Y-144417500D03*
X111690000Y-143222500D03*
%TD*%
D14*
%TO.C,J4*%
X115815000Y-139835000D03*
D15*
X115815000Y-142375000D03*
X115815000Y-144915000D03*
%TD*%
D14*
%TO.C,J5*%
X119320000Y-127150000D03*
D15*
X121860000Y-127150000D03*
X124400000Y-127150000D03*
%TD*%
D14*
%TO.C,J3*%
X106090000Y-97940000D03*
D15*
X106090000Y-95400000D03*
%TD*%
M02*
