M48
; DRILL file {KiCad 8.0.1} date 2025-03-10T11:27:18+0100
; FORMAT={-:-/ absolute / inch / decimal}
; #@! TF.CreationDate,2025-03-10T11:27:18+01:00
; #@! TF.GenerationSoftware,Kicad,Pcbnew,8.0.1
; #@! TF.FileFunction,Plated,1,2,PTH
FMAT,2
INCH
; #@! TA.AperFunction,Plated,PTH,ViaDrill
T1C0.0118
; #@! TA.AperFunction,Plated,PTH,ViaDrill
T2C0.0157
; #@! TA.AperFunction,Plated,PTH,ComponentDrill
T3C0.0276
; #@! TA.AperFunction,Plated,PTH,ComponentDrill
T4C0.0354
; #@! TA.AperFunction,Plated,PTH,ComponentDrill
T5C0.0374
; #@! TA.AperFunction,Plated,PTH,ComponentDrill
T6C0.0394
; #@! TA.AperFunction,Plated,PTH,ComponentDrill
T7C0.0787
%
G90
G05
T1
X4.0945Y-5.6055
X4.1047Y-5.5713
X4.1087Y-5.6409
X4.1248Y-5.6055
T2
X4.1732Y-4.3701
X4.3012Y-4.7146
X4.3799Y-4.6358
X4.3898Y-4.4488
X4.3978Y-4.9179
X4.4488Y-4.6654
X4.4882Y-4.4488
X4.4882Y-4.6654
X4.4882Y-4.7047
X4.5276Y-4.6654
X4.5276Y-4.7047
X4.5276Y-4.7441
X4.5276Y-4.7835
X4.5276Y-4.8228
X4.5276Y-4.8622
X4.5276Y-4.9016
X4.5571Y-4.4587
X4.5669Y-4.3209
X4.5669Y-4.6654
X4.5669Y-4.7047
X4.5669Y-4.7441
X4.5669Y-4.7835
X4.5669Y-4.8228
X4.5669Y-4.8622
X4.5669Y-4.9016
X4.5768Y-3.7008
X4.5768Y-3.7402
X4.5768Y-3.7795
X4.5768Y-3.8189
X4.604Y-4.0354
X4.6063Y-3.8583
X4.6063Y-3.8976
X4.6063Y-4.6654
X4.6063Y-4.7047
X4.6063Y-4.7441
X4.6063Y-4.7835
X4.6063Y-4.8228
X4.6063Y-4.8622
X4.6063Y-4.9016
X4.6161Y-3.7008
X4.6161Y-3.7402
X4.6161Y-3.7795
X4.6161Y-3.8189
X4.6457Y-4.6654
X4.6457Y-4.7047
X4.6457Y-4.7441
X4.6457Y-4.7835
X4.6457Y-4.8228
X4.6457Y-4.8622
X4.6457Y-4.9016
X4.6555Y-3.7008
X4.6555Y-3.7402
X4.6555Y-3.7795
X4.6555Y-3.8189
X4.685Y-4.8622
X4.685Y-4.9016
X4.6949Y-3.7008
X4.6949Y-3.7402
X4.6949Y-3.7795
X4.6949Y-3.8189
X4.6978Y-4.3144
X4.7026Y-4.3442
X4.7244Y-4.8622
X4.7244Y-4.9016
X4.7343Y-3.7008
X4.7343Y-3.7402
X4.7343Y-3.7795
X4.7343Y-3.8189
X4.7638Y-4.8622
X4.7638Y-4.9016
X4.7736Y-3.6713
X4.7842Y-4.3305
X4.7847Y-4.3611
X4.7933Y-4.5472
X4.7933Y-4.5965
X4.8031Y-4.5079
X4.8031Y-4.8622
X4.8031Y-4.9016
X4.8051Y-4.1583
X4.813Y-3.6713
X4.8327Y-4.5571
X4.84Y-4.0753
X4.8524Y-4.5177
X4.8678Y-4.3498
X4.8715Y-4.3177
X4.8816Y-4.56
X4.89Y-4.0753
X4.9016Y-4.5177
X4.94Y-4.0753
X4.99Y-4.0753
X5.04Y-4.0753
X5.09Y-4.0753
X5.1083Y-4.2028
X5.1476Y-4.2028
X5.1811Y-4.3165
X5.2083Y-4.2894
X5.2152Y-4.3608
X5.2163Y-4.5569
X5.2165Y-4.5177
X5.2559Y-4.7736
X5.2559Y-4.813
X5.2657Y-4.6752
X5.2756Y-4.6358
X5.2786Y-4.4458
X5.2823Y-4.8622
X5.2854Y-4.7933
X5.2953Y-4.6555
X5.3028Y-4.4175
X5.315Y-4.813
X5.3435Y-4.3249
X5.3543Y-4.813
X5.3622Y-4.9276
X5.3909Y-4.3514
X5.4035Y-4.9803
X5.4238Y-4.8002
X5.4312Y-4.3269
X5.4331Y-5.0197
X5.4389Y-4.6419
X5.4626Y-4.8917
X5.4736Y-4.6838
X5.478Y-4.8563
X5.4823Y-4.0453
X5.4823Y-4.1339
X5.4921Y-3.937
X5.4921Y-4.9213
X5.502Y-3.0413
X5.5195Y-4.175
X5.5207Y-4.716
X5.5207Y-4.7554
X5.5207Y-4.7947
X5.5217Y-4.1339
X5.5217Y-4.9409
X5.5512Y-4.6365
X5.561Y-4.9213
X5.5906Y-4.6365
X5.5906Y-4.6758
X5.6156Y-3.9723
X5.6156Y-4.0117
X5.6299Y-4.6365
X5.6299Y-4.6758
X5.655Y-3.9723
X5.655Y-4.0117
X5.6693Y-4.6365
X5.6791Y-4.9705
X5.6791Y-5.0098
X5.6791Y-5.0492
X5.7087Y-4.0945
X5.7185Y-4.9705
X5.7185Y-5.0098
X5.7185Y-5.0492
X5.748Y-4.1929
X5.756Y-3.9743
X5.756Y-4.0137
X5.7579Y-4.9705
X5.7579Y-5.0098
X5.7579Y-5.0492
X5.76Y-5.1885
X5.76Y-5.2279
X5.76Y-5.2673
X5.7954Y-3.9743
X5.7954Y-4.0137
X5.7972Y-4.9705
X5.7972Y-5.0098
X5.7972Y-5.0492
X5.7993Y-5.1885
X5.7993Y-5.2279
X5.7993Y-5.2673
X5.836Y-3.9159
X5.8366Y-4.9705
X5.8366Y-5.0098
X5.8366Y-5.0492
X5.8387Y-5.1885
X5.8387Y-5.2279
X5.8387Y-5.2673
X5.8753Y-3.9159
X5.8753Y-3.9552
X5.8781Y-5.1885
X5.8781Y-5.2279
X5.8781Y-5.2673
X5.9147Y-3.9159
X5.9174Y-5.1885
X5.9174Y-5.2279
X5.9174Y-5.2673
X5.9252Y-4.9213
X5.9646Y-4.9213
X5.9646Y-4.9606
X5.9805Y-3.967
X6.0004Y-4.7397
X6.0004Y-4.7791
X6.0039Y-4.9213
X6.0198Y-3.9276
X6.0198Y-3.967
X6.0397Y-4.7397
X6.0397Y-4.7791
X6.0592Y-3.9276
X6.0592Y-3.967
X6.0791Y-4.7397
X6.0791Y-4.7791
X6.1185Y-4.7397
X6.1185Y-4.7791
X6.1547Y-4.9929
X6.25Y-4.0453
X6.25Y-4.1437
X6.25Y-4.252
X6.2598Y-3.7402
X6.2598Y-3.9469
X6.2598Y-4.3504
X6.2598Y-4.3898
X6.2598Y-4.4291
X6.3091Y-2.8051
X6.3287Y-4.1142
X6.3287Y-4.6949
X6.3287Y-4.7343
X6.3287Y-4.7736
X6.3287Y-4.813
X6.3681Y-3.7008
X6.3681Y-3.7402
X6.3681Y-3.7795
X6.3681Y-3.8189
X6.3681Y-3.8583
X6.3681Y-4.6949
X6.3681Y-4.7343
X6.3681Y-4.7736
X6.3681Y-4.813
X6.4075Y-3.7008
X6.4075Y-3.7402
X6.4075Y-3.7795
X6.4075Y-3.8189
X6.4075Y-3.8583
X6.4075Y-4.6949
X6.4075Y-4.7343
X6.4075Y-4.7736
X6.4075Y-4.813
X6.4207Y-4.5931
X6.4469Y-3.7008
X6.4469Y-3.7402
X6.4469Y-3.7795
X6.4469Y-3.8189
X6.4469Y-3.8583
X6.4469Y-4.6949
X6.4469Y-4.7343
X6.4469Y-4.7736
X6.4862Y-3.7008
X6.4862Y-3.7402
X6.4862Y-3.7795
X6.4862Y-3.8189
X6.4862Y-3.8583
X6.4961Y-4.0157
X6.4961Y-4.0551
X6.4961Y-4.0945
X6.4961Y-4.3701
X6.4961Y-4.4094
X6.4961Y-4.7539
X6.5256Y-3.7008
X6.5256Y-3.7402
X6.5256Y-3.7795
X6.5256Y-3.8189
X6.5256Y-3.8583
X6.5354Y-4.0157
X6.5354Y-4.0551
X6.5354Y-4.0945
X6.5354Y-4.3701
X6.5354Y-4.4094
X6.5354Y-4.4488
X6.565Y-3.7402
X6.565Y-3.7795
X6.565Y-3.8189
X6.565Y-3.8583
X6.565Y-4.2028
X6.5748Y-3.9764
X6.5748Y-4.0157
X6.5748Y-4.0551
X6.5748Y-4.0945
X6.5748Y-4.4094
X6.5748Y-4.4488
X6.5846Y-4.8622
X6.6043Y-3.8189
X6.6043Y-3.8583
X6.6043Y-3.9469
X6.6142Y-4.0157
X6.6142Y-4.0551
X6.6142Y-4.0945
X6.6339Y-3.9173
X6.6437Y-3.8189
X6.6437Y-3.8583
X6.6535Y-4.0157
X6.6535Y-4.0551
X6.6535Y-4.0945
X6.7323Y-4.8622
X6.752Y-4.5079
X6.752Y-4.5472
X6.7913Y-4.5472
X6.7913Y-4.5866
X6.8307Y-4.5768
X6.8307Y-4.6161
X6.8504Y-3.8681
X6.8504Y-3.9075
X6.8504Y-3.9469
X6.8504Y-3.9862
X6.8701Y-4.5965
X6.8701Y-4.6358
X6.8898Y-3.8681
X6.8898Y-3.9075
X6.8898Y-3.9469
X6.8898Y-3.9862
X6.9094Y-4.3504
X6.9094Y-4.6161
X6.9291Y-3.9075
X6.9291Y-3.9469
X6.939Y-4.6457
X6.9587Y-4.3504
X7.0079Y-4.1929
X7.0197Y-4.9437
X7.0374Y-4.2224
X7.0472Y-4.1831
X7.0571Y-4.498
X7.0577Y-4.6469
X7.0856Y-4.6314
X7.0866Y-4.5276
X7.1167Y-4.6359
X7.126Y-4.498
X7.1358Y-4.5866
X7.1457Y-4.5276
X7.1555Y-4.626
X7.185Y-4.5866
X7.1864Y-4.8234
X7.1949Y-4.626
X7.2244Y-4.3701
X7.2713Y-4.8221
X7.3327Y-4.3701
T3
X4.0933Y-4.1245
X4.0933Y-4.3063
X4.0933Y-4.4063
X4.0937Y-4.5057
X4.0938Y-4.0585
X4.0938Y-4.2065
X4.1371Y-4.7789
X4.1834Y-4.8259
X4.2418Y-4.8835
X4.312Y-4.9545
X4.3827Y-5.0252
X4.4532Y-5.0952
X5.1249Y-4.9972
X5.1886Y-5.0148
X5.2679Y-5.0355
X5.3642Y-5.0618
X5.4608Y-5.0877
X5.5568Y-5.113
X6.0148Y-5.151
X6.0787Y-5.1345
X6.1578Y-5.1127
X6.2543Y-5.0874
X6.3509Y-5.0615
X6.4468Y-5.0354
X6.9658Y-5.2232
X7.0129Y-5.1769
X7.0705Y-5.1185
X7.1414Y-5.0483
X7.2121Y-4.9776
X7.2821Y-4.9071
X7.4574Y-4.3368
X7.4574Y-4.4848
X7.4575Y-4.0377
X7.4579Y-4.137
X7.4579Y-4.237
X7.4579Y-4.4188
T4
X4.85Y-4.6413
X4.95Y-4.6413
X5.05Y-4.6413
T5
X7.185Y-4.2008
X7.2563Y-3.8094
X7.2563Y-3.9079
X7.2835Y-4.2008
T6
X4.1768Y-3.7559
X4.1768Y-3.8559
X4.5596Y-5.5053
X4.5596Y-5.6053
X4.5596Y-5.7053
X4.6976Y-5.0059
X4.7276Y-4.7825
X4.7976Y-5.0059
X4.8276Y-4.7825
X4.8976Y-5.0059
X4.9276Y-4.7825
X5.0276Y-4.7825
X5.187Y-2.7844
X5.187Y-2.8844
X5.6252Y-4.7508
X5.7252Y-4.7508
X5.8252Y-4.7508
X5.9252Y-4.7508
X6.7043Y-5.0205
X6.8043Y-5.0205
X6.9043Y-5.0205
T7
X5.3421Y-4.7311
X6.2083Y-4.7311
M30
