%TF.GenerationSoftware,KiCad,Pcbnew,8.0.1*%
%TF.CreationDate,2025-03-10T11:27:28+01:00*%
%TF.ProjectId,main_board,6d61696e-5f62-46f6-9172-642e6b696361,rev?*%
%TF.SameCoordinates,Original*%
%TF.FileFunction,Copper,L2,Bot*%
%TF.FilePolarity,Positive*%
%FSLAX46Y46*%
G04 Gerber Fmt 4.6, Leading zero omitted, Abs format (unit mm)*
G04 Created by KiCad (PCBNEW 8.0.1) date 2025-03-10 11:27:28*
%MOMM*%
%LPD*%
G01*
G04 APERTURE LIST*
G04 Aperture macros list*
%AMRoundRect*
0 Rectangle with rounded corners*
0 $1 Rounding radius*
0 $2 $3 $4 $5 $6 $7 $8 $9 X,Y pos of 4 corners*
0 Add a 4 corners polygon primitive as box body*
4,1,4,$2,$3,$4,$5,$6,$7,$8,$9,$2,$3,0*
0 Add four circle primitives for the rounded corners*
1,1,$1+$1,$2,$3*
1,1,$1+$1,$4,$5*
1,1,$1+$1,$6,$7*
1,1,$1+$1,$8,$9*
0 Add four rect primitives between the rounded corners*
20,1,$1+$1,$2,$3,$4,$5,0*
20,1,$1+$1,$4,$5,$6,$7,0*
20,1,$1+$1,$6,$7,$8,$9,0*
20,1,$1+$1,$8,$9,$2,$3,0*%
G04 Aperture macros list end*
%TA.AperFunction,ComponentPad*%
%ADD10RoundRect,0.248400X0.651600X0.651600X-0.651600X0.651600X-0.651600X-0.651600X0.651600X-0.651600X0*%
%TD*%
%TA.AperFunction,ComponentPad*%
%ADD11C,1.800000*%
%TD*%
%TA.AperFunction,ComponentPad*%
%ADD12RoundRect,0.381000X-0.707107X0.168291X0.168291X-0.707107X0.707107X-0.168291X-0.168291X0.707107X0*%
%TD*%
%TA.AperFunction,ComponentPad*%
%ADD13C,1.200000*%
%TD*%
%TA.AperFunction,ComponentPad*%
%ADD14R,1.700000X1.700000*%
%TD*%
%TA.AperFunction,ComponentPad*%
%ADD15O,1.700000X1.700000*%
%TD*%
%TA.AperFunction,ComponentPad*%
%ADD16RoundRect,0.381000X0.381000X-0.619000X0.381000X0.619000X-0.381000X0.619000X-0.381000X-0.619000X0*%
%TD*%
%TA.AperFunction,ComponentPad*%
%ADD17R,1.508000X1.508000*%
%TD*%
%TA.AperFunction,ComponentPad*%
%ADD18C,1.508000*%
%TD*%
%TA.AperFunction,ComponentPad*%
%ADD19C,3.000000*%
%TD*%
%TA.AperFunction,ComponentPad*%
%ADD20RoundRect,0.381000X-0.381000X0.619000X-0.381000X-0.619000X0.381000X-0.619000X0.381000X0.619000X0*%
%TD*%
%TA.AperFunction,ComponentPad*%
%ADD21RoundRect,0.381000X-0.696518X-0.207809X0.499298X-0.528227X0.696518X0.207809X-0.499298X0.528227X0*%
%TD*%
%TA.AperFunction,ComponentPad*%
%ADD22RoundRect,0.381000X-0.168291X-0.707107X0.707107X0.168291X0.168291X0.707107X-0.707107X-0.168291X0*%
%TD*%
%TA.AperFunction,ComponentPad*%
%ADD23RoundRect,0.381000X-0.499298X-0.528227X0.696518X-0.207809X0.499298X0.528227X-0.696518X0.207809X0*%
%TD*%
%TA.AperFunction,ComponentPad*%
%ADD24RoundRect,0.250000X-0.725000X0.600000X-0.725000X-0.600000X0.725000X-0.600000X0.725000X0.600000X0*%
%TD*%
%TA.AperFunction,ComponentPad*%
%ADD25O,1.950000X1.700000*%
%TD*%
%TA.AperFunction,SMDPad,CuDef*%
%ADD26RoundRect,0.197500X-0.197500X-0.632500X0.197500X-0.632500X0.197500X0.632500X-0.197500X0.632500X0*%
%TD*%
%TA.AperFunction,SMDPad,CuDef*%
%ADD27RoundRect,0.160000X-0.160000X0.197500X-0.160000X-0.197500X0.160000X-0.197500X0.160000X0.197500X0*%
%TD*%
%TA.AperFunction,ComponentPad*%
%ADD28RoundRect,0.250000X0.600000X0.725000X-0.600000X0.725000X-0.600000X-0.725000X0.600000X-0.725000X0*%
%TD*%
%TA.AperFunction,ComponentPad*%
%ADD29O,1.700000X1.950000*%
%TD*%
%TA.AperFunction,SMDPad,CuDef*%
%ADD30RoundRect,0.160000X0.160000X-0.197500X0.160000X0.197500X-0.160000X0.197500X-0.160000X-0.197500X0*%
%TD*%
%TA.AperFunction,ViaPad*%
%ADD31C,0.600000*%
%TD*%
%TA.AperFunction,ViaPad*%
%ADD32C,0.800000*%
%TD*%
%TA.AperFunction,Conductor*%
%ADD33C,1.000000*%
%TD*%
%TA.AperFunction,Conductor*%
%ADD34C,0.400000*%
%TD*%
%TA.AperFunction,Conductor*%
%ADD35C,0.800000*%
%TD*%
%TA.AperFunction,Conductor*%
%ADD36C,0.500000*%
%TD*%
G04 APERTURE END LIST*
D10*
%TO.P,U8,1,OUT*%
%TO.N,STARTER*%
X128270000Y-117890000D03*
D11*
%TO.P,U8,2,Vs*%
%TO.N,+3.3V*%
X125730000Y-117890000D03*
%TO.P,U8,3,GND*%
%TO.N,GND*%
X123190000Y-117890000D03*
%TD*%
D12*
%TO.P,U7,1,VIN*%
%TO.N,+3.3V*%
X113111320Y-129417625D03*
%TO.P,U7,2,GND*%
%TO.N,GND*%
X111320000Y-127640000D03*
%TO.P,U7,3,SCL*%
%TO.N,SCL*%
X109523949Y-125843949D03*
%TO.P,U7,4,SDA*%
%TO.N,SDA*%
X107740667Y-124042000D03*
D13*
%TO.P,U7,5,XSHUT*%
%TO.N,XSHUT_2*%
X106258571Y-122578571D03*
%TO.P,U7,6,GPIO*%
%TO.N,GPIO_2*%
X105082511Y-121383844D03*
%TD*%
D14*
%TO.P,J8,1,Pin_1*%
%TO.N,TX*%
X131750000Y-70725000D03*
D15*
%TO.P,J8,2,Pin_2*%
%TO.N,RX*%
X131750000Y-73265000D03*
%TD*%
D14*
%TO.P,J7,1,Pin_1*%
%TO.N,+3.3V*%
X120080000Y-121475000D03*
D15*
%TO.P,J7,2,Pin_2*%
%TO.N,GND*%
X122620000Y-121475000D03*
%TO.P,J7,3,Pin_3*%
%TO.N,STARTER*%
X125160000Y-121475000D03*
%TO.P,J7,4,Pin_4*%
%TO.N,unconnected-(J7-Pin_4-Pad4)*%
X127700000Y-121475000D03*
%TD*%
D16*
%TO.P,U12,1,VIN*%
%TO.N,+3.3V*%
X189420316Y-102556375D03*
%TO.P,U12,2,GND*%
%TO.N,GND*%
X189430000Y-105080000D03*
%TO.P,U12,3,SCL*%
%TO.N,SCL*%
X189430000Y-107620000D03*
%TO.P,U12,4,SDA*%
%TO.N,SDA*%
X189416800Y-110155141D03*
D13*
%TO.P,U12,5,XSHUT*%
%TO.N,XSHUT_6*%
X189430000Y-112237941D03*
%TO.P,U12,6,GPIO*%
%TO.N,GPIO_6*%
X189416800Y-113914341D03*
%TD*%
D17*
%TO.P,U5,1,GND*%
%TO.N,GND*%
X150500000Y-120670000D03*
D18*
%TO.P,U5,2,VCC_IN*%
%TO.N,+3.3V*%
X147960000Y-120670000D03*
%TO.P,U5,3,SCL*%
%TO.N,SCL_2*%
X145420000Y-120670000D03*
%TO.P,U5,4,SDA*%
%TO.N,SDA_2*%
X142880000Y-120670000D03*
D19*
%TO.P,U5,S1*%
%TO.N,N/C*%
X157690000Y-120170000D03*
%TO.P,U5,S2*%
X135690000Y-120170000D03*
%TD*%
D20*
%TO.P,U6,1,VIN*%
%TO.N,+3.3V*%
X103979684Y-114443625D03*
%TO.P,U6,2,GND*%
%TO.N,GND*%
X103970000Y-111920000D03*
%TO.P,U6,3,SCL*%
%TO.N,SCL*%
X103970000Y-109380000D03*
%TO.P,U6,4,SDA*%
%TO.N,SDA*%
X103983200Y-106844859D03*
D13*
%TO.P,U6,5,XSHUT*%
%TO.N,XSHUT_1*%
X103970000Y-104762059D03*
%TO.P,U6,6,GPIO*%
%TO.N,GPIO_1*%
X103983200Y-103085659D03*
%TD*%
D21*
%TO.P,U9,1,VIN*%
%TO.N,+3.3V*%
X141143593Y-129871209D03*
%TO.P,U9,2,GND*%
%TO.N,GND*%
X138703451Y-129227401D03*
%TO.P,U9,3,SCL*%
%TO.N,SCL*%
X136250000Y-128570000D03*
%TO.P,U9,4,SDA*%
%TO.N,SDA*%
X133804658Y-127901108D03*
D13*
%TO.P,U9,5,XSHUT*%
%TO.N,XSHUT_3*%
X131789412Y-127374790D03*
%TO.P,U9,6,GPIO*%
%TO.N,GPIO_3*%
X130173550Y-126928155D03*
%TD*%
D22*
%TO.P,U11,1,VIN*%
%TO.N,+3.3V*%
X184965625Y-124639347D03*
%TO.P,U11,2,GND*%
%TO.N,GND*%
X183188000Y-126430667D03*
%TO.P,U11,3,SCL*%
%TO.N,SCL*%
X181391949Y-128226718D03*
%TO.P,U11,4,SDA*%
%TO.N,SDA*%
X179590000Y-130010000D03*
D13*
%TO.P,U11,5,XSHUT*%
%TO.N,XSHUT_5*%
X178126571Y-131492096D03*
%TO.P,U11,6,GPIO*%
%TO.N,GPIO_5*%
X176931844Y-132668156D03*
%TD*%
D23*
%TO.P,U10,1,VIN*%
%TO.N,+3.3V*%
X163748580Y-127900083D03*
%TO.P,U10,2,GND*%
%TO.N,GND*%
X161313452Y-128562600D03*
%TO.P,U10,3,SCL*%
%TO.N,SCL*%
X158860000Y-129220000D03*
%TO.P,U10,4,SDA*%
%TO.N,SDA*%
X156407826Y-129863394D03*
D13*
%TO.P,U10,5,XSHUT*%
%TO.N,XSHUT_4*%
X154399412Y-130415211D03*
%TO.P,U10,6,GPIO*%
%TO.N,GPIO_4*%
X152776717Y-130836345D03*
%TD*%
D24*
%TO.P,J2,1,Pin_1*%
%TO.N,BO1*%
X184310000Y-96760000D03*
D25*
%TO.P,J2,2,Pin_2*%
%TO.N,BO2*%
X184310000Y-99260000D03*
%TD*%
D14*
%TO.P,J6,1,Pin_1*%
%TO.N,GND*%
X170290000Y-127520000D03*
D15*
%TO.P,J6,2,Pin_2*%
%TO.N,SIGNAL_IR_01*%
X172830000Y-127520000D03*
%TO.P,J6,3,Pin_3*%
%TO.N,+3.3V*%
X175370000Y-127520000D03*
%TD*%
D26*
%TO.P,U4,1,K*%
%TO.N,Net-(U4-K)*%
X107134366Y-140392500D03*
%TO.P,U4,2,A*%
%TO.N,Net-(J4-Pin_3)*%
X107134366Y-144392500D03*
%TO.P,U4,3*%
X108934366Y-140392500D03*
%TO.P,U4,4*%
%TO.N,Net-(J4-Pin_2)*%
X108934366Y-144392500D03*
%TD*%
D27*
%TO.P,R1,1*%
%TO.N,Net-(U4-K)*%
X111700000Y-139845000D03*
%TO.P,R1,2*%
%TO.N,GND2*%
X111700000Y-141040000D03*
%TD*%
D28*
%TO.P,J1,1,Pin_1*%
%TO.N,AO1*%
X185000000Y-106700000D03*
D29*
%TO.P,J1,2,Pin_2*%
%TO.N,AO2*%
X182500000Y-106700000D03*
%TD*%
D30*
%TO.P,R4,1*%
%TO.N,Net-(J4-Pin_2)*%
X111690000Y-144417500D03*
%TO.P,R4,2*%
%TO.N,GND2*%
X111690000Y-143222500D03*
%TD*%
D14*
%TO.P,J4,1,Pin_1*%
%TO.N,GND2*%
X115815000Y-139835000D03*
D15*
%TO.P,J4,2,Pin_2*%
%TO.N,Net-(J4-Pin_2)*%
X115815000Y-142375000D03*
%TO.P,J4,3,Pin_3*%
%TO.N,Net-(J4-Pin_3)*%
X115815000Y-144915000D03*
%TD*%
D14*
%TO.P,J5,1,Pin_1*%
%TO.N,GND*%
X119320000Y-127150000D03*
D15*
%TO.P,J5,2,Pin_2*%
%TO.N,SIGNAL_IR_02*%
X121860000Y-127150000D03*
%TO.P,J5,3,Pin_3*%
%TO.N,+3.3V*%
X124400000Y-127150000D03*
%TD*%
D14*
%TO.P,J3,1,Pin_1*%
%TO.N,GND*%
X106090000Y-97940000D03*
D15*
%TO.P,J3,2,Pin_2*%
%TO.N,LOAD*%
X106090000Y-95400000D03*
%TD*%
D31*
%TO.N,GND*%
X143636380Y-101896365D03*
X115000000Y-121500000D03*
X144250000Y-126250000D03*
X115000000Y-122500000D03*
D32*
X129286800Y-103511600D03*
D31*
X121000000Y-124500000D03*
X134250000Y-121750000D03*
X175500000Y-117250000D03*
X159000000Y-112500000D03*
X149302810Y-131789129D03*
X118000000Y-122500000D03*
X165000000Y-103000000D03*
X162750000Y-119250000D03*
X150500000Y-125000000D03*
X159000000Y-110500000D03*
X160750000Y-120250000D03*
X160750000Y-121250000D03*
X181000000Y-114250000D03*
X140225440Y-119785893D03*
X116000000Y-120500000D03*
X148250000Y-128250000D03*
X134000000Y-117750000D03*
X148302810Y-131789129D03*
X179250000Y-114250000D03*
X142000000Y-118765923D03*
X115000000Y-119500000D03*
X117000000Y-120500000D03*
X133500000Y-122250000D03*
X118000000Y-120500000D03*
X155409497Y-120388628D03*
D32*
X125476800Y-103511600D03*
D31*
X113000000Y-118500000D03*
X138146815Y-117905001D03*
X150233177Y-99462757D03*
X166000000Y-103000000D03*
X138000000Y-127500000D03*
X180000000Y-115000000D03*
X167000000Y-102000000D03*
X152903747Y-100761605D03*
X143000000Y-117765923D03*
X121519037Y-109993828D03*
X163750000Y-121250000D03*
X116000000Y-118500000D03*
X121000000Y-123500000D03*
X169000000Y-102000000D03*
X123250000Y-114750000D03*
X166000000Y-113000000D03*
X134689996Y-112205470D03*
X175000000Y-101250000D03*
X151500000Y-126000000D03*
X150302810Y-133789129D03*
X178750000Y-107250000D03*
X168000000Y-102000000D03*
X154409497Y-120388628D03*
X169000000Y-104000000D03*
X118000000Y-123500000D03*
X136930011Y-110525908D03*
X149233177Y-100462757D03*
X173500000Y-117250000D03*
X166000000Y-104000000D03*
X140250000Y-125500000D03*
X118000000Y-121500000D03*
X155409497Y-121388628D03*
X147302810Y-132789129D03*
X144250000Y-128250000D03*
X153903747Y-99761605D03*
X119000000Y-123500000D03*
X147202778Y-100946922D03*
X134500000Y-118250000D03*
X162750000Y-120250000D03*
X148233177Y-99462757D03*
X142636380Y-100896365D03*
X119445144Y-110341475D03*
X148302810Y-133789129D03*
X143000000Y-118765923D03*
X121750000Y-116750000D03*
X146250000Y-127250000D03*
X150302810Y-131789129D03*
X146250000Y-126250000D03*
X151903747Y-100761605D03*
X139500000Y-125000000D03*
X178000000Y-106500000D03*
X159000000Y-111500000D03*
X137953400Y-109904102D03*
X175000000Y-100250000D03*
X165000000Y-104000000D03*
X144250000Y-127250000D03*
X123640881Y-110485329D03*
X153903747Y-100761605D03*
X118000000Y-124500000D03*
X174500000Y-116750000D03*
X166000000Y-112000000D03*
X134076826Y-112922274D03*
X151500000Y-125000000D03*
X168000000Y-103000000D03*
X133750000Y-118750000D03*
X146202778Y-100946922D03*
X146202778Y-101946922D03*
X181750000Y-117500000D03*
X144000000Y-117765923D03*
X116000000Y-122500000D03*
X152500000Y-125000000D03*
X114000000Y-118500000D03*
X165000000Y-102000000D03*
X145250000Y-127250000D03*
D32*
X122936800Y-103511600D03*
D31*
X176250000Y-118000000D03*
X117000000Y-123500000D03*
X123993409Y-115823964D03*
X119325266Y-109586242D03*
X152903747Y-99761605D03*
X167000000Y-112000000D03*
X146302810Y-133789129D03*
X138750000Y-124250000D03*
X167000000Y-104000000D03*
X179000000Y-106250000D03*
X160750000Y-119250000D03*
X149302810Y-132789129D03*
X116000000Y-119500000D03*
X121531025Y-110773037D03*
X161750000Y-119250000D03*
X115000000Y-118500000D03*
X173500000Y-116250000D03*
X121750000Y-115500000D03*
X148250000Y-126250000D03*
D32*
X124206800Y-103511600D03*
D31*
X140225440Y-121785893D03*
X166000000Y-102000000D03*
X124500000Y-114750000D03*
X174000000Y-101250000D03*
X152409497Y-120388628D03*
X137250000Y-126500000D03*
X161750000Y-122250000D03*
X174000000Y-98250000D03*
D32*
X128016800Y-103511600D03*
D31*
X167000000Y-103000000D03*
X172500000Y-116500000D03*
X122750000Y-115750000D03*
X163750000Y-120250000D03*
X153409497Y-121388628D03*
X147302810Y-133789129D03*
X165000000Y-112000000D03*
X140225440Y-120785893D03*
X162750000Y-121250000D03*
X145250000Y-126250000D03*
X176000000Y-100250000D03*
X172500000Y-115500000D03*
X117000000Y-122500000D03*
X147202778Y-101946922D03*
X176000000Y-99250000D03*
X161750000Y-120250000D03*
X142000000Y-117765923D03*
X117000000Y-118500000D03*
X135725262Y-109852285D03*
X147250000Y-126250000D03*
X116000000Y-124500000D03*
X117000000Y-124500000D03*
X141000000Y-117765923D03*
X118000000Y-119500000D03*
X146302810Y-131789129D03*
X163750000Y-119250000D03*
X175000000Y-98250000D03*
X171500000Y-115500000D03*
X142636380Y-101896365D03*
X122000000Y-114500000D03*
X160750000Y-122250000D03*
X149302810Y-133789129D03*
X174000000Y-100250000D03*
X118000000Y-118500000D03*
X119000000Y-124500000D03*
X120000000Y-124500000D03*
X146250000Y-128250000D03*
X149233177Y-99462757D03*
X133500000Y-121250000D03*
X176750000Y-110500000D03*
X143636380Y-100896365D03*
X181500000Y-115000000D03*
X165000000Y-111000000D03*
X115000000Y-124500000D03*
X148250000Y-127250000D03*
X114000000Y-119500000D03*
X122000000Y-123500000D03*
X182500000Y-116500000D03*
X116000000Y-121500000D03*
X182750000Y-117500000D03*
X167000000Y-113000000D03*
X115000000Y-123500000D03*
X147250000Y-127250000D03*
X136000000Y-122250000D03*
X175000000Y-99250000D03*
X162750000Y-122250000D03*
X152409497Y-121388628D03*
X147250000Y-128250000D03*
X150302810Y-132789129D03*
X161750000Y-121250000D03*
X148302810Y-132789129D03*
X120000000Y-123500000D03*
X169000000Y-103000000D03*
X154409497Y-121388628D03*
X174500000Y-117750000D03*
X174000000Y-99250000D03*
X115000000Y-120500000D03*
X135000000Y-122250000D03*
X123736783Y-109670157D03*
X146302810Y-132789129D03*
X171500000Y-114500000D03*
X181250000Y-116500000D03*
D32*
X126746800Y-103511600D03*
D31*
X122000000Y-124500000D03*
X116000000Y-123500000D03*
X175500000Y-110500000D03*
X168000000Y-104000000D03*
X145250000Y-128250000D03*
X166000000Y-111000000D03*
X153409497Y-120388628D03*
X147302810Y-131789129D03*
X117000000Y-121500000D03*
X117000000Y-119500000D03*
%TO.N,+3.3V*%
X134170000Y-123500000D03*
X129750000Y-106750000D03*
X166750000Y-106750000D03*
D32*
X116940400Y-102500000D03*
X122050000Y-105620000D03*
X145000000Y-104000000D03*
D31*
X130750000Y-106750000D03*
%TO.N,VCC*%
X163750000Y-98000000D03*
X162750000Y-94000000D03*
X117250000Y-96000000D03*
X161750000Y-95000000D03*
X161750000Y-97000000D03*
X117000000Y-99000000D03*
X161750000Y-96000000D03*
X116250000Y-94000000D03*
X168750000Y-97000000D03*
X119250000Y-95000000D03*
X167750000Y-98000000D03*
X117000000Y-98000000D03*
X119250000Y-94000000D03*
X166750000Y-98000000D03*
X164750000Y-95000000D03*
X118250000Y-96000000D03*
X117250000Y-97000000D03*
X120250000Y-95000000D03*
X162750000Y-98000000D03*
X121250000Y-93250000D03*
X120250000Y-96000000D03*
X163750000Y-95000000D03*
X120250000Y-94000000D03*
X164750000Y-96000000D03*
X118250000Y-97000000D03*
X117250000Y-94000000D03*
X122250000Y-93250000D03*
X163750000Y-94000000D03*
X162750000Y-97000000D03*
X163750000Y-97000000D03*
X119250000Y-96000000D03*
X161750000Y-98000000D03*
X164750000Y-97000000D03*
X116250000Y-95000000D03*
X165750000Y-97000000D03*
X118250000Y-95000000D03*
X165750000Y-98000000D03*
X117250000Y-95000000D03*
X120250000Y-97000000D03*
X165750000Y-94000000D03*
X166750000Y-97000000D03*
X166750000Y-95000000D03*
X163750000Y-96000000D03*
X162750000Y-95000000D03*
X165750000Y-95000000D03*
X168750000Y-98000000D03*
X167750000Y-97000000D03*
X165750000Y-96000000D03*
X161750000Y-94000000D03*
X118250000Y-94000000D03*
X162750000Y-96000000D03*
X164750000Y-94000000D03*
X164750000Y-98000000D03*
X119250000Y-97000000D03*
X166750000Y-96000000D03*
X116250000Y-97000000D03*
X116250000Y-96000000D03*
%TO.N,PWMA*%
X180765128Y-117752565D03*
X158750000Y-105250000D03*
%TO.N,PWMB*%
X159000000Y-95000000D03*
X168500000Y-99500000D03*
%TO.N,BIN2*%
X159000000Y-100250000D03*
X167750000Y-100250000D03*
%TO.N,BIN1*%
X158750000Y-102750000D03*
X167000000Y-101000000D03*
%TO.N,XSHUT_1*%
X140250000Y-105000000D03*
%TO.N,SCL*%
X139140000Y-123350000D03*
X178300000Y-125570000D03*
X139030331Y-118969669D03*
X137765000Y-121925000D03*
X156330000Y-126820000D03*
%TO.N,SDA*%
X184690331Y-122480331D03*
X182534669Y-122514669D03*
X136200000Y-125160000D03*
X105999669Y-111000331D03*
X111704669Y-124915331D03*
%TO.N,XSHUT_2*%
X139250000Y-105000000D03*
X115750000Y-113250000D03*
X109250000Y-119750000D03*
X116000000Y-109750000D03*
X111250000Y-117750000D03*
%TO.N,XSHUT_3*%
X132500000Y-114750000D03*
%TO.N,XSHUT_4*%
X132494975Y-115744975D03*
X141250000Y-125000000D03*
%TO.N,XSHUT_5*%
X160750000Y-104500000D03*
X165000000Y-120750000D03*
X167250000Y-123500000D03*
X139250000Y-102750000D03*
X163085786Y-116664214D03*
%TO.N,XSHUT_6*%
X186250000Y-111000000D03*
X183500000Y-111000000D03*
X139500000Y-100000000D03*
%TO.N,AIN2*%
X179973438Y-117637535D03*
X158750000Y-108000000D03*
%TO.N,AIN1*%
X179265598Y-118030588D03*
X146000000Y-106500000D03*
%TO.N,STARTER*%
X132464950Y-110764950D03*
%TO.N,SIGNAL_IR_01*%
X171000000Y-123500000D03*
%TO.N,SIGNAL_IR_02*%
X140195710Y-106044240D03*
%TO.N,GND2*%
X104770000Y-142380000D03*
X104360000Y-143280000D03*
X104000000Y-142380000D03*
X104260000Y-141510000D03*
%TO.N,SWITCH_1*%
X132290397Y-108949553D03*
X114000000Y-113000000D03*
%TO.N,SWITCH_2*%
X131600762Y-109638139D03*
X111500000Y-113000000D03*
D32*
%TO.N,LED_2*%
X139750000Y-77250000D03*
X160250000Y-71250000D03*
%TD*%
D33*
%TO.N,+3.3V*%
X184750000Y-110800000D02*
X184750000Y-118250000D01*
D34*
X116940400Y-102500000D02*
X117890000Y-102500000D01*
D33*
X184058764Y-123732486D02*
X185872486Y-123732486D01*
X131189588Y-106750000D02*
X129750000Y-106750000D01*
X124400000Y-130450000D02*
X124400000Y-127150000D01*
X186750000Y-122854972D02*
X185872486Y-123732486D01*
X163748580Y-124331420D02*
X163337160Y-123920000D01*
X141172384Y-128583593D02*
X142460000Y-129871209D01*
X177750000Y-122830000D02*
X173000000Y-122830000D01*
X149618791Y-129871209D02*
X142460000Y-129871209D01*
X145000000Y-104000000D02*
X155578428Y-104000000D01*
X142460000Y-129871209D02*
X141143593Y-129871209D01*
D34*
X121010000Y-105620000D02*
X122050000Y-105620000D01*
D33*
X163337160Y-123920000D02*
X155570000Y-123920000D01*
X136060000Y-123500000D02*
X139155000Y-126595000D01*
X184965625Y-124639347D02*
X184046278Y-123720000D01*
X113111320Y-121611320D02*
X113111320Y-129417625D01*
X114813695Y-131120000D02*
X123730000Y-131120000D01*
X133939588Y-104000000D02*
X131189588Y-106750000D01*
X113111320Y-129417625D02*
X114813695Y-131120000D01*
X123730000Y-131120000D02*
X124400000Y-130450000D01*
X184750000Y-118250000D02*
X186750000Y-120250000D01*
X181880000Y-123720000D02*
X180990000Y-122830000D01*
X147960000Y-120670000D02*
X142035000Y-126595000D01*
X186750000Y-120250000D02*
X186750000Y-122854972D01*
X105943625Y-114443625D02*
X113111320Y-121611320D01*
X187330000Y-103240000D02*
X187330000Y-108220000D01*
X163748580Y-123691420D02*
X163748580Y-124331420D01*
X134170000Y-123500000D02*
X136060000Y-123500000D01*
X185872486Y-123732486D02*
X184965625Y-124639347D01*
X155578428Y-104000000D02*
X158328428Y-106750000D01*
X158328428Y-106750000D02*
X166750000Y-106750000D01*
X184046278Y-123720000D02*
X181880000Y-123720000D01*
D35*
X184046278Y-123720000D02*
X184058764Y-123732486D01*
D33*
X145000000Y-104000000D02*
X133939588Y-104000000D01*
X163748580Y-124331420D02*
X163748580Y-127900083D01*
X155570000Y-123920000D02*
X149618791Y-129871209D01*
X103979684Y-114443625D02*
X105943625Y-114443625D01*
X188013625Y-102556375D02*
X187330000Y-103240000D01*
X172420000Y-122250000D02*
X165190000Y-122250000D01*
X180990000Y-122830000D02*
X177750000Y-122830000D01*
X141143593Y-128583593D02*
X141143593Y-129871209D01*
X139155000Y-126595000D02*
X141143593Y-128583593D01*
X175370000Y-125200000D02*
X173000000Y-122830000D01*
X173000000Y-122830000D02*
X172420000Y-122250000D01*
X165190000Y-122250000D02*
X163748580Y-123691420D01*
D34*
X117890000Y-102500000D02*
X121010000Y-105620000D01*
D33*
X142035000Y-126595000D02*
X139155000Y-126595000D01*
X187330000Y-108220000D02*
X184750000Y-110800000D01*
X189420316Y-102556375D02*
X188013625Y-102556375D01*
X175370000Y-127520000D02*
X175370000Y-125200000D01*
D35*
X141143593Y-128583593D02*
X141172384Y-128583593D01*
D34*
%TO.N,PWMA*%
X180765128Y-117752565D02*
X180765128Y-117439275D01*
X159250000Y-105750000D02*
X158750000Y-105250000D01*
X169075853Y-105750000D02*
X159250000Y-105750000D01*
X180765128Y-117439275D02*
X169075853Y-105750000D01*
%TO.N,PWMB*%
X168500000Y-99500000D02*
X168000000Y-99500000D01*
X168000000Y-99500000D02*
X161000000Y-99500000D01*
X160750000Y-99250000D02*
X160000000Y-98500000D01*
X161000000Y-99500000D02*
X160750000Y-99250000D01*
X160000000Y-98500000D02*
X160000000Y-96000000D01*
X160000000Y-96000000D02*
X159000000Y-95000000D01*
%TO.N,BIN2*%
X167750000Y-100250000D02*
X159000000Y-100250000D01*
%TO.N,BIN1*%
X159500000Y-102750000D02*
X158750000Y-102750000D01*
X161250000Y-101000000D02*
X159500000Y-102750000D01*
X167000000Y-101000000D02*
X161250000Y-101000000D01*
%TO.N,XSHUT_1*%
X140250000Y-105000000D02*
X138819853Y-106430147D01*
X138701472Y-106450000D02*
X133648528Y-106450000D01*
X133648528Y-106450000D02*
X127848528Y-112250000D01*
X138721325Y-106430147D02*
X138701472Y-106450000D01*
X127848528Y-112250000D02*
X118500000Y-112250000D01*
X107012059Y-104762059D02*
X103970000Y-104762059D01*
X117100000Y-110850000D02*
X113100000Y-110850000D01*
X118500000Y-112250000D02*
X117100000Y-110850000D01*
X113100000Y-110850000D02*
X107012059Y-104762059D01*
X138819853Y-106430147D02*
X138721325Y-106430147D01*
D36*
%TO.N,SCL*%
X178300000Y-125570000D02*
X178735231Y-125570000D01*
X178735231Y-125570000D02*
X181391949Y-128226718D01*
X138500000Y-119500000D02*
X139030331Y-118969669D01*
X138500000Y-121190000D02*
X138500000Y-119500000D01*
X137765000Y-121925000D02*
X138500000Y-121190000D01*
X139140000Y-123350000D02*
X139140000Y-123300000D01*
X158730000Y-129220000D02*
X156330000Y-126820000D01*
X158860000Y-129220000D02*
X158730000Y-129220000D01*
X139140000Y-123300000D02*
X137765000Y-121925000D01*
%TO.N,SDA*%
X182530000Y-122470000D02*
X182530000Y-122510000D01*
X184690331Y-122480331D02*
X184680000Y-122470000D01*
X110520000Y-123690000D02*
X108092667Y-123690000D01*
X136200000Y-125160000D02*
X134745342Y-126614658D01*
X134745342Y-126614658D02*
X133804658Y-127555342D01*
X106110000Y-108971659D02*
X106110000Y-110890000D01*
X184680000Y-122470000D02*
X182530000Y-122470000D01*
X106110000Y-110890000D02*
X105999669Y-111000331D01*
X111704669Y-124874669D02*
X110520000Y-123690000D01*
X103983200Y-106844859D02*
X106110000Y-108971659D01*
X182530000Y-122510000D02*
X182534669Y-122514669D01*
X111704669Y-124915331D02*
X111704669Y-124874669D01*
X108092667Y-123690000D02*
X107740667Y-124042000D01*
X133804658Y-127555342D02*
X133804658Y-127901108D01*
D34*
%TO.N,XSHUT_2*%
X127750000Y-111500000D02*
X119000000Y-111500000D01*
X111750000Y-117750000D02*
X115750000Y-113750000D01*
X106258571Y-122578571D02*
X109087142Y-119750000D01*
X119000000Y-111500000D02*
X117250000Y-109750000D01*
X111250000Y-117750000D02*
X111750000Y-117750000D01*
X115750000Y-113750000D02*
X115750000Y-113250000D01*
X138500000Y-105750000D02*
X133500000Y-105750000D01*
X133500000Y-105750000D02*
X127750000Y-111500000D01*
X139250000Y-105000000D02*
X138500000Y-105750000D01*
X117250000Y-109750000D02*
X116000000Y-109750000D01*
X109087142Y-119750000D02*
X109250000Y-119750000D01*
%TO.N,XSHUT_3*%
X132500000Y-114750000D02*
X131789412Y-115460588D01*
X131789412Y-115460588D02*
X131789412Y-127374790D01*
%TO.N,XSHUT_4*%
X132494975Y-116494975D02*
X133000000Y-117000000D01*
X132494975Y-115744975D02*
X132494975Y-116494975D01*
X141250000Y-119500000D02*
X141250000Y-125000000D01*
X138750000Y-117000000D02*
X141250000Y-119500000D01*
X133000000Y-117000000D02*
X138750000Y-117000000D01*
%TO.N,XSHUT_5*%
X156500000Y-102750000D02*
X139250000Y-102750000D01*
X169250000Y-129750000D02*
X176384475Y-129750000D01*
X160750000Y-104500000D02*
X160500000Y-104250000D01*
X167250000Y-127750000D02*
X169250000Y-129750000D01*
X165000000Y-118750000D02*
X165000000Y-118578428D01*
X167250000Y-123500000D02*
X167250000Y-127750000D01*
X165000000Y-118578428D02*
X163085786Y-116664214D01*
X160500000Y-104250000D02*
X158000000Y-104250000D01*
X158000000Y-104250000D02*
X156500000Y-102750000D01*
X176384475Y-129750000D02*
X178126571Y-131492096D01*
X165000000Y-118750000D02*
X165000000Y-120750000D01*
%TO.N,XSHUT_6*%
X158250000Y-103500000D02*
X156750000Y-102000000D01*
X181000000Y-111000000D02*
X175000000Y-105000000D01*
X156750000Y-102000000D02*
X149500000Y-102000000D01*
X147500000Y-100000000D02*
X139500000Y-100000000D01*
X183500000Y-111000000D02*
X181000000Y-111000000D01*
X175000000Y-105000000D02*
X162500000Y-105000000D01*
X162500000Y-105000000D02*
X161000000Y-103500000D01*
X161000000Y-103500000D02*
X158250000Y-103500000D01*
X187487941Y-112237941D02*
X189430000Y-112237941D01*
X186250000Y-111000000D02*
X187487941Y-112237941D01*
X149500000Y-102000000D02*
X147500000Y-100000000D01*
%TO.N,AIN2*%
X170335903Y-108000000D02*
X158750000Y-108000000D01*
X179973438Y-117637535D02*
X170335903Y-108000000D01*
%TO.N,AIN1*%
X170000000Y-109250000D02*
X158750000Y-109250000D01*
X156000000Y-106500000D02*
X146000000Y-106500000D01*
X179265598Y-118030588D02*
X178780588Y-118030588D01*
X158750000Y-109250000D02*
X156000000Y-106500000D01*
X178780588Y-118030588D02*
X170000000Y-109250000D01*
%TO.N,STARTER*%
X128270000Y-116230000D02*
X128270000Y-117890000D01*
X132464950Y-110764950D02*
X132464950Y-112035050D01*
X132464950Y-112035050D02*
X128270000Y-116230000D01*
%TO.N,SIGNAL_IR_01*%
X171000000Y-123500000D02*
X172830000Y-125330000D01*
X172830000Y-125330000D02*
X172830000Y-127520000D01*
%TO.N,SIGNAL_IR_02*%
X140195710Y-106044240D02*
X139189950Y-107050000D01*
X133750000Y-112250000D02*
X130250000Y-115750000D01*
X135450000Y-107050000D02*
X133750000Y-108750000D01*
X133750000Y-108750000D02*
X133750000Y-112250000D01*
X130250000Y-122500000D02*
X128000000Y-124750000D01*
X139189950Y-107050000D02*
X135450000Y-107050000D01*
X128000000Y-124750000D02*
X124260000Y-124750000D01*
X130250000Y-115750000D02*
X130250000Y-122500000D01*
X124260000Y-124750000D02*
X121860000Y-127150000D01*
D36*
%TO.N,GND2*%
X111700000Y-143212500D02*
X111690000Y-143222500D01*
D34*
%TO.N,SWITCH_1*%
X132300762Y-109939188D02*
X131750000Y-110489950D01*
X116625000Y-112500000D02*
X114500000Y-112500000D01*
X132290397Y-109337824D02*
X132300762Y-109348189D01*
X129500000Y-113750000D02*
X117875000Y-113750000D01*
X131750000Y-111500000D02*
X129500000Y-113750000D01*
X114500000Y-112500000D02*
X114000000Y-113000000D01*
X117875000Y-113750000D02*
X116625000Y-112500000D01*
X132300762Y-109348189D02*
X132300762Y-109939188D01*
X131750000Y-110489950D02*
X131750000Y-111500000D01*
X132290397Y-108949553D02*
X132290397Y-109337824D01*
%TO.N,SWITCH_2*%
X131600762Y-109638139D02*
X131000000Y-110238901D01*
X118250000Y-113000000D02*
X116900000Y-111650000D01*
X131000000Y-110238901D02*
X131000000Y-111000000D01*
X131000000Y-111000000D02*
X129000000Y-113000000D01*
X116900000Y-111650000D02*
X112850000Y-111650000D01*
X112850000Y-111650000D02*
X111500000Y-113000000D01*
X129000000Y-113000000D02*
X118250000Y-113000000D01*
D36*
%TO.N,Net-(J4-Pin_2)*%
X108934366Y-144392500D02*
X112577500Y-144392500D01*
X114595000Y-142375000D02*
X115815000Y-142375000D01*
X112577500Y-144392500D02*
X114595000Y-142375000D01*
%TO.N,Net-(J4-Pin_3)*%
X108934366Y-141435634D02*
X107134366Y-143235634D01*
X107134366Y-143235634D02*
X107134366Y-144392500D01*
X114950000Y-145780000D02*
X115815000Y-144915000D01*
X107134366Y-145194366D02*
X107720000Y-145780000D01*
X107720000Y-145780000D02*
X114950000Y-145780000D01*
X107134366Y-144392500D02*
X107134366Y-145194366D01*
X108934366Y-140392500D02*
X108934366Y-141435634D01*
%TO.N,Net-(U4-K)*%
X107870000Y-138780000D02*
X107134366Y-139515634D01*
X111170000Y-138780000D02*
X107870000Y-138780000D01*
X111700000Y-139310000D02*
X111170000Y-138780000D01*
X111700000Y-139845000D02*
X111700000Y-139310000D01*
X107134366Y-139515634D02*
X107134366Y-140392500D01*
%TO.N,LED_2*%
X160250000Y-71250000D02*
X154250000Y-77250000D01*
X154250000Y-77250000D02*
X139750000Y-77250000D01*
%TD*%
%TA.AperFunction,Conductor*%
%TO.N,GND2*%
G36*
X117679773Y-137634078D02*
G01*
X117746662Y-137654265D01*
X117792020Y-137707410D01*
X117801445Y-137776641D01*
X117791075Y-137810802D01*
X117592582Y-138233306D01*
X117587741Y-138242573D01*
X117567973Y-138276815D01*
X117565292Y-138286822D01*
X117557753Y-138307443D01*
X117553350Y-138316816D01*
X117553348Y-138316821D01*
X117546374Y-138355721D01*
X117544096Y-138365927D01*
X117533866Y-138404109D01*
X117533866Y-138414462D01*
X117531920Y-138436342D01*
X117530093Y-138446531D01*
X117530093Y-138446535D01*
X117533425Y-138485921D01*
X117533866Y-138496374D01*
X117533866Y-146245498D01*
X117514181Y-146312537D01*
X117461377Y-146358292D01*
X117409861Y-146369498D01*
X117384614Y-146369496D01*
X117368502Y-146369496D01*
X117368500Y-146369496D01*
X117360449Y-146369496D01*
X117360387Y-146369500D01*
X115292729Y-146369500D01*
X115225690Y-146349815D01*
X115179935Y-146297011D01*
X115169991Y-146227853D01*
X115199016Y-146164297D01*
X115220825Y-146146290D01*
X115220169Y-146145435D01*
X115226610Y-146140492D01*
X115226611Y-146140490D01*
X115226614Y-146140489D01*
X115408997Y-145958104D01*
X115470318Y-145924621D01*
X115532670Y-145927125D01*
X115609066Y-145950300D01*
X115609065Y-145950300D01*
X115627529Y-145952118D01*
X115815000Y-145970583D01*
X116020934Y-145950300D01*
X116218954Y-145890232D01*
X116401450Y-145792685D01*
X116561410Y-145661410D01*
X116692685Y-145501450D01*
X116790232Y-145318954D01*
X116850300Y-145120934D01*
X116870583Y-144915000D01*
X116850300Y-144709066D01*
X116790232Y-144511046D01*
X116692685Y-144328550D01*
X116589831Y-144203221D01*
X116561410Y-144168589D01*
X116401452Y-144037317D01*
X116401453Y-144037317D01*
X116401450Y-144037315D01*
X116218954Y-143939768D01*
X116020934Y-143879700D01*
X116020932Y-143879699D01*
X116020934Y-143879699D01*
X115815000Y-143859417D01*
X115609067Y-143879699D01*
X115411043Y-143939769D01*
X115300898Y-143998643D01*
X115228550Y-144037315D01*
X115228548Y-144037316D01*
X115228547Y-144037317D01*
X115068589Y-144168589D01*
X114937317Y-144328547D01*
X114839769Y-144511043D01*
X114779699Y-144709067D01*
X114759417Y-144914999D01*
X114779699Y-145120931D01*
X114779700Y-145120934D01*
X114794434Y-145169506D01*
X114795057Y-145239372D01*
X114757808Y-145298485D01*
X114694514Y-145328076D01*
X114675773Y-145329500D01*
X109625751Y-145329500D01*
X109558712Y-145309815D01*
X109512957Y-145257011D01*
X109503013Y-145187853D01*
X109512211Y-145158840D01*
X109512090Y-145158801D01*
X109515106Y-145149519D01*
X109529866Y-145056328D01*
X109529866Y-144967000D01*
X109549551Y-144899961D01*
X109602355Y-144854206D01*
X109653866Y-144843000D01*
X111196814Y-144843000D01*
X111263853Y-144862685D01*
X111284496Y-144879320D01*
X111317624Y-144912449D01*
X111317627Y-144912451D01*
X111406674Y-144955983D01*
X111425714Y-144965291D01*
X111495785Y-144975500D01*
X111884214Y-144975499D01*
X111954286Y-144965291D01*
X111954290Y-144965289D01*
X111954291Y-144965289D01*
X112062372Y-144912451D01*
X112062375Y-144912449D01*
X112095504Y-144879320D01*
X112156826Y-144845834D01*
X112183186Y-144843000D01*
X112636808Y-144843000D01*
X112636809Y-144843000D01*
X112727173Y-144818786D01*
X112751387Y-144812299D01*
X112854114Y-144752989D01*
X114717498Y-142889604D01*
X114778819Y-142856121D01*
X114848511Y-142861105D01*
X114904444Y-142902977D01*
X114914535Y-142918833D01*
X114937313Y-142961447D01*
X114937315Y-142961450D01*
X115068589Y-143121410D01*
X115165209Y-143200702D01*
X115228550Y-143252685D01*
X115411046Y-143350232D01*
X115609066Y-143410300D01*
X115609065Y-143410300D01*
X115627529Y-143412118D01*
X115815000Y-143430583D01*
X116020934Y-143410300D01*
X116218954Y-143350232D01*
X116401450Y-143252685D01*
X116561410Y-143121410D01*
X116692685Y-142961450D01*
X116790232Y-142778954D01*
X116850300Y-142580934D01*
X116870583Y-142375000D01*
X116850300Y-142169066D01*
X116790232Y-141971046D01*
X116692685Y-141788550D01*
X116630065Y-141712247D01*
X116561410Y-141628589D01*
X116401452Y-141497317D01*
X116401453Y-141497317D01*
X116401450Y-141497315D01*
X116218954Y-141399768D01*
X116020934Y-141339700D01*
X116020932Y-141339699D01*
X116020934Y-141339699D01*
X115815000Y-141319417D01*
X115609067Y-141339699D01*
X115411043Y-141399769D01*
X115367584Y-141422999D01*
X115228550Y-141497315D01*
X115228548Y-141497316D01*
X115228547Y-141497317D01*
X115068589Y-141628589D01*
X114937315Y-141788549D01*
X114937311Y-141788555D01*
X114899683Y-141858953D01*
X114850721Y-141908797D01*
X114790325Y-141924500D01*
X114535691Y-141924500D01*
X114445325Y-141948713D01*
X114445324Y-141948712D01*
X114421116Y-141955199D01*
X114421113Y-141955200D01*
X114318386Y-142014511D01*
X114318383Y-142014513D01*
X112427216Y-143905681D01*
X112365893Y-143939166D01*
X112339535Y-143942000D01*
X112129340Y-143942000D01*
X112072468Y-143925300D01*
X112071607Y-143927063D01*
X111954289Y-143869710D01*
X111954287Y-143869709D01*
X111954286Y-143869709D01*
X111884215Y-143859500D01*
X111884209Y-143859500D01*
X111495786Y-143859500D01*
X111446342Y-143866703D01*
X111425714Y-143869709D01*
X111425712Y-143869709D01*
X111425710Y-143869710D01*
X111425708Y-143869710D01*
X111308393Y-143927063D01*
X111307068Y-143924353D01*
X111256718Y-143941852D01*
X111250660Y-143942000D01*
X109653865Y-143942000D01*
X109586826Y-143922315D01*
X109541071Y-143869511D01*
X109529865Y-143818000D01*
X109529865Y-143728678D01*
X109529864Y-143728671D01*
X109515105Y-143635478D01*
X109457868Y-143523145D01*
X109457864Y-143523141D01*
X109457863Y-143523139D01*
X109370481Y-143435757D01*
X111370000Y-143435757D01*
X111379283Y-143482429D01*
X111379284Y-143482431D01*
X111414646Y-143535353D01*
X111467571Y-143570717D01*
X111514235Y-143579999D01*
X111865757Y-143579999D01*
X111912429Y-143570716D01*
X111912431Y-143570715D01*
X111965353Y-143535353D01*
X112000717Y-143482428D01*
X112009999Y-143435765D01*
X112009999Y-143009242D01*
X112000716Y-142962570D01*
X112000715Y-142962568D01*
X111965353Y-142909646D01*
X111912428Y-142874282D01*
X111865764Y-142865000D01*
X111514242Y-142865000D01*
X111467570Y-142874283D01*
X111467568Y-142874284D01*
X111414646Y-142909646D01*
X111379282Y-142962571D01*
X111370000Y-143009234D01*
X111370000Y-143435757D01*
X109370481Y-143435757D01*
X109368726Y-143434002D01*
X109368723Y-143434000D01*
X109368721Y-143433998D01*
X109256388Y-143376761D01*
X109256387Y-143376760D01*
X109256384Y-143376759D01*
X109256385Y-143376759D01*
X109163194Y-143362000D01*
X108705544Y-143362000D01*
X108612357Y-143376759D01*
X108612344Y-143376761D01*
X108500011Y-143433998D01*
X108500010Y-143433999D01*
X108500005Y-143434002D01*
X108410868Y-143523139D01*
X108410865Y-143523144D01*
X108353625Y-143635480D01*
X108338866Y-143728671D01*
X108338866Y-145056321D01*
X108353627Y-145149521D01*
X108356643Y-145158802D01*
X108355347Y-145159222D01*
X108366362Y-145217878D01*
X108340083Y-145282618D01*
X108282976Y-145322873D01*
X108242981Y-145329500D01*
X107957965Y-145329500D01*
X107890926Y-145309815D01*
X107870284Y-145293181D01*
X107761356Y-145184253D01*
X107727871Y-145122930D01*
X107726564Y-145077172D01*
X107729865Y-145056328D01*
X107729866Y-145056323D01*
X107729865Y-143728678D01*
X107715105Y-143635478D01*
X107657868Y-143523145D01*
X107657862Y-143523139D01*
X107652129Y-143515246D01*
X107653386Y-143514332D01*
X107625109Y-143462547D01*
X107630093Y-143392855D01*
X107658592Y-143348510D01*
X109294855Y-141712248D01*
X109354164Y-141609521D01*
X109354165Y-141609520D01*
X109384866Y-141494943D01*
X109384866Y-141386219D01*
X109404551Y-141319180D01*
X109421186Y-141298537D01*
X109457864Y-141261859D01*
X109457868Y-141261855D01*
X109462249Y-141253257D01*
X111380000Y-141253257D01*
X111389283Y-141299929D01*
X111389284Y-141299931D01*
X111424646Y-141352853D01*
X111477571Y-141388217D01*
X111524235Y-141397499D01*
X111875757Y-141397499D01*
X111922429Y-141388216D01*
X111922431Y-141388215D01*
X111975353Y-141352853D01*
X112010717Y-141299928D01*
X112019999Y-141253265D01*
X112019999Y-140826742D01*
X112010716Y-140780070D01*
X112010715Y-140780068D01*
X111975353Y-140727146D01*
X111922428Y-140691782D01*
X111875764Y-140682500D01*
X111524242Y-140682500D01*
X111477570Y-140691783D01*
X111477568Y-140691784D01*
X111424646Y-140727146D01*
X111389282Y-140780071D01*
X111380000Y-140826734D01*
X111380000Y-141253257D01*
X109462249Y-141253257D01*
X109515105Y-141149522D01*
X109515105Y-141149520D01*
X109515106Y-141149519D01*
X109529865Y-141056328D01*
X109529866Y-141056323D01*
X109529865Y-139728678D01*
X109515105Y-139635478D01*
X109457868Y-139523145D01*
X109457864Y-139523141D01*
X109457863Y-139523139D01*
X109376905Y-139442181D01*
X109343420Y-139380858D01*
X109348404Y-139311166D01*
X109390276Y-139255233D01*
X109455740Y-139230816D01*
X109464586Y-139230500D01*
X110932035Y-139230500D01*
X110999074Y-139250185D01*
X111019716Y-139266819D01*
X111162042Y-139409145D01*
X111195527Y-139470468D01*
X111191016Y-139533537D01*
X111192552Y-139534012D01*
X111189710Y-139543208D01*
X111189709Y-139543213D01*
X111189709Y-139543214D01*
X111179500Y-139613285D01*
X111179500Y-139613289D01*
X111179500Y-139613290D01*
X111179500Y-140076713D01*
X111184113Y-140108374D01*
X111189709Y-140146786D01*
X111189709Y-140146787D01*
X111189710Y-140146789D01*
X111189710Y-140146791D01*
X111242548Y-140254872D01*
X111242550Y-140254875D01*
X111327624Y-140339949D01*
X111327627Y-140339951D01*
X111431201Y-140390584D01*
X111435714Y-140392791D01*
X111505785Y-140403000D01*
X111894214Y-140402999D01*
X111964286Y-140392791D01*
X111964290Y-140392789D01*
X111964291Y-140392789D01*
X112072372Y-140339951D01*
X112072375Y-140339949D01*
X112157449Y-140254875D01*
X112157451Y-140254872D01*
X112183870Y-140200830D01*
X112210291Y-140146786D01*
X112220500Y-140076715D01*
X112220499Y-139613286D01*
X112210291Y-139543214D01*
X112175170Y-139471373D01*
X112163099Y-139446681D01*
X112150500Y-139392221D01*
X112150500Y-139250692D01*
X112147373Y-139239023D01*
X112124898Y-139155145D01*
X112124898Y-139155143D01*
X112119799Y-139136113D01*
X112060489Y-139033386D01*
X112012103Y-138985000D01*
X114965000Y-138985000D01*
X114965000Y-140685000D01*
X116665000Y-140685000D01*
X116665000Y-138985000D01*
X114965000Y-138985000D01*
X112012103Y-138985000D01*
X111446614Y-138419511D01*
X111395250Y-138389856D01*
X111343888Y-138360201D01*
X111327167Y-138355721D01*
X111319673Y-138353713D01*
X111319670Y-138353712D01*
X111254989Y-138336381D01*
X111229309Y-138329500D01*
X107810691Y-138329500D01*
X107724758Y-138352525D01*
X107696113Y-138360201D01*
X107593386Y-138419509D01*
X107593384Y-138419511D01*
X106773879Y-139239017D01*
X106773875Y-139239023D01*
X106714566Y-139341748D01*
X106714565Y-139341752D01*
X106694726Y-139415788D01*
X106662635Y-139471373D01*
X106610864Y-139523145D01*
X106553625Y-139635480D01*
X106538866Y-139728671D01*
X106538866Y-141056321D01*
X106551289Y-141134761D01*
X106553627Y-141149522D01*
X106610864Y-141261855D01*
X106610866Y-141261857D01*
X106610868Y-141261860D01*
X106700005Y-141350997D01*
X106700007Y-141350998D01*
X106700011Y-141351002D01*
X106812344Y-141408239D01*
X106812345Y-141408239D01*
X106812347Y-141408240D01*
X106812346Y-141408240D01*
X106905537Y-141422999D01*
X106905543Y-141423000D01*
X107363188Y-141422999D01*
X107456388Y-141408239D01*
X107568721Y-141351002D01*
X107657868Y-141261855D01*
X107715105Y-141149522D01*
X107715105Y-141149520D01*
X107715106Y-141149519D01*
X107729865Y-141056328D01*
X107729866Y-141056323D01*
X107729865Y-139728678D01*
X107716308Y-139643075D01*
X107725264Y-139573784D01*
X107751095Y-139536006D01*
X108020286Y-139266817D01*
X108081609Y-139233334D01*
X108107966Y-139230500D01*
X108404146Y-139230500D01*
X108471185Y-139250185D01*
X108516940Y-139302989D01*
X108526884Y-139372147D01*
X108497859Y-139435703D01*
X108491827Y-139442181D01*
X108410868Y-139523139D01*
X108410865Y-139523144D01*
X108410864Y-139523145D01*
X108400639Y-139543212D01*
X108353625Y-139635480D01*
X108338866Y-139728671D01*
X108338866Y-141056321D01*
X108351289Y-141134761D01*
X108353627Y-141149522D01*
X108390276Y-141221449D01*
X108403172Y-141290117D01*
X108376896Y-141354858D01*
X108367472Y-141365424D01*
X106773879Y-142959017D01*
X106773875Y-142959023D01*
X106714567Y-143061746D01*
X106714566Y-143061751D01*
X106683866Y-143176325D01*
X106683866Y-143398780D01*
X106664181Y-143465819D01*
X106647547Y-143486461D01*
X106610868Y-143523139D01*
X106610865Y-143523144D01*
X106553625Y-143635480D01*
X106538866Y-143728671D01*
X106538866Y-145056321D01*
X106551289Y-145134761D01*
X106553627Y-145149522D01*
X106610864Y-145261855D01*
X106610866Y-145261857D01*
X106610868Y-145261860D01*
X106699341Y-145350333D01*
X106719047Y-145376013D01*
X106773877Y-145470980D01*
X107443387Y-146140490D01*
X107443389Y-146140491D01*
X107449838Y-146145440D01*
X107448241Y-146147521D01*
X107487487Y-146188684D01*
X107500707Y-146257291D01*
X107474737Y-146322155D01*
X107417821Y-146362682D01*
X107377269Y-146369500D01*
X98658866Y-146369500D01*
X98591827Y-146349815D01*
X98546072Y-146297011D01*
X98534866Y-146245500D01*
X98534866Y-144370004D01*
X100134592Y-144370004D01*
X100154196Y-144631620D01*
X100154197Y-144631625D01*
X100212576Y-144887402D01*
X100212578Y-144887411D01*
X100212580Y-144887416D01*
X100308432Y-145131643D01*
X100439614Y-145358857D01*
X100529029Y-145470980D01*
X100603198Y-145563985D01*
X100784753Y-145732441D01*
X100795521Y-145742433D01*
X101012296Y-145890228D01*
X101012301Y-145890230D01*
X101012302Y-145890231D01*
X101012303Y-145890232D01*
X101137037Y-145950300D01*
X101248673Y-146004061D01*
X101248674Y-146004061D01*
X101248677Y-146004063D01*
X101499385Y-146081396D01*
X101758818Y-146120500D01*
X102021182Y-146120500D01*
X102280615Y-146081396D01*
X102531323Y-146004063D01*
X102767704Y-145890228D01*
X102984479Y-145742433D01*
X103176805Y-145563981D01*
X103340386Y-145358857D01*
X103471568Y-145131643D01*
X103567420Y-144887416D01*
X103625802Y-144631630D01*
X103632910Y-144536779D01*
X103645408Y-144370004D01*
X103645408Y-144369995D01*
X103625803Y-144108379D01*
X103625802Y-144108374D01*
X103625802Y-144108370D01*
X103567420Y-143852584D01*
X103471568Y-143608357D01*
X103340386Y-143381143D01*
X103176805Y-143176019D01*
X103176804Y-143176018D01*
X103176801Y-143176014D01*
X102984479Y-142997567D01*
X102927941Y-142959020D01*
X102767704Y-142849772D01*
X102767700Y-142849770D01*
X102767697Y-142849768D01*
X102767696Y-142849767D01*
X102531325Y-142735938D01*
X102531327Y-142735938D01*
X102280623Y-142658606D01*
X102280619Y-142658605D01*
X102280615Y-142658604D01*
X102155823Y-142639794D01*
X102021187Y-142619500D01*
X102021182Y-142619500D01*
X101758818Y-142619500D01*
X101758812Y-142619500D01*
X101597247Y-142643853D01*
X101499385Y-142658604D01*
X101499382Y-142658605D01*
X101499376Y-142658606D01*
X101248673Y-142735938D01*
X101012303Y-142849767D01*
X101012302Y-142849768D01*
X100795520Y-142997567D01*
X100603198Y-143176014D01*
X100439614Y-143381143D01*
X100308432Y-143608356D01*
X100212582Y-143852578D01*
X100212576Y-143852597D01*
X100154197Y-144108374D01*
X100154196Y-144108379D01*
X100134592Y-144369995D01*
X100134592Y-144370004D01*
X98534866Y-144370004D01*
X98534866Y-140370004D01*
X100134592Y-140370004D01*
X100154196Y-140631620D01*
X100154197Y-140631625D01*
X100212576Y-140887402D01*
X100212578Y-140887411D01*
X100212580Y-140887416D01*
X100308432Y-141131643D01*
X100439614Y-141358857D01*
X100548138Y-141494942D01*
X100603198Y-141563985D01*
X100762988Y-141712247D01*
X100795521Y-141742433D01*
X101012296Y-141890228D01*
X101012301Y-141890230D01*
X101012302Y-141890231D01*
X101012303Y-141890232D01*
X101133739Y-141948712D01*
X101248673Y-142004061D01*
X101248674Y-142004061D01*
X101248677Y-142004063D01*
X101499385Y-142081396D01*
X101758818Y-142120500D01*
X102021182Y-142120500D01*
X102280615Y-142081396D01*
X102531323Y-142004063D01*
X102767704Y-141890228D01*
X102984479Y-141742433D01*
X103176805Y-141563981D01*
X103340386Y-141358857D01*
X103471568Y-141131643D01*
X103567420Y-140887416D01*
X103625802Y-140631630D01*
X103643700Y-140392791D01*
X103645408Y-140370004D01*
X103645408Y-140369995D01*
X103625803Y-140108379D01*
X103625802Y-140108374D01*
X103625802Y-140108370D01*
X103567420Y-139852584D01*
X103471568Y-139608357D01*
X103340386Y-139381143D01*
X103176805Y-139176019D01*
X103176804Y-139176018D01*
X103176801Y-139176014D01*
X102984479Y-138997567D01*
X102966047Y-138985000D01*
X102767704Y-138849772D01*
X102767700Y-138849770D01*
X102767697Y-138849768D01*
X102767696Y-138849767D01*
X102531325Y-138735938D01*
X102531327Y-138735938D01*
X102280623Y-138658606D01*
X102280619Y-138658605D01*
X102280615Y-138658604D01*
X102155823Y-138639794D01*
X102021187Y-138619500D01*
X102021182Y-138619500D01*
X101758818Y-138619500D01*
X101758812Y-138619500D01*
X101597247Y-138643853D01*
X101499385Y-138658604D01*
X101499382Y-138658605D01*
X101499376Y-138658606D01*
X101248673Y-138735938D01*
X101012303Y-138849767D01*
X101012302Y-138849768D01*
X100795520Y-138997567D01*
X100603198Y-139176014D01*
X100439614Y-139381143D01*
X100308432Y-139608356D01*
X100212582Y-139852578D01*
X100212576Y-139852597D01*
X100154197Y-140108374D01*
X100154196Y-140108379D01*
X100134592Y-140369995D01*
X100134592Y-140370004D01*
X98534866Y-140370004D01*
X98534866Y-138498202D01*
X98554551Y-138431163D01*
X98607355Y-138385408D01*
X98639798Y-138375677D01*
X98646206Y-138374679D01*
X98646209Y-138374680D01*
X98663620Y-138371970D01*
X98682670Y-138370496D01*
X98700286Y-138370496D01*
X98731483Y-138362134D01*
X98744508Y-138359384D01*
X98776426Y-138354418D01*
X98792539Y-138347295D01*
X98810559Y-138340941D01*
X98827578Y-138336381D01*
X98855558Y-138320223D01*
X98867397Y-138314210D01*
X98896963Y-138301144D01*
X98906011Y-138293857D01*
X98910682Y-138290096D01*
X98926452Y-138279288D01*
X98930735Y-138276815D01*
X98941703Y-138270482D01*
X98964551Y-138247630D01*
X98974444Y-138238747D01*
X98999603Y-138218488D01*
X99009996Y-138204262D01*
X99022427Y-138189748D01*
X99034883Y-138177292D01*
X99051031Y-138149317D01*
X99058300Y-138138157D01*
X99077352Y-138112084D01*
X99077351Y-138112084D01*
X99077353Y-138112083D01*
X99083707Y-138095660D01*
X99091964Y-138078410D01*
X99100768Y-138063160D01*
X99100769Y-138063159D01*
X99109130Y-138031945D01*
X99113255Y-138019306D01*
X99284666Y-137576368D01*
X99327218Y-137520953D01*
X99392976Y-137497339D01*
X99401201Y-137497125D01*
X117679773Y-137634078D01*
G37*
%TD.AperFunction*%
%TD*%
%TA.AperFunction,Conductor*%
%TO.N,GND*%
G36*
X115502850Y-92920186D02*
G01*
X115548605Y-92972990D01*
X115559810Y-93024791D01*
X115555140Y-94999999D01*
X115544794Y-99375219D01*
X115549439Y-99419149D01*
X115549440Y-99419158D01*
X115560649Y-99470974D01*
X115563182Y-99481368D01*
X115563186Y-99481377D01*
X115606193Y-99562083D01*
X115606195Y-99562086D01*
X115651954Y-99614895D01*
X115663612Y-99626793D01*
X115669540Y-99632843D01*
X115669541Y-99632844D01*
X115669543Y-99632845D01*
X115686725Y-99642456D01*
X115749357Y-99677490D01*
X115816396Y-99697175D01*
X115874294Y-99705500D01*
X115874298Y-99705500D01*
X122470728Y-99705500D01*
X122517943Y-99700002D01*
X122573396Y-99686911D01*
X122618083Y-99670714D01*
X124021519Y-98968994D01*
X124077617Y-98955906D01*
X148824497Y-99084796D01*
X159572341Y-99140775D01*
X159572342Y-99140774D01*
X159572361Y-99140775D01*
X159611797Y-99137165D01*
X159646705Y-99130531D01*
X159658548Y-99128281D01*
X159664520Y-99127053D01*
X159664519Y-99127053D01*
X159664530Y-99127051D01*
X159747197Y-99087930D01*
X159802118Y-99044739D01*
X159807933Y-99039560D01*
X159871088Y-99009673D01*
X159940375Y-99018674D01*
X159978085Y-99044478D01*
X160571426Y-99637819D01*
X160604911Y-99699142D01*
X160599927Y-99768834D01*
X160558055Y-99824767D01*
X160492591Y-99849184D01*
X160483745Y-99849500D01*
X159338974Y-99849500D01*
X159271936Y-99829816D01*
X159210050Y-99790045D01*
X159071963Y-99749500D01*
X159071961Y-99749500D01*
X158928039Y-99749500D01*
X158928036Y-99749500D01*
X158789949Y-99790045D01*
X158668873Y-99867856D01*
X158574623Y-99976626D01*
X158574622Y-99976628D01*
X158514834Y-100107543D01*
X158494353Y-100250000D01*
X158514834Y-100392456D01*
X158545660Y-100459954D01*
X158574623Y-100523373D01*
X158668872Y-100632143D01*
X158789947Y-100709953D01*
X158789950Y-100709954D01*
X158789949Y-100709954D01*
X158928036Y-100750499D01*
X158928038Y-100750500D01*
X158928039Y-100750500D01*
X159071962Y-100750500D01*
X159071962Y-100750499D01*
X159210050Y-100709954D01*
X159210051Y-100709954D01*
X159271936Y-100670184D01*
X159338974Y-100650500D01*
X160733745Y-100650500D01*
X160800784Y-100670185D01*
X160846539Y-100722989D01*
X160856483Y-100792147D01*
X160827458Y-100855703D01*
X160821426Y-100862181D01*
X159370426Y-102313181D01*
X159309103Y-102346666D01*
X159282745Y-102349500D01*
X159088974Y-102349500D01*
X159021936Y-102329816D01*
X158960050Y-102290045D01*
X158821963Y-102249500D01*
X158821961Y-102249500D01*
X158678039Y-102249500D01*
X158678036Y-102249500D01*
X158539949Y-102290045D01*
X158418873Y-102367856D01*
X158324623Y-102476626D01*
X158324622Y-102476628D01*
X158264834Y-102607543D01*
X158257236Y-102660391D01*
X158228210Y-102723947D01*
X158169432Y-102761720D01*
X158099562Y-102761720D01*
X158046817Y-102730424D01*
X156995915Y-101679522D01*
X156995913Y-101679520D01*
X156934592Y-101644116D01*
X156904589Y-101626793D01*
X156853657Y-101613146D01*
X156802727Y-101599500D01*
X156802726Y-101599500D01*
X149717255Y-101599500D01*
X149650216Y-101579815D01*
X149629574Y-101563181D01*
X147745915Y-99679522D01*
X147745913Y-99679520D01*
X147681717Y-99642456D01*
X147654589Y-99626793D01*
X147603657Y-99613146D01*
X147552727Y-99599500D01*
X147552726Y-99599500D01*
X139838974Y-99599500D01*
X139771936Y-99579816D01*
X139710050Y-99540045D01*
X139571963Y-99499500D01*
X139571961Y-99499500D01*
X139428039Y-99499500D01*
X139428036Y-99499500D01*
X139289949Y-99540045D01*
X139168873Y-99617856D01*
X139074623Y-99726626D01*
X139074622Y-99726628D01*
X139014834Y-99857543D01*
X138994353Y-100000000D01*
X139014834Y-100142456D01*
X139063948Y-100249999D01*
X139074623Y-100273373D01*
X139168872Y-100382143D01*
X139289947Y-100459953D01*
X139289950Y-100459954D01*
X139289949Y-100459954D01*
X139428036Y-100500499D01*
X139428038Y-100500500D01*
X139428039Y-100500500D01*
X139571962Y-100500500D01*
X139571962Y-100500499D01*
X139710050Y-100459954D01*
X139710051Y-100459954D01*
X139771936Y-100420184D01*
X139838974Y-100400500D01*
X147282745Y-100400500D01*
X147349784Y-100420185D01*
X147370426Y-100436819D01*
X149071426Y-102137819D01*
X149104911Y-102199142D01*
X149099927Y-102268834D01*
X149058055Y-102324767D01*
X148992591Y-102349184D01*
X148983745Y-102349500D01*
X139588974Y-102349500D01*
X139521936Y-102329816D01*
X139460050Y-102290045D01*
X139321963Y-102249500D01*
X139321961Y-102249500D01*
X139178039Y-102249500D01*
X139178036Y-102249500D01*
X139039949Y-102290045D01*
X138918873Y-102367856D01*
X138824623Y-102476626D01*
X138824622Y-102476628D01*
X138764834Y-102607543D01*
X138744353Y-102750000D01*
X138764834Y-102892456D01*
X138811894Y-102995501D01*
X138824623Y-103023373D01*
X138878596Y-103085662D01*
X138886079Y-103094297D01*
X138915104Y-103157853D01*
X138905160Y-103227012D01*
X138859405Y-103279816D01*
X138792366Y-103299500D01*
X133870591Y-103299500D01*
X133762178Y-103321065D01*
X133762177Y-103321065D01*
X133748719Y-103323742D01*
X133735261Y-103326419D01*
X133697918Y-103341887D01*
X133607780Y-103379223D01*
X133554302Y-103414956D01*
X133493042Y-103455887D01*
X133493039Y-103455890D01*
X130935750Y-106013181D01*
X130874427Y-106046666D01*
X130848069Y-106049500D01*
X129681005Y-106049500D01*
X129545677Y-106076418D01*
X129545667Y-106076421D01*
X129418195Y-106129221D01*
X129418182Y-106129228D01*
X129303458Y-106205885D01*
X129303454Y-106205888D01*
X129205888Y-106303454D01*
X129205885Y-106303458D01*
X129129228Y-106418182D01*
X129129221Y-106418195D01*
X129076421Y-106545667D01*
X129076418Y-106545677D01*
X129049500Y-106681004D01*
X129049500Y-106681007D01*
X129049500Y-106818993D01*
X129049500Y-106818995D01*
X129049499Y-106818995D01*
X129076418Y-106954322D01*
X129076421Y-106954332D01*
X129129221Y-107081804D01*
X129129228Y-107081817D01*
X129205885Y-107196541D01*
X129205888Y-107196545D01*
X129303454Y-107294111D01*
X129303458Y-107294114D01*
X129418182Y-107370771D01*
X129418195Y-107370778D01*
X129474976Y-107394297D01*
X129545672Y-107423580D01*
X129545676Y-107423580D01*
X129545677Y-107423581D01*
X129681004Y-107450500D01*
X129681007Y-107450500D01*
X130933745Y-107450500D01*
X131000784Y-107470185D01*
X131046539Y-107522989D01*
X131056483Y-107592147D01*
X131027458Y-107655703D01*
X131021426Y-107662181D01*
X127620426Y-111063181D01*
X127559103Y-111096666D01*
X127532745Y-111099500D01*
X119217254Y-111099500D01*
X119150215Y-111079815D01*
X119129573Y-111063181D01*
X118324860Y-110258468D01*
X117495913Y-109429520D01*
X117450250Y-109403156D01*
X117404589Y-109376793D01*
X117353657Y-109363146D01*
X117302727Y-109349500D01*
X117302726Y-109349500D01*
X116338974Y-109349500D01*
X116271936Y-109329816D01*
X116210050Y-109290045D01*
X116071963Y-109249500D01*
X116071961Y-109249500D01*
X115928039Y-109249500D01*
X115928036Y-109249500D01*
X115789949Y-109290045D01*
X115668873Y-109367856D01*
X115574623Y-109476626D01*
X115574622Y-109476628D01*
X115514834Y-109607543D01*
X115494353Y-109750000D01*
X115514834Y-109892456D01*
X115560256Y-109991914D01*
X115574623Y-110023373D01*
X115668872Y-110132143D01*
X115789947Y-110209953D01*
X115789949Y-110209953D01*
X115795977Y-110212707D01*
X115848779Y-110258464D01*
X115868462Y-110325504D01*
X115848776Y-110392542D01*
X115795970Y-110438296D01*
X115744462Y-110449500D01*
X113317254Y-110449500D01*
X113250215Y-110429815D01*
X113229573Y-110413181D01*
X107257974Y-104441581D01*
X107257973Y-104441580D01*
X107257972Y-104441579D01*
X107185095Y-104399503D01*
X107166648Y-104388852D01*
X107096908Y-104370166D01*
X107064786Y-104361559D01*
X107064785Y-104361559D01*
X104732290Y-104361559D01*
X104665251Y-104341874D01*
X104627297Y-104303532D01*
X104599817Y-104259798D01*
X104472262Y-104132243D01*
X104313626Y-104032565D01*
X104315100Y-104030218D01*
X104272548Y-103991797D01*
X104254237Y-103924370D01*
X104275287Y-103857746D01*
X104326702Y-103815002D01*
X104326447Y-103814471D01*
X104328573Y-103813446D01*
X104329015Y-103813080D01*
X104330706Y-103812419D01*
X104332716Y-103811451D01*
X104332719Y-103811448D01*
X104332722Y-103811448D01*
X104485462Y-103715475D01*
X104613016Y-103587921D01*
X104708989Y-103435181D01*
X104768568Y-103264914D01*
X104768569Y-103264908D01*
X104788765Y-103085662D01*
X104788765Y-103085655D01*
X104768569Y-102906409D01*
X104768568Y-102906404D01*
X104708988Y-102736135D01*
X104613015Y-102583396D01*
X104529620Y-102500001D01*
X116334718Y-102500001D01*
X116355355Y-102656760D01*
X116355356Y-102656762D01*
X116393976Y-102750000D01*
X116415864Y-102802841D01*
X116512118Y-102928282D01*
X116637559Y-103024536D01*
X116783638Y-103085044D01*
X116853922Y-103094297D01*
X116940399Y-103105682D01*
X116940400Y-103105682D01*
X116940401Y-103105682D01*
X116992654Y-103098802D01*
X117097162Y-103085044D01*
X117243241Y-103024536D01*
X117368682Y-102928282D01*
X117368683Y-102928279D01*
X117371493Y-102926124D01*
X117436663Y-102900930D01*
X117446980Y-102900500D01*
X117672745Y-102900500D01*
X117739784Y-102920185D01*
X117760426Y-102936819D01*
X120689519Y-105865912D01*
X120689520Y-105865913D01*
X120764087Y-105940480D01*
X120855413Y-105993207D01*
X120957273Y-106020500D01*
X121062727Y-106020500D01*
X121543420Y-106020500D01*
X121610459Y-106040185D01*
X121618907Y-106046124D01*
X121621716Y-106048279D01*
X121621718Y-106048282D01*
X121747159Y-106144536D01*
X121893238Y-106205044D01*
X121971619Y-106215363D01*
X122049999Y-106225682D01*
X122050000Y-106225682D01*
X122050001Y-106225682D01*
X122102254Y-106218802D01*
X122206762Y-106205044D01*
X122352841Y-106144536D01*
X122478282Y-106048282D01*
X122574536Y-105922841D01*
X122635044Y-105776762D01*
X122655682Y-105620000D01*
X122635044Y-105463238D01*
X122574536Y-105317159D01*
X122478282Y-105191718D01*
X122352841Y-105095464D01*
X122206762Y-105034956D01*
X122206760Y-105034955D01*
X122050001Y-105014318D01*
X122049999Y-105014318D01*
X121893239Y-105034955D01*
X121893237Y-105034956D01*
X121747160Y-105095463D01*
X121747159Y-105095464D01*
X121621718Y-105191718D01*
X121621716Y-105191720D01*
X121618907Y-105193876D01*
X121553737Y-105219070D01*
X121543420Y-105219500D01*
X121227255Y-105219500D01*
X121160216Y-105199815D01*
X121139574Y-105183181D01*
X118135915Y-102179522D01*
X118135913Y-102179520D01*
X118090250Y-102153156D01*
X118044589Y-102126793D01*
X117993657Y-102113146D01*
X117942727Y-102099500D01*
X117942726Y-102099500D01*
X117446980Y-102099500D01*
X117379941Y-102079815D01*
X117371493Y-102073876D01*
X117368683Y-102071720D01*
X117368682Y-102071718D01*
X117243241Y-101975464D01*
X117097162Y-101914956D01*
X117097160Y-101914955D01*
X116940401Y-101894318D01*
X116940399Y-101894318D01*
X116783639Y-101914955D01*
X116783637Y-101914956D01*
X116637560Y-101975463D01*
X116512118Y-102071718D01*
X116415863Y-102197160D01*
X116355356Y-102343237D01*
X116355355Y-102343239D01*
X116334718Y-102499998D01*
X116334718Y-102500001D01*
X104529620Y-102500001D01*
X104485462Y-102455843D01*
X104332723Y-102359870D01*
X104162454Y-102300290D01*
X104162449Y-102300289D01*
X103983204Y-102280094D01*
X103983196Y-102280094D01*
X103803950Y-102300289D01*
X103803945Y-102300290D01*
X103633676Y-102359870D01*
X103480937Y-102455843D01*
X103353384Y-102583396D01*
X103257411Y-102736135D01*
X103197831Y-102906404D01*
X103197830Y-102906409D01*
X103177635Y-103085655D01*
X103177635Y-103085662D01*
X103197830Y-103264908D01*
X103197831Y-103264913D01*
X103257411Y-103435182D01*
X103307238Y-103514480D01*
X103353384Y-103587921D01*
X103480938Y-103715475D01*
X103523006Y-103741908D01*
X103639574Y-103815153D01*
X103638096Y-103817504D01*
X103680632Y-103855888D01*
X103698963Y-103923310D01*
X103677933Y-103989940D01*
X103626500Y-104032723D01*
X103626753Y-104033247D01*
X103624660Y-104034254D01*
X103624219Y-104034622D01*
X103622513Y-104035288D01*
X103620483Y-104036266D01*
X103467737Y-104132243D01*
X103340184Y-104259796D01*
X103340182Y-104259799D01*
X103306610Y-104313228D01*
X103254275Y-104359519D01*
X103185221Y-104370166D01*
X103139617Y-104354642D01*
X103103189Y-104333610D01*
X103103186Y-104333609D01*
X102975892Y-104299501D01*
X100375892Y-104299501D01*
X100244108Y-104299501D01*
X100116812Y-104333609D01*
X100002686Y-104399501D01*
X100002683Y-104399503D01*
X99909502Y-104492684D01*
X99909500Y-104492687D01*
X99843608Y-104606813D01*
X99826628Y-104670185D01*
X99809500Y-104734109D01*
X99809500Y-116565893D01*
X99816835Y-116593267D01*
X99843608Y-116693188D01*
X99866328Y-116732539D01*
X99909500Y-116807315D01*
X100002686Y-116900501D01*
X100116814Y-116966393D01*
X100244108Y-117000501D01*
X100244110Y-117000501D01*
X102975890Y-117000501D01*
X102975892Y-117000501D01*
X103103186Y-116966393D01*
X103217314Y-116900501D01*
X103310500Y-116807315D01*
X103376392Y-116693187D01*
X103410500Y-116565893D01*
X103410500Y-115765763D01*
X103430185Y-115698724D01*
X103482989Y-115652969D01*
X103550686Y-115642824D01*
X103560568Y-115644125D01*
X103560575Y-115644125D01*
X104398793Y-115644125D01*
X104398800Y-115644125D01*
X104512486Y-115629158D01*
X104653943Y-115570564D01*
X104775415Y-115477356D01*
X104868623Y-115355884D01*
X104924630Y-115220671D01*
X104968471Y-115166269D01*
X105034765Y-115144204D01*
X105039191Y-115144125D01*
X105602106Y-115144125D01*
X105669145Y-115163810D01*
X105689787Y-115180444D01*
X109019059Y-118509716D01*
X109598637Y-119089293D01*
X109632122Y-119150616D01*
X109627138Y-119220308D01*
X109585266Y-119276241D01*
X109519802Y-119300658D01*
X109468878Y-119291471D01*
X109468563Y-119292545D01*
X109321963Y-119249500D01*
X109321961Y-119249500D01*
X109178039Y-119249500D01*
X109178036Y-119249500D01*
X109039949Y-119290045D01*
X108918872Y-119367856D01*
X108918869Y-119367859D01*
X108903334Y-119385788D01*
X108871625Y-119411969D01*
X108841235Y-119429515D01*
X108841226Y-119429522D01*
X106515748Y-121754999D01*
X106454425Y-121788484D01*
X106414184Y-121790538D01*
X106258575Y-121773006D01*
X106258567Y-121773006D01*
X106079321Y-121793201D01*
X106079313Y-121793203D01*
X105989667Y-121824572D01*
X105919889Y-121828133D01*
X105859261Y-121793404D01*
X105827034Y-121731411D01*
X105831672Y-121666575D01*
X105867877Y-121563106D01*
X105867880Y-121563093D01*
X105888076Y-121383847D01*
X105888076Y-121383840D01*
X105867880Y-121204594D01*
X105867879Y-121204589D01*
X105853949Y-121164779D01*
X105808300Y-121034322D01*
X105798718Y-121019073D01*
X105719160Y-120892457D01*
X105712327Y-120881582D01*
X105584773Y-120754028D01*
X105432034Y-120658055D01*
X105261765Y-120598475D01*
X105261760Y-120598474D01*
X105082515Y-120578279D01*
X105082507Y-120578279D01*
X104903261Y-120598474D01*
X104903256Y-120598475D01*
X104732987Y-120658055D01*
X104580248Y-120754028D01*
X104452695Y-120881581D01*
X104356722Y-121034320D01*
X104297142Y-121204589D01*
X104297141Y-121204594D01*
X104276946Y-121383840D01*
X104276946Y-121383847D01*
X104297141Y-121563093D01*
X104297142Y-121563098D01*
X104356722Y-121733367D01*
X104416268Y-121828133D01*
X104452695Y-121886106D01*
X104580249Y-122013660D01*
X104732989Y-122109633D01*
X104879813Y-122161009D01*
X104903256Y-122169212D01*
X104903261Y-122169213D01*
X105082507Y-122189409D01*
X105082511Y-122189409D01*
X105082515Y-122189409D01*
X105261760Y-122169213D01*
X105261763Y-122169212D01*
X105261766Y-122169212D01*
X105261767Y-122169211D01*
X105261770Y-122169211D01*
X105301242Y-122155398D01*
X105351413Y-122137842D01*
X105421191Y-122134280D01*
X105481819Y-122169009D01*
X105514046Y-122231002D01*
X105509410Y-122295838D01*
X105473203Y-122399313D01*
X105473201Y-122399321D01*
X105453006Y-122578567D01*
X105453006Y-122578574D01*
X105473726Y-122762478D01*
X105461671Y-122831300D01*
X105414322Y-122882679D01*
X105382601Y-122896135D01*
X105355293Y-122903452D01*
X105355292Y-122903452D01*
X105312772Y-122928002D01*
X105271591Y-122951778D01*
X105258221Y-122959497D01*
X105241165Y-122969344D01*
X105241162Y-122969346D01*
X103309502Y-124901006D01*
X103309500Y-124901009D01*
X103243608Y-125015135D01*
X103220628Y-125100899D01*
X103209500Y-125142431D01*
X103209500Y-125274215D01*
X103215732Y-125297474D01*
X103243608Y-125401510D01*
X103273820Y-125453838D01*
X103309500Y-125515637D01*
X111582649Y-133788786D01*
X111675835Y-133881972D01*
X111774670Y-133939035D01*
X111789959Y-133947862D01*
X111789963Y-133947864D01*
X111917257Y-133981972D01*
X111917259Y-133981972D01*
X112049040Y-133981972D01*
X112049041Y-133981972D01*
X112049042Y-133981972D01*
X112176335Y-133947864D01*
X112290464Y-133881972D01*
X112383649Y-133788787D01*
X112383649Y-133788785D01*
X112393853Y-133778582D01*
X112393857Y-133778577D01*
X114118732Y-132053702D01*
X114118737Y-132053698D01*
X114128940Y-132043494D01*
X114128942Y-132043494D01*
X114222127Y-131950309D01*
X114288019Y-131836180D01*
X114294352Y-131812541D01*
X114330716Y-131752882D01*
X114393562Y-131722352D01*
X114462938Y-131730646D01*
X114476472Y-131737983D01*
X114476514Y-131737905D01*
X114481885Y-131740776D01*
X114609362Y-131793578D01*
X114609367Y-131793580D01*
X114609371Y-131793580D01*
X114609372Y-131793581D01*
X114744698Y-131820500D01*
X114744701Y-131820500D01*
X123798996Y-131820500D01*
X123890040Y-131802389D01*
X123934328Y-131793580D01*
X124032582Y-131752882D01*
X124061807Y-131740777D01*
X124061808Y-131740776D01*
X124061811Y-131740775D01*
X124176543Y-131664114D01*
X124944114Y-130896543D01*
X125020775Y-130781811D01*
X125035406Y-130746490D01*
X125073578Y-130654332D01*
X125073580Y-130654328D01*
X125082389Y-130610040D01*
X125100500Y-130518996D01*
X125100500Y-127992734D01*
X125120185Y-127925695D01*
X125142275Y-127900881D01*
X125142107Y-127900713D01*
X125145003Y-127897816D01*
X125145838Y-127896879D01*
X125146410Y-127896410D01*
X125277685Y-127736450D01*
X125375232Y-127553954D01*
X125435300Y-127355934D01*
X125455583Y-127150000D01*
X125435300Y-126944066D01*
X125375232Y-126746046D01*
X125277685Y-126563550D01*
X125199761Y-126468599D01*
X125146410Y-126403589D01*
X125026884Y-126305498D01*
X124986450Y-126272315D01*
X124803954Y-126174768D01*
X124605934Y-126114700D01*
X124605932Y-126114699D01*
X124605934Y-126114699D01*
X124400000Y-126094417D01*
X124194067Y-126114699D01*
X123996043Y-126174769D01*
X123944414Y-126202366D01*
X123813550Y-126272315D01*
X123813548Y-126272316D01*
X123813547Y-126272317D01*
X123653589Y-126403589D01*
X123522317Y-126563547D01*
X123522315Y-126563550D01*
X123483643Y-126635898D01*
X123424769Y-126746043D01*
X123364699Y-126944067D01*
X123344417Y-127150000D01*
X123364699Y-127355932D01*
X123364700Y-127355934D01*
X123424768Y-127553954D01*
X123522315Y-127736450D01*
X123653590Y-127896410D01*
X123654159Y-127896877D01*
X123654379Y-127897199D01*
X123657893Y-127900713D01*
X123657226Y-127901379D01*
X123693496Y-127954618D01*
X123699500Y-127992734D01*
X123699500Y-130108481D01*
X123679815Y-130175520D01*
X123663181Y-130196162D01*
X123476162Y-130383181D01*
X123414839Y-130416666D01*
X123388481Y-130419500D01*
X115155214Y-130419500D01*
X115088175Y-130399815D01*
X115067533Y-130383181D01*
X114432516Y-129748164D01*
X114399031Y-129686841D01*
X114397258Y-129644296D01*
X114399162Y-129629842D01*
X114404945Y-129585916D01*
X114384959Y-129434115D01*
X114326366Y-129292657D01*
X114326365Y-129292656D01*
X114326365Y-129292655D01*
X114256560Y-129201685D01*
X114256553Y-129201677D01*
X113848139Y-128793263D01*
X113814654Y-128731940D01*
X113811820Y-128705582D01*
X113811820Y-122344752D01*
X119029500Y-122344752D01*
X119041131Y-122403229D01*
X119041132Y-122403230D01*
X119085447Y-122469552D01*
X119151769Y-122513867D01*
X119151770Y-122513868D01*
X119210247Y-122525499D01*
X119210250Y-122525500D01*
X119210252Y-122525500D01*
X120949750Y-122525500D01*
X120949751Y-122525499D01*
X120964568Y-122522552D01*
X121008229Y-122513868D01*
X121008229Y-122513867D01*
X121008231Y-122513867D01*
X121074552Y-122469552D01*
X121118867Y-122403231D01*
X121118867Y-122403229D01*
X121118868Y-122403229D01*
X121130499Y-122344752D01*
X121130500Y-122344750D01*
X121130500Y-121475000D01*
X124104417Y-121475000D01*
X124124699Y-121680932D01*
X124140012Y-121731411D01*
X124184768Y-121878954D01*
X124282315Y-122061450D01*
X124308356Y-122093181D01*
X124413589Y-122221410D01*
X124488327Y-122282745D01*
X124573550Y-122352685D01*
X124756046Y-122450232D01*
X124954066Y-122510300D01*
X124954065Y-122510300D01*
X124972529Y-122512118D01*
X125160000Y-122530583D01*
X125365934Y-122510300D01*
X125563954Y-122450232D01*
X125746450Y-122352685D01*
X125906410Y-122221410D01*
X126037685Y-122061450D01*
X126135232Y-121878954D01*
X126195300Y-121680934D01*
X126215583Y-121475000D01*
X126644417Y-121475000D01*
X126664699Y-121680932D01*
X126680012Y-121731411D01*
X126724768Y-121878954D01*
X126822315Y-122061450D01*
X126848356Y-122093181D01*
X126953589Y-122221410D01*
X127028327Y-122282745D01*
X127113550Y-122352685D01*
X127296046Y-122450232D01*
X127494066Y-122510300D01*
X127494065Y-122510300D01*
X127512529Y-122512118D01*
X127700000Y-122530583D01*
X127905934Y-122510300D01*
X128103954Y-122450232D01*
X128286450Y-122352685D01*
X128446410Y-122221410D01*
X128577685Y-122061450D01*
X128675232Y-121878954D01*
X128735300Y-121680934D01*
X128755583Y-121475000D01*
X128735300Y-121269066D01*
X128675232Y-121071046D01*
X128577685Y-120888550D01*
X128525702Y-120825209D01*
X128446410Y-120728589D01*
X128296121Y-120605252D01*
X128286450Y-120597315D01*
X128103954Y-120499768D01*
X127905934Y-120439700D01*
X127905932Y-120439699D01*
X127905934Y-120439699D01*
X127700000Y-120419417D01*
X127494067Y-120439699D01*
X127296043Y-120499769D01*
X127220484Y-120540157D01*
X127113550Y-120597315D01*
X127113548Y-120597316D01*
X127113547Y-120597317D01*
X126953589Y-120728589D01*
X126848111Y-120857117D01*
X126822315Y-120888550D01*
X126788382Y-120952034D01*
X126724769Y-121071043D01*
X126664699Y-121269067D01*
X126644417Y-121475000D01*
X126215583Y-121475000D01*
X126195300Y-121269066D01*
X126135232Y-121071046D01*
X126037685Y-120888550D01*
X125985702Y-120825209D01*
X125906410Y-120728589D01*
X125756121Y-120605252D01*
X125746450Y-120597315D01*
X125563954Y-120499768D01*
X125365934Y-120439700D01*
X125365932Y-120439699D01*
X125365934Y-120439699D01*
X125160000Y-120419417D01*
X124954067Y-120439699D01*
X124756043Y-120499769D01*
X124680484Y-120540157D01*
X124573550Y-120597315D01*
X124573548Y-120597316D01*
X124573547Y-120597317D01*
X124413589Y-120728589D01*
X124308111Y-120857117D01*
X124282315Y-120888550D01*
X124248382Y-120952034D01*
X124184769Y-121071043D01*
X124124699Y-121269067D01*
X124104417Y-121475000D01*
X121130500Y-121475000D01*
X121130500Y-120605249D01*
X121130499Y-120605247D01*
X121118868Y-120546770D01*
X121118867Y-120546769D01*
X121074552Y-120480447D01*
X121008230Y-120436132D01*
X121008229Y-120436131D01*
X120949752Y-120424500D01*
X120949748Y-120424500D01*
X119210252Y-120424500D01*
X119210247Y-120424500D01*
X119151770Y-120436131D01*
X119151769Y-120436132D01*
X119085447Y-120480447D01*
X119041132Y-120546769D01*
X119041131Y-120546770D01*
X119029500Y-120605247D01*
X119029500Y-122344752D01*
X113811820Y-122344752D01*
X113811820Y-121542324D01*
X113811819Y-121542322D01*
X113784901Y-121406997D01*
X113784898Y-121406986D01*
X113778549Y-121391659D01*
X113778547Y-121391655D01*
X113742565Y-121304787D01*
X113742564Y-121304784D01*
X113732097Y-121279513D01*
X113732094Y-121279508D01*
X113655435Y-121164779D01*
X113621267Y-121130611D01*
X113557862Y-121067206D01*
X112240656Y-119750000D01*
X110901363Y-118410706D01*
X110867878Y-118349383D01*
X110872862Y-118279691D01*
X110914734Y-118223758D01*
X110980198Y-118199341D01*
X111031121Y-118208530D01*
X111031437Y-118207455D01*
X111178036Y-118250499D01*
X111178038Y-118250500D01*
X111178039Y-118250500D01*
X111321962Y-118250500D01*
X111321962Y-118250499D01*
X111460050Y-118209954D01*
X111460051Y-118209954D01*
X111521936Y-118170184D01*
X111588974Y-118150500D01*
X111802725Y-118150500D01*
X111802727Y-118150500D01*
X111904588Y-118123207D01*
X111995913Y-118070480D01*
X112176393Y-117890000D01*
X124624785Y-117890000D01*
X124643602Y-118093082D01*
X124699417Y-118289247D01*
X124699422Y-118289260D01*
X124790327Y-118471821D01*
X124913237Y-118634581D01*
X125063958Y-118771980D01*
X125063960Y-118771982D01*
X125092114Y-118789414D01*
X125237363Y-118879348D01*
X125427544Y-118953024D01*
X125628024Y-118990500D01*
X125628026Y-118990500D01*
X125831974Y-118990500D01*
X125831976Y-118990500D01*
X126032456Y-118953024D01*
X126222637Y-118879348D01*
X126396041Y-118771981D01*
X126546764Y-118634579D01*
X126669673Y-118471821D01*
X126760582Y-118289250D01*
X126816397Y-118093083D01*
X126835215Y-117890000D01*
X126816397Y-117686917D01*
X126760582Y-117490750D01*
X126759846Y-117489272D01*
X126699388Y-117367856D01*
X126669673Y-117308179D01*
X126582965Y-117193359D01*
X126546762Y-117145418D01*
X126396041Y-117008019D01*
X126396039Y-117008017D01*
X126222642Y-116900655D01*
X126222635Y-116900651D01*
X126058429Y-116837038D01*
X126032456Y-116826976D01*
X125831976Y-116789500D01*
X125628024Y-116789500D01*
X125427544Y-116826976D01*
X125427541Y-116826976D01*
X125427541Y-116826977D01*
X125237364Y-116900651D01*
X125237357Y-116900655D01*
X125063960Y-117008017D01*
X125063958Y-117008019D01*
X124913237Y-117145418D01*
X124790327Y-117308178D01*
X124699422Y-117490739D01*
X124699417Y-117490752D01*
X124643602Y-117686917D01*
X124624785Y-117889999D01*
X124624785Y-117890000D01*
X112176393Y-117890000D01*
X116070480Y-113995913D01*
X116123207Y-113904588D01*
X116150500Y-113802727D01*
X116150500Y-113697273D01*
X116150500Y-113598332D01*
X116170185Y-113531293D01*
X116170901Y-113530336D01*
X116175368Y-113523382D01*
X116175377Y-113523373D01*
X116235165Y-113392457D01*
X116255647Y-113250000D01*
X116235165Y-113107543D01*
X116220764Y-113076011D01*
X116210821Y-113006853D01*
X116239846Y-112943298D01*
X116298624Y-112905523D01*
X116333559Y-112900500D01*
X116407745Y-112900500D01*
X116474784Y-112920185D01*
X116495425Y-112936818D01*
X117629087Y-114070480D01*
X117720412Y-114123207D01*
X117822273Y-114150500D01*
X117822275Y-114150500D01*
X129483745Y-114150500D01*
X129550784Y-114170185D01*
X129596539Y-114222989D01*
X129606483Y-114292147D01*
X129577458Y-114355703D01*
X129571426Y-114362181D01*
X127949522Y-115984084D01*
X127949518Y-115984090D01*
X127896792Y-116075412D01*
X127896793Y-116075413D01*
X127869500Y-116177273D01*
X127869500Y-116665500D01*
X127849815Y-116732539D01*
X127797011Y-116778294D01*
X127745500Y-116789500D01*
X127564328Y-116789500D01*
X127534006Y-116792343D01*
X127533994Y-116792345D01*
X127406275Y-116837037D01*
X127297394Y-116917394D01*
X127217037Y-117026275D01*
X127172345Y-117153994D01*
X127172343Y-117154006D01*
X127169500Y-117184327D01*
X127169500Y-118595672D01*
X127172343Y-118625993D01*
X127172345Y-118626005D01*
X127217037Y-118753724D01*
X127297394Y-118862605D01*
X127351834Y-118902783D01*
X127406274Y-118942962D01*
X127435024Y-118953022D01*
X127533994Y-118987654D01*
X127533998Y-118987654D01*
X127534002Y-118987656D01*
X127549167Y-118989078D01*
X127564328Y-118990500D01*
X127564332Y-118990500D01*
X128975672Y-118990500D01*
X128989148Y-118989236D01*
X129005998Y-118987656D01*
X129006002Y-118987654D01*
X129006005Y-118987654D01*
X129057402Y-118969669D01*
X129133726Y-118942962D01*
X129242605Y-118862605D01*
X129322962Y-118753726D01*
X129364653Y-118634581D01*
X129367654Y-118626005D01*
X129367654Y-118626002D01*
X129367656Y-118625998D01*
X129370500Y-118595668D01*
X129370500Y-117184332D01*
X129367656Y-117154002D01*
X129367654Y-117153998D01*
X129367654Y-117153994D01*
X129329989Y-117046357D01*
X129322962Y-117026274D01*
X129279943Y-116967986D01*
X129242605Y-116917394D01*
X129168841Y-116862954D01*
X129133726Y-116837038D01*
X129133724Y-116837037D01*
X129006005Y-116792345D01*
X129005993Y-116792343D01*
X128975672Y-116789500D01*
X128975668Y-116789500D01*
X128794500Y-116789500D01*
X128727461Y-116769815D01*
X128681706Y-116717011D01*
X128670500Y-116665500D01*
X128670500Y-116447255D01*
X128690185Y-116380216D01*
X128706819Y-116359574D01*
X130710690Y-114355703D01*
X132785430Y-112280963D01*
X132838157Y-112189638D01*
X132865450Y-112087777D01*
X132865450Y-111982323D01*
X132865450Y-111113282D01*
X132885135Y-111046243D01*
X132885851Y-111045286D01*
X132890318Y-111038332D01*
X132890327Y-111038323D01*
X132950115Y-110907407D01*
X132970597Y-110764950D01*
X132950115Y-110622493D01*
X132890327Y-110491577D01*
X132796078Y-110382807D01*
X132796075Y-110382805D01*
X132796073Y-110382803D01*
X132684767Y-110311271D01*
X132639012Y-110258468D01*
X132629068Y-110189309D01*
X132644417Y-110144960D01*
X132673969Y-110093776D01*
X132701262Y-109991915D01*
X132701262Y-109886461D01*
X132701262Y-109295462D01*
X132701262Y-109287335D01*
X132703557Y-109287335D01*
X132712315Y-109231096D01*
X132712090Y-109230993D01*
X132712457Y-109230188D01*
X132712485Y-109230011D01*
X132712786Y-109229467D01*
X132715772Y-109222927D01*
X132715774Y-109222926D01*
X132775562Y-109092010D01*
X132796044Y-108949553D01*
X132775562Y-108807096D01*
X132715774Y-108676180D01*
X132621525Y-108567410D01*
X132500450Y-108489600D01*
X132500448Y-108489599D01*
X132500446Y-108489598D01*
X132500447Y-108489598D01*
X132449642Y-108474681D01*
X132390863Y-108436907D01*
X132361838Y-108373352D01*
X132371781Y-108304193D01*
X132396892Y-108268026D01*
X133778101Y-106886819D01*
X133839424Y-106853334D01*
X133865782Y-106850500D01*
X134783745Y-106850500D01*
X134850784Y-106870185D01*
X134896539Y-106922989D01*
X134906483Y-106992147D01*
X134877458Y-107055703D01*
X134871426Y-107062181D01*
X133429522Y-108504084D01*
X133429518Y-108504090D01*
X133376793Y-108595410D01*
X133374259Y-108604869D01*
X133357733Y-108666546D01*
X133349500Y-108697273D01*
X133349500Y-112032745D01*
X133329815Y-112099784D01*
X133313181Y-112120426D01*
X129929522Y-115504084D01*
X129929520Y-115504087D01*
X129876791Y-115595414D01*
X129871076Y-115616747D01*
X129871076Y-115616749D01*
X129849500Y-115697273D01*
X129849500Y-122282745D01*
X129829815Y-122349784D01*
X129813181Y-122370426D01*
X127870426Y-124313181D01*
X127809103Y-124346666D01*
X127782745Y-124349500D01*
X124320339Y-124349500D01*
X124320323Y-124349499D01*
X124312727Y-124349499D01*
X124207273Y-124349499D01*
X124160273Y-124362093D01*
X124105412Y-124376793D01*
X124014084Y-124429522D01*
X123939518Y-124504089D01*
X122320255Y-126123350D01*
X122258932Y-126156835D01*
X122196579Y-126154330D01*
X122124961Y-126132605D01*
X122065934Y-126114700D01*
X122065932Y-126114699D01*
X122065934Y-126114699D01*
X121860000Y-126094417D01*
X121654067Y-126114699D01*
X121456043Y-126174769D01*
X121404414Y-126202366D01*
X121273550Y-126272315D01*
X121273548Y-126272316D01*
X121273547Y-126272317D01*
X121113589Y-126403589D01*
X120982317Y-126563547D01*
X120982315Y-126563550D01*
X120943643Y-126635898D01*
X120884769Y-126746043D01*
X120824699Y-126944067D01*
X120804417Y-127150000D01*
X120824699Y-127355932D01*
X120824700Y-127355934D01*
X120884768Y-127553954D01*
X120982315Y-127736450D01*
X120982317Y-127736452D01*
X121113589Y-127896410D01*
X121185325Y-127955281D01*
X121273550Y-128027685D01*
X121456046Y-128125232D01*
X121654066Y-128185300D01*
X121654065Y-128185300D01*
X121672529Y-128187118D01*
X121860000Y-128205583D01*
X122065934Y-128185300D01*
X122263954Y-128125232D01*
X122446450Y-128027685D01*
X122606410Y-127896410D01*
X122737685Y-127736450D01*
X122835232Y-127553954D01*
X122895300Y-127355934D01*
X122915583Y-127150000D01*
X122895300Y-126944066D01*
X122855668Y-126813418D01*
X122855045Y-126743553D01*
X122886646Y-126689745D01*
X124389573Y-125186819D01*
X124450896Y-125153334D01*
X124477254Y-125150500D01*
X128052725Y-125150500D01*
X128052727Y-125150500D01*
X128154588Y-125123207D01*
X128245913Y-125070480D01*
X130485703Y-122830687D01*
X130485708Y-122830684D01*
X130495911Y-122820480D01*
X130495913Y-122820480D01*
X130570480Y-122745913D01*
X130623207Y-122654587D01*
X130623207Y-122654585D01*
X130623209Y-122654583D01*
X130630956Y-122625671D01*
X130643061Y-122580492D01*
X130650501Y-122552726D01*
X130650501Y-122447273D01*
X130650501Y-122439678D01*
X130650500Y-122439660D01*
X130650500Y-115967254D01*
X130670185Y-115900215D01*
X130686814Y-115879578D01*
X131177232Y-115389160D01*
X131238554Y-115355676D01*
X131308246Y-115360660D01*
X131364179Y-115402532D01*
X131388596Y-115467996D01*
X131388912Y-115476842D01*
X131388912Y-126612500D01*
X131369227Y-126679539D01*
X131330884Y-126717494D01*
X131287153Y-126744971D01*
X131173830Y-126858294D01*
X131112507Y-126891778D01*
X131042815Y-126886794D01*
X130986882Y-126844922D01*
X130962929Y-126784495D01*
X130958919Y-126748905D01*
X130958918Y-126748900D01*
X130935170Y-126681032D01*
X130899339Y-126578633D01*
X130872323Y-126535638D01*
X130803365Y-126425892D01*
X130675812Y-126298339D01*
X130523073Y-126202366D01*
X130352804Y-126142786D01*
X130352799Y-126142785D01*
X130173554Y-126122590D01*
X130173546Y-126122590D01*
X129994300Y-126142785D01*
X129994295Y-126142786D01*
X129824026Y-126202366D01*
X129671287Y-126298339D01*
X129543734Y-126425892D01*
X129447761Y-126578631D01*
X129388181Y-126748900D01*
X129388180Y-126748905D01*
X129367985Y-126928151D01*
X129367985Y-126928158D01*
X129388180Y-127107404D01*
X129388181Y-127107409D01*
X129447761Y-127277678D01*
X129496932Y-127355932D01*
X129543734Y-127430417D01*
X129671288Y-127557971D01*
X129671290Y-127557972D01*
X129781218Y-127627045D01*
X129824028Y-127653944D01*
X129933563Y-127692272D01*
X129994295Y-127713523D01*
X129994300Y-127713524D01*
X130173546Y-127733720D01*
X130173550Y-127733720D01*
X130173554Y-127733720D01*
X130352799Y-127713524D01*
X130352802Y-127713523D01*
X130352805Y-127713523D01*
X130523072Y-127653944D01*
X130675812Y-127557971D01*
X130789134Y-127444648D01*
X130850453Y-127411166D01*
X130920145Y-127416150D01*
X130976079Y-127458021D01*
X131000032Y-127518447D01*
X131004042Y-127554040D01*
X131004043Y-127554044D01*
X131063623Y-127724313D01*
X131159596Y-127877052D01*
X131187798Y-127905254D01*
X131221283Y-127966577D01*
X131216299Y-128036269D01*
X131187799Y-128080615D01*
X131154060Y-128114354D01*
X131154055Y-128114361D01*
X131088167Y-128228483D01*
X131088166Y-128228484D01*
X130902758Y-128920437D01*
X130415236Y-130739891D01*
X130415236Y-130739893D01*
X130381128Y-130867187D01*
X130381128Y-130998971D01*
X130415236Y-131126264D01*
X130481128Y-131240394D01*
X130527720Y-131286986D01*
X130574313Y-131333579D01*
X130574315Y-131333580D01*
X130574319Y-131333583D01*
X130661580Y-131383963D01*
X130661581Y-131383963D01*
X130688442Y-131399471D01*
X140989314Y-134159581D01*
X141983722Y-134426032D01*
X141983736Y-134426036D01*
X141989773Y-134427653D01*
X141989774Y-134427654D01*
X142117068Y-134461762D01*
X142117070Y-134461762D01*
X142248850Y-134461762D01*
X142248852Y-134461762D01*
X142376146Y-134427654D01*
X142490275Y-134361762D01*
X142583460Y-134268577D01*
X142649352Y-134154448D01*
X142683460Y-134027154D01*
X143327997Y-131621713D01*
X143356390Y-131515747D01*
X143356390Y-131383963D01*
X143322282Y-131256670D01*
X143256390Y-131142540D01*
X143163205Y-131049355D01*
X143163204Y-131049354D01*
X143163201Y-131049352D01*
X143049078Y-130983464D01*
X143049077Y-130983463D01*
X142615136Y-130867189D01*
X142422169Y-130815483D01*
X142362510Y-130779119D01*
X142331981Y-130716272D01*
X142340276Y-130646896D01*
X142384761Y-130593018D01*
X142451313Y-130571744D01*
X142454264Y-130571709D01*
X149687787Y-130571709D01*
X149778831Y-130553598D01*
X149823119Y-130544789D01*
X149916395Y-130506153D01*
X149950598Y-130491986D01*
X149950599Y-130491985D01*
X149950602Y-130491984D01*
X150065334Y-130415323D01*
X155823837Y-124656818D01*
X155885160Y-124623334D01*
X155911518Y-124620500D01*
X162924080Y-124620500D01*
X162991119Y-124640185D01*
X163036874Y-124692989D01*
X163048080Y-124744500D01*
X163048080Y-126996179D01*
X163028395Y-127063218D01*
X162975591Y-127108973D01*
X162956175Y-127115953D01*
X162864746Y-127140452D01*
X162864738Y-127140454D01*
X162758807Y-127184332D01*
X162758806Y-127184332D01*
X162717827Y-127215777D01*
X162637331Y-127277544D01*
X162637330Y-127277545D01*
X162637329Y-127277546D01*
X162544120Y-127399017D01*
X162485530Y-127540468D01*
X162485528Y-127540473D01*
X162465544Y-127692272D01*
X162465544Y-127692274D01*
X162480509Y-127805949D01*
X162480510Y-127805954D01*
X162480511Y-127805960D01*
X162694118Y-128603153D01*
X162697461Y-128615629D01*
X162697466Y-128615645D01*
X162709666Y-128645098D01*
X162717135Y-128714568D01*
X162685859Y-128777047D01*
X162627199Y-128812325D01*
X160285990Y-129439650D01*
X160216140Y-129437987D01*
X160158277Y-129398825D01*
X160130957Y-129336060D01*
X160128070Y-129314133D01*
X160128069Y-129314123D01*
X159911119Y-128504453D01*
X159911114Y-128504443D01*
X159911113Y-128504437D01*
X159867240Y-128398518D01*
X159867237Y-128398512D01*
X159774029Y-128277044D01*
X159774030Y-128277044D01*
X159652558Y-128183834D01*
X159652555Y-128183832D01*
X159511100Y-128125241D01*
X159359299Y-128105255D01*
X159359297Y-128105255D01*
X159245622Y-128120220D01*
X159245615Y-128120221D01*
X159245612Y-128120222D01*
X158909100Y-128210390D01*
X158549419Y-128306766D01*
X158543212Y-128308429D01*
X158473362Y-128306766D01*
X158423438Y-128276335D01*
X156823014Y-126675911D01*
X156797901Y-126639741D01*
X156755379Y-126546630D01*
X156755376Y-126546626D01*
X156740098Y-126528994D01*
X156661128Y-126437857D01*
X156540053Y-126360047D01*
X156540051Y-126360046D01*
X156540049Y-126360045D01*
X156540050Y-126360045D01*
X156401963Y-126319500D01*
X156401961Y-126319500D01*
X156258039Y-126319500D01*
X156258036Y-126319500D01*
X156119949Y-126360045D01*
X155998873Y-126437856D01*
X155904623Y-126546626D01*
X155904622Y-126546628D01*
X155844834Y-126677543D01*
X155824353Y-126820000D01*
X155844834Y-126962456D01*
X155894281Y-127070727D01*
X155904623Y-127093373D01*
X155998872Y-127202143D01*
X155998874Y-127202144D01*
X155998876Y-127202146D01*
X156119941Y-127279950D01*
X156119944Y-127279952D01*
X156119946Y-127279952D01*
X156119947Y-127279953D01*
X156136158Y-127284712D01*
X156188906Y-127316009D01*
X157578293Y-128705396D01*
X157611778Y-128766719D01*
X157606794Y-128836411D01*
X157605175Y-128840524D01*
X157596950Y-128860383D01*
X157596949Y-128860384D01*
X157588989Y-128920849D01*
X157560722Y-128984746D01*
X157502397Y-129023216D01*
X157432532Y-129024047D01*
X157373309Y-128986974D01*
X157367675Y-128980150D01*
X157321855Y-128920438D01*
X157321856Y-128920438D01*
X157200384Y-128827228D01*
X157200381Y-128827226D01*
X157058926Y-128768635D01*
X156907125Y-128748649D01*
X156907123Y-128748649D01*
X156793441Y-128763615D01*
X155523986Y-129103765D01*
X155418053Y-129147643D01*
X155418052Y-129147643D01*
X155347635Y-129201677D01*
X155296577Y-129240855D01*
X155296576Y-129240856D01*
X155296575Y-129240857D01*
X155203366Y-129362328D01*
X155144776Y-129503779D01*
X155144774Y-129503784D01*
X155124790Y-129655583D01*
X155124790Y-129655587D01*
X155130617Y-129699853D01*
X155119851Y-129768889D01*
X155073470Y-129821144D01*
X155006201Y-129840028D01*
X154939401Y-129819546D01*
X154919997Y-129803718D01*
X154901674Y-129785395D01*
X154748935Y-129689422D01*
X154578666Y-129629842D01*
X154578661Y-129629841D01*
X154399416Y-129609646D01*
X154399408Y-129609646D01*
X154220162Y-129629841D01*
X154220157Y-129629842D01*
X154049888Y-129689422D01*
X153897149Y-129785395D01*
X153769596Y-129912948D01*
X153673623Y-130065687D01*
X153614043Y-130235956D01*
X153614042Y-130235960D01*
X153611923Y-130254775D01*
X153584856Y-130319189D01*
X153527261Y-130358744D01*
X153457425Y-130360881D01*
X153401022Y-130328572D01*
X153278979Y-130206529D01*
X153126240Y-130110556D01*
X152955971Y-130050976D01*
X152955966Y-130050975D01*
X152776721Y-130030780D01*
X152776713Y-130030780D01*
X152597467Y-130050975D01*
X152597462Y-130050976D01*
X152427193Y-130110556D01*
X152274454Y-130206529D01*
X152146901Y-130334082D01*
X152050928Y-130486821D01*
X151991348Y-130657090D01*
X151991347Y-130657095D01*
X151971152Y-130836341D01*
X151971152Y-130836348D01*
X151991347Y-131015594D01*
X151991348Y-131015599D01*
X152050928Y-131185868D01*
X152111955Y-131282991D01*
X152146901Y-131338607D01*
X152274455Y-131466161D01*
X152427195Y-131562134D01*
X152589963Y-131619089D01*
X152597462Y-131621713D01*
X152597467Y-131621714D01*
X152776713Y-131641910D01*
X152776717Y-131641910D01*
X152776721Y-131641910D01*
X152955966Y-131621714D01*
X152955969Y-131621713D01*
X152955972Y-131621713D01*
X153126239Y-131562134D01*
X153278979Y-131466161D01*
X153406533Y-131338607D01*
X153502506Y-131185867D01*
X153562085Y-131015600D01*
X153564205Y-130996783D01*
X153591268Y-130932370D01*
X153648861Y-130892813D01*
X153718698Y-130890672D01*
X153775106Y-130922983D01*
X153897150Y-131045027D01*
X154049890Y-131141000D01*
X154153679Y-131177317D01*
X154210455Y-131218039D01*
X154236203Y-131282991D01*
X154232500Y-131326450D01*
X154217091Y-131383958D01*
X154217091Y-131383963D01*
X154217091Y-131515747D01*
X154245484Y-131621713D01*
X154477847Y-132488901D01*
X154924129Y-134154449D01*
X154924130Y-134154450D01*
X154990018Y-134268573D01*
X154990020Y-134268576D01*
X154990021Y-134268577D01*
X155036613Y-134315169D01*
X155083206Y-134361762D01*
X155197336Y-134427654D01*
X155324629Y-134461762D01*
X155324631Y-134461762D01*
X155456411Y-134461762D01*
X155456413Y-134461762D01*
X155583707Y-134427654D01*
X155583707Y-134427653D01*
X155599471Y-134423430D01*
X155599473Y-134423428D01*
X166885039Y-131399471D01*
X166999168Y-131333579D01*
X167092353Y-131240394D01*
X167158245Y-131126264D01*
X167192353Y-130998971D01*
X167192353Y-130867187D01*
X167158245Y-130739893D01*
X167158244Y-130739891D01*
X167157686Y-130737808D01*
X167156624Y-130733843D01*
X167156623Y-130733841D01*
X166950702Y-129965334D01*
X166485315Y-128228486D01*
X166425702Y-128125232D01*
X166419425Y-128114360D01*
X166419421Y-128114355D01*
X166326239Y-128021173D01*
X166326234Y-128021169D01*
X166212111Y-127955281D01*
X166212110Y-127955280D01*
X166212109Y-127955280D01*
X166084815Y-127921172D01*
X165953031Y-127921172D01*
X165953029Y-127921172D01*
X165833588Y-127953175D01*
X165833585Y-127953177D01*
X165825736Y-127955280D01*
X165825735Y-127955280D01*
X165656968Y-128000501D01*
X165175844Y-128129417D01*
X165105994Y-128127754D01*
X165048132Y-128088591D01*
X165020812Y-128025828D01*
X165020199Y-128021172D01*
X165016649Y-127994206D01*
X164799699Y-127184536D01*
X164799694Y-127184526D01*
X164799693Y-127184520D01*
X164755820Y-127078601D01*
X164755817Y-127078595D01*
X164662609Y-126957127D01*
X164662610Y-126957127D01*
X164541138Y-126863917D01*
X164541135Y-126863915D01*
X164525625Y-126857491D01*
X164471222Y-126813649D01*
X164449159Y-126747354D01*
X164449080Y-126742931D01*
X164449080Y-124032939D01*
X164468765Y-123965900D01*
X164485399Y-123945258D01*
X165443838Y-122986819D01*
X165505161Y-122953334D01*
X165531519Y-122950500D01*
X166792366Y-122950500D01*
X166859405Y-122970185D01*
X166905160Y-123022989D01*
X166915104Y-123092147D01*
X166886079Y-123155701D01*
X166875254Y-123168195D01*
X166824623Y-123226626D01*
X166824622Y-123226628D01*
X166764834Y-123357543D01*
X166744353Y-123500000D01*
X166764834Y-123642456D01*
X166799122Y-123717535D01*
X166824623Y-123773373D01*
X166824627Y-123773378D01*
X166829418Y-123780833D01*
X166826364Y-123782795D01*
X166848235Y-123830663D01*
X166849500Y-123848332D01*
X166849500Y-127697273D01*
X166849500Y-127802727D01*
X166850367Y-127805962D01*
X166876793Y-127904589D01*
X166887974Y-127923954D01*
X166929520Y-127995913D01*
X169004087Y-130070480D01*
X169095412Y-130123207D01*
X169197273Y-130150500D01*
X169302727Y-130150500D01*
X176167220Y-130150500D01*
X176234259Y-130170185D01*
X176254901Y-130186819D01*
X176784354Y-130716272D01*
X177302999Y-131234916D01*
X177336484Y-131296239D01*
X177338538Y-131336480D01*
X177321006Y-131492091D01*
X177321006Y-131492099D01*
X177341201Y-131671345D01*
X177341204Y-131671358D01*
X177372571Y-131760998D01*
X177376133Y-131830777D01*
X177341405Y-131891404D01*
X177279411Y-131923632D01*
X177214576Y-131918995D01*
X177111101Y-131882788D01*
X177111093Y-131882786D01*
X176931848Y-131862591D01*
X176931840Y-131862591D01*
X176752594Y-131882786D01*
X176752589Y-131882787D01*
X176582320Y-131942367D01*
X176429581Y-132038340D01*
X176302028Y-132165893D01*
X176206055Y-132318632D01*
X176146475Y-132488901D01*
X176146474Y-132488906D01*
X176126279Y-132668152D01*
X176126279Y-132668159D01*
X176146474Y-132847405D01*
X176146475Y-132847410D01*
X176206055Y-133017679D01*
X176302028Y-133170418D01*
X176429582Y-133297972D01*
X176582322Y-133393945D01*
X176641874Y-133414783D01*
X176752589Y-133453524D01*
X176752594Y-133453525D01*
X176931840Y-133473721D01*
X176931844Y-133473721D01*
X176931848Y-133473721D01*
X177111093Y-133453525D01*
X177111096Y-133453524D01*
X177111099Y-133453524D01*
X177281366Y-133393945D01*
X177434106Y-133297972D01*
X177561660Y-133170418D01*
X177657633Y-133017678D01*
X177717212Y-132847411D01*
X177737409Y-132668156D01*
X177721260Y-132524832D01*
X177717213Y-132488906D01*
X177717210Y-132488893D01*
X177685843Y-132399253D01*
X177682280Y-132329475D01*
X177717009Y-132268847D01*
X177779002Y-132236620D01*
X177843838Y-132241256D01*
X177922690Y-132268847D01*
X177947316Y-132277464D01*
X177947317Y-132277464D01*
X177947321Y-132277465D01*
X178126567Y-132297661D01*
X178126571Y-132297661D01*
X178126574Y-132297661D01*
X178216528Y-132287525D01*
X178299718Y-132278152D01*
X178368539Y-132290206D01*
X178419919Y-132337555D01*
X178433375Y-132369276D01*
X178444476Y-132410705D01*
X178510368Y-132524833D01*
X180442031Y-134456496D01*
X180556159Y-134522388D01*
X180683452Y-134556496D01*
X180683453Y-134556496D01*
X180683454Y-134556496D01*
X180815235Y-134556496D01*
X180815237Y-134556496D01*
X180942531Y-134522388D01*
X181056659Y-134456496D01*
X189320900Y-126192253D01*
X189320911Y-126192245D01*
X189329808Y-126183347D01*
X189329810Y-126183347D01*
X189422995Y-126090162D01*
X189488887Y-125976033D01*
X189522995Y-125848740D01*
X189522995Y-125716955D01*
X189504128Y-125646543D01*
X189488887Y-125589661D01*
X189450894Y-125523856D01*
X189450894Y-125523855D01*
X189450892Y-125523853D01*
X189449185Y-125520897D01*
X189422995Y-125475533D01*
X187491331Y-123543869D01*
X187377203Y-123477977D01*
X187373870Y-123477084D01*
X187371376Y-123475563D01*
X187369699Y-123474869D01*
X187369807Y-123474607D01*
X187314212Y-123440719D01*
X187283683Y-123377872D01*
X187291978Y-123308497D01*
X187302864Y-123288419D01*
X187370775Y-123186783D01*
X187423580Y-123059301D01*
X187431497Y-123019500D01*
X187432358Y-123015172D01*
X187432358Y-123015169D01*
X187450500Y-122923965D01*
X187450500Y-120181007D01*
X187450500Y-120181004D01*
X187423581Y-120045677D01*
X187423580Y-120045676D01*
X187423580Y-120045672D01*
X187370775Y-119918189D01*
X187358956Y-119900500D01*
X187340262Y-119872523D01*
X187294114Y-119803457D01*
X187294111Y-119803453D01*
X185486819Y-117996161D01*
X185453334Y-117934838D01*
X185450500Y-117908480D01*
X185450500Y-111141518D01*
X185470185Y-111074479D01*
X185486815Y-111053841D01*
X185543583Y-110997073D01*
X185604905Y-110963589D01*
X185674597Y-110968573D01*
X185730530Y-111010445D01*
X185754001Y-111067107D01*
X185764834Y-111142456D01*
X185812082Y-111245912D01*
X185824623Y-111273373D01*
X185918872Y-111382143D01*
X186039947Y-111459953D01*
X186039950Y-111459954D01*
X186039949Y-111459954D01*
X186156262Y-111494106D01*
X186209009Y-111525402D01*
X187242028Y-112558421D01*
X187333353Y-112611148D01*
X187435214Y-112638441D01*
X187540668Y-112638441D01*
X188667710Y-112638441D01*
X188734749Y-112658126D01*
X188772703Y-112696468D01*
X188800182Y-112740201D01*
X188800184Y-112740203D01*
X188927738Y-112867757D01*
X188987842Y-112905523D01*
X189086374Y-112967435D01*
X189084896Y-112969786D01*
X189127432Y-113008170D01*
X189145763Y-113075592D01*
X189124733Y-113142222D01*
X189073300Y-113185005D01*
X189073553Y-113185529D01*
X189071460Y-113186536D01*
X189071019Y-113186904D01*
X189069313Y-113187570D01*
X189067283Y-113188548D01*
X188914537Y-113284525D01*
X188786984Y-113412078D01*
X188691011Y-113564817D01*
X188631431Y-113735086D01*
X188631430Y-113735091D01*
X188611235Y-113914337D01*
X188611235Y-113914344D01*
X188631430Y-114093590D01*
X188631431Y-114093595D01*
X188691011Y-114263864D01*
X188748718Y-114355703D01*
X188786984Y-114416603D01*
X188914538Y-114544157D01*
X189067278Y-114640130D01*
X189178514Y-114679053D01*
X189237545Y-114699709D01*
X189237550Y-114699710D01*
X189416796Y-114719906D01*
X189416800Y-114719906D01*
X189416804Y-114719906D01*
X189596049Y-114699710D01*
X189596052Y-114699709D01*
X189596055Y-114699709D01*
X189766322Y-114640130D01*
X189919062Y-114544157D01*
X190046616Y-114416603D01*
X190142589Y-114263863D01*
X190202168Y-114093596D01*
X190202169Y-114093590D01*
X190222365Y-113914344D01*
X190222365Y-113914337D01*
X190202169Y-113735091D01*
X190202168Y-113735086D01*
X190169953Y-113643022D01*
X190142589Y-113564819D01*
X190046616Y-113412079D01*
X189919062Y-113284525D01*
X189853176Y-113243126D01*
X189760426Y-113184847D01*
X189761900Y-113182500D01*
X189719348Y-113144079D01*
X189701037Y-113076652D01*
X189722087Y-113010028D01*
X189773502Y-112967284D01*
X189773247Y-112966753D01*
X189775373Y-112965728D01*
X189775815Y-112965362D01*
X189777506Y-112964701D01*
X189779516Y-112963733D01*
X189779519Y-112963730D01*
X189779522Y-112963730D01*
X189932262Y-112867757D01*
X190059816Y-112740203D01*
X190098712Y-112678299D01*
X190151045Y-112632009D01*
X190220098Y-112621360D01*
X190265706Y-112636886D01*
X190316808Y-112666390D01*
X190316809Y-112666390D01*
X190316814Y-112666393D01*
X190444108Y-112700501D01*
X190444110Y-112700501D01*
X193175890Y-112700501D01*
X193175892Y-112700501D01*
X193303186Y-112666393D01*
X193417314Y-112600501D01*
X193510500Y-112507315D01*
X193576392Y-112393187D01*
X193610500Y-112265893D01*
X193610500Y-100434109D01*
X193576392Y-100306815D01*
X193510500Y-100192687D01*
X193417314Y-100099501D01*
X193346259Y-100058477D01*
X193303187Y-100033609D01*
X193198926Y-100005673D01*
X193175892Y-99999501D01*
X190575892Y-99999501D01*
X190444108Y-99999501D01*
X190316812Y-100033609D01*
X190202686Y-100099501D01*
X190202683Y-100099503D01*
X190109502Y-100192684D01*
X190109500Y-100192687D01*
X190043608Y-100306813D01*
X190009500Y-100434109D01*
X190009500Y-101236870D01*
X189989815Y-101303909D01*
X189937011Y-101349664D01*
X189869315Y-101359809D01*
X189839441Y-101355876D01*
X189839438Y-101355875D01*
X189839432Y-101355875D01*
X189001200Y-101355875D01*
X189001192Y-101355875D01*
X188887514Y-101370842D01*
X188887513Y-101370842D01*
X188746057Y-101429435D01*
X188624585Y-101522644D01*
X188531376Y-101644116D01*
X188475370Y-101779328D01*
X188431529Y-101833731D01*
X188365235Y-101855796D01*
X188360809Y-101855875D01*
X187944629Y-101855875D01*
X187809302Y-101882793D01*
X187809292Y-101882796D01*
X187681817Y-101935597D01*
X187567079Y-102012262D01*
X186785887Y-102793454D01*
X186709222Y-102908192D01*
X186656421Y-103035667D01*
X186656418Y-103035679D01*
X186637231Y-103132141D01*
X186637231Y-103132144D01*
X186629500Y-103171006D01*
X186629500Y-107878480D01*
X186609815Y-107945519D01*
X186593181Y-107966161D01*
X184205888Y-110353453D01*
X184205887Y-110353454D01*
X184129222Y-110468192D01*
X184076421Y-110595667D01*
X184074651Y-110601504D01*
X184073491Y-110601152D01*
X184044062Y-110657393D01*
X183983341Y-110691959D01*
X183913572Y-110688209D01*
X183861129Y-110652480D01*
X183831129Y-110617858D01*
X183831128Y-110617857D01*
X183710053Y-110540047D01*
X183710051Y-110540046D01*
X183710049Y-110540045D01*
X183710050Y-110540045D01*
X183571963Y-110499500D01*
X183571961Y-110499500D01*
X183428039Y-110499500D01*
X183428036Y-110499500D01*
X183289950Y-110540045D01*
X183289948Y-110540045D01*
X183228064Y-110579816D01*
X183161026Y-110599500D01*
X181217255Y-110599500D01*
X181150216Y-110579815D01*
X181129574Y-110563181D01*
X177494862Y-106928469D01*
X181449500Y-106928469D01*
X181489868Y-107131412D01*
X181489870Y-107131420D01*
X181569058Y-107322596D01*
X181684024Y-107494657D01*
X181830342Y-107640975D01*
X181830345Y-107640977D01*
X182002402Y-107755941D01*
X182193580Y-107835130D01*
X182382187Y-107872646D01*
X182396530Y-107875499D01*
X182396534Y-107875500D01*
X182396535Y-107875500D01*
X182603466Y-107875500D01*
X182603467Y-107875499D01*
X182806420Y-107835130D01*
X182997598Y-107755941D01*
X183169655Y-107640977D01*
X183315977Y-107494655D01*
X183326258Y-107479269D01*
X183949500Y-107479269D01*
X183952353Y-107509699D01*
X183952353Y-107509701D01*
X183997206Y-107637880D01*
X183997207Y-107637882D01*
X184077850Y-107747150D01*
X184187118Y-107827793D01*
X184208089Y-107835131D01*
X184315299Y-107872646D01*
X184345730Y-107875500D01*
X184345734Y-107875500D01*
X185654270Y-107875500D01*
X185684699Y-107872646D01*
X185684701Y-107872646D01*
X185748790Y-107850219D01*
X185812882Y-107827793D01*
X185922150Y-107747150D01*
X186002793Y-107637882D01*
X186037027Y-107540047D01*
X186047646Y-107509701D01*
X186047646Y-107509699D01*
X186050500Y-107479269D01*
X186050500Y-105920730D01*
X186047646Y-105890300D01*
X186047646Y-105890298D01*
X186007916Y-105776760D01*
X186002793Y-105762118D01*
X185922150Y-105652850D01*
X185812882Y-105572207D01*
X185812880Y-105572206D01*
X185684700Y-105527353D01*
X185654270Y-105524500D01*
X185654266Y-105524500D01*
X184345734Y-105524500D01*
X184345730Y-105524500D01*
X184315300Y-105527353D01*
X184315298Y-105527353D01*
X184187119Y-105572206D01*
X184187117Y-105572207D01*
X184077850Y-105652850D01*
X183997207Y-105762117D01*
X183997206Y-105762119D01*
X183952353Y-105890298D01*
X183952353Y-105890300D01*
X183949500Y-105920730D01*
X183949500Y-107479269D01*
X183326258Y-107479269D01*
X183430941Y-107322598D01*
X183510130Y-107131420D01*
X183550500Y-106928465D01*
X183550500Y-106471535D01*
X183510130Y-106268580D01*
X183430941Y-106077402D01*
X183315977Y-105905345D01*
X183315975Y-105905342D01*
X183169657Y-105759024D01*
X183024588Y-105662093D01*
X182997598Y-105644059D01*
X182968830Y-105632143D01*
X182806420Y-105564870D01*
X182806412Y-105564868D01*
X182603469Y-105524500D01*
X182603465Y-105524500D01*
X182396535Y-105524500D01*
X182396530Y-105524500D01*
X182193587Y-105564868D01*
X182193579Y-105564870D01*
X182002403Y-105644058D01*
X181830342Y-105759024D01*
X181684024Y-105905342D01*
X181569058Y-106077403D01*
X181489870Y-106268579D01*
X181489868Y-106268587D01*
X181449500Y-106471530D01*
X181449500Y-106928469D01*
X177494862Y-106928469D01*
X175245915Y-104679522D01*
X175245913Y-104679520D01*
X175181717Y-104642456D01*
X175154589Y-104626793D01*
X175103657Y-104613146D01*
X175052727Y-104599500D01*
X175052726Y-104599500D01*
X162717255Y-104599500D01*
X162650216Y-104579815D01*
X162629574Y-104563181D01*
X161245915Y-103179522D01*
X161245913Y-103179520D01*
X161195649Y-103150500D01*
X161154589Y-103126793D01*
X161103657Y-103113146D01*
X161052727Y-103099500D01*
X161052726Y-103099500D01*
X160016255Y-103099500D01*
X159949216Y-103079815D01*
X159903461Y-103027011D01*
X159893517Y-102957853D01*
X159922542Y-102894297D01*
X159928574Y-102887819D01*
X161379573Y-101436819D01*
X161440896Y-101403334D01*
X161467254Y-101400500D01*
X166661026Y-101400500D01*
X166728064Y-101420184D01*
X166789949Y-101459954D01*
X166928036Y-101500499D01*
X166928038Y-101500500D01*
X166928039Y-101500500D01*
X167071962Y-101500500D01*
X167071962Y-101500499D01*
X167210053Y-101459953D01*
X167331128Y-101382143D01*
X167425377Y-101273373D01*
X167485165Y-101142457D01*
X167505647Y-101000000D01*
X167488054Y-100877636D01*
X167497998Y-100808477D01*
X167543753Y-100755673D01*
X167610792Y-100735989D01*
X167645723Y-100741011D01*
X167678039Y-100750500D01*
X167678040Y-100750500D01*
X167821962Y-100750500D01*
X167821962Y-100750499D01*
X167960053Y-100709953D01*
X168081128Y-100632143D01*
X168175377Y-100523373D01*
X168235165Y-100392457D01*
X168255647Y-100250000D01*
X168238054Y-100127636D01*
X168247998Y-100058477D01*
X168293753Y-100005673D01*
X168360792Y-99985989D01*
X168395723Y-99991011D01*
X168428039Y-100000500D01*
X168428040Y-100000500D01*
X168571962Y-100000500D01*
X168571962Y-100000499D01*
X168710053Y-99959953D01*
X168831128Y-99882143D01*
X168925377Y-99773373D01*
X168985165Y-99642457D01*
X169005647Y-99500000D01*
X168986017Y-99363469D01*
X183134500Y-99363469D01*
X183174868Y-99566412D01*
X183174870Y-99566420D01*
X183229845Y-99699142D01*
X183254059Y-99757598D01*
X183275739Y-99790045D01*
X183369024Y-99929657D01*
X183515342Y-100075975D01*
X183515345Y-100075977D01*
X183687402Y-100190941D01*
X183878580Y-100270130D01*
X184062999Y-100306813D01*
X184081530Y-100310499D01*
X184081534Y-100310500D01*
X184081535Y-100310500D01*
X184538466Y-100310500D01*
X184538467Y-100310499D01*
X184741420Y-100270130D01*
X184932598Y-100190941D01*
X185104655Y-100075977D01*
X185250977Y-99929655D01*
X185365941Y-99757598D01*
X185445130Y-99566420D01*
X185485500Y-99363465D01*
X185485500Y-99156535D01*
X185445130Y-98953580D01*
X185365941Y-98762402D01*
X185250977Y-98590345D01*
X185250975Y-98590342D01*
X185104657Y-98444024D01*
X185018626Y-98386541D01*
X184932598Y-98329059D01*
X184741420Y-98249870D01*
X184741412Y-98249868D01*
X184538469Y-98209500D01*
X184538465Y-98209500D01*
X184081535Y-98209500D01*
X184081530Y-98209500D01*
X183878587Y-98249868D01*
X183878579Y-98249870D01*
X183687403Y-98329058D01*
X183515342Y-98444024D01*
X183369024Y-98590342D01*
X183254058Y-98762403D01*
X183174870Y-98953579D01*
X183174868Y-98953587D01*
X183134500Y-99156530D01*
X183134500Y-99363469D01*
X168986017Y-99363469D01*
X168985165Y-99357543D01*
X168985160Y-99357533D01*
X168982758Y-99349350D01*
X168982754Y-99279480D01*
X169020524Y-99220699D01*
X169084078Y-99191670D01*
X169102374Y-99190409D01*
X171771901Y-99204314D01*
X171940453Y-99205192D01*
X171940453Y-99205191D01*
X171940457Y-99205192D01*
X171972200Y-99202893D01*
X172010066Y-99197177D01*
X172093804Y-99164685D01*
X172151843Y-99125786D01*
X172195301Y-99086638D01*
X173588943Y-97414269D01*
X183134500Y-97414269D01*
X183137353Y-97444699D01*
X183137353Y-97444701D01*
X183182206Y-97572880D01*
X183182207Y-97572882D01*
X183262850Y-97682150D01*
X183372118Y-97762793D01*
X183414845Y-97777744D01*
X183500299Y-97807646D01*
X183530730Y-97810500D01*
X183530734Y-97810500D01*
X185089270Y-97810500D01*
X185119699Y-97807646D01*
X185119701Y-97807646D01*
X185183790Y-97785219D01*
X185247882Y-97762793D01*
X185357150Y-97682150D01*
X185437793Y-97572882D01*
X185460219Y-97508790D01*
X185482646Y-97444701D01*
X185482646Y-97444699D01*
X185485500Y-97414269D01*
X185485500Y-96105730D01*
X185482646Y-96075300D01*
X185482646Y-96075298D01*
X185440588Y-95955106D01*
X185437793Y-95947118D01*
X185357150Y-95837850D01*
X185247882Y-95757207D01*
X185247880Y-95757206D01*
X185119700Y-95712353D01*
X185089270Y-95709500D01*
X185089266Y-95709500D01*
X183530734Y-95709500D01*
X183530730Y-95709500D01*
X183500300Y-95712353D01*
X183500298Y-95712353D01*
X183372119Y-95757206D01*
X183372117Y-95757207D01*
X183262850Y-95837850D01*
X183182207Y-95947117D01*
X183182206Y-95947119D01*
X183137353Y-96075298D01*
X183137353Y-96075300D01*
X183134500Y-96105730D01*
X183134500Y-97414269D01*
X173588943Y-97414269D01*
X174629128Y-96166047D01*
X174636951Y-96156047D01*
X174646007Y-96143703D01*
X174677490Y-96080043D01*
X174697175Y-96013004D01*
X174705500Y-95955106D01*
X174705500Y-93024501D01*
X174725185Y-92957462D01*
X174777989Y-92911707D01*
X174829500Y-92900501D01*
X192427214Y-92900501D01*
X192494253Y-92920186D01*
X192540008Y-92972990D01*
X192549952Y-93042148D01*
X192520927Y-93105704D01*
X192470548Y-93140682D01*
X192439300Y-93152337D01*
X192376837Y-93175634D01*
X192376833Y-93175636D01*
X192125690Y-93312771D01*
X192125682Y-93312776D01*
X191896612Y-93484255D01*
X191896594Y-93484271D01*
X191694270Y-93686595D01*
X191694254Y-93686613D01*
X191522775Y-93915683D01*
X191522770Y-93915691D01*
X191385635Y-94166834D01*
X191285628Y-94434963D01*
X191224804Y-94714567D01*
X191204390Y-94999999D01*
X191204390Y-95000002D01*
X191224804Y-95285434D01*
X191285628Y-95565038D01*
X191285630Y-95565044D01*
X191285631Y-95565047D01*
X191340574Y-95712354D01*
X191385635Y-95833167D01*
X191522770Y-96084310D01*
X191522775Y-96084318D01*
X191694254Y-96313388D01*
X191694270Y-96313406D01*
X191896594Y-96515730D01*
X191896612Y-96515746D01*
X192125682Y-96687225D01*
X192125690Y-96687230D01*
X192376833Y-96824365D01*
X192376832Y-96824365D01*
X192376836Y-96824366D01*
X192376839Y-96824368D01*
X192644954Y-96924370D01*
X192644960Y-96924371D01*
X192644962Y-96924372D01*
X192924566Y-96985196D01*
X192924568Y-96985196D01*
X192924572Y-96985197D01*
X193178220Y-97003338D01*
X193209999Y-97005611D01*
X193210000Y-97005611D01*
X193210001Y-97005611D01*
X193238595Y-97003565D01*
X193495428Y-96985197D01*
X193775046Y-96924370D01*
X194043161Y-96824368D01*
X194294315Y-96687227D01*
X194523395Y-96515740D01*
X194725739Y-96313396D01*
X194897226Y-96084316D01*
X195034367Y-95833162D01*
X195069318Y-95739453D01*
X195111189Y-95683520D01*
X195176654Y-95659103D01*
X195244927Y-95673955D01*
X195294332Y-95723360D01*
X195309500Y-95782787D01*
X195309500Y-122101582D01*
X195289815Y-122168621D01*
X195237011Y-122214376D01*
X195167853Y-122224320D01*
X195104297Y-122195295D01*
X195069318Y-122144916D01*
X195064697Y-122132526D01*
X195034367Y-122051208D01*
X195017532Y-122020378D01*
X194897229Y-121800059D01*
X194897224Y-121800051D01*
X194725745Y-121570981D01*
X194725729Y-121570963D01*
X194523405Y-121368639D01*
X194523387Y-121368623D01*
X194294317Y-121197144D01*
X194294309Y-121197139D01*
X194043166Y-121060004D01*
X194043167Y-121060004D01*
X193933426Y-121019073D01*
X193775046Y-120960000D01*
X193775043Y-120959999D01*
X193775037Y-120959997D01*
X193495433Y-120899173D01*
X193210001Y-120878759D01*
X193209999Y-120878759D01*
X192924566Y-120899173D01*
X192644962Y-120959997D01*
X192376833Y-121060004D01*
X192125690Y-121197139D01*
X192125682Y-121197144D01*
X191896612Y-121368623D01*
X191896594Y-121368639D01*
X191694270Y-121570963D01*
X191694254Y-121570981D01*
X191522775Y-121800051D01*
X191522770Y-121800059D01*
X191385635Y-122051202D01*
X191285628Y-122319331D01*
X191224804Y-122598935D01*
X191204390Y-122884367D01*
X191204390Y-122884370D01*
X191224804Y-123169802D01*
X191285628Y-123449406D01*
X191285630Y-123449412D01*
X191285631Y-123449415D01*
X191384847Y-123715423D01*
X191385635Y-123717535D01*
X191522770Y-123968678D01*
X191522775Y-123968686D01*
X191694254Y-124197756D01*
X191694270Y-124197774D01*
X191896594Y-124400098D01*
X191896612Y-124400114D01*
X192125682Y-124571593D01*
X192125690Y-124571598D01*
X192376833Y-124708733D01*
X192376832Y-124708733D01*
X192376836Y-124708734D01*
X192376839Y-124708736D01*
X192644954Y-124808738D01*
X192644960Y-124808739D01*
X192644962Y-124808740D01*
X192924566Y-124869564D01*
X192924568Y-124869564D01*
X192924572Y-124869565D01*
X193178220Y-124887706D01*
X193209999Y-124889979D01*
X193210000Y-124889979D01*
X193210001Y-124889979D01*
X193238595Y-124887933D01*
X193495428Y-124869565D01*
X193501754Y-124868189D01*
X193775037Y-124808740D01*
X193775037Y-124808739D01*
X193775046Y-124808738D01*
X194043161Y-124708736D01*
X194294315Y-124571595D01*
X194523395Y-124400108D01*
X194725739Y-124197764D01*
X194897226Y-123968684D01*
X195034367Y-123717530D01*
X195069318Y-123623821D01*
X195111189Y-123567888D01*
X195176654Y-123543471D01*
X195244927Y-123558323D01*
X195294332Y-123607728D01*
X195309500Y-123667155D01*
X195309500Y-133276866D01*
X195309499Y-133276888D01*
X195309499Y-133344466D01*
X195309183Y-133353311D01*
X195294870Y-133553450D01*
X195292352Y-133570962D01*
X195250647Y-133762682D01*
X195245663Y-133779658D01*
X195177093Y-133963503D01*
X195169743Y-133979596D01*
X195075711Y-134151805D01*
X195066149Y-134166684D01*
X194948567Y-134323756D01*
X194936982Y-134337127D01*
X194798237Y-134475873D01*
X194784865Y-134487459D01*
X194627790Y-134605044D01*
X194612907Y-134614609D01*
X194440704Y-134708640D01*
X194424611Y-134715990D01*
X194240765Y-134784561D01*
X194223789Y-134789545D01*
X194032069Y-134831251D01*
X194014557Y-134833769D01*
X193814569Y-134848073D01*
X193805723Y-134848389D01*
X193739002Y-134848389D01*
X193738974Y-134848390D01*
X119555535Y-134849803D01*
X119533662Y-134847859D01*
X119523468Y-134846032D01*
X119523462Y-134846032D01*
X119484067Y-134849365D01*
X119473617Y-134849806D01*
X119434100Y-134849806D01*
X119426417Y-134851864D01*
X119424094Y-134852487D01*
X119402470Y-134856268D01*
X119392155Y-134857141D01*
X119392144Y-134857143D01*
X119354962Y-134870555D01*
X119344988Y-134873684D01*
X119306809Y-134883915D01*
X119306808Y-134883916D01*
X119297837Y-134889095D01*
X119277928Y-134898344D01*
X119268187Y-134901858D01*
X119268178Y-134901862D01*
X119235736Y-134924440D01*
X119226914Y-134930043D01*
X119192675Y-134949813D01*
X119185362Y-134957127D01*
X119168517Y-134971221D01*
X119160021Y-134977134D01*
X119160017Y-134977137D01*
X119134510Y-135007358D01*
X119127437Y-135015054D01*
X119099495Y-135042998D01*
X119099492Y-135043002D01*
X119094317Y-135051965D01*
X119081702Y-135069928D01*
X119075019Y-135077847D01*
X119075018Y-135077848D01*
X119058213Y-135113619D01*
X119053371Y-135122887D01*
X119033604Y-135157125D01*
X119030923Y-135167132D01*
X119023382Y-135187757D01*
X118953247Y-135337046D01*
X118910747Y-135427511D01*
X118910176Y-135428726D01*
X118863854Y-135481033D01*
X118797944Y-135500000D01*
X100235197Y-135500000D01*
X100168158Y-135480315D01*
X100122403Y-135427511D01*
X100111912Y-135362702D01*
X100112662Y-135355741D01*
X100114679Y-135337046D01*
X100111973Y-135319654D01*
X100110499Y-135300591D01*
X100110499Y-135283000D01*
X100110498Y-135282993D01*
X100102137Y-135251787D01*
X100099387Y-135238763D01*
X100094418Y-135206832D01*
X100094417Y-135206829D01*
X100087302Y-135190732D01*
X100080944Y-135172698D01*
X100076391Y-135155703D01*
X100060229Y-135127711D01*
X100054203Y-135115844D01*
X100041143Y-135086294D01*
X100041143Y-135086293D01*
X100030105Y-135072586D01*
X100019299Y-135056817D01*
X100016498Y-135051965D01*
X100010499Y-135041575D01*
X100010497Y-135041573D01*
X99987641Y-135018715D01*
X99978754Y-135008819D01*
X99958487Y-134983652D01*
X99951946Y-134978872D01*
X99944277Y-134973268D01*
X99929757Y-134960832D01*
X99917316Y-134948391D01*
X99917314Y-134948389D01*
X99906588Y-134942196D01*
X99889320Y-134932226D01*
X99878166Y-134924961D01*
X99852085Y-134905904D01*
X99852084Y-134905903D01*
X99852082Y-134905902D01*
X99835670Y-134899550D01*
X99818432Y-134891299D01*
X99803190Y-134882500D01*
X99803185Y-134882497D01*
X99799263Y-134881446D01*
X99771958Y-134874129D01*
X99759305Y-134869998D01*
X99729184Y-134858342D01*
X99729175Y-134858340D01*
X99711679Y-134856452D01*
X99692894Y-134852944D01*
X99675895Y-134848389D01*
X99675891Y-134848389D01*
X99643578Y-134848389D01*
X99630282Y-134847674D01*
X99598157Y-134844209D01*
X99598150Y-134844209D01*
X99597364Y-134844332D01*
X99569463Y-134845489D01*
X99405443Y-134833758D01*
X99387931Y-134831240D01*
X99196213Y-134789535D01*
X99179237Y-134784551D01*
X98995394Y-134715980D01*
X98979301Y-134708630D01*
X98862506Y-134644855D01*
X98807097Y-134614599D01*
X98792214Y-134605035D01*
X98727372Y-134556495D01*
X98635141Y-134487451D01*
X98621770Y-134475865D01*
X98483026Y-134337120D01*
X98471441Y-134323749D01*
X98353860Y-134166679D01*
X98344304Y-134151811D01*
X98250260Y-133979581D01*
X98242917Y-133963500D01*
X98174347Y-133779655D01*
X98169363Y-133762680D01*
X98127656Y-133570951D01*
X98125140Y-133553455D01*
X98110816Y-133353152D01*
X98110500Y-133344307D01*
X98110500Y-123667155D01*
X98130185Y-123600116D01*
X98182989Y-123554361D01*
X98252147Y-123544417D01*
X98315703Y-123573442D01*
X98350682Y-123623822D01*
X98385633Y-123717531D01*
X98385635Y-123717535D01*
X98522770Y-123968678D01*
X98522775Y-123968686D01*
X98694254Y-124197756D01*
X98694270Y-124197774D01*
X98896594Y-124400098D01*
X98896612Y-124400114D01*
X99125682Y-124571593D01*
X99125690Y-124571598D01*
X99376833Y-124708733D01*
X99376832Y-124708733D01*
X99376836Y-124708734D01*
X99376839Y-124708736D01*
X99644954Y-124808738D01*
X99644960Y-124808739D01*
X99644962Y-124808740D01*
X99924566Y-124869564D01*
X99924568Y-124869564D01*
X99924572Y-124869565D01*
X100178220Y-124887706D01*
X100209999Y-124889979D01*
X100210000Y-124889979D01*
X100210001Y-124889979D01*
X100238595Y-124887933D01*
X100495428Y-124869565D01*
X100501754Y-124868189D01*
X100775037Y-124808740D01*
X100775037Y-124808739D01*
X100775046Y-124808738D01*
X101043161Y-124708736D01*
X101294315Y-124571595D01*
X101523395Y-124400108D01*
X101725739Y-124197764D01*
X101897226Y-123968684D01*
X102034367Y-123717530D01*
X102134369Y-123449415D01*
X102138374Y-123431004D01*
X102195195Y-123169802D01*
X102195195Y-123169801D01*
X102195196Y-123169797D01*
X102214724Y-122896759D01*
X102215610Y-122884370D01*
X102215610Y-122884367D01*
X102206892Y-122762478D01*
X102195196Y-122598941D01*
X102190765Y-122578574D01*
X102134371Y-122319331D01*
X102134370Y-122319329D01*
X102134369Y-122319323D01*
X102034367Y-122051208D01*
X102017532Y-122020378D01*
X101897229Y-121800059D01*
X101897224Y-121800051D01*
X101725745Y-121570981D01*
X101725729Y-121570963D01*
X101523405Y-121368639D01*
X101523387Y-121368623D01*
X101294317Y-121197144D01*
X101294309Y-121197139D01*
X101043166Y-121060004D01*
X101043167Y-121060004D01*
X100933426Y-121019073D01*
X100775046Y-120960000D01*
X100775043Y-120959999D01*
X100775037Y-120959997D01*
X100495433Y-120899173D01*
X100210001Y-120878759D01*
X100209999Y-120878759D01*
X99924566Y-120899173D01*
X99644962Y-120959997D01*
X99376833Y-121060004D01*
X99125690Y-121197139D01*
X99125682Y-121197144D01*
X98896612Y-121368623D01*
X98896594Y-121368639D01*
X98694270Y-121570963D01*
X98694254Y-121570981D01*
X98522775Y-121800051D01*
X98522770Y-121800059D01*
X98385635Y-122051202D01*
X98381813Y-122061450D01*
X98355304Y-122132525D01*
X98350682Y-122144916D01*
X98308810Y-122200849D01*
X98243346Y-122225266D01*
X98175073Y-122210414D01*
X98125668Y-122161009D01*
X98110500Y-122101582D01*
X98110500Y-95782787D01*
X98130185Y-95715748D01*
X98182989Y-95669993D01*
X98252147Y-95660049D01*
X98315703Y-95689074D01*
X98350682Y-95739454D01*
X98385633Y-95833163D01*
X98385635Y-95833167D01*
X98522770Y-96084310D01*
X98522775Y-96084318D01*
X98694254Y-96313388D01*
X98694270Y-96313406D01*
X98896594Y-96515730D01*
X98896612Y-96515746D01*
X99125682Y-96687225D01*
X99125690Y-96687230D01*
X99376833Y-96824365D01*
X99376832Y-96824365D01*
X99376836Y-96824366D01*
X99376839Y-96824368D01*
X99644954Y-96924370D01*
X99644960Y-96924371D01*
X99644962Y-96924372D01*
X99924566Y-96985196D01*
X99924568Y-96985196D01*
X99924572Y-96985197D01*
X100178220Y-97003338D01*
X100209999Y-97005611D01*
X100210000Y-97005611D01*
X100210001Y-97005611D01*
X100238595Y-97003565D01*
X100495428Y-96985197D01*
X100775046Y-96924370D01*
X101043161Y-96824368D01*
X101294315Y-96687227D01*
X101523395Y-96515740D01*
X101725739Y-96313396D01*
X101897226Y-96084316D01*
X102034367Y-95833162D01*
X102134369Y-95565047D01*
X102170273Y-95400000D01*
X105034417Y-95400000D01*
X105054699Y-95605932D01*
X105054700Y-95605934D01*
X105114768Y-95803954D01*
X105212315Y-95986450D01*
X105212317Y-95986452D01*
X105343589Y-96146410D01*
X105440209Y-96225702D01*
X105503550Y-96277685D01*
X105686046Y-96375232D01*
X105884066Y-96435300D01*
X105884065Y-96435300D01*
X105902529Y-96437118D01*
X106090000Y-96455583D01*
X106295934Y-96435300D01*
X106493954Y-96375232D01*
X106676450Y-96277685D01*
X106836410Y-96146410D01*
X106967685Y-95986450D01*
X107065232Y-95803954D01*
X107125300Y-95605934D01*
X107145583Y-95400000D01*
X107125300Y-95194066D01*
X107065232Y-94996046D01*
X106967685Y-94813550D01*
X106886457Y-94714573D01*
X106836410Y-94653589D01*
X106676452Y-94522317D01*
X106676453Y-94522317D01*
X106676450Y-94522315D01*
X106493954Y-94424768D01*
X106295934Y-94364700D01*
X106295932Y-94364699D01*
X106295934Y-94364699D01*
X106090000Y-94344417D01*
X105884067Y-94364699D01*
X105686043Y-94424769D01*
X105648739Y-94444709D01*
X105503550Y-94522315D01*
X105503548Y-94522316D01*
X105503547Y-94522317D01*
X105343589Y-94653589D01*
X105212317Y-94813547D01*
X105114769Y-94996043D01*
X105054699Y-95194067D01*
X105034417Y-95400000D01*
X102170273Y-95400000D01*
X102195196Y-95285429D01*
X102215610Y-95000001D01*
X102195196Y-94714573D01*
X102153373Y-94522317D01*
X102134371Y-94434963D01*
X102134370Y-94434961D01*
X102134369Y-94434955D01*
X102034367Y-94166840D01*
X102007071Y-94116852D01*
X101897229Y-93915691D01*
X101897224Y-93915683D01*
X101725745Y-93686613D01*
X101725729Y-93686595D01*
X101523405Y-93484271D01*
X101523387Y-93484255D01*
X101294317Y-93312776D01*
X101294309Y-93312771D01*
X101043166Y-93175636D01*
X101043162Y-93175634D01*
X100996318Y-93158162D01*
X100949452Y-93140682D01*
X100893519Y-93098812D01*
X100869102Y-93033347D01*
X100883954Y-92965074D01*
X100933359Y-92915669D01*
X100992786Y-92900501D01*
X115435811Y-92900501D01*
X115502850Y-92920186D01*
G37*
%TD.AperFunction*%
%TA.AperFunction,Conductor*%
G36*
X170609405Y-122970185D02*
G01*
X170655160Y-123022989D01*
X170665104Y-123092147D01*
X170636079Y-123155701D01*
X170625254Y-123168195D01*
X170574623Y-123226626D01*
X170574622Y-123226628D01*
X170514834Y-123357543D01*
X170494353Y-123500000D01*
X170514834Y-123642456D01*
X170560378Y-123742181D01*
X170574623Y-123773373D01*
X170668872Y-123882143D01*
X170789947Y-123959953D01*
X170789950Y-123959954D01*
X170789949Y-123959954D01*
X170906262Y-123994106D01*
X170959009Y-124025402D01*
X172393181Y-125459574D01*
X172426666Y-125520897D01*
X172429500Y-125547255D01*
X172429500Y-126468599D01*
X172409815Y-126535638D01*
X172363954Y-126577957D01*
X172329859Y-126596181D01*
X172243550Y-126642315D01*
X172243548Y-126642316D01*
X172243547Y-126642317D01*
X172083589Y-126773589D01*
X171956740Y-126928158D01*
X171952315Y-126933550D01*
X171921042Y-126992058D01*
X171854769Y-127116043D01*
X171794699Y-127314067D01*
X171774417Y-127520000D01*
X171794699Y-127725932D01*
X171816985Y-127799398D01*
X171854768Y-127923954D01*
X171952315Y-128106450D01*
X171986969Y-128148677D01*
X172083589Y-128266410D01*
X172157368Y-128326958D01*
X172243550Y-128397685D01*
X172426046Y-128495232D01*
X172624066Y-128555300D01*
X172624065Y-128555300D01*
X172642529Y-128557118D01*
X172830000Y-128575583D01*
X173035934Y-128555300D01*
X173233954Y-128495232D01*
X173416450Y-128397685D01*
X173576410Y-128266410D01*
X173707685Y-128106450D01*
X173805232Y-127923954D01*
X173865300Y-127725934D01*
X173885583Y-127520000D01*
X173865300Y-127314066D01*
X173805232Y-127116046D01*
X173707685Y-126933550D01*
X173644781Y-126856901D01*
X173576410Y-126773589D01*
X173416452Y-126642317D01*
X173416453Y-126642317D01*
X173416450Y-126642315D01*
X173313383Y-126587224D01*
X173296046Y-126577957D01*
X173246202Y-126528994D01*
X173230500Y-126468599D01*
X173230500Y-125277276D01*
X173230499Y-125277269D01*
X173220472Y-125239847D01*
X173203207Y-125175412D01*
X173150480Y-125084087D01*
X171524629Y-123458236D01*
X171491144Y-123396913D01*
X171489572Y-123388198D01*
X171488813Y-123382919D01*
X171485165Y-123357543D01*
X171481720Y-123350000D01*
X171437849Y-123253937D01*
X171425377Y-123226627D01*
X171363920Y-123155701D01*
X171334896Y-123092147D01*
X171344840Y-123022988D01*
X171390595Y-122970184D01*
X171457634Y-122950500D01*
X172078481Y-122950500D01*
X172145520Y-122970185D01*
X172166162Y-122986819D01*
X174633181Y-125453838D01*
X174666666Y-125515161D01*
X174669500Y-125541519D01*
X174669500Y-126677265D01*
X174649815Y-126744304D01*
X174627729Y-126769115D01*
X174627897Y-126769283D01*
X174625021Y-126772158D01*
X174624173Y-126773110D01*
X174623590Y-126773590D01*
X174623588Y-126773592D01*
X174492317Y-126933546D01*
X174394769Y-127116043D01*
X174334699Y-127314067D01*
X174314417Y-127520000D01*
X174334699Y-127725932D01*
X174356985Y-127799398D01*
X174394768Y-127923954D01*
X174492315Y-128106450D01*
X174526969Y-128148677D01*
X174623589Y-128266410D01*
X174697368Y-128326958D01*
X174783550Y-128397685D01*
X174966046Y-128495232D01*
X175164066Y-128555300D01*
X175164065Y-128555300D01*
X175182529Y-128557118D01*
X175370000Y-128575583D01*
X175575934Y-128555300D01*
X175773954Y-128495232D01*
X175956450Y-128397685D01*
X176116410Y-128266410D01*
X176247685Y-128106450D01*
X176345232Y-127923954D01*
X176405300Y-127725934D01*
X176425583Y-127520000D01*
X176405300Y-127314066D01*
X176345232Y-127116046D01*
X176247685Y-126933550D01*
X176243257Y-126928155D01*
X176191380Y-126864942D01*
X176116410Y-126773590D01*
X176115827Y-126773112D01*
X176115604Y-126772784D01*
X176112103Y-126769283D01*
X176112767Y-126768618D01*
X176076498Y-126715365D01*
X176070500Y-126677265D01*
X176070500Y-125131006D01*
X176070499Y-125131003D01*
X176064510Y-125100896D01*
X176046045Y-125008063D01*
X176043580Y-124995671D01*
X175990775Y-124868189D01*
X175914114Y-124753457D01*
X175914112Y-124753454D01*
X175914111Y-124753453D01*
X174902838Y-123742181D01*
X174869353Y-123680858D01*
X174874337Y-123611166D01*
X174916209Y-123555233D01*
X174981673Y-123530816D01*
X174990519Y-123530500D01*
X177681007Y-123530500D01*
X180648481Y-123530500D01*
X180715520Y-123550185D01*
X180736162Y-123566819D01*
X181433453Y-124264111D01*
X181433454Y-124264112D01*
X181548192Y-124340777D01*
X181635144Y-124376793D01*
X181675672Y-124393580D01*
X181675676Y-124393580D01*
X181675677Y-124393581D01*
X181811003Y-124420500D01*
X181811006Y-124420500D01*
X181811007Y-124420500D01*
X183603886Y-124420500D01*
X183670925Y-124440185D01*
X183716680Y-124492989D01*
X183726624Y-124562147D01*
X183718448Y-124591951D01*
X183691985Y-124655838D01*
X183679133Y-124753457D01*
X183672000Y-124807638D01*
X183682399Y-124886626D01*
X183691986Y-124959438D01*
X183691987Y-124959443D01*
X183750578Y-125100896D01*
X183750579Y-125100899D01*
X183820384Y-125191869D01*
X183820392Y-125191878D01*
X184413094Y-125784580D01*
X184413098Y-125784583D01*
X184413103Y-125784588D01*
X184427041Y-125795283D01*
X184468242Y-125851712D01*
X184472395Y-125921458D01*
X184439233Y-125981338D01*
X182727994Y-127692577D01*
X182666671Y-127726062D01*
X182596979Y-127721078D01*
X182541941Y-127680387D01*
X182537190Y-127674196D01*
X182537182Y-127674187D01*
X181944480Y-127081485D01*
X181944471Y-127081477D01*
X181853501Y-127011672D01*
X181853498Y-127011671D01*
X181712045Y-126953080D01*
X181712043Y-126953079D01*
X181712042Y-126953079D01*
X181610840Y-126939755D01*
X181560241Y-126933093D01*
X181560239Y-126933093D01*
X181408438Y-126953079D01*
X181266982Y-127011671D01*
X181266980Y-127011672D01*
X181176012Y-127081474D01*
X181117589Y-127139896D01*
X181056265Y-127173380D01*
X180986574Y-127168394D01*
X180942228Y-127139894D01*
X179011847Y-125209513D01*
X179011845Y-125209511D01*
X178970153Y-125185440D01*
X178909116Y-125150199D01*
X178880120Y-125142431D01*
X178837329Y-125130965D01*
X178794540Y-125119500D01*
X178794539Y-125119500D01*
X178557727Y-125119500D01*
X178518995Y-125111073D01*
X178518563Y-125112545D01*
X178371963Y-125069500D01*
X178371961Y-125069500D01*
X178228039Y-125069500D01*
X178228036Y-125069500D01*
X178089949Y-125110045D01*
X177968873Y-125187856D01*
X177874623Y-125296626D01*
X177874622Y-125296628D01*
X177814834Y-125427543D01*
X177794353Y-125570000D01*
X177814834Y-125712456D01*
X177846981Y-125782847D01*
X177874623Y-125843373D01*
X177968872Y-125952143D01*
X178089947Y-126029953D01*
X178089950Y-126029954D01*
X178089949Y-126029954D01*
X178228036Y-126070499D01*
X178228038Y-126070500D01*
X178228039Y-126070500D01*
X178371961Y-126070500D01*
X178476588Y-126039779D01*
X178546457Y-126039779D01*
X178599203Y-126071075D01*
X180305125Y-127776997D01*
X180338610Y-127838320D01*
X180333626Y-127908012D01*
X180305127Y-127952358D01*
X180246705Y-128010781D01*
X180176903Y-128101749D01*
X180176902Y-128101751D01*
X180118310Y-128243207D01*
X180107284Y-128326958D01*
X180098324Y-128395009D01*
X180118310Y-128546811D01*
X180130227Y-128575582D01*
X180141647Y-128603153D01*
X180149114Y-128672622D01*
X180117839Y-128735101D01*
X180057749Y-128770753D01*
X179987924Y-128768258D01*
X179979633Y-128765165D01*
X179910096Y-128736362D01*
X179910094Y-128736361D01*
X179910093Y-128736361D01*
X179797742Y-128721569D01*
X179758292Y-128716375D01*
X179758290Y-128716375D01*
X179606489Y-128736361D01*
X179465033Y-128794953D01*
X179465030Y-128794954D01*
X179374060Y-128864759D01*
X178444759Y-129794060D01*
X178374954Y-129885030D01*
X178374953Y-129885033D01*
X178354030Y-129935547D01*
X178316361Y-130026490D01*
X178296375Y-130178291D01*
X178314925Y-130319189D01*
X178316361Y-130330091D01*
X178316362Y-130330096D01*
X178374953Y-130471549D01*
X178374954Y-130471551D01*
X178401505Y-130506153D01*
X178426699Y-130571322D01*
X178412661Y-130639767D01*
X178363847Y-130689756D01*
X178295755Y-130705420D01*
X178289246Y-130704859D01*
X178126575Y-130686531D01*
X178126567Y-130686531D01*
X177970955Y-130704063D01*
X177902133Y-130692008D01*
X177869391Y-130668524D01*
X177272070Y-130071203D01*
X176630388Y-129429520D01*
X176564512Y-129391486D01*
X176539064Y-129376793D01*
X176485070Y-129362326D01*
X176437202Y-129349500D01*
X176437201Y-129349500D01*
X169467255Y-129349500D01*
X169400216Y-129329815D01*
X169379574Y-129313181D01*
X167686819Y-127620426D01*
X167653334Y-127559103D01*
X167650500Y-127532745D01*
X167650500Y-123848332D01*
X167670185Y-123781293D01*
X167670901Y-123780336D01*
X167675368Y-123773382D01*
X167675377Y-123773373D01*
X167735165Y-123642457D01*
X167755647Y-123500000D01*
X167735165Y-123357543D01*
X167675377Y-123226627D01*
X167613920Y-123155701D01*
X167584896Y-123092147D01*
X167594840Y-123022988D01*
X167640595Y-122970184D01*
X167707634Y-122950500D01*
X170542366Y-122950500D01*
X170609405Y-122970185D01*
G37*
%TD.AperFunction*%
%TA.AperFunction,Conductor*%
G36*
X136849319Y-125283983D02*
G01*
X136869961Y-125300618D01*
X140281242Y-128711899D01*
X140314727Y-128773222D01*
X140309743Y-128842914D01*
X140269048Y-128897955D01*
X140229563Y-128928253D01*
X140136355Y-129049721D01*
X140136352Y-129049727D01*
X140092479Y-129155646D01*
X140092474Y-129155662D01*
X139999196Y-129503783D01*
X139875525Y-129965329D01*
X139875524Y-129965334D01*
X139872643Y-129987214D01*
X139844374Y-130051109D01*
X139786048Y-130089578D01*
X139717610Y-130090799D01*
X137378879Y-129464137D01*
X137319219Y-129427772D01*
X137288690Y-129364925D01*
X137296415Y-129296903D01*
X137301114Y-129285560D01*
X137301114Y-129285557D01*
X137301119Y-129285547D01*
X137518069Y-128475877D01*
X137533036Y-128362191D01*
X137513051Y-128210389D01*
X137454458Y-128068932D01*
X137361249Y-127947461D01*
X137239777Y-127854252D01*
X137239774Y-127854251D01*
X137239772Y-127854249D01*
X137133839Y-127810371D01*
X136693088Y-127692272D01*
X135864388Y-127470222D01*
X135864387Y-127470221D01*
X135864384Y-127470221D01*
X135750703Y-127455255D01*
X135750701Y-127455255D01*
X135598899Y-127475241D01*
X135457444Y-127533832D01*
X135457441Y-127533834D01*
X135335969Y-127627044D01*
X135335968Y-127627045D01*
X135298846Y-127675423D01*
X135242418Y-127716625D01*
X135172671Y-127720778D01*
X135111752Y-127686565D01*
X135079000Y-127624847D01*
X135077533Y-127616120D01*
X135073318Y-127584107D01*
X135067709Y-127541497D01*
X135027594Y-127444651D01*
X135009117Y-127400042D01*
X135009116Y-127400041D01*
X135009116Y-127400040D01*
X134915907Y-127278569D01*
X134915904Y-127278565D01*
X134910164Y-127272826D01*
X134911185Y-127271804D01*
X134875200Y-127222524D01*
X134871045Y-127152778D01*
X134904205Y-127092897D01*
X135105831Y-126891272D01*
X136341094Y-125656007D01*
X136393842Y-125624712D01*
X136410053Y-125619953D01*
X136410055Y-125619951D01*
X136410057Y-125619951D01*
X136498182Y-125563315D01*
X136531128Y-125542143D01*
X136625377Y-125433373D01*
X136669487Y-125336784D01*
X136715240Y-125283984D01*
X136782280Y-125264299D01*
X136849319Y-125283983D01*
G37*
%TD.AperFunction*%
%TA.AperFunction,Conductor*%
G36*
X174849784Y-105420185D02*
G01*
X174870426Y-105436819D01*
X180679519Y-111245912D01*
X180679520Y-111245913D01*
X180754087Y-111320480D01*
X180845413Y-111373207D01*
X180947273Y-111400500D01*
X183161026Y-111400500D01*
X183228064Y-111420184D01*
X183266572Y-111444931D01*
X183278463Y-111452573D01*
X183289949Y-111459954D01*
X183428036Y-111500499D01*
X183428038Y-111500500D01*
X183428039Y-111500500D01*
X183571962Y-111500500D01*
X183571962Y-111500499D01*
X183701093Y-111462584D01*
X183710050Y-111459954D01*
X183710050Y-111459953D01*
X183710053Y-111459953D01*
X183831128Y-111382143D01*
X183831785Y-111381384D01*
X183832628Y-111380842D01*
X183837828Y-111376337D01*
X183838475Y-111377084D01*
X183890560Y-111343608D01*
X183960429Y-111343605D01*
X184019209Y-111381377D01*
X184048237Y-111444931D01*
X184049500Y-111462584D01*
X184049500Y-118181006D01*
X184049500Y-118318994D01*
X184049500Y-118318996D01*
X184049499Y-118318996D01*
X184076418Y-118454322D01*
X184076421Y-118454332D01*
X184129222Y-118581807D01*
X184205887Y-118696545D01*
X184205888Y-118696546D01*
X186013181Y-120503838D01*
X186046666Y-120565161D01*
X186049500Y-120591519D01*
X186049500Y-122513453D01*
X186029815Y-122580492D01*
X186013181Y-122601134D01*
X185618648Y-122995667D01*
X185557325Y-123029152D01*
X185530967Y-123031986D01*
X185146098Y-123031986D01*
X185079059Y-123012301D01*
X185033304Y-122959497D01*
X185023360Y-122890339D01*
X185052385Y-122826784D01*
X185115705Y-122753708D01*
X185115705Y-122753706D01*
X185115708Y-122753704D01*
X185175496Y-122622788D01*
X185195978Y-122480331D01*
X185175496Y-122337874D01*
X185115708Y-122206958D01*
X185021459Y-122098188D01*
X184900384Y-122020378D01*
X184900382Y-122020377D01*
X184900380Y-122020376D01*
X184900381Y-122020376D01*
X184762294Y-121979831D01*
X184762292Y-121979831D01*
X184618370Y-121979831D01*
X184618369Y-121979831D01*
X184559548Y-121997102D01*
X184500374Y-122014477D01*
X184465441Y-122019500D01*
X182642614Y-122019500D01*
X182607677Y-122014476D01*
X182606632Y-122014169D01*
X182606630Y-122014169D01*
X182462708Y-122014169D01*
X182462705Y-122014169D01*
X182324618Y-122054714D01*
X182203542Y-122132525D01*
X182109292Y-122241295D01*
X182109291Y-122241297D01*
X182049503Y-122372212D01*
X182029022Y-122514669D01*
X182029022Y-122514670D01*
X182037073Y-122570670D01*
X182027129Y-122639829D01*
X181981373Y-122692632D01*
X181914334Y-122712316D01*
X181847294Y-122692631D01*
X181826654Y-122675997D01*
X181436546Y-122285888D01*
X181436545Y-122285887D01*
X181321807Y-122209222D01*
X181194332Y-122156421D01*
X181194322Y-122156418D01*
X181058996Y-122129500D01*
X181058994Y-122129500D01*
X181058993Y-122129500D01*
X177818993Y-122129500D01*
X173341519Y-122129500D01*
X173274480Y-122109815D01*
X173253838Y-122093181D01*
X172866546Y-121705888D01*
X172866545Y-121705887D01*
X172751807Y-121629222D01*
X172624332Y-121576421D01*
X172624322Y-121576418D01*
X172488996Y-121549500D01*
X172488994Y-121549500D01*
X172488993Y-121549500D01*
X165258994Y-121549500D01*
X165121006Y-121549500D01*
X165121004Y-121549500D01*
X164985677Y-121576418D01*
X164985667Y-121576421D01*
X164858192Y-121629222D01*
X164743454Y-121705887D01*
X164743453Y-121705888D01*
X163266162Y-123183181D01*
X163204839Y-123216666D01*
X163178481Y-123219500D01*
X155501005Y-123219500D01*
X155433976Y-123232833D01*
X155400461Y-123239500D01*
X155374307Y-123244702D01*
X155365670Y-123246420D01*
X155365666Y-123246421D01*
X155347526Y-123253936D01*
X155347524Y-123253937D01*
X155238191Y-123299223D01*
X155129617Y-123371771D01*
X155129613Y-123371774D01*
X155126553Y-123373818D01*
X155123452Y-123375890D01*
X149364953Y-129134390D01*
X149303630Y-129167875D01*
X149277272Y-129170709D01*
X142801519Y-129170709D01*
X142734480Y-129151024D01*
X142713838Y-129134390D01*
X141618930Y-128039481D01*
X141618927Y-128039478D01*
X141542313Y-127988287D01*
X141523523Y-127972866D01*
X141057838Y-127507181D01*
X141024353Y-127445858D01*
X141029337Y-127376166D01*
X141071209Y-127320233D01*
X141136673Y-127295816D01*
X141145519Y-127295500D01*
X142103996Y-127295500D01*
X142217982Y-127272826D01*
X142239328Y-127268580D01*
X142338321Y-127227576D01*
X142366807Y-127215777D01*
X142366808Y-127215776D01*
X142366811Y-127215775D01*
X142481543Y-127139114D01*
X147963611Y-121657043D01*
X148024932Y-121623560D01*
X148039130Y-121621324D01*
X148147115Y-121610689D01*
X148327039Y-121556109D01*
X148388373Y-121523324D01*
X148492851Y-121467481D01*
X148492853Y-121467478D01*
X148492857Y-121467477D01*
X148638199Y-121348199D01*
X148757477Y-121202857D01*
X148757478Y-121202853D01*
X148757481Y-121202851D01*
X148833835Y-121060002D01*
X148846109Y-121037039D01*
X148900689Y-120857115D01*
X148919118Y-120670000D01*
X148900689Y-120482885D01*
X148846109Y-120302961D01*
X148818068Y-120250500D01*
X148775043Y-120170004D01*
X155984732Y-120170004D01*
X156003777Y-120424154D01*
X156057163Y-120658055D01*
X156060492Y-120672637D01*
X156153607Y-120909888D01*
X156281041Y-121130612D01*
X156439950Y-121329877D01*
X156626783Y-121503232D01*
X156837366Y-121646805D01*
X156837371Y-121646807D01*
X156837372Y-121646808D01*
X156837373Y-121646809D01*
X156959328Y-121705538D01*
X157066992Y-121757387D01*
X157066993Y-121757387D01*
X157066996Y-121757389D01*
X157310542Y-121832513D01*
X157562565Y-121870500D01*
X157817435Y-121870500D01*
X158069458Y-121832513D01*
X158313004Y-121757389D01*
X158501581Y-121666575D01*
X158542626Y-121646809D01*
X158542626Y-121646808D01*
X158542634Y-121646805D01*
X158753217Y-121503232D01*
X158940050Y-121329877D01*
X159098959Y-121130612D01*
X159226393Y-120909888D01*
X159319508Y-120672637D01*
X159376222Y-120424157D01*
X159389023Y-120253334D01*
X159395268Y-120170004D01*
X159395268Y-120169995D01*
X159376222Y-119915845D01*
X159350570Y-119803457D01*
X159319508Y-119667363D01*
X159226393Y-119430112D01*
X159098959Y-119209388D01*
X158940050Y-119010123D01*
X158753217Y-118836768D01*
X158542634Y-118693195D01*
X158542630Y-118693193D01*
X158542627Y-118693191D01*
X158542626Y-118693190D01*
X158313006Y-118582612D01*
X158313008Y-118582612D01*
X158069466Y-118507489D01*
X158069462Y-118507488D01*
X158069458Y-118507487D01*
X157948231Y-118489214D01*
X157817440Y-118469500D01*
X157817435Y-118469500D01*
X157562565Y-118469500D01*
X157562559Y-118469500D01*
X157405609Y-118493157D01*
X157310542Y-118507487D01*
X157310539Y-118507488D01*
X157310533Y-118507489D01*
X157066992Y-118582612D01*
X156837373Y-118693190D01*
X156837372Y-118693191D01*
X156837366Y-118693194D01*
X156837366Y-118693195D01*
X156832451Y-118696546D01*
X156626782Y-118836768D01*
X156439952Y-119010121D01*
X156439950Y-119010123D01*
X156281041Y-119209388D01*
X156153608Y-119430109D01*
X156060492Y-119667362D01*
X156060490Y-119667369D01*
X156003777Y-119915845D01*
X155984732Y-120169995D01*
X155984732Y-120170004D01*
X148775043Y-120170004D01*
X148757481Y-120137148D01*
X148757476Y-120137142D01*
X148753373Y-120132143D01*
X148736086Y-120111078D01*
X148638199Y-119991800D01*
X148492857Y-119872523D01*
X148492851Y-119872518D01*
X148327040Y-119783891D01*
X148147117Y-119729311D01*
X148147115Y-119729310D01*
X147960000Y-119710882D01*
X147772884Y-119729310D01*
X147772882Y-119729311D01*
X147592959Y-119783891D01*
X147427148Y-119872518D01*
X147427142Y-119872523D01*
X147281800Y-119991800D01*
X147162523Y-120137142D01*
X147162518Y-120137148D01*
X147073891Y-120302959D01*
X147019311Y-120482882D01*
X147019310Y-120482884D01*
X147008675Y-120590863D01*
X146982513Y-120655650D01*
X146972953Y-120666389D01*
X146527178Y-121112164D01*
X146465855Y-121145649D01*
X146396163Y-121140665D01*
X146340230Y-121098793D01*
X146315813Y-121033329D01*
X146320837Y-120988487D01*
X146329479Y-120960000D01*
X146360689Y-120857115D01*
X146379118Y-120670000D01*
X146360689Y-120482885D01*
X146306109Y-120302961D01*
X146278068Y-120250500D01*
X146217481Y-120137148D01*
X146217476Y-120137142D01*
X146213373Y-120132143D01*
X146196086Y-120111078D01*
X146098199Y-119991800D01*
X145952857Y-119872523D01*
X145952851Y-119872518D01*
X145787040Y-119783891D01*
X145607117Y-119729311D01*
X145607115Y-119729310D01*
X145420000Y-119710882D01*
X145232884Y-119729310D01*
X145232882Y-119729311D01*
X145052959Y-119783891D01*
X144887148Y-119872518D01*
X144887142Y-119872523D01*
X144741800Y-119991800D01*
X144622523Y-120137142D01*
X144622518Y-120137148D01*
X144533891Y-120302959D01*
X144479311Y-120482882D01*
X144479310Y-120482884D01*
X144460882Y-120670000D01*
X144479310Y-120857115D01*
X144479311Y-120857117D01*
X144533891Y-121037040D01*
X144622518Y-121202851D01*
X144622523Y-121202857D01*
X144741800Y-121348199D01*
X144813441Y-121406992D01*
X144886091Y-121466614D01*
X144887142Y-121467476D01*
X144887148Y-121467481D01*
X145028168Y-121542857D01*
X145052961Y-121556109D01*
X145222241Y-121607460D01*
X145232882Y-121610688D01*
X145232884Y-121610689D01*
X145249660Y-121612341D01*
X145420000Y-121629118D01*
X145607115Y-121610689D01*
X145738487Y-121570836D01*
X145808354Y-121570213D01*
X145867467Y-121607460D01*
X145897058Y-121670754D01*
X145887733Y-121739999D01*
X145862164Y-121777178D01*
X141781162Y-125858181D01*
X141719839Y-125891666D01*
X141693481Y-125894500D01*
X139496519Y-125894500D01*
X139429480Y-125874815D01*
X139408838Y-125858181D01*
X136506546Y-122955888D01*
X136506545Y-122955887D01*
X136391807Y-122879222D01*
X136264332Y-122826421D01*
X136264322Y-122826418D01*
X136128996Y-122799500D01*
X136128994Y-122799500D01*
X136128993Y-122799500D01*
X134101007Y-122799500D01*
X134101005Y-122799500D01*
X133965677Y-122826418D01*
X133965667Y-122826421D01*
X133838195Y-122879221D01*
X133838182Y-122879228D01*
X133723458Y-122955885D01*
X133723454Y-122955888D01*
X133625888Y-123053454D01*
X133625885Y-123053458D01*
X133549228Y-123168182D01*
X133549221Y-123168195D01*
X133496421Y-123295667D01*
X133496418Y-123295677D01*
X133469500Y-123431004D01*
X133469500Y-123431007D01*
X133469500Y-123568993D01*
X133469500Y-123568995D01*
X133469499Y-123568995D01*
X133496418Y-123704322D01*
X133496421Y-123704332D01*
X133549221Y-123831804D01*
X133549228Y-123831817D01*
X133625885Y-123946541D01*
X133625888Y-123946545D01*
X133723454Y-124044111D01*
X133723458Y-124044114D01*
X133838182Y-124120771D01*
X133838195Y-124120778D01*
X133933333Y-124160185D01*
X133965672Y-124173580D01*
X133965676Y-124173580D01*
X133965677Y-124173581D01*
X134101004Y-124200500D01*
X134101007Y-124200500D01*
X135718481Y-124200500D01*
X135785520Y-124220185D01*
X135806162Y-124236819D01*
X136058183Y-124488840D01*
X136091668Y-124550163D01*
X136086684Y-124619855D01*
X136044812Y-124675788D01*
X136005438Y-124695498D01*
X135989948Y-124700046D01*
X135868873Y-124777856D01*
X135774623Y-124886626D01*
X135774621Y-124886629D01*
X135732095Y-124979745D01*
X135706983Y-125015912D01*
X134468728Y-126254169D01*
X133865994Y-126856901D01*
X133804671Y-126890386D01*
X133746220Y-126888995D01*
X133419044Y-126801329D01*
X133305361Y-126786363D01*
X133305359Y-126786363D01*
X133153557Y-126806349D01*
X133012102Y-126864940D01*
X133012099Y-126864942D01*
X132890628Y-126958152D01*
X132797420Y-127079620D01*
X132797419Y-127079622D01*
X132779059Y-127123948D01*
X132735217Y-127178351D01*
X132668923Y-127200415D01*
X132601223Y-127183135D01*
X132553613Y-127131997D01*
X132547456Y-127117448D01*
X132546965Y-127116046D01*
X132515201Y-127025268D01*
X132419228Y-126872528D01*
X132291674Y-126744974D01*
X132291673Y-126744973D01*
X132247940Y-126717494D01*
X132201649Y-126665160D01*
X132189912Y-126612500D01*
X132189912Y-121925000D01*
X137259353Y-121925000D01*
X137279834Y-122067456D01*
X137326213Y-122169009D01*
X137339623Y-122198373D01*
X137433872Y-122307143D01*
X137433874Y-122307144D01*
X137433876Y-122307146D01*
X137554941Y-122384950D01*
X137554944Y-122384952D01*
X137554946Y-122384952D01*
X137554947Y-122384953D01*
X137571158Y-122389712D01*
X137623906Y-122421009D01*
X138618847Y-123415951D01*
X138652332Y-123477274D01*
X138653904Y-123485983D01*
X138654834Y-123492454D01*
X138654835Y-123492458D01*
X138689788Y-123568993D01*
X138714623Y-123623373D01*
X138808872Y-123732143D01*
X138929947Y-123809953D01*
X138929950Y-123809954D01*
X138929949Y-123809954D01*
X139037107Y-123841417D01*
X139060655Y-123848332D01*
X139068036Y-123850499D01*
X139068038Y-123850500D01*
X139068039Y-123850500D01*
X139211962Y-123850500D01*
X139211962Y-123850499D01*
X139350053Y-123809953D01*
X139471128Y-123732143D01*
X139565377Y-123623373D01*
X139625165Y-123492457D01*
X139645647Y-123350000D01*
X139625165Y-123207543D01*
X139565377Y-123076627D01*
X139565375Y-123076625D01*
X139565374Y-123076622D01*
X139471133Y-122967862D01*
X139471130Y-122967859D01*
X139471128Y-122967857D01*
X139428224Y-122940284D01*
X139409113Y-122928002D01*
X139388472Y-122911368D01*
X138489784Y-122012680D01*
X138456299Y-121951357D01*
X138461283Y-121881665D01*
X138489784Y-121837318D01*
X138621216Y-121705886D01*
X138860489Y-121466614D01*
X138919799Y-121363887D01*
X138926285Y-121339675D01*
X138926286Y-121339675D01*
X138926286Y-121339671D01*
X138950500Y-121249309D01*
X138950500Y-119737964D01*
X138970185Y-119670925D01*
X138986815Y-119650287D01*
X139171425Y-119465676D01*
X139224173Y-119434381D01*
X139240384Y-119429622D01*
X139240386Y-119429620D01*
X139240388Y-119429620D01*
X139361454Y-119351815D01*
X139361453Y-119351815D01*
X139361459Y-119351812D01*
X139455708Y-119243042D01*
X139515496Y-119112126D01*
X139535978Y-118969669D01*
X139515496Y-118827212D01*
X139455708Y-118696296D01*
X139361459Y-118587526D01*
X139240384Y-118509716D01*
X139240382Y-118509715D01*
X139240380Y-118509714D01*
X139240381Y-118509714D01*
X139102294Y-118469169D01*
X139102292Y-118469169D01*
X138958370Y-118469169D01*
X138958367Y-118469169D01*
X138820280Y-118509714D01*
X138699204Y-118587525D01*
X138604954Y-118696295D01*
X138604952Y-118696298D01*
X138562426Y-118789414D01*
X138537314Y-118825581D01*
X138139513Y-119223383D01*
X138139509Y-119223389D01*
X138080201Y-119326112D01*
X138080200Y-119326117D01*
X138049500Y-119440691D01*
X138049500Y-120952034D01*
X138029815Y-121019073D01*
X138013181Y-121039715D01*
X137623905Y-121428990D01*
X137571163Y-121460285D01*
X137554949Y-121465046D01*
X137554945Y-121465048D01*
X137433873Y-121542856D01*
X137339623Y-121651626D01*
X137339622Y-121651628D01*
X137279834Y-121782543D01*
X137259353Y-121925000D01*
X132189912Y-121925000D01*
X132189912Y-120170004D01*
X133984732Y-120170004D01*
X134003777Y-120424154D01*
X134057163Y-120658055D01*
X134060492Y-120672637D01*
X134153607Y-120909888D01*
X134281041Y-121130612D01*
X134439950Y-121329877D01*
X134626783Y-121503232D01*
X134837366Y-121646805D01*
X134837371Y-121646807D01*
X134837372Y-121646808D01*
X134837373Y-121646809D01*
X134959328Y-121705538D01*
X135066992Y-121757387D01*
X135066993Y-121757387D01*
X135066996Y-121757389D01*
X135310542Y-121832513D01*
X135562565Y-121870500D01*
X135817435Y-121870500D01*
X136069458Y-121832513D01*
X136313004Y-121757389D01*
X136501581Y-121666575D01*
X136542626Y-121646809D01*
X136542626Y-121646808D01*
X136542634Y-121646805D01*
X136753217Y-121503232D01*
X136940050Y-121329877D01*
X137098959Y-121130612D01*
X137226393Y-120909888D01*
X137319508Y-120672637D01*
X137376222Y-120424157D01*
X137389023Y-120253334D01*
X137395268Y-120170004D01*
X137395268Y-120169995D01*
X137376222Y-119915845D01*
X137350570Y-119803457D01*
X137319508Y-119667363D01*
X137226393Y-119430112D01*
X137098959Y-119209388D01*
X136940050Y-119010123D01*
X136753217Y-118836768D01*
X136542634Y-118693195D01*
X136542630Y-118693193D01*
X136542627Y-118693191D01*
X136542626Y-118693190D01*
X136313006Y-118582612D01*
X136313008Y-118582612D01*
X136069466Y-118507489D01*
X136069462Y-118507488D01*
X136069458Y-118507487D01*
X135948231Y-118489214D01*
X135817440Y-118469500D01*
X135817435Y-118469500D01*
X135562565Y-118469500D01*
X135562559Y-118469500D01*
X135405609Y-118493157D01*
X135310542Y-118507487D01*
X135310539Y-118507488D01*
X135310533Y-118507489D01*
X135066992Y-118582612D01*
X134837373Y-118693190D01*
X134837372Y-118693191D01*
X134837366Y-118693194D01*
X134837366Y-118693195D01*
X134832451Y-118696546D01*
X134626782Y-118836768D01*
X134439952Y-119010121D01*
X134439950Y-119010123D01*
X134281041Y-119209388D01*
X134153608Y-119430109D01*
X134060492Y-119667362D01*
X134060490Y-119667369D01*
X134003777Y-119915845D01*
X133984732Y-120169995D01*
X133984732Y-120170004D01*
X132189912Y-120170004D01*
X132189912Y-117055667D01*
X132209597Y-116988628D01*
X132262401Y-116942873D01*
X132331559Y-116932929D01*
X132395115Y-116961954D01*
X132401593Y-116967986D01*
X132754087Y-117320480D01*
X132845412Y-117373207D01*
X132947273Y-117400500D01*
X138532745Y-117400500D01*
X138599784Y-117420185D01*
X138620426Y-117436819D01*
X140813181Y-119629574D01*
X140846666Y-119690897D01*
X140849500Y-119717255D01*
X140849500Y-124651667D01*
X140829815Y-124718706D01*
X140829094Y-124719669D01*
X140824622Y-124726628D01*
X140764834Y-124857543D01*
X140744353Y-125000000D01*
X140764834Y-125142456D01*
X140820479Y-125264299D01*
X140824623Y-125273373D01*
X140918872Y-125382143D01*
X141039947Y-125459953D01*
X141039950Y-125459954D01*
X141039949Y-125459954D01*
X141178036Y-125500499D01*
X141178038Y-125500500D01*
X141178039Y-125500500D01*
X141321962Y-125500500D01*
X141321962Y-125500499D01*
X141460053Y-125459953D01*
X141581128Y-125382143D01*
X141675377Y-125273373D01*
X141735165Y-125142457D01*
X141755647Y-125000000D01*
X141735165Y-124857543D01*
X141675377Y-124726627D01*
X141675374Y-124726624D01*
X141670582Y-124719166D01*
X141673621Y-124717212D01*
X141651749Y-124669224D01*
X141650500Y-124651667D01*
X141650500Y-120670000D01*
X141920882Y-120670000D01*
X141939310Y-120857115D01*
X141939311Y-120857117D01*
X141993891Y-121037040D01*
X142082518Y-121202851D01*
X142082523Y-121202857D01*
X142201800Y-121348199D01*
X142273441Y-121406992D01*
X142346091Y-121466614D01*
X142347142Y-121467476D01*
X142347148Y-121467481D01*
X142488168Y-121542857D01*
X142512961Y-121556109D01*
X142682241Y-121607460D01*
X142692882Y-121610688D01*
X142692884Y-121610689D01*
X142709660Y-121612341D01*
X142880000Y-121629118D01*
X143067115Y-121610689D01*
X143247039Y-121556109D01*
X143308373Y-121523324D01*
X143412851Y-121467481D01*
X143412853Y-121467478D01*
X143412857Y-121467477D01*
X143558199Y-121348199D01*
X143677477Y-121202857D01*
X143677478Y-121202853D01*
X143677481Y-121202851D01*
X143753835Y-121060002D01*
X143766109Y-121037039D01*
X143820689Y-120857115D01*
X143839118Y-120670000D01*
X143820689Y-120482885D01*
X143766109Y-120302961D01*
X143738068Y-120250500D01*
X143677481Y-120137148D01*
X143677476Y-120137142D01*
X143673373Y-120132143D01*
X143656086Y-120111078D01*
X143558199Y-119991800D01*
X143412857Y-119872523D01*
X143412851Y-119872518D01*
X143247040Y-119783891D01*
X143067117Y-119729311D01*
X143067115Y-119729310D01*
X142880000Y-119710882D01*
X142692884Y-119729310D01*
X142692882Y-119729311D01*
X142512959Y-119783891D01*
X142347148Y-119872518D01*
X142347142Y-119872523D01*
X142201800Y-119991800D01*
X142082523Y-120137142D01*
X142082518Y-120137148D01*
X141993891Y-120302959D01*
X141939311Y-120482882D01*
X141939310Y-120482884D01*
X141920882Y-120670000D01*
X141650500Y-120670000D01*
X141650500Y-119447273D01*
X141650499Y-119447267D01*
X141645903Y-119430115D01*
X141645902Y-119430113D01*
X141645901Y-119430109D01*
X141623207Y-119345412D01*
X141570480Y-119254087D01*
X139748574Y-117432181D01*
X139715089Y-117370858D01*
X139720073Y-117301166D01*
X139761945Y-117245233D01*
X139827409Y-117220816D01*
X139836255Y-117220500D01*
X153735890Y-117220500D01*
X153735892Y-117220500D01*
X153863186Y-117186392D01*
X153977314Y-117120500D01*
X154070500Y-117027314D01*
X154136392Y-116913186D01*
X154170500Y-116785892D01*
X154170500Y-116664214D01*
X162580139Y-116664214D01*
X162600620Y-116806670D01*
X162658282Y-116932929D01*
X162660409Y-116937587D01*
X162754658Y-117046357D01*
X162875733Y-117124167D01*
X162875736Y-117124168D01*
X162875735Y-117124168D01*
X162992048Y-117158320D01*
X163044795Y-117189616D01*
X164563181Y-118708002D01*
X164596666Y-118769325D01*
X164599500Y-118795683D01*
X164599500Y-120401667D01*
X164579815Y-120468706D01*
X164579094Y-120469669D01*
X164574622Y-120476628D01*
X164514834Y-120607543D01*
X164494353Y-120750000D01*
X164514834Y-120892456D01*
X164522796Y-120909890D01*
X164574623Y-121023373D01*
X164668872Y-121132143D01*
X164789947Y-121209953D01*
X164789950Y-121209954D01*
X164789949Y-121209954D01*
X164897107Y-121241417D01*
X164923979Y-121249308D01*
X164928036Y-121250499D01*
X164928038Y-121250500D01*
X164928039Y-121250500D01*
X165071962Y-121250500D01*
X165071962Y-121250499D01*
X165210053Y-121209953D01*
X165331128Y-121132143D01*
X165425377Y-121023373D01*
X165485165Y-120892457D01*
X165505647Y-120750000D01*
X165485165Y-120607543D01*
X165425377Y-120476627D01*
X165425374Y-120476624D01*
X165420582Y-120469166D01*
X165423621Y-120467212D01*
X165401749Y-120419224D01*
X165400500Y-120401667D01*
X165400500Y-118525703D01*
X165400500Y-118525701D01*
X165373207Y-118423841D01*
X165320480Y-118332515D01*
X165245913Y-118257948D01*
X163610415Y-116622450D01*
X163576930Y-116561127D01*
X163575358Y-116552412D01*
X163570951Y-116521760D01*
X163570950Y-116521754D01*
X163511163Y-116390842D01*
X163511162Y-116390840D01*
X163484070Y-116359574D01*
X163416914Y-116282071D01*
X163295839Y-116204261D01*
X163295837Y-116204260D01*
X163295835Y-116204259D01*
X163295836Y-116204259D01*
X163157749Y-116163714D01*
X163157747Y-116163714D01*
X163013825Y-116163714D01*
X163013822Y-116163714D01*
X162875735Y-116204259D01*
X162754659Y-116282070D01*
X162660409Y-116390840D01*
X162660408Y-116390842D01*
X162600620Y-116521757D01*
X162580139Y-116664214D01*
X154170500Y-116664214D01*
X154170500Y-107654108D01*
X154136392Y-107526814D01*
X154070500Y-107412686D01*
X153977314Y-107319500D01*
X153920250Y-107286554D01*
X153863187Y-107253608D01*
X153799539Y-107236554D01*
X153735892Y-107219500D01*
X146188556Y-107219500D01*
X146121517Y-107199815D01*
X146075762Y-107147011D01*
X146065818Y-107077853D01*
X146094843Y-107014297D01*
X146153621Y-106976523D01*
X146153622Y-106976523D01*
X146200098Y-106962876D01*
X146210050Y-106959954D01*
X146210051Y-106959954D01*
X146218806Y-106954328D01*
X146228949Y-106947809D01*
X146271936Y-106920184D01*
X146338974Y-106900500D01*
X155782745Y-106900500D01*
X155849784Y-106920185D01*
X155870426Y-106936819D01*
X158504087Y-109570480D01*
X158595412Y-109623207D01*
X158697273Y-109650500D01*
X158802727Y-109650500D01*
X169782745Y-109650500D01*
X169849784Y-109670185D01*
X169870426Y-109686819D01*
X178455767Y-118272159D01*
X178455777Y-118272170D01*
X178460107Y-118276500D01*
X178460108Y-118276501D01*
X178534675Y-118351068D01*
X178626001Y-118403795D01*
X178727861Y-118431089D01*
X178727863Y-118431089D01*
X178840911Y-118431089D01*
X178840927Y-118431088D01*
X178926624Y-118431088D01*
X178993662Y-118450772D01*
X179055547Y-118490542D01*
X179162705Y-118522005D01*
X179175290Y-118525701D01*
X179193634Y-118531087D01*
X179193636Y-118531088D01*
X179193637Y-118531088D01*
X179337560Y-118531088D01*
X179337560Y-118531087D01*
X179475651Y-118490541D01*
X179596726Y-118412731D01*
X179690975Y-118303961D01*
X179738048Y-118200886D01*
X179783800Y-118148086D01*
X179850840Y-118128401D01*
X179885775Y-118133424D01*
X179901477Y-118138035D01*
X180045400Y-118138035D01*
X180045400Y-118138034D01*
X180183488Y-118097489D01*
X180183489Y-118097489D01*
X180190345Y-118093083D01*
X180233292Y-118065482D01*
X180300330Y-118045798D01*
X180367370Y-118065482D01*
X180394044Y-118088596D01*
X180424033Y-118123206D01*
X180434000Y-118134708D01*
X180555075Y-118212518D01*
X180555078Y-118212519D01*
X180555077Y-118212519D01*
X180662235Y-118243982D01*
X180684431Y-118250500D01*
X180693164Y-118253064D01*
X180693166Y-118253065D01*
X180693167Y-118253065D01*
X180837090Y-118253065D01*
X180837090Y-118253064D01*
X180975181Y-118212518D01*
X181096256Y-118134708D01*
X181190505Y-118025938D01*
X181250293Y-117895022D01*
X181270775Y-117752565D01*
X181250293Y-117610108D01*
X181190505Y-117479192D01*
X181190502Y-117479189D01*
X181185710Y-117471731D01*
X181188749Y-117469777D01*
X181166877Y-117421789D01*
X181165628Y-117404232D01*
X181165628Y-117386551D01*
X181165628Y-117386548D01*
X181152083Y-117335996D01*
X181138335Y-117284687D01*
X181085608Y-117193362D01*
X169504427Y-105612181D01*
X169470942Y-105550858D01*
X169475926Y-105481166D01*
X169517798Y-105425233D01*
X169583262Y-105400816D01*
X169592108Y-105400500D01*
X174782745Y-105400500D01*
X174849784Y-105420185D01*
G37*
%TD.AperFunction*%
%TA.AperFunction,Conductor*%
G36*
X110349074Y-124160185D02*
G01*
X110369716Y-124176819D01*
X111185084Y-124992187D01*
X111216359Y-125049463D01*
X111217004Y-125049274D01*
X111217874Y-125052238D01*
X111218569Y-125053510D01*
X111219080Y-125056344D01*
X111219504Y-125057789D01*
X111263139Y-125153334D01*
X111279292Y-125188704D01*
X111373541Y-125297474D01*
X111494616Y-125375284D01*
X111494619Y-125375285D01*
X111494618Y-125375285D01*
X111632705Y-125415830D01*
X111632707Y-125415831D01*
X111632708Y-125415831D01*
X111776631Y-125415831D01*
X111776631Y-125415830D01*
X111914722Y-125375284D01*
X112035797Y-125297474D01*
X112130046Y-125188704D01*
X112174026Y-125092401D01*
X112219781Y-125039598D01*
X112286820Y-125019914D01*
X112353860Y-125039599D01*
X112399614Y-125092403D01*
X112410820Y-125143914D01*
X112410820Y-128368999D01*
X112391135Y-128436038D01*
X112374501Y-128456680D01*
X111966087Y-128865094D01*
X111966077Y-128865105D01*
X111959010Y-128874315D01*
X111902582Y-128915517D01*
X111832836Y-128919670D01*
X111772955Y-128886508D01*
X110062814Y-127176367D01*
X110029329Y-127115044D01*
X110034313Y-127045352D01*
X110073668Y-126992132D01*
X110073641Y-126992101D01*
X110073601Y-126992061D01*
X110073603Y-126992058D01*
X110073428Y-126991858D01*
X110074690Y-126990751D01*
X110075023Y-126990300D01*
X110076471Y-126989190D01*
X110350296Y-126715365D01*
X110669182Y-126396480D01*
X110669185Y-126396475D01*
X110669190Y-126396471D01*
X110738995Y-126305500D01*
X110797588Y-126164042D01*
X110817574Y-126012240D01*
X110797588Y-125860439D01*
X110738995Y-125718981D01*
X110738994Y-125718980D01*
X110738994Y-125718979D01*
X110683411Y-125646543D01*
X110669190Y-125628010D01*
X110669189Y-125628009D01*
X110669182Y-125628001D01*
X109739897Y-124698716D01*
X109739888Y-124698708D01*
X109648918Y-124628903D01*
X109648915Y-124628902D01*
X109507459Y-124570310D01*
X109355659Y-124550324D01*
X109355657Y-124550324D01*
X109279757Y-124560317D01*
X109203856Y-124570310D01*
X109203855Y-124570310D01*
X109203852Y-124570311D01*
X109147512Y-124593647D01*
X109078043Y-124601114D01*
X109015564Y-124569838D01*
X108979913Y-124509749D01*
X108982408Y-124439923D01*
X108985484Y-124431675D01*
X109014306Y-124362093D01*
X109029286Y-124248314D01*
X109057553Y-124184417D01*
X109115878Y-124145947D01*
X109152225Y-124140500D01*
X110282035Y-124140500D01*
X110349074Y-124160185D01*
G37*
%TD.AperFunction*%
%TA.AperFunction,Conductor*%
G36*
X106861843Y-105182244D02*
G01*
X106882485Y-105198878D01*
X112752534Y-111068926D01*
X112786019Y-111130249D01*
X112781035Y-111199941D01*
X112739163Y-111255874D01*
X112702867Y-111273506D01*
X112702937Y-111273674D01*
X112700111Y-111274845D01*
X112696949Y-111276381D01*
X112695413Y-111276793D01*
X112695172Y-111276932D01*
X112695149Y-111276945D01*
X112604093Y-111329515D01*
X112604085Y-111329521D01*
X111459009Y-112474597D01*
X111406263Y-112505893D01*
X111289949Y-112540045D01*
X111168873Y-112617856D01*
X111074623Y-112726626D01*
X111074622Y-112726628D01*
X111014834Y-112857543D01*
X110994353Y-113000000D01*
X111014834Y-113142456D01*
X111061403Y-113244426D01*
X111074623Y-113273373D01*
X111168872Y-113382143D01*
X111289947Y-113459953D01*
X111289950Y-113459954D01*
X111289949Y-113459954D01*
X111428036Y-113500499D01*
X111428038Y-113500500D01*
X111428039Y-113500500D01*
X111571962Y-113500500D01*
X111571962Y-113500499D01*
X111710053Y-113459953D01*
X111831128Y-113382143D01*
X111925377Y-113273373D01*
X111985165Y-113142457D01*
X111989573Y-113111795D01*
X112018594Y-113048244D01*
X112024615Y-113041776D01*
X112979574Y-112086819D01*
X113040897Y-112053334D01*
X113067255Y-112050500D01*
X114083745Y-112050500D01*
X114150784Y-112070185D01*
X114196539Y-112122989D01*
X114206483Y-112192147D01*
X114177458Y-112255703D01*
X114171426Y-112262181D01*
X113959009Y-112474597D01*
X113906263Y-112505893D01*
X113789949Y-112540045D01*
X113668873Y-112617856D01*
X113574623Y-112726626D01*
X113574622Y-112726628D01*
X113514834Y-112857543D01*
X113494353Y-113000000D01*
X113514834Y-113142456D01*
X113561403Y-113244426D01*
X113574623Y-113273373D01*
X113668872Y-113382143D01*
X113789947Y-113459953D01*
X113789950Y-113459954D01*
X113789949Y-113459954D01*
X113928036Y-113500499D01*
X113928038Y-113500500D01*
X113928039Y-113500500D01*
X114071962Y-113500500D01*
X114071962Y-113500499D01*
X114210053Y-113459953D01*
X114331128Y-113382143D01*
X114425377Y-113273373D01*
X114485165Y-113142457D01*
X114489573Y-113111793D01*
X114518594Y-113048243D01*
X114524614Y-113041776D01*
X114629574Y-112936818D01*
X114690897Y-112903334D01*
X114717254Y-112900500D01*
X115166441Y-112900500D01*
X115233480Y-112920185D01*
X115279235Y-112972989D01*
X115289179Y-113042147D01*
X115279235Y-113076012D01*
X115264834Y-113107543D01*
X115244353Y-113250000D01*
X115264834Y-113392457D01*
X115264835Y-113392458D01*
X115315697Y-113503830D01*
X115325641Y-113572988D01*
X115296616Y-113636544D01*
X115290584Y-113643022D01*
X111642424Y-117291182D01*
X111581101Y-117324667D01*
X111511409Y-117319683D01*
X111487706Y-117307818D01*
X111475644Y-117300066D01*
X111460053Y-117290047D01*
X111460051Y-117290046D01*
X111460049Y-117290045D01*
X111321963Y-117249500D01*
X111321961Y-117249500D01*
X111178039Y-117249500D01*
X111178036Y-117249500D01*
X111039949Y-117290045D01*
X110918873Y-117367856D01*
X110824623Y-117476626D01*
X110824622Y-117476628D01*
X110764834Y-117607543D01*
X110744353Y-117750000D01*
X110764834Y-117892456D01*
X110800183Y-117969858D01*
X110810127Y-118039017D01*
X110781102Y-118102573D01*
X110722324Y-118140347D01*
X110652454Y-118140347D01*
X110599708Y-118109051D01*
X106390171Y-113899513D01*
X106390170Y-113899512D01*
X106275432Y-113822847D01*
X106147957Y-113770046D01*
X106147947Y-113770043D01*
X106012621Y-113743125D01*
X106012619Y-113743125D01*
X106012618Y-113743125D01*
X105039191Y-113743125D01*
X104972152Y-113723440D01*
X104926397Y-113670636D01*
X104924630Y-113666578D01*
X104912189Y-113636544D01*
X104868623Y-113531366D01*
X104775415Y-113409894D01*
X104672747Y-113331115D01*
X104653942Y-113316685D01*
X104549372Y-113273371D01*
X104512486Y-113258092D01*
X104498275Y-113256221D01*
X104398807Y-113243125D01*
X104398800Y-113243125D01*
X103560568Y-113243125D01*
X103560563Y-113243125D01*
X103560555Y-113243126D01*
X103550678Y-113244426D01*
X103481643Y-113233656D01*
X103429390Y-113187273D01*
X103410500Y-113121486D01*
X103410500Y-110703413D01*
X103430185Y-110636374D01*
X103482989Y-110590619D01*
X103546777Y-110581059D01*
X103546832Y-110580234D01*
X103550627Y-110580482D01*
X103550686Y-110580474D01*
X103550747Y-110580482D01*
X103550884Y-110580500D01*
X103550891Y-110580500D01*
X104389109Y-110580500D01*
X104389116Y-110580500D01*
X104502802Y-110565533D01*
X104644259Y-110506939D01*
X104765731Y-110413731D01*
X104858939Y-110292259D01*
X104917533Y-110150802D01*
X104932500Y-110037116D01*
X104932500Y-108730624D01*
X104952185Y-108663585D01*
X105004989Y-108617830D01*
X105074147Y-108607886D01*
X105137703Y-108636911D01*
X105144181Y-108642943D01*
X105623181Y-109121943D01*
X105656666Y-109183266D01*
X105659500Y-109209624D01*
X105659500Y-110582371D01*
X105639815Y-110649410D01*
X105629214Y-110663572D01*
X105574294Y-110726954D01*
X105574291Y-110726959D01*
X105514503Y-110857874D01*
X105494022Y-111000331D01*
X105514503Y-111142787D01*
X105574278Y-111273674D01*
X105574292Y-111273704D01*
X105668541Y-111382474D01*
X105789616Y-111460284D01*
X105789619Y-111460285D01*
X105789618Y-111460285D01*
X105896776Y-111491748D01*
X105926577Y-111500499D01*
X105927705Y-111500830D01*
X105927707Y-111500831D01*
X105927708Y-111500831D01*
X106071631Y-111500831D01*
X106071631Y-111500830D01*
X106209722Y-111460284D01*
X106330797Y-111382474D01*
X106425046Y-111273704D01*
X106484618Y-111143260D01*
X106490011Y-111132801D01*
X106529799Y-111063886D01*
X106532789Y-111052727D01*
X106534527Y-111046243D01*
X106536650Y-111038318D01*
X106560500Y-110949309D01*
X106560500Y-108912350D01*
X106529799Y-108797773D01*
X106500450Y-108746939D01*
X106470489Y-108695045D01*
X104982019Y-107206575D01*
X104948534Y-107145252D01*
X104945700Y-107118894D01*
X104945700Y-106187749D01*
X104945699Y-106187735D01*
X104943388Y-106170185D01*
X104930733Y-106074057D01*
X104872139Y-105932600D01*
X104778931Y-105811128D01*
X104657459Y-105717920D01*
X104657458Y-105717919D01*
X104555899Y-105675852D01*
X104516002Y-105659326D01*
X104498400Y-105657008D01*
X104469001Y-105653138D01*
X104405105Y-105624871D01*
X104366635Y-105566546D01*
X104365804Y-105496681D01*
X104402877Y-105437458D01*
X104419213Y-105425207D01*
X104472262Y-105391875D01*
X104599816Y-105264321D01*
X104608814Y-105250000D01*
X104627297Y-105220586D01*
X104679631Y-105174296D01*
X104732290Y-105162559D01*
X106794804Y-105162559D01*
X106861843Y-105182244D01*
G37*
%TD.AperFunction*%
%TA.AperFunction,Conductor*%
G36*
X139129496Y-107470185D02*
G01*
X139175251Y-107522989D01*
X139185195Y-107592147D01*
X139182234Y-107606581D01*
X139169500Y-107654108D01*
X139169500Y-107654110D01*
X139169500Y-116564966D01*
X139149815Y-116632005D01*
X139097011Y-116677760D01*
X139027853Y-116687704D01*
X138983500Y-116672353D01*
X138951899Y-116654108D01*
X138904589Y-116626793D01*
X138853657Y-116613146D01*
X138802727Y-116599500D01*
X138802726Y-116599500D01*
X133217255Y-116599500D01*
X133150216Y-116579815D01*
X133129574Y-116563181D01*
X132931794Y-116365401D01*
X132898309Y-116304078D01*
X132895475Y-116277720D01*
X132895475Y-116093307D01*
X132915160Y-116026268D01*
X132915876Y-116025311D01*
X132920343Y-116018357D01*
X132920352Y-116018348D01*
X132980140Y-115887432D01*
X133000622Y-115744975D01*
X132980140Y-115602518D01*
X132920352Y-115471602D01*
X132826103Y-115362832D01*
X132811453Y-115353417D01*
X132765699Y-115300614D01*
X132755755Y-115231456D01*
X132784779Y-115167900D01*
X132811455Y-115144786D01*
X132812361Y-115144204D01*
X132831128Y-115132143D01*
X132925377Y-115023373D01*
X132985165Y-114892457D01*
X133005647Y-114750000D01*
X132985165Y-114607543D01*
X132925377Y-114476627D01*
X132831128Y-114367857D01*
X132710053Y-114290047D01*
X132710050Y-114290045D01*
X132575312Y-114250483D01*
X132516534Y-114212709D01*
X132487509Y-114149153D01*
X132497453Y-114079995D01*
X132522563Y-114043828D01*
X134070480Y-112495913D01*
X134098562Y-112447273D01*
X134123207Y-112404587D01*
X134150500Y-112302727D01*
X134150500Y-108967255D01*
X134170185Y-108900216D01*
X134186819Y-108879574D01*
X135579574Y-107486819D01*
X135640897Y-107453334D01*
X135667255Y-107450500D01*
X139062457Y-107450500D01*
X139129496Y-107470185D01*
G37*
%TD.AperFunction*%
%TA.AperFunction,Conductor*%
G36*
X188427848Y-103276560D02*
G01*
X188473603Y-103329364D01*
X188475370Y-103333422D01*
X188531376Y-103468633D01*
X188531377Y-103468634D01*
X188624585Y-103590106D01*
X188746057Y-103683314D01*
X188887514Y-103741908D01*
X189001200Y-103756875D01*
X189001207Y-103756875D01*
X189839425Y-103756875D01*
X189839432Y-103756875D01*
X189869315Y-103752940D01*
X189938347Y-103763704D01*
X189990604Y-103810082D01*
X190009500Y-103875879D01*
X190009500Y-106299220D01*
X189989815Y-106366259D01*
X189937011Y-106412014D01*
X189869315Y-106422159D01*
X189849126Y-106419501D01*
X189849121Y-106419500D01*
X189849116Y-106419500D01*
X189010884Y-106419500D01*
X189010876Y-106419500D01*
X188897198Y-106434467D01*
X188897197Y-106434467D01*
X188755741Y-106493060D01*
X188634269Y-106586269D01*
X188541060Y-106707741D01*
X188482467Y-106849197D01*
X188482467Y-106849198D01*
X188467500Y-106962876D01*
X188467500Y-108277123D01*
X188482467Y-108390801D01*
X188482467Y-108390802D01*
X188541060Y-108532258D01*
X188541061Y-108532259D01*
X188634269Y-108653731D01*
X188755741Y-108746939D01*
X188812082Y-108770276D01*
X188866483Y-108814115D01*
X188888548Y-108880409D01*
X188871269Y-108948108D01*
X188820133Y-108995719D01*
X188812081Y-108999397D01*
X188742540Y-109028202D01*
X188621069Y-109121410D01*
X188527860Y-109242882D01*
X188469267Y-109384338D01*
X188469267Y-109384339D01*
X188454300Y-109498017D01*
X188454300Y-110812264D01*
X188469267Y-110925942D01*
X188469267Y-110925943D01*
X188527860Y-111067399D01*
X188527861Y-111067400D01*
X188621069Y-111188872D01*
X188742541Y-111282080D01*
X188883998Y-111340674D01*
X188930997Y-111346861D01*
X188994892Y-111375127D01*
X189033364Y-111433451D01*
X189034196Y-111503316D01*
X188997124Y-111562540D01*
X188980784Y-111574793D01*
X188927740Y-111608123D01*
X188927737Y-111608125D01*
X188800182Y-111735680D01*
X188772703Y-111779414D01*
X188720369Y-111825704D01*
X188667710Y-111837441D01*
X187705196Y-111837441D01*
X187638157Y-111817756D01*
X187617515Y-111801122D01*
X186774629Y-110958236D01*
X186741144Y-110896913D01*
X186739572Y-110888198D01*
X186737017Y-110870426D01*
X186735165Y-110857543D01*
X186675377Y-110726627D01*
X186581128Y-110617857D01*
X186460053Y-110540047D01*
X186460051Y-110540046D01*
X186460049Y-110540045D01*
X186460050Y-110540045D01*
X186321961Y-110499499D01*
X186321645Y-110499454D01*
X186321354Y-110499321D01*
X186313452Y-110497001D01*
X186313785Y-110495864D01*
X186258091Y-110470424D01*
X186220320Y-110411644D01*
X186220325Y-110341774D01*
X186251617Y-110289038D01*
X187874114Y-108666543D01*
X187950775Y-108551811D01*
X188003580Y-108424328D01*
X188030500Y-108288994D01*
X188030500Y-108151006D01*
X188030500Y-103581519D01*
X188050185Y-103514480D01*
X188066819Y-103493838D01*
X188267463Y-103293194D01*
X188328786Y-103259709D01*
X188355144Y-103256875D01*
X188360809Y-103256875D01*
X188427848Y-103276560D01*
G37*
%TD.AperFunction*%
%TD*%
%TA.AperFunction,Conductor*%
%TO.N,VCC*%
G36*
X165841901Y-92715456D02*
G01*
X165885084Y-92723511D01*
X165998691Y-92766596D01*
X166064727Y-92791641D01*
X166064729Y-92791641D01*
X166064733Y-92791643D01*
X166358448Y-92864038D01*
X166609659Y-92894540D01*
X166658744Y-92900501D01*
X174376000Y-92900501D01*
X174443039Y-92920186D01*
X174488794Y-92972990D01*
X174500000Y-93024501D01*
X174500000Y-95955106D01*
X174480315Y-96022145D01*
X174471259Y-96034489D01*
X172037432Y-98955080D01*
X171979393Y-98993979D01*
X171941527Y-98999695D01*
X161060131Y-98943020D01*
X160993195Y-98922987D01*
X160973096Y-98906703D01*
X160436819Y-98370426D01*
X160403334Y-98309103D01*
X160400500Y-98282745D01*
X160400500Y-96062729D01*
X160400501Y-96062716D01*
X160400501Y-95947274D01*
X160400501Y-95947273D01*
X160373207Y-95845413D01*
X160320480Y-95754087D01*
X160245913Y-95679520D01*
X160245912Y-95679519D01*
X160241582Y-95675189D01*
X160241571Y-95675179D01*
X159524629Y-94958236D01*
X159491144Y-94896913D01*
X159489572Y-94888198D01*
X159485165Y-94857546D01*
X159485164Y-94857540D01*
X159425377Y-94726628D01*
X159425376Y-94726626D01*
X159331128Y-94617857D01*
X159210053Y-94540047D01*
X159210051Y-94540046D01*
X159210049Y-94540045D01*
X159210050Y-94540045D01*
X159071963Y-94499500D01*
X159071961Y-94499500D01*
X158928039Y-94499500D01*
X158928036Y-94499500D01*
X158789949Y-94540045D01*
X158668873Y-94617856D01*
X158574623Y-94726626D01*
X158574622Y-94726628D01*
X158514834Y-94857543D01*
X158494353Y-95000000D01*
X158514834Y-95142456D01*
X158574622Y-95273371D01*
X158574623Y-95273373D01*
X158668872Y-95382143D01*
X158789947Y-95459953D01*
X158789950Y-95459954D01*
X158789949Y-95459954D01*
X158906262Y-95494106D01*
X158959009Y-95525402D01*
X159563181Y-96129573D01*
X159596666Y-96190896D01*
X159599500Y-96217254D01*
X159599500Y-98552726D01*
X159626793Y-98654589D01*
X159653131Y-98700207D01*
X159679520Y-98745913D01*
X159679521Y-98745914D01*
X159681464Y-98749279D01*
X159697937Y-98817179D01*
X159675085Y-98883206D01*
X159620164Y-98926397D01*
X159573431Y-98935278D01*
X124635238Y-98753308D01*
X124000000Y-98750000D01*
X123999999Y-98750000D01*
X123629444Y-98935278D01*
X122526181Y-99486909D01*
X122470728Y-99500000D01*
X115874294Y-99500000D01*
X115807255Y-99480315D01*
X115761500Y-99427511D01*
X115750294Y-99375707D01*
X115752878Y-98282745D01*
X115765312Y-93024204D01*
X115785155Y-92957215D01*
X115838067Y-92911585D01*
X115889312Y-92900501D01*
X126683489Y-92900501D01*
X126683505Y-92900500D01*
X126761255Y-92900500D01*
X126806631Y-92894990D01*
X127061552Y-92864037D01*
X127355266Y-92791642D01*
X127638113Y-92684373D01*
X127905967Y-92543792D01*
X127970461Y-92499274D01*
X128036812Y-92477392D01*
X128041639Y-92477327D01*
X165841901Y-92715456D01*
G37*
%TD.AperFunction*%
%TD*%
M02*
