%TF.GenerationSoftware,KiCad,Pcbnew,8.0.1*%
%TF.CreationDate,2025-03-10T11:27:29+01:00*%
%TF.ProjectId,main_board,6d61696e-5f62-46f6-9172-642e6b696361,rev?*%
%TF.SameCoordinates,Original*%
%TF.FileFunction,Profile,NP*%
%FSLAX46Y46*%
G04 Gerber Fmt 4.6, Leading zero omitted, Abs format (unit mm)*
G04 Created by KiCad (PCBNEW 8.0.1) date 2025-03-10 11:27:29*
%MOMM*%
%LPD*%
G01*
G04 APERTURE LIST*
%TA.AperFunction,Profile*%
%ADD10C,0.200000*%
%TD*%
%TA.AperFunction,Profile*%
%ADD11C,0.050000*%
%TD*%
%TA.AperFunction,Profile*%
%ADD12C,0.010000*%
%TD*%
G04 APERTURE END LIST*
D10*
X142182960Y-133961262D02*
X130881628Y-130933079D01*
X102910000Y-116500001D02*
X100310000Y-116500001D01*
X103140000Y-140370000D02*
G75*
G02*
X100640000Y-140370000I-1250000J0D01*
G01*
X100640000Y-140370000D02*
G75*
G02*
X103140000Y-140370000I1250000J0D01*
G01*
X154717591Y-131449855D02*
X166018923Y-128421672D01*
X195810000Y-133348890D02*
G75*
G02*
X193810002Y-135348900I-2000000J-10D01*
G01*
X190510000Y-100500001D02*
X193110000Y-100500001D01*
X118034366Y-146270000D02*
X118034366Y-138470000D01*
X180749345Y-134055996D02*
X178910868Y-132217519D01*
X99609999Y-135348889D02*
G75*
G02*
X97610011Y-133348891I1J1999989D01*
G01*
X166809999Y-92400001D02*
G75*
G02*
X164809999Y-90400002I1J2000001D01*
G01*
X100310000Y-116500001D02*
X100310000Y-104800001D01*
X101710000Y-95000001D02*
G75*
G02*
X98710000Y-95000001I-1500000J0D01*
G01*
X98710000Y-95000001D02*
G75*
G02*
X101710000Y-95000001I1500000J0D01*
G01*
X155390521Y-133961262D02*
X154717591Y-131449855D01*
X97610000Y-94400000D02*
X97610000Y-133348891D01*
X98034366Y-138470000D02*
G75*
G02*
X98634366Y-137869966I600034J0D01*
G01*
X98634366Y-146870000D02*
X117434366Y-146870000D01*
X194710000Y-95000001D02*
G75*
G02*
X191710000Y-95000001I-1500000J0D01*
G01*
X191710000Y-95000001D02*
G75*
G02*
X194710000Y-95000001I1500000J0D01*
G01*
X103140000Y-144370000D02*
G75*
G02*
X100640000Y-144370000I-1250000J0D01*
G01*
X100640000Y-144370000D02*
G75*
G02*
X103140000Y-144370000I1250000J0D01*
G01*
X178910868Y-132217519D02*
X187184017Y-123944369D01*
X130881628Y-130933079D02*
X131554558Y-128421672D01*
D11*
X98634366Y-137870000D02*
X99609999Y-135348889D01*
D10*
X193110000Y-100500001D02*
X193110000Y-112200001D01*
X128610000Y-66400000D02*
G75*
G02*
X130609998Y-64400000I2000000J0D01*
G01*
X131554558Y-128421672D02*
X142855890Y-131449855D01*
X101710000Y-122884369D02*
G75*
G02*
X98710000Y-122884369I-1500000J0D01*
G01*
X98710000Y-122884369D02*
G75*
G02*
X101710000Y-122884369I1500000J0D01*
G01*
X103710000Y-125208323D02*
X105548478Y-123369845D01*
D11*
X118034366Y-138470000D02*
X119500000Y-135350306D01*
D10*
X111983149Y-133481472D02*
X103710000Y-125208323D01*
X194710000Y-122884369D02*
G75*
G02*
X191710000Y-122884369I-1500000J0D01*
G01*
X191710000Y-122884369D02*
G75*
G02*
X194710000Y-122884369I1500000J0D01*
G01*
X162810001Y-64400001D02*
G75*
G02*
X164809999Y-66400000I-1J-1999999D01*
G01*
X100310000Y-104800001D02*
X102910000Y-104800001D01*
X142855890Y-131449855D02*
X142182960Y-133961262D01*
X166018923Y-128421672D02*
X166691853Y-130933079D01*
X189022495Y-125782847D02*
X180749345Y-134055996D01*
D11*
X119500000Y-135350306D02*
X193810002Y-135348889D01*
D10*
X128610000Y-90400002D02*
G75*
G02*
X126610001Y-92400000I-2000000J2D01*
G01*
X98034366Y-138470000D02*
X98034366Y-146270001D01*
X187184017Y-123944369D02*
X189022495Y-125782847D01*
X190510000Y-112200001D02*
X190510000Y-100500001D01*
X193810001Y-92400001D02*
X166809999Y-92400001D01*
X97610000Y-94400000D02*
G75*
G02*
X99609998Y-92400000I2000000J0D01*
G01*
X166691853Y-130933079D02*
X155390521Y-133961262D01*
X105548478Y-123369845D02*
X113821627Y-131642994D01*
X98634366Y-146870000D02*
G75*
G02*
X98034400Y-146270001I34J600000D01*
G01*
X195810000Y-133348890D02*
X195810000Y-94400000D01*
X164810000Y-90400002D02*
X164810000Y-66400000D01*
X162810001Y-64400001D02*
X130609998Y-64400001D01*
X126610001Y-92400001D02*
X99609998Y-92400001D01*
X128610000Y-66400000D02*
X128610000Y-90400002D01*
X118034366Y-146270000D02*
G75*
G02*
X117434366Y-146869966I-599966J0D01*
G01*
X193110000Y-112200001D02*
X190510000Y-112200001D01*
X193810001Y-92400001D02*
G75*
G02*
X195809999Y-94400000I-1J-1999999D01*
G01*
X102910000Y-104800001D02*
X102910000Y-116500001D01*
X113821627Y-131642994D02*
X111983149Y-133481472D01*
D12*
%TO.C,U1*%
X139670000Y-107720000D02*
X153670000Y-107720000D01*
X139670000Y-116720000D02*
X139670000Y-107720000D01*
X153670000Y-107720000D02*
X153670000Y-116720000D01*
X153670000Y-116720000D02*
X139670000Y-116720000D01*
%TD*%
M02*
